<?xml version="1.0" standalone="no"?>
<!DOCTYPE svg PUBLIC "-//W3C//DTD SVG 1.1//EN" "http://www.w3.org/Graphics/SVG/1.1/DTD/svg11.dtd" >
<svg>
<metadata>
Created by FontForge 20120731 at Mon Jul  8 17:09:48 2019
 By www
Copyright 1990-1999 as an unpublished work by Bitstream Inc.  All rights reserved.  Confidential.
</metadata>
<defs>
<font id="CenturyExpandedBT-Bold" horiz-adv-x="500" >
  <font-face 
    font-family="Century Expanded"
    font-weight="700"
    font-stretch="normal"
    units-per-em="1000"
    panose-1="0 0 0 0 0 0 0 0 0 0"
    ascent="800"
    descent="-200"
    x-height="479"
    cap-height="722"
    bbox="-167 -236 1215 981"
    underline-thickness="84"
    underline-position="-50"
    stemh="34"
    stemv="130"
    unicode-range="U+0020-FB02"
  />
<missing-glyph horiz-adv-x="247" 
 />
    <glyph glyph-name=".notdef" horiz-adv-x="247" 
 />
    <glyph glyph-name="space" unicode=" " horiz-adv-x="247" 
 />
    <glyph glyph-name="exclam" unicode="!" horiz-adv-x="292" 
d="M64 66c0 46 37 82 82 82s82 -36 82 -82c0 -45 -37 -82 -82 -82c-46 0 -82 37 -82 82zM133 224c-1 91 -10 171 -28 242c-17 66 -39 121 -39 171c0 63 32 99 80 99s79 -36 79 -99c0 -50 -21 -105 -38 -171c-18 -71 -27 -151 -28 -242h-26z" />
    <glyph glyph-name="quotedbl" unicode="&#x22;" horiz-adv-x="339" 
d="M78 418l-36 224c-1 7 -1 13 -1 19c0 34 17 53 46 53c30 0 47 -18 47 -53c0 -6 0 -13 -1 -19l-36 -224h-19zM242 418l-36 224c-1 7 -1 13 -1 19c0 34 18 53 47 53s47 -19 47 -52c0 -7 -1 -13 -2 -20l-36 -224h-19z" />
    <glyph glyph-name="numbersign" unicode="#" horiz-adv-x="769" 
d="M449 713l-76 -213h131l76 213h89l-76 -213h142l-29 -81h-142l-45 -128h150l-29 -82h-150l-75 -212h-90l76 212h-131l-75 -212h-90l76 212h-147l29 82h147l45 128h-156l30 81h155l76 213h89zM477 419h-134l-46 -129h134z" />
    <glyph glyph-name="dollar" unicode="$" horiz-adv-x="493" 
d="M227 -134v118c-122 6 -199 78 -199 155c0 49 32 85 75 85c40 0 70 -30 70 -68c0 -47 -27 -74 -78 -81c31 -38 78 -59 132 -59v288c-120 50 -178 114 -178 208c0 100 73 185 178 196v58h40v-58c103 -9 164 -64 164 -130c0 -51 -23 -78 -65 -78c-34 0 -57 24 -57 63
c0 41 22 63 68 71c-30 28 -66 43 -110 43v-242c132 -59 194 -128 194 -236c0 -111 -79 -202 -194 -215v-118h-40zM227 678c-68 -9 -110 -56 -110 -107c0 -46 36 -83 110 -116v223zM267 17c75 9 119 58 119 127s-35 100 -119 141v-268z" />
    <glyph glyph-name="percent" unicode="%" horiz-adv-x="845" 
d="M363 618c-26 11 -45 26 -63 49c-37 -4 -63 -36 -97 -92c-43 -71 -62 -132 -62 -169c0 -34 26 -60 61 -60c28 0 66 20 100 59c41 48 66 117 66 172c0 12 -2 25 -5 41zM179 -32l387 674c-42 -25 -79 -39 -120 -39c-15 0 -34 3 -55 9c2 -14 3 -26 3 -37
c0 -54 -21 -116 -60 -169c-47 -63 -99 -94 -164 -94c-83 0 -133 51 -133 135c0 53 20 107 60 158c52 67 116 102 183 102c44 0 73 -19 103 -64c22 -7 41 -11 56 -11c73 0 128 30 182 98h48l-437 -762h-53zM711 335c-29 0 -59 -22 -88 -67c-11 -16 -26 -47 -45 -93
c-18 -43 -28 -73 -28 -93c0 -41 23 -65 61 -65c28 0 57 15 86 45c50 52 80 124 80 185c0 56 -26 88 -66 88zM442 119c0 57 24 120 70 173c45 52 115 85 169 85c72 0 122 -52 122 -127c0 -58 -17 -114 -49 -163c-46 -70 -104 -104 -174 -104c-84 0 -138 54 -138 136z" />
    <glyph glyph-name="ampersand" unicode="&#x26;" horiz-adv-x="822" 
d="M767 149h28c-7 -105 -80 -174 -177 -174c-59 0 -112 22 -152 62c-67 -43 -133 -64 -206 -64c-140 0 -229 77 -229 188c0 94 69 170 208 226c-34 61 -51 122 -51 177c0 102 78 173 199 173c113 0 184 -62 184 -136c0 -68 -64 -124 -193 -169c81 -141 139 -231 173 -270
c51 58 75 111 75 151c0 55 -34 76 -112 77v30h267v-29c-71 -6 -92 -26 -113 -79c-14 -35 -33 -99 -92 -178c36 -49 73 -72 109 -72c41 0 65 27 82 87zM440 64c-43 44 -108 141 -190 292c-40 -16 -64 -60 -64 -122c0 -111 73 -192 167 -192c31 0 60 7 87 22zM366 457
c76 30 114 83 114 156c0 62 -32 95 -93 95c-57 0 -90 -33 -90 -87c0 -37 22 -94 69 -164z" />
    <glyph glyph-name="quoteright" unicode="&#x2019;" horiz-adv-x="275" 
d="M60 416l-12 23c67 41 100 86 100 135v4h-10c-54 0 -85 29 -85 76c0 48 32 80 84 80s86 -39 86 -104c0 -87 -56 -161 -163 -214z" />
    <glyph glyph-name="parenleft" unicode="(" horiz-adv-x="386" 
d="M319 -90v-26c-175 101 -271 258 -271 433c0 176 97 333 271 428v-26c-109 -75 -163 -209 -163 -403c0 -192 57 -331 163 -406z" />
    <glyph glyph-name="parenright" unicode=")" horiz-adv-x="386" 
d="M48 -90c106 76 163 214 163 406c0 194 -54 327 -163 403v26c174 -96 271 -252 271 -428c0 -175 -96 -331 -271 -433v26z" />
    <glyph glyph-name="asterisk" unicode="*" 
d="M242 537c-4 76 -47 115 -47 149c0 29 22 50 55 50s54 -21 54 -51c0 -29 -40 -70 -47 -147c28 16 49 39 69 69c20 29 31 52 64 52c27 0 52 -29 52 -59c0 -40 -27 -47 -73 -51c-37 -3 -70 -7 -103 -24c31 -18 65 -23 104 -26c47 -3 72 -14 72 -53c0 -31 -25 -57 -54 -57
s-42 21 -63 52s-41 54 -67 69c3 -74 47 -115 47 -148c0 -28 -21 -50 -55 -50c-33 0 -54 19 -54 50s42 73 47 147c-27 -16 -49 -39 -69 -69c-19 -29 -29 -51 -65 -51c-27 0 -52 29 -52 58c0 27 21 48 57 51c39 3 79 3 120 25c-43 23 -84 25 -124 27c-32 2 -53 21 -53 49
c0 32 25 60 56 60c30 0 40 -22 61 -53c19 -27 39 -51 68 -69z" />
    <glyph glyph-name="plus" unicode="+" horiz-adv-x="833" 
d="M458 596v-257h251v-81h-251v-258h-83v258h-251v81h251v257h83z" />
    <glyph glyph-name="comma" unicode="," horiz-adv-x="247" 
d="M22 -153c69 44 105 88 109 136c-5 0 -10 -1 -14 -1c-54 0 -83 27 -83 76c0 53 30 85 78 85c58 0 94 -40 94 -107c0 -82 -56 -157 -167 -216z" />
    <glyph glyph-name="hyphen" unicode="-" horiz-adv-x="329" 
d="M44 183v120h241v-120h-241z" />
    <glyph glyph-name="period" unicode="." horiz-adv-x="247" 
d="M44 65c0 51 33 83 80 83c45 0 79 -35 79 -83c0 -47 -33 -80 -79 -80c-47 0 -80 33 -80 80z" />
    <glyph glyph-name="slash" unicode="/" horiz-adv-x="273" 
d="M29 -93h-54l244 829h56z" />
    <glyph glyph-name="zero" unicode="0" horiz-adv-x="493" 
d="M165 346v-16c0 -221 1 -316 82 -316c77 0 81 86 81 281v87c0 204 -1 296 -81 296c-81 0 -82 -99 -82 -316v-16zM32 346c0 224 100 362 215 362s214 -136 214 -362c0 -225 -95 -362 -215 -362c-118 0 -214 136 -214 362z" />
    <glyph glyph-name="one" unicode="1" horiz-adv-x="493" 
d="M76 0v36h15c77 0 104 9 104 64v413c0 60 -36 84 -116 84h-15v35c108 4 176 23 213 76h49v-609c0 -54 26 -62 99 -62h16v-37h-365z" />
    <glyph glyph-name="two" unicode="2" horiz-adv-x="493" 
d="M23 0v37c34 81 91 153 155 231c75 91 131 162 131 262c0 89 -47 143 -120 143c-52 0 -91 -31 -105 -85c11 3 20 5 28 5c41 0 68 -30 68 -73c0 -41 -31 -73 -73 -73s-75 36 -75 87c0 98 79 176 203 176c130 0 215 -80 215 -183c0 -78 -49 -138 -140 -214
c-72 -60 -147 -112 -200 -193h198c71 0 97 20 110 103h25l-8 -223h-412z" />
    <glyph glyph-name="three" unicode="3" horiz-adv-x="493" 
d="M255 361v-8c134 -21 204 -83 204 -174c0 -111 -98 -196 -236 -196c-123 0 -199 73 -199 158c0 52 32 88 80 88c41 0 68 -28 68 -72c0 -40 -30 -66 -65 -66c-14 0 -28 3 -42 10c25 -53 72 -82 129 -82c80 0 122 58 122 171c0 109 -25 152 -110 152c-31 0 -48 -7 -52 -7
c-15 0 -23 10 -23 21c0 13 9 22 23 22c7 0 20 -5 41 -5c80 0 115 51 115 159c0 92 -32 137 -99 137c-46 0 -80 -22 -102 -56c53 -11 79 -34 79 -75c0 -37 -24 -63 -63 -63c-41 0 -73 35 -73 83c0 76 79 149 185 149c124 0 202 -71 202 -172c0 -88 -70 -160 -184 -174z" />
    <glyph glyph-name="four" unicode="4" horiz-adv-x="493" 
d="M144 0v29c68 2 93 18 93 68v72h-221v51l263 488h82v-497h97v-42h-97v-75c0 -41 25 -65 69 -65h8v-29h-294zM237 211v360l-193 -360h193z" />
    <glyph glyph-name="five" unicode="5" horiz-adv-x="493" 
d="M69 373l18 342c64 -17 120 -27 171 -27c85 0 137 30 159 30c8 0 13 -5 13 -11c0 -7 -10 -36 -34 -63c-48 -53 -102 -77 -174 -77c-42 0 -78 6 -110 19l-10 -177c41 24 81 36 125 36c138 0 235 -94 235 -222c0 -134 -105 -240 -247 -240c-114 0 -186 71 -186 164
c0 49 34 84 80 84c43 0 71 -30 71 -77c0 -42 -25 -66 -64 -66c-10 0 -21 1 -34 5c12 -47 52 -72 116 -72c87 0 121 62 121 193c0 129 -40 191 -130 191c-34 0 -64 -7 -88 -22c-3 -52 -11 -77 -36 -77c-10 0 -18 8 -18 20s8 27 22 47z" />
    <glyph glyph-name="six" unicode="6" horiz-adv-x="493" 
d="M161 186c0 -116 27 -172 88 -172c66 0 74 61 74 194c0 108 -15 158 -75 158c-66 0 -87 -58 -87 -180zM161 346c33 51 81 79 132 79c95 0 169 -81 169 -202c0 -142 -95 -239 -205 -239c-58 0 -103 23 -143 73c-58 71 -86 158 -86 261c0 112 33 215 93 295
c47 63 104 95 169 95c84 0 141 -52 141 -107c0 -43 -30 -74 -74 -74c-40 0 -70 30 -70 74c0 29 16 52 43 65c-14 9 -27 14 -40 14c-99 0 -129 -99 -129 -313v-21z" />
    <glyph glyph-name="seven" unicode="7" horiz-adv-x="493" 
d="M383 579h-197c-75 0 -100 -38 -112 -145l-26 1l22 262h397v-41c-97 -143 -145 -290 -145 -438c0 -61 4 -106 4 -135c0 -68 -22 -102 -76 -102c-50 0 -79 33 -79 91c0 112 84 271 212 507z" />
    <glyph glyph-name="eight" unicode="8" horiz-adv-x="493" 
d="M162 328c-74 50 -110 106 -110 177c0 122 79 205 198 205c116 0 185 -59 185 -150c0 -64 -37 -111 -112 -161c91 -49 139 -99 139 -194c0 -135 -85 -222 -224 -222c-129 0 -206 68 -206 166c0 61 44 123 130 179zM192 312c-53 -30 -84 -87 -84 -156
c0 -80 59 -139 139 -139c84 0 141 49 141 117s-65 112 -196 178zM299 412c44 40 65 86 65 138c0 79 -47 129 -121 129c-73 0 -120 -46 -120 -100c0 -65 61 -102 176 -167z" />
    <glyph glyph-name="nine" unicode="9" horiz-adv-x="493" 
d="M324 342c-32 -45 -76 -68 -130 -68c-96 0 -165 76 -165 198c0 136 90 236 210 236c133 0 223 -129 223 -338c0 -110 -33 -214 -86 -286c-50 -68 -107 -101 -184 -101c-82 0 -137 49 -137 117c0 49 28 78 73 78c41 0 68 -27 68 -74c0 -39 -22 -66 -54 -70
c10 -11 28 -17 55 -17c89 0 128 93 128 282c0 14 -1 28 -1 43zM162 496c0 -117 13 -171 74 -171c70 0 85 54 85 160c0 133 -14 194 -80 194c-63 0 -79 -57 -79 -183z" />
    <glyph glyph-name="colon" unicode=":" horiz-adv-x="272" 
d="M57 65c0 51 33 83 80 83c45 0 79 -35 79 -83c0 -47 -34 -80 -80 -80c-47 0 -79 33 -79 80zM57 405c0 51 33 84 80 84c45 0 79 -35 79 -83c0 -47 -34 -81 -80 -81c-47 0 -79 33 -79 80z" />
    <glyph glyph-name="semicolon" unicode=";" horiz-adv-x="272" 
d="M38 -151c69 44 105 88 109 136c-5 0 -10 -1 -14 -1c-54 0 -83 27 -83 76c0 53 31 85 79 85c58 0 94 -40 94 -107c0 -82 -57 -157 -168 -216zM54 405c0 51 33 84 80 84c45 0 79 -35 79 -83c0 -47 -33 -81 -79 -81c-47 0 -80 33 -80 80z" />
    <glyph glyph-name="less" unicode="&#x3c;" horiz-adv-x="833" 
d="M704 484l-456 -186l456 -186v-89l-575 236v78l575 237v-90z" />
    <glyph glyph-name="equal" unicode="=" horiz-adv-x="833" 
d="M709 440v-82h-585v82h585zM709 238v-81h-585v81h585z" />
    <glyph glyph-name="greater" unicode="&#x3e;" horiz-adv-x="833" 
d="M704 337v-78l-575 -236v89l456 186l-456 186v90z" />
    <glyph glyph-name="question" unicode="?" horiz-adv-x="441" 
d="M179 221c0 8 -1 17 -1 24c0 83 23 138 44 186c17 39 43 86 43 162c0 73 -31 111 -88 111c-38 0 -64 -14 -64 -25c0 -8 16 -7 34 -14c28 -10 44 -34 44 -66c0 -40 -36 -77 -81 -77s-77 35 -77 79c0 77 67 135 182 135c120 0 193 -61 193 -155c0 -84 -54 -121 -130 -180
c-48 -37 -67 -90 -67 -168v-12h-32zM111 66c0 46 37 82 82 82s82 -36 82 -82c0 -45 -37 -82 -82 -82c-46 0 -82 37 -82 82z" />
    <glyph glyph-name="at" unicode="@" horiz-adv-x="986" 
d="M610 377c0 55 -27 89 -67 89c-44 0 -76 -31 -109 -94c-39 -74 -57 -142 -57 -193c0 -56 28 -89 64 -89c42 0 75 28 109 85c39 67 60 148 60 202zM637 402l25 83h84l-84 -301c-4 -16 -8 -31 -8 -47c0 -32 15 -50 40 -50c19 0 55 13 86 38c71 57 111 147 111 253
c0 181 -135 303 -339 303c-112 0 -217 -43 -294 -122c-80 -81 -120 -186 -120 -314c0 -112 39 -199 117 -264c68 -57 162 -89 268 -89c109 0 209 34 305 102l18 -23c-96 -72 -206 -109 -323 -109c-125 0 -230 32 -304 88c-98 74 -151 183 -151 312c0 131 56 250 164 339
c87 72 194 110 314 110c227 0 374 -134 374 -337c0 -105 -41 -198 -111 -261c-40 -35 -84 -54 -128 -54c-63 0 -100 35 -104 100c-41 -67 -87 -99 -148 -99c-87 0 -142 65 -142 166c0 72 32 144 93 202c45 43 98 65 151 65c58 0 95 -31 106 -91z" />
    <glyph glyph-name="A" unicode="A" horiz-adv-x="711" 
d="M0 0v33c67 14 107 54 133 126l207 577h59l212 -625c18 -52 32 -78 94 -78v-33h-323v33c55 2 77 15 77 51c0 9 -2 23 -7 38l-33 95h-227l-23 -62c-8 -22 -12 -42 -12 -58c0 -38 36 -61 103 -64v-33h-260zM208 261h196l-95 284z" />
    <glyph glyph-name="B" unicode="B" horiz-adv-x="771" 
d="M24 0v35c78 0 102 11 102 72v512c0 55 -22 68 -94 68h-8v35h342c205 0 306 -52 306 -172c0 -92 -75 -153 -221 -174c167 -21 253 -90 253 -195c0 -123 -94 -181 -285 -181h-395zM282 395h73c109 0 154 34 154 151c0 111 -40 144 -155 144c-60 0 -72 -12 -72 -67v-228z
M282 362v-255c0 -56 5 -71 81 -71c114 0 166 50 166 161s-58 165 -176 165h-71z" />
    <glyph glyph-name="C" unicode="C" horiz-adv-x="706" 
d="M618 234h35c-3 -161 -104 -260 -262 -260c-73 0 -140 20 -197 60c-98 69 -156 184 -156 320c0 101 43 206 115 280c65 66 147 102 229 102c105 0 162 -55 183 -55c12 0 24 19 44 53h35l7 -269h-43c-40 158 -110 235 -217 235c-123 0 -181 -116 -181 -352
c0 -219 63 -328 193 -328c122 0 207 81 215 214z" />
    <glyph glyph-name="D" unicode="D" horiz-adv-x="766" 
d="M273 99c0 -56 12 -63 84 -63c157 0 203 95 203 319c0 240 -41 332 -216 332c-56 0 -71 -13 -71 -65v-523zM24 0v37c84 3 97 16 97 78v501c0 58 -23 74 -85 74h-12v32h301c87 0 160 -2 227 -39c107 -59 177 -183 177 -320c0 -139 -63 -255 -165 -315
c-73 -43 -154 -48 -254 -48h-286z" />
    <glyph glyph-name="E" unicode="E" horiz-adv-x="766" 
d="M294 392c8 -1 16 -1 23 -1c83 0 122 42 139 143h31v-337h-32c-11 111 -54 159 -152 159h-9v-250c0 -62 22 -70 90 -70c139 0 207 72 266 244h37l-12 -280h-645v34c84 3 104 17 104 84v490c0 62 -21 80 -97 80h-7v34h627l15 -258l-41 -5c-39 158 -120 232 -257 232
c-55 0 -80 -22 -80 -69v-230z" />
    <glyph glyph-name="F" unicode="F" horiz-adv-x="712" 
d="M33 0v31c92 3 101 12 101 75v498c0 68 -9 82 -98 90v28h614l8 -272h-31c-23 158 -110 240 -251 240c-70 0 -90 -19 -90 -86v-214c8 -1 16 -1 23 -1c83 0 123 42 140 143h31v-337h-32c-11 111 -55 159 -153 159h-9v-249c0 -58 26 -73 99 -73h15v-32h-367z" />
    <glyph glyph-name="G" unicode="G" horiz-adv-x="768" 
d="M659 -23h-37c-22 46 -44 68 -64 68c-15 0 -26 -9 -42 -19c-50 -30 -96 -50 -158 -50c-77 0 -151 32 -209 91c-70 72 -109 170 -109 280c0 112 38 213 104 285c64 70 139 105 229 105c65 0 103 -17 131 -29c24 -10 40 -18 52 -18c16 0 30 16 44 47h36l9 -271h-38
c-51 160 -120 239 -216 239c-125 0 -179 -118 -179 -363c0 -225 41 -329 162 -329c84 0 128 49 128 145v52c0 59 -18 68 -88 68h-14v34h342v-35c-6 0 -11 1 -16 1c-48 0 -67 -18 -67 -62v-239z" />
    <glyph glyph-name="H" unicode="H" horiz-adv-x="832" 
d="M32 0v35c78 0 102 11 102 72v512c0 55 -22 68 -94 68h-8v35h354v-35h-9c-61 0 -87 -19 -87 -68v-234h257v235c0 51 -22 67 -91 67h-7v35h351v-35h-12c-65 0 -85 -16 -85 -68v-510c0 -56 25 -74 91 -74h6v-35h-351v35c73 0 98 18 98 77v230h-257v-238c0 -50 25 -69 86 -69
h10v-35h-354z" />
    <glyph glyph-name="I" unicode="I" horiz-adv-x="420" 
d="M41 0v37c69 0 92 22 92 80v496c0 52 -25 72 -83 72h-9v37h339v-37h-11c-54 0 -80 -21 -80 -70v-502c0 -57 19 -73 80 -73h11v-40h-339z" />
    <glyph glyph-name="J" unicode="J" horiz-adv-x="496" 
d="M122 688v34h341v-34h-4c-60 0 -87 -20 -87 -70v-406c0 -160 -66 -237 -219 -237c-107 0 -168 53 -168 125c0 48 35 84 79 84c42 0 75 -30 75 -78c0 -26 -12 -45 -36 -58c-15 -8 -26 -9 -26 -18s22 -22 53 -22c57 0 89 36 89 105v499c0 58 -27 76 -97 76z" />
    <glyph glyph-name="K" unicode="K" horiz-adv-x="767" 
d="M37 0v37c73 0 86 16 86 76v504c0 52 -21 70 -80 70h-5v35h333v-35c-67 -1 -92 -17 -92 -68v-266l223 240c17 19 26 35 26 52c0 30 -24 42 -73 42h-6v35h290v-35c-74 -1 -130 -31 -187 -93l-97 -105l214 -393c21 -39 55 -59 101 -59h3v-37h-341v37h13c41 0 60 9 60 33
c0 11 -3 19 -8 28l-148 275l-70 -72v-180c0 -64 15 -84 83 -84h10v-37h-335z" />
    <glyph glyph-name="L" unicode="L" horiz-adv-x="713" 
d="M22 0v37c85 1 104 13 104 76v482c0 74 -13 92 -85 92h-19v35h369v-35c-7 0 -13 1 -20 1c-68 0 -89 -22 -89 -87v-479c0 -71 14 -85 83 -85c151 0 223 67 272 242h36l-11 -279h-640z" />
    <glyph glyph-name="M" unicode="M" horiz-adv-x="961" 
d="M26 0v37c84 9 110 44 110 132v467c0 41 -27 51 -90 51h-20v35h304l154 -458l160 458h278v-35c-60 0 -88 -17 -88 -61v-519c0 -51 24 -70 83 -70h5v-37h-328v37c71 8 87 18 87 75v551h-15l-226 -663h-31l-223 663h-13v-503c0 -80 31 -118 105 -123v-37h-252z" />
    <glyph glyph-name="N" unicode="N" horiz-adv-x="769" 
d="M16 0v37c79 3 112 41 112 125v457l-35 38c-19 20 -44 29 -77 30v35h228l360 -478v324c0 76 -38 117 -110 119v35h258v-37c-69 -2 -108 -44 -108 -120v-565h-46l-433 569v-406c0 -86 31 -123 116 -126v-37h-265z" />
    <glyph glyph-name="O" unicode="O" horiz-adv-x="766" 
d="M383 -25c-99 0 -177 35 -244 110c-66 73 -102 169 -102 270c0 102 37 198 101 269c65 72 155 112 246 112c90 0 178 -39 244 -111c65 -70 101 -166 101 -270c0 -99 -37 -199 -101 -270c-65 -72 -151 -110 -245 -110zM213 337c0 -217 55 -325 170 -325c55 0 97 26 129 79
c37 61 42 147 42 265c0 117 -6 203 -42 264c-32 53 -74 79 -129 79c-53 0 -96 -27 -127 -79c-37 -62 -43 -154 -43 -283z" />
    <glyph glyph-name="P" unicode="P" horiz-adv-x="712" 
d="M20 0v37c83 1 101 12 101 71v514c0 51 -24 65 -87 65h-14v35h327c216 0 324 -61 324 -191c0 -129 -120 -195 -357 -195c-13 0 -27 1 -42 1v-231c0 -57 20 -69 87 -69h18v-37h-357zM272 370c9 -1 23 -1 40 -1c143 0 185 42 185 179c0 104 -33 145 -130 145
c-66 0 -95 -17 -95 -65v-258z" />
    <glyph glyph-name="Q" unicode="Q" horiz-adv-x="768" 
d="M727 46h29c1 -9 1 -18 1 -27c0 -115 -55 -182 -138 -182c-78 0 -121 49 -144 152c-30 -10 -57 -15 -81 -15c-82 0 -162 29 -221 77c-84 69 -138 185 -138 304c0 104 36 198 101 270s155 112 246 112s178 -39 244 -111c64 -70 101 -166 101 -270
c0 -130 -59 -250 -154 -318c28 -58 64 -89 97 -89c36 0 53 32 57 97zM275 56c-3 18 -5 31 -5 41c0 70 50 119 119 119c57 0 108 -34 137 -94c23 48 32 133 32 255c0 221 -50 329 -173 329s-177 -120 -177 -363c0 -135 17 -228 67 -287zM471 41c2 13 2 26 2 40
c0 66 -32 102 -92 102c-43 0 -76 -32 -76 -87c0 -56 27 -84 82 -84c27 0 56 10 84 29z" />
    <glyph glyph-name="R" unicode="R" horiz-adv-x="769" 
d="M31 0v37c79 3 89 11 89 63v517c0 54 -15 71 -69 71c-6 0 -13 -1 -20 -1v35h351c191 0 295 -71 295 -174c0 -95 -86 -170 -244 -188c81 -23 147 -83 173 -147c28 -70 20 -123 66 -123c26 0 41 27 43 79h34c-5 -111 -59 -175 -141 -175c-112 0 -175 89 -175 261
c0 55 -35 94 -90 94h-61v-249c0 -53 21 -63 101 -63v-37h-352zM282 388h85c91 0 136 52 136 156c0 103 -41 147 -144 147c-57 0 -77 -21 -77 -75v-228z" />
    <glyph glyph-name="S" unicode="S" horiz-adv-x="605" 
d="M45 -24l-5 283h35c54 -161 152 -247 264 -247c90 0 147 52 147 120c0 66 -50 112 -152 142c-94 28 -174 44 -231 97c-45 42 -68 95 -68 155c0 119 91 211 211 211c95 0 145 -57 173 -57c14 0 37 18 66 56h29l3 -267h-33c-47 151 -136 231 -247 231
c-68 0 -125 -48 -125 -111c0 -59 47 -98 145 -126c103 -30 181 -51 229 -88c58 -45 89 -105 89 -176c0 -136 -89 -227 -236 -227c-70 0 -111 20 -150 40c-18 9 -30 19 -42 19c-18 0 -40 -19 -69 -55h-33z" />
    <glyph glyph-name="T" unicode="T" horiz-adv-x="660" 
d="M136 0v37c90 5 108 14 108 78v571c-86 -5 -151 -89 -186 -249h-37l10 285h596l11 -287h-35c-38 170 -100 251 -204 251v-578c0 -57 30 -70 114 -72v-36h-377z" />
    <glyph glyph-name="U" unicode="U" horiz-adv-x="765" 
d="M20 687v35h356v-36h-6c-74 0 -97 -20 -97 -87v-398c0 -126 40 -183 163 -183c108 0 169 65 169 176v362c0 83 -29 121 -107 133v33h248v-35c-66 -9 -99 -48 -99 -118v-339c0 -69 -2 -123 -36 -171c-43 -61 -107 -86 -203 -86c-116 0 -201 29 -246 80
c-33 37 -40 82 -40 145v391c0 75 -15 97 -102 98z" />
    <glyph glyph-name="V" unicode="V" horiz-adv-x="766" 
d="M341 -26l-212 633c-19 57 -46 81 -105 81h-7v34h347v-35h-8c-51 0 -74 -10 -74 -40c0 -12 2 -23 6 -34l138 -410l129 358c7 19 13 38 13 58c0 49 -28 68 -92 69v34h273v-35h-6c-68 0 -114 -32 -136 -96l-220 -617h-46z" />
    <glyph glyph-name="W" unicode="W" horiz-adv-x="987" 
d="M282 -25l-195 641c-15 49 -33 67 -77 69v37h287v-35c-41 0 -61 -9 -61 -32c0 -9 2 -19 4 -26l122 -418l101 312l-30 101c-14 46 -28 62 -74 62h-4v36h294v-36h-11c-39 0 -58 -10 -58 -37c0 -6 1 -13 3 -21l127 -414l106 350c6 18 9 36 9 55c0 46 -31 68 -92 68h-4v35h243
v-36c-54 0 -87 -33 -109 -103l-191 -608h-41l-150 487l-158 -487h-41z" />
    <glyph glyph-name="X" unicode="X" horiz-adv-x="766" 
d="M8 0v35c76 10 134 43 175 102l134 190l-199 304c-26 40 -53 55 -109 60v31h347v-31h-9c-41 0 -62 -14 -62 -39c0 -11 5 -18 11 -27l112 -169l104 143c11 15 16 32 16 46c0 31 -27 43 -84 46v31h264v-31c-61 -7 -113 -38 -152 -93l-126 -175l214 -324
c26 -39 59 -58 109 -62v-37h-376v36c66 1 97 10 97 38c0 8 -4 21 -12 32l-125 188l-101 -143c-19 -27 -29 -48 -29 -63c0 -33 30 -48 95 -53v-35h-294z" />
    <glyph glyph-name="Y" unicode="Y" horiz-adv-x="765" 
d="M189 0v37c91 5 110 10 110 67v222l-173 301c-24 42 -56 61 -106 64v31h350v-31c-58 -3 -83 -4 -83 -32c0 -11 5 -19 11 -28l140 -235l106 182c11 19 24 34 24 57c0 38 -33 54 -102 56v31h278v-32c-60 -5 -106 -33 -130 -72l-159 -264v-248c0 -55 20 -68 102 -70v-36h-368
z" />
    <glyph glyph-name="Z" unicode="Z" horiz-adv-x="658" 
d="M36 0v32l402 657h-75c-136 0 -204 -58 -254 -224h-32l10 257h526v-25l-399 -660h73c162 0 248 72 294 247h30l-12 -284h-563z" />
    <glyph glyph-name="bracketleft" unicode="[" horiz-adv-x="383" 
d="M71 -100v822h257v-35h-158v-752h155v-35h-254z" />
    <glyph glyph-name="backslash" unicode="\" horiz-adv-x="273" 
d="M220 -93l-245 829h55l245 -829h-55z" />
    <glyph glyph-name="bracketright" unicode="]" horiz-adv-x="383" 
d="M327 -100h-254v35h155v752h-157v35h256v-822z" />
    <glyph glyph-name="asciicircum" unicode="^" horiz-adv-x="1000" 
d="M552 714l245 -276h-51l-247 194l-247 -194h-51l246 276h105z" />
    <glyph glyph-name="underscore" unicode="_" 
d="M500 -152v-84h-500v84h500z" />
    <glyph glyph-name="quoteleft" unicode="&#x2018;" horiz-adv-x="275" 
d="M210 734l12 -23c-67 -41 -100 -86 -100 -135v-4h10c54 0 86 -29 86 -76c0 -48 -32 -80 -84 -80s-87 39 -87 104c0 87 56 161 163 214z" />
    <glyph glyph-name="a" unicode="a" horiz-adv-x="549" 
d="M515 114h24v-14c0 -75 -39 -116 -111 -116c-50 0 -80 21 -94 67c-42 -44 -95 -67 -157 -67c-89 0 -141 46 -141 111c0 97 100 171 294 200v81c0 54 -27 79 -87 79c-28 0 -54 -6 -81 -18c26 -18 38 -41 38 -67c0 -42 -28 -66 -77 -66c-40 0 -69 28 -69 67
c0 62 82 118 203 118c141 0 202 -57 202 -183v-218c0 -24 5 -35 22 -35c21 0 32 20 34 61zM330 262c-107 -19 -162 -71 -162 -149c0 -49 26 -77 67 -77c56 0 95 42 95 110v116z" />
    <glyph glyph-name="b" unicode="b" horiz-adv-x="545" 
d="M67 -13v640c0 48 -4 63 -45 63h-8v32l186 14v-311c34 45 73 66 125 66c110 0 186 -90 186 -241c0 -168 -85 -266 -217 -266c-66 0 -113 23 -152 78l-61 -75h-14zM194 114c0 -59 30 -92 80 -92c75 0 96 72 96 223c0 133 -16 192 -86 192c-66 0 -90 -52 -90 -162v-161z" />
    <glyph glyph-name="c" unicode="c" horiz-adv-x="486" 
d="M441 132l26 -21c-53 -84 -125 -127 -212 -127c-127 0 -222 100 -222 242c0 154 111 265 256 265c99 0 160 -50 160 -121c0 -43 -29 -72 -72 -72c-44 0 -72 26 -72 69c0 34 21 61 57 69c-21 17 -43 24 -70 24c-80 0 -108 -69 -108 -219c0 -137 28 -201 112 -201
c51 0 97 30 145 92z" />
    <glyph glyph-name="d" unicode="d" horiz-adv-x="551" 
d="M355 344c0 55 -32 94 -79 94c-66 0 -93 -65 -93 -200c0 -136 13 -199 86 -199c50 0 86 42 86 109v196zM355 -10v61c-34 -45 -78 -67 -131 -67c-110 0 -191 93 -191 244c0 157 87 263 194 263c51 0 95 -19 128 -58v197c0 47 -19 59 -77 62v30l204 14v-629
c0 -54 3 -71 58 -73v-34z" />
    <glyph glyph-name="e" unicode="e" horiz-adv-x="492" 
d="M431 123l30 -10c-32 -83 -101 -129 -196 -129c-131 0 -233 103 -233 246c0 154 96 261 224 261c123 0 202 -92 203 -254h-275v-13c0 -120 40 -178 127 -178c50 0 89 25 120 77zM184 276h142v20c0 108 -23 160 -71 160s-71 -52 -71 -160v-20z" />
    <glyph glyph-name="f" unicode="f" horiz-adv-x="384" 
d="M18 0v34c91 5 91 20 91 96v314h-90v35h90v42c0 121 88 215 205 215c81 0 129 -36 129 -92c0 -40 -25 -65 -65 -65c-39 0 -65 24 -65 64c0 23 7 40 26 56c-9 2 -17 3 -25 3c-51 0 -75 -43 -75 -130v-93h120v-35h-118v-337c0 -61 16 -67 100 -73v-34h-323z" />
    <glyph glyph-name="g" unicode="g" horiz-adv-x="553" 
d="M182 327c0 -91 18 -134 62 -134s61 43 61 134s-17 135 -61 135s-62 -44 -62 -135zM123 -6c-51 22 -73 44 -73 83c0 44 36 75 105 100c-65 23 -100 73 -100 144c0 95 78 170 189 170c59 0 108 -19 145 -57c42 34 71 56 103 56c35 0 61 -25 61 -58c0 -36 -20 -56 -52 -56
c-28 0 -44 19 -44 50c0 3 1 7 1 11c-19 -9 -35 -21 -48 -34c15 -24 23 -49 23 -77c0 -102 -72 -168 -185 -168c-16 0 -34 1 -55 4c-25 -14 -38 -23 -38 -36c0 -29 48 -26 140 -36c124 -13 183 -47 183 -137c0 -87 -80 -137 -233 -137c-144 0 -220 37 -220 96
c0 39 33 65 98 82zM169 -19c-40 -21 -58 -40 -58 -70c0 -42 45 -61 135 -61c100 0 148 18 148 62c0 36 -31 48 -95 55z" />
    <glyph glyph-name="h" unicode="h" horiz-adv-x="605" 
d="M31 0v34c45 2 56 14 56 52v547c0 41 -13 57 -56 58v31l189 14v-346c43 66 98 99 160 99c116 0 146 -67 146 -209v-193c0 -37 11 -52 53 -53v-34h-185v259c0 102 -8 149 -72 149c-61 0 -103 -46 -103 -115v-197c0 -43 18 -62 59 -62h6v-34h-253z" />
    <glyph glyph-name="i" unicode="i" horiz-adv-x="331" 
d="M46 0v34c51 1 62 11 62 54v298c0 45 -21 61 -71 61v32l201 12v-403c0 -42 10 -54 58 -54v-34h-250zM98 660c0 42 33 76 75 76s76 -34 76 -76c0 -41 -33 -75 -76 -75c-42 0 -75 33 -75 75z" />
    <glyph glyph-name="j" unicode="j" horiz-adv-x="331" 
d="M100 660c0 42 34 76 76 76s75 -34 75 -76c0 -41 -32 -75 -75 -75c-42 0 -76 33 -76 75zM250 0c0 -109 -82 -185 -200 -185c-70 0 -112 37 -112 87c0 36 25 61 60 61c37 0 63 -23 63 -60c0 -21 -7 -36 -22 -48c9 -2 16 -2 23 -2c41 0 58 27 58 84v449c0 50 -20 61 -82 61
h-17v32l229 12v-491z" />
    <glyph glyph-name="k" unicode="k" horiz-adv-x="605" 
d="M28 0v34h4c45 0 53 15 53 61v538c0 40 -14 57 -51 57h-6v32l188 14v-481l156 129c16 13 24 27 24 39c0 18 -15 24 -46 24h-13v32h226v-32h-11c-39 0 -69 -10 -96 -34l-82 -73l157 -262c19 -31 35 -44 72 -44v-34h-267v34c39 0 57 5 57 24c0 10 -6 21 -15 37l-99 168
l-63 -54v-112c0 -48 12 -63 65 -63v-34h-253z" />
    <glyph glyph-name="l" unicode="l" horiz-adv-x="334" 
d="M40 0v34h4c45 0 53 15 53 61v538c0 42 -15 57 -60 57h-9v32l202 14v-639c0 -49 11 -62 65 -63v-34h-255z" />
    <glyph glyph-name="m" unicode="m" horiz-adv-x="883" 
d="M32 0v34c54 3 57 16 57 60v290c0 48 -7 62 -57 63v32l187 12v-99c42 66 91 98 156 98c67 0 105 -30 128 -99c49 69 94 99 163 99c89 0 136 -61 136 -181v-225c0 -37 14 -50 56 -50v-34h-187v307c0 71 -17 103 -68 103c-56 0 -92 -42 -92 -98v-227c0 -34 20 -51 60 -51h3
v-34h-193v306c0 71 -15 103 -72 103c-47 0 -86 -43 -86 -101v-220c0 -37 17 -54 55 -54h6v-34h-252z" />
    <glyph glyph-name="n" unicode="n" horiz-adv-x="605" 
d="M30 0v34c45 2 56 14 56 52v303c0 41 -12 57 -56 58v31l183 12v-107c37 58 92 106 165 106c116 0 147 -67 147 -209v-193c0 -37 10 -52 52 -53v-34h-184v259c0 102 -8 149 -72 149c-61 0 -103 -46 -103 -115v-197c0 -43 17 -62 58 -62h6v-34h-252z" />
    <glyph glyph-name="o" unicode="o" horiz-adv-x="549" 
d="M32 237c0 151 100 254 242 254s243 -104 243 -254s-101 -254 -243 -254s-242 103 -242 254zM182 237c0 -149 11 -220 92 -220c82 0 92 71 92 220s-10 220 -92 220c-81 0 -92 -71 -92 -220z" />
    <glyph glyph-name="p" unicode="p" horiz-adv-x="553" 
d="M207 144c0 -65 25 -98 73 -98c70 0 94 62 94 192c0 131 -19 192 -89 192c-50 0 -78 -39 -78 -110v-176zM209 -102c0 -35 14 -52 46 -52c4 0 9 0 14 1v-32h-251v32h4c47 0 50 16 50 59v466c0 51 -11 72 -56 75v32l184 12v-72c35 48 75 71 129 71c111 0 190 -96 190 -249
c0 -160 -79 -258 -189 -258c-51 0 -83 16 -121 59v-144z" />
    <glyph glyph-name="q" unicode="q" horiz-adv-x="553" 
d="M346 144v198c0 71 -29 110 -79 110c-72 0 -90 -65 -90 -207c0 -135 25 -199 95 -199c48 0 74 33 74 98zM344 42c-34 -41 -74 -59 -128 -59c-114 0 -184 94 -184 258c0 153 88 250 213 250c66 0 119 -27 163 -84l46 83h27v-584c0 -43 2 -59 49 -59h4v-32h-251v32
c5 -1 10 -1 14 -1c32 0 47 17 47 52v144z" />
    <glyph glyph-name="r" unicode="r" horiz-adv-x="440" 
d="M16 0v34c53 0 68 11 68 54v299c0 46 -13 60 -63 60h-5v32l193 12v-161c32 106 80 159 147 159c46 0 77 -31 77 -79c0 -46 -26 -75 -67 -75c-39 0 -63 27 -63 74v8c-34 -6 -83 -89 -83 -198v-132c0 -44 14 -53 68 -53h22v-34h-294z" />
    <glyph glyph-name="s" unicode="s" horiz-adv-x="442" 
d="M43 -16v195h33c36 -100 108 -157 175 -157c50 0 83 26 83 66c0 32 -27 56 -80 73l-80 26c-87 28 -133 83 -133 157c0 87 63 147 147 147c58 0 97 -35 120 -35c18 0 30 12 38 36h28v-173h-27c-45 92 -101 138 -167 138c-43 0 -73 -28 -73 -60c0 -25 22 -49 62 -62l102 -33
c88 -29 132 -83 132 -161c0 -94 -61 -157 -150 -157c-69 0 -109 38 -135 38c-20 0 -37 -13 -43 -38h-32z" />
    <glyph glyph-name="t" unicode="t" horiz-adv-x="385" 
d="M368 158v-8c0 -108 -59 -169 -159 -169c-92 0 -123 47 -123 148v315h-77v35c87 25 138 94 155 211h49v-211h119v-35h-119v-322c0 -52 14 -74 52 -74c51 0 70 33 72 110h31z" />
    <glyph glyph-name="u" unicode="u" horiz-adv-x="608" 
d="M391 -11v92c-49 -69 -102 -101 -172 -101c-94 0 -137 49 -137 153v228c0 62 -1 83 -58 85v32l191 9v-351c0 -51 19 -76 67 -76c75 0 104 50 104 152v185c0 38 -12 46 -61 48v35l196 10v-412c0 -35 10 -43 56 -43v-36z" />
    <glyph glyph-name="v" unicode="v" horiz-adv-x="480" 
d="M213 0l-173 387c-18 40 -30 60 -64 60h-2v32h252v-32h-4c-33 0 -48 -11 -48 -34c0 -8 3 -18 6 -26l93 -219l68 159c12 29 17 52 17 65c0 37 -23 54 -74 55v32h190v-32c-56 -10 -65 -39 -86 -87l-159 -360h-16z" />
    <glyph glyph-name="w" unicode="w" horiz-adv-x="772" 
d="M232 -16l-154 402c-15 38 -28 57 -65 61v32h221v-32c-23 -1 -34 -6 -34 -20c0 -3 1 -11 6 -24l85 -231l68 164l-25 69c-11 32 -21 42 -57 42h-5v32h233v-32c-26 -1 -40 -14 -40 -34c0 -6 1 -13 3 -19l79 -212l76 194c3 8 5 21 5 31c0 25 -21 40 -62 40h-8v32h189v-32
c-51 -6 -68 -22 -84 -64l-151 -399h-22l-113 303l-123 -303h-22z" />
    <glyph glyph-name="x" unicode="x" horiz-adv-x="552" 
d="M10 0v34h4c38 0 84 26 121 71l84 104l-139 192c-22 31 -45 46 -68 46h-2v32h254v-32h-4c-23 0 -37 -10 -37 -21c0 -6 3 -11 7 -17l67 -96l57 68c8 9 13 23 13 32c0 20 -17 34 -47 34h-3v32h198v-32c-42 0 -71 -11 -93 -38l-104 -127l140 -204c20 -29 47 -44 81 -45v-33
h-258v34c31 1 43 2 43 16c0 8 -7 20 -19 37l-68 94l-70 -87c-10 -12 -17 -21 -17 -33c0 -23 21 -27 71 -27v-34h-211z" />
    <glyph glyph-name="y" unicode="y" horiz-adv-x="514" 
d="M241 -50c-37 -90 -92 -135 -159 -135c-56 0 -91 34 -91 84c0 43 30 73 74 73c42 0 68 -28 68 -61c0 -11 -1 -22 -4 -33c2 0 5 -1 7 -1c35 0 65 44 93 131l-150 372c-18 46 -35 67 -75 67h-6v32h253v-32c-29 -1 -45 -17 -45 -38c0 -4 1 -11 4 -19l82 -212l81 189
c5 12 8 25 8 35c0 29 -23 45 -66 45h-8v32h202v-32h-6c-50 0 -68 -25 -91 -81z" />
    <glyph glyph-name="z" unicode="z" horiz-adv-x="492" 
d="M35 0v21l262 428c-10 1 -20 1 -30 1c-99 0 -158 -48 -184 -147h-26l9 176h378v-24l-266 -426c9 -1 19 -1 27 -1c114 0 185 54 217 166h24l-8 -194h-403z" />
    <glyph glyph-name="braceleft" unicode="{" 
d="M415 712c-91 -1 -109 -35 -109 -129v-67c0 -126 -16 -182 -129 -206c113 -24 129 -80 129 -206v-67c0 -94 18 -127 109 -128v-28h-5c-147 0 -190 42 -190 169v98c0 101 -27 137 -133 146v33c107 10 133 44 133 146v98c0 129 44 169 195 169v-28z" />
    <glyph glyph-name="bar" unicode="|" 
d="M294 764v-1000h-87v1000h87z" />
    <glyph glyph-name="braceright" unicode="}" 
d="M281 571v-98c0 -102 26 -136 133 -146v-33c-107 -9 -133 -45 -133 -146v-98c0 -127 -44 -169 -191 -169h-5v28c91 1 109 34 109 128v67c0 126 15 182 129 206c-114 24 -129 81 -129 206v67c0 94 -18 128 -109 129v28h5c147 0 191 -42 191 -169z" />
    <glyph glyph-name="asciitilde" unicode="~" horiz-adv-x="833" 
d="M747 293c-65 -45 -126 -69 -186 -69c-29 0 -61 6 -93 17c-69 23 -129 49 -193 49c-58 0 -117 -28 -188 -78v91c69 47 131 70 189 70c57 0 102 -15 143 -29c49 -17 94 -36 143 -36c58 0 117 26 185 75v-90z" />
    <glyph glyph-name="exclamdown" unicode="&#xa1;" horiz-adv-x="292" 
d="M146 572c-45 0 -82 36 -82 82c0 45 36 82 82 82c45 0 82 -37 82 -82c0 -46 -37 -82 -82 -82zM133 496h26c1 -91 10 -171 28 -242c17 -66 38 -122 38 -172c0 -63 -31 -98 -79 -98s-80 35 -80 98c0 50 22 106 39 172c18 71 27 151 28 242z" />
    <glyph glyph-name="cent" unicode="&#xa2;" horiz-adv-x="493" 
d="M310 374c1 3 1 6 1 8c0 28 20 51 56 59c-15 20 -39 31 -69 31c-88 0 -133 -77 -133 -228c0 -66 10 -117 36 -153zM117 -133l52 141c-86 42 -135 126 -135 235c0 77 25 138 81 189c48 44 114 70 178 70c20 0 39 -3 59 -9l47 119h46l-54 -135c37 -21 57 -56 57 -95
c0 -43 -31 -74 -70 -74c-16 0 -31 6 -44 16l-101 -265c18 -15 39 -21 63 -21c55 0 104 34 150 101l21 -17c-52 -96 -114 -143 -190 -143c-18 0 -41 5 -69 13l-45 -125h-46z" />
    <glyph glyph-name="sterling" unicode="&#xa3;" horiz-adv-x="493" 
d="M196 81c-27 35 -48 54 -74 54s-47 -22 -47 -52c0 -25 23 -50 48 -50c31 0 54 15 73 48zM441 223h27c1 -16 2 -31 2 -45c0 -124 -53 -194 -135 -194c-47 0 -78 18 -105 61c-25 -39 -65 -61 -106 -61c-55 0 -95 40 -95 97c0 58 43 102 97 102c27 0 52 -10 80 -28v9
c0 48 -16 97 -44 151h-113v37h95c-28 59 -43 111 -43 164c0 112 79 191 194 191c99 0 169 -67 169 -136c0 -51 -29 -85 -73 -85c-32 0 -57 25 -57 55c0 34 19 57 58 86c-13 28 -50 47 -95 47c-61 0 -107 -46 -107 -98c0 -56 53 -122 93 -224h117v-37h-106
c6 -27 10 -51 10 -73c0 -41 -12 -82 -35 -123c23 -16 45 -24 67 -24c66 0 97 40 105 128z" />
    <glyph glyph-name="fraction" unicode="&#x2044;" horiz-adv-x="167" 
d="M-167 -16l446 724h54l-446 -724h-54z" />
    <glyph glyph-name="yen" unicode="&#xa5;" horiz-adv-x="630" 
d="M147 0v35c86 5 103 11 103 66v213h-224v37h203l-53 96h-150v37h129l-67 121c-22 40 -53 58 -100 61v30h324v-30c-54 -3 -78 -3 -78 -30c0 -7 3 -18 10 -30l124 -229l106 179c11 19 21 35 21 56c0 37 -30 52 -95 54v30h260v-31c-56 -5 -100 -32 -121 -69l-64 -112h129v-37
h-151l-56 -96h207v-37h-214v-211c0 -55 22 -67 96 -69v-34h-339z" />
    <glyph glyph-name="florin" unicode="&#x192;" horiz-adv-x="493" 
d="M301 415c3 -39 5 -76 5 -111c0 -127 -20 -234 -58 -321c-47 -107 -121 -164 -191 -164c-57 0 -99 39 -99 89c0 40 26 66 69 66c29 0 54 -24 54 -49c0 -42 -31 -51 -31 -61c0 -3 8 -8 19 -8c25 0 59 27 76 74c18 50 23 154 23 317c0 35 4 92 13 170h-111v39h117
c29 160 122 252 210 252c56 0 97 -34 97 -87c0 -34 -26 -61 -63 -61c-30 0 -57 24 -57 53c0 35 26 41 26 51c0 6 -7 11 -19 11c-45 0 -85 -66 -85 -189c0 -9 0 -20 1 -30h119v-41h-115z" />
    <glyph glyph-name="section" unicode="&#xa7;" 
d="M262 94l-75 60c-82 64 -123 120 -123 188c0 72 46 118 121 118h7c-52 53 -84 90 -84 148c0 75 56 128 139 128c86 0 139 -43 139 -98c0 -37 -21 -60 -56 -60c-32 0 -56 22 -56 53c0 33 38 38 38 58c0 15 -25 27 -65 27c-38 0 -72 -31 -72 -72c0 -32 22 -61 68 -96l76 -58
c75 -57 116 -123 116 -181c0 -78 -40 -118 -123 -123c55 -49 82 -91 82 -148c0 -73 -60 -128 -157 -128c-84 0 -140 47 -140 104c0 35 23 59 58 59c30 0 55 -21 55 -49c0 -45 -38 -47 -38 -61s27 -31 69 -31c49 0 80 28 80 72c0 37 -20 59 -59 90zM242 240
c27 -21 50 -32 70 -32c31 0 57 29 57 61c0 26 -25 69 -63 99l-45 36c-28 23 -55 34 -78 34c-28 0 -55 -30 -55 -58c0 -25 25 -69 57 -94z" />
    <glyph glyph-name="currency" unicode="&#xa4;" horiz-adv-x="493" 
d="M480 191c-6 -109 -52 -207 -167 -207c-127 0 -214 119 -235 280h-82l10 37h69c-1 14 -2 29 -2 44c0 17 1 35 3 52h-80l10 37h75c26 146 113 274 230 274c71 0 95 -48 109 -48c8 0 16 14 29 46h24l5 -194h-35c-25 92 -60 166 -126 166c-65 0 -97 -95 -106 -244h237
l-10 -37h-229c-1 -19 -1 -38 -1 -58v-38h204l-10 -37h-193c6 -149 35 -243 112 -243c76 0 119 82 126 170h33z" />
    <glyph glyph-name="quotesingle" unicode="'" horiz-adv-x="175" 
d="M78 418l-36 224c-1 7 -1 13 -1 19c0 34 17 53 46 53c30 0 47 -18 47 -53c0 -6 0 -13 -1 -19l-36 -224h-19z" />
    <glyph glyph-name="quotedblleft" unicode="&#x201c;" horiz-adv-x="493" 
d="M202 734l12 -23c-67 -41 -100 -86 -100 -135v-4h10c54 0 85 -29 85 -76c0 -48 -32 -80 -84 -80s-86 39 -86 104c0 87 56 161 163 214zM443 734l13 -23c-67 -41 -100 -86 -100 -135v-4h10c54 0 85 -29 85 -76c0 -48 -32 -80 -84 -80s-86 39 -86 104c0 87 55 161 162 214z
" />
    <glyph glyph-name="guillemotleft" unicode="&#xab;" horiz-adv-x="538" 
d="M72 244c121 88 172 152 185 152c6 0 10 -4 10 -12c0 -17 -36 -61 -100 -140c65 -78 100 -124 100 -140c0 -8 -4 -12 -10 -12c-13 0 -64 62 -185 152zM277 244c121 88 173 152 186 152c6 0 9 -4 9 -12c0 -17 -35 -61 -99 -140c65 -78 99 -124 99 -140c0 -8 -3 -12 -9 -12
c-13 0 -65 62 -186 152z" />
    <glyph glyph-name="guilsinglleft" unicode="&#x2039;" horiz-adv-x="332" 
d="M72 244c121 88 172 152 185 152c6 0 10 -4 10 -12c0 -17 -36 -61 -100 -140c65 -78 100 -124 100 -140c0 -8 -4 -12 -10 -12c-13 0 -64 62 -185 152z" />
    <glyph glyph-name="guilsinglright" unicode="&#x203a;" horiz-adv-x="332" 
d="M266 244c-121 -90 -173 -152 -186 -152c-6 0 -9 4 -9 12c0 16 34 62 99 140c-64 79 -99 123 -99 140c0 8 3 12 9 12c13 0 65 -64 186 -152z" />
    <glyph glyph-name="fi" unicode="&#xfb01;" horiz-adv-x="606" 
d="M85 442h-64v38h65v9c0 153 100 247 253 247c115 0 177 -43 177 -104c0 -36 -29 -63 -68 -63c-41 0 -69 28 -69 65c0 25 12 43 23 56c-12 10 -32 16 -59 16c-75 0 -123 -54 -123 -144v-82h91c76 0 149 1 219 10v-404c0 -33 18 -50 55 -50h3v-36h-245v34c50 2 55 14 55 62
v315c0 28 -8 32 -46 32h-132v-350c0 -40 17 -60 53 -61v-32h-245v35c42 1 57 15 57 55v352z" />
    <glyph glyph-name="fl" unicode="&#xfb02;" horiz-adv-x="606" 
d="M28 35c40 1 56 14 56 47v360h-64v37h64v14c0 152 94 247 235 247c24 0 51 -4 82 -14l131 9v-655c0 -32 16 -45 55 -46v-34h-246v35c52 3 59 13 59 58v349h-181v-351c0 -40 14 -56 54 -57v-34h-245v35zM218 479h182v114c-23 10 -36 30 -36 56c0 18 6 32 17 42
c-12 12 -31 17 -58 17c-61 0 -105 -45 -105 -119v-110z" />
    <glyph glyph-name="endash" unicode="&#x2013;" 
d="M0 201v84h500v-84h-500z" />
    <glyph glyph-name="dagger" unicode="&#x2020;" 
d="M231 -112v12c0 136 -16 271 -49 407c33 54 50 111 50 168v10c-63 -12 -102 -45 -140 -45c-35 0 -56 21 -56 55c0 32 25 57 60 57c36 0 75 -32 136 -42v11c0 81 -43 129 -43 161c0 33 23 54 61 54s60 -21 60 -54c0 -32 -43 -80 -43 -161v-11c63 11 103 43 134 43
c37 0 62 -24 62 -58c0 -35 -21 -55 -56 -55c-43 0 -78 36 -139 45v-10c0 -57 16 -114 49 -168c-30 -121 -44 -260 -49 -419h-37z" />
    <glyph glyph-name="daggerdbl" unicode="&#x2021;" 
d="M182 310c33 49 50 107 50 170v5c-63 -12 -102 -46 -140 -46c-35 0 -56 22 -56 56c0 32 25 57 60 57c36 0 75 -32 136 -42v11c0 81 -43 129 -43 161c0 33 23 54 61 54s60 -21 60 -54c0 -32 -43 -80 -43 -161v-11c63 11 103 42 134 42c37 0 62 -23 62 -57
c0 -35 -21 -56 -56 -56c-43 0 -78 36 -139 45c0 -69 17 -128 50 -173c-33 -53 -50 -111 -50 -171v-5c63 12 102 45 140 45c35 0 56 -21 56 -55c0 -32 -25 -57 -60 -57c-36 0 -75 32 -136 42v-11c0 -81 43 -129 43 -161c0 -33 -23 -54 -61 -54s-60 21 -60 54
c0 32 43 80 43 161v11c-63 -11 -103 -43 -134 -43c-37 0 -62 24 -62 58c0 35 21 55 56 55c43 0 78 -36 139 -45v5c0 64 -17 122 -50 170z" />
    <glyph glyph-name="periodcentered" unicode="&#xb7;" horiz-adv-x="247" 
d="M36 351c0 47 38 83 84 83s83 -36 83 -83c0 -46 -37 -84 -84 -84s-83 38 -83 84z" />
    <glyph glyph-name="paragraph" unicode="&#xb6;" 
d="M473 674h-57v-674h-63v674h-83v-674h-63v383c-112 4 -180 73 -180 169c0 100 73 170 191 170h255v-48z" />
    <glyph glyph-name="bullet" unicode="&#x2022;" horiz-adv-x="590" 
d="M150 372c0 80 65 144 145 144c79 0 144 -64 144 -144c0 -79 -65 -145 -145 -145s-144 65 -144 145z" />
    <glyph glyph-name="quotesinglbase" unicode="&#x201a;" horiz-adv-x="275" 
d="M66 -177l-13 23c67 41 100 85 100 134v4h-10c-54 0 -85 30 -85 77c0 48 32 80 84 80s86 -39 86 -104c0 -87 -55 -161 -162 -214z" />
    <glyph glyph-name="quotedblbase" unicode="&#x201e;" horiz-adv-x="493" 
d="M50 -174l-12 22c67 41 100 86 100 135v4h-10c-54 0 -86 29 -86 76c0 48 32 80 84 80s87 -38 87 -103c0 -90 -60 -164 -163 -214zM292 -174l-13 22c67 41 101 86 101 135v4h-10c-54 0 -86 29 -86 76c0 48 32 80 84 80s87 -38 87 -103c0 -87 -56 -161 -163 -214z" />
    <glyph glyph-name="quotedblright" unicode="&#x201d;" horiz-adv-x="493" 
d="M50 416l-12 23c67 41 100 86 100 135v4h-10c-54 0 -86 29 -86 76c0 48 32 80 84 80s87 -39 87 -104c0 -87 -56 -161 -163 -214zM292 416l-13 23c67 41 101 86 101 135v4h-10c-54 0 -86 29 -86 76c0 48 32 80 84 80s87 -39 87 -104c0 -87 -56 -161 -163 -214z" />
    <glyph glyph-name="guillemotright" unicode="&#xbb;" horiz-adv-x="538" 
d="M266 244c-121 -90 -173 -152 -186 -152c-6 0 -9 4 -9 12c0 16 34 62 99 140c-64 79 -99 123 -99 140c0 8 3 12 9 12c13 0 65 -64 186 -152zM473 244c-121 -90 -173 -152 -186 -152c-6 0 -9 4 -9 12c0 16 34 62 99 140c-64 79 -99 123 -99 140c0 8 3 12 9 12
c13 0 65 -64 186 -152z" />
    <glyph glyph-name="ellipsis" unicode="&#x2026;" horiz-adv-x="1000" 
d="M87 65c0 51 33 83 80 83c45 0 79 -35 79 -83c0 -47 -33 -80 -79 -80c-47 0 -80 33 -80 80zM420 65c0 51 33 83 80 83c45 0 79 -35 79 -83c0 -47 -33 -80 -79 -80c-47 0 -80 33 -80 80zM754 65c0 51 33 83 80 83c45 0 79 -35 79 -83c0 -47 -33 -80 -79 -80
c-47 0 -80 33 -80 80z" />
    <glyph glyph-name="perthousand" unicode="&#x2030;" horiz-adv-x="1257" 
d="M363 618c-26 11 -45 26 -63 49c-37 -4 -63 -36 -97 -92c-43 -71 -62 -132 -62 -169c0 -34 26 -60 61 -60c28 0 66 20 100 59c41 48 66 117 66 172c0 12 -2 25 -5 41zM179 -32l387 674c-42 -25 -79 -39 -120 -39c-15 0 -34 3 -55 9c2 -14 3 -26 3 -37
c0 -54 -21 -116 -60 -169c-47 -63 -99 -94 -164 -94c-83 0 -133 51 -133 135c0 53 20 107 60 158c52 67 116 102 183 102c44 0 73 -19 103 -64c22 -7 41 -11 56 -11c73 0 128 30 182 98h48l-437 -762h-53zM442 119c0 57 24 120 70 173c45 52 115 85 169 85
c72 0 122 -52 122 -127c0 -58 -17 -114 -49 -163c-46 -70 -104 -104 -174 -104c-84 0 -138 54 -138 136zM711 335c-29 0 -59 -22 -88 -67c-11 -16 -26 -47 -45 -93c-18 -43 -28 -73 -28 -93c0 -41 23 -65 61 -65c28 0 57 15 86 45c50 52 80 124 80 185c0 56 -26 88 -66 88z
M854 119c0 57 24 120 70 173c45 52 115 85 169 85c72 0 122 -52 122 -127c0 -58 -17 -114 -49 -163c-46 -70 -104 -104 -174 -104c-84 0 -138 54 -138 136zM1123 335c-29 0 -59 -22 -88 -67c-11 -16 -26 -47 -45 -93c-18 -43 -28 -73 -28 -93c0 -41 23 -65 61 -65
c28 0 57 15 86 45c50 52 80 124 80 185c0 56 -26 88 -66 88z" />
    <glyph glyph-name="questiondown" unicode="&#xbf;" horiz-adv-x="441" 
d="M263 499c0 -8 1 -17 1 -24c0 -83 -23 -138 -44 -186c-17 -39 -43 -86 -43 -162c0 -73 32 -112 89 -112c38 0 64 15 64 26c0 8 -16 7 -34 14c-28 10 -44 34 -44 66c0 40 35 76 80 76s77 -34 77 -78c0 -77 -67 -135 -182 -135c-120 0 -193 61 -193 155c0 84 54 121 130 180
c48 37 67 90 67 168v12h32zM331 654c0 -46 -37 -82 -82 -82s-81 36 -81 82c0 45 36 82 81 82c46 0 82 -37 82 -82z" />
    <glyph glyph-name="grave" unicode="`" 
d="M350 545h-55l-160 80c-34 17 -50 33 -50 58c0 30 23 53 53 53c26 0 48 -16 76 -46z" />
    <glyph glyph-name="acute" unicode="&#xb4;" 
d="M143 545l135 145c28 30 51 46 77 46c30 0 53 -23 53 -53c0 -25 -17 -41 -51 -58l-159 -80h-55z" />
    <glyph glyph-name="circumflex" unicode="&#x2c6;" 
d="M86 545l115 181h90l112 -181h-49l-108 84l-108 -84h-52z" />
    <glyph glyph-name="tilde" unicode="&#x2dc;" 
d="M127 560h-41c17 87 53 130 113 130c12 0 25 -2 39 -6l59 -15c9 -2 16 -4 22 -4c25 0 37 14 46 45h41c-17 -86 -56 -130 -111 -130c-11 0 -22 2 -34 5l-58 16c-12 3 -21 5 -28 5c-26 0 -42 -16 -48 -46z" />
    <glyph glyph-name="macron" unicode="&#xaf;" 
d="M96 594v82h300v-82h-300z" />
    <glyph glyph-name="breve" unicode="&#x2d8;" 
d="M87 710h45c13 -45 48 -60 114 -60c67 0 101 16 113 60h46c-14 -97 -71 -150 -159 -150s-144 52 -159 150z" />
    <glyph glyph-name="dotaccent" unicode="&#x2d9;" 
d="M178 635c0 38 34 73 72 73c41 0 73 -33 73 -73c0 -42 -31 -73 -73 -73c-39 0 -72 33 -72 73z" />
    <glyph glyph-name="dieresis" unicode="&#xa8;" 
d="M81 636c0 37 32 69 70 69c39 0 70 -31 70 -69c0 -41 -30 -71 -70 -71c-39 0 -70 31 -70 71zM271 636c0 37 32 69 70 69c39 0 70 -31 70 -69c0 -41 -30 -71 -70 -71c-39 0 -70 31 -70 71z" />
    <glyph glyph-name="ring" unicode="&#x2da;" 
d="M121 666c0 72 56 129 129 129s130 -57 130 -129c0 -73 -57 -131 -130 -131s-129 58 -129 131zM191 665c0 -34 25 -59 59 -59c33 0 60 26 60 59s-27 60 -60 60c-34 0 -59 -26 -59 -60z" />
    <glyph glyph-name="cedilla" unicode="&#xb8;" 
d="M106 -184l24 49c48 -25 84 -38 111 -38c30 0 47 13 47 38c0 26 -16 40 -45 40c-8 0 -18 -1 -30 -4v99h42v-56c12 2 23 3 33 3c57 0 91 -32 91 -83c0 -55 -42 -92 -105 -92c-54 0 -106 18 -168 44z" />
    <glyph glyph-name="hungarumlaut" unicode="&#x2dd;" 
d="M137 545l72 132c21 39 36 60 66 60c26 0 45 -20 45 -45c0 -16 -9 -32 -29 -50l-110 -97h-44zM270 545l109 140c24 31 41 50 69 50c27 0 47 -20 47 -46c0 -18 -13 -35 -39 -52l-142 -92h-44z" />
    <glyph glyph-name="ogonek" unicode="&#x2db;" 
d="M347 15c-54 -44 -81 -84 -81 -130c0 -32 16 -50 42 -50c23 0 36 10 53 34l17 -10c-27 -58 -65 -87 -115 -87c-52 0 -84 29 -84 74c0 59 47 113 140 169h28z" />
    <glyph glyph-name="caron" unicode="&#x2c7;" 
d="M89 726h49l108 -84l108 84h49l-112 -181h-90z" />
    <glyph glyph-name="emdash" unicode="&#x2014;" horiz-adv-x="1000" 
d="M0 201v84h1000v-84h-1000z" />
    <glyph glyph-name="AE" unicode="&#xc6;" horiz-adv-x="1037" 
d="M0 0v37c54 2 85 36 121 104l220 421c13 25 21 46 21 64c0 46 -35 59 -114 59v37h703l36 -257l-42 -5c-39 153 -113 225 -236 225c-90 0 -100 -2 -100 -65v-228h6c93 0 137 43 147 141h33v-338h-33c-7 104 -54 155 -143 155h-10v-257c0 -43 19 -57 72 -57
c71 0 122 7 167 43c40 32 80 99 116 200h38l-14 -279h-630v37h5c63 0 94 20 94 68v171h-229l-49 -97c-17 -33 -26 -59 -26 -79c0 -39 32 -63 93 -63v-37h-246zM457 314v371h-15l-193 -371h208z" />
    <glyph glyph-name="ordfeminine" unicode="&#xaa;" horiz-adv-x="412" 
d="M386 467h18v-10c0 -53 -29 -81 -83 -81c-37 0 -60 14 -70 47c-32 -31 -72 -47 -118 -47c-67 0 -106 32 -106 77c0 68 75 120 221 140v57c0 38 -21 55 -66 55c-21 0 -40 -4 -60 -12c19 -13 28 -29 28 -47c0 -29 -21 -46 -58 -46c-30 0 -51 19 -51 47c0 43 61 82 152 82
c106 0 151 -40 151 -128v-152c0 -17 4 -25 17 -25c16 0 24 14 25 43zM248 570c-81 -13 -122 -49 -122 -104c0 -34 20 -54 50 -54c42 0 72 30 72 77v81z" />
    <glyph glyph-name="Lslash" unicode="&#x141;" horiz-adv-x="713" 
d="M22 0v37c85 1 104 13 104 76v158l-117 -81v57l117 81v267c0 74 -13 92 -85 92h-19v35h369v-35c-7 0 -13 1 -20 1c-68 0 -89 -22 -89 -87v-192l139 98v-58l-139 -98v-229c0 -71 14 -85 83 -85c151 0 223 67 272 242h36l-11 -279h-640z" />
    <glyph glyph-name="Oslash" unicode="&#xd8;" horiz-adv-x="766" 
d="M70 -83l93 145c-81 76 -125 179 -125 293c0 102 37 198 101 269c65 72 155 112 246 112c63 0 121 -19 177 -56l69 107h55l-86 -134c85 -75 131 -179 131 -298c0 -99 -38 -199 -102 -270c-64 -72 -150 -110 -244 -110c-68 0 -128 19 -185 58l-75 -116h-55zM229 163
l290 449c-32 58 -76 87 -134 87c-121 0 -171 -113 -171 -343c0 -80 5 -144 15 -193zM539 559l-291 -451c33 -64 79 -96 137 -96c55 0 97 26 129 79c37 61 42 147 42 265c0 86 -2 153 -17 203z" />
    <glyph glyph-name="OE" unicode="&#x152;" horiz-adv-x="1042" 
d="M1015 0h-659c-97 0 -178 34 -245 103c-65 67 -102 160 -102 257c0 96 36 186 101 255c65 68 155 107 246 107h640l16 -263h-41c-39 159 -114 227 -251 227c-66 0 -86 -15 -86 -65v-227c96 1 143 43 154 139h34v-338h-34c-11 104 -54 152 -139 152h-15v-235
c0 -57 11 -75 82 -75c140 0 218 74 273 242h37zM481 153v416c0 78 -40 117 -119 117c-133 0 -178 -103 -178 -325c0 -220 47 -326 174 -326c81 0 123 40 123 118z" />
    <glyph glyph-name="ordmasculine" unicode="&#xba;" horiz-adv-x="412" 
d="M24 553c0 106 75 178 182 178c106 0 182 -73 182 -178s-76 -178 -182 -178c-107 0 -182 72 -182 178zM137 553c0 -104 8 -154 69 -154s69 50 69 154s-8 154 -69 154s-69 -50 -69 -154z" />
    <glyph glyph-name="ae" unicode="&#xe6;" horiz-adv-x="773" 
d="M716 131l29 -9c-37 -91 -111 -140 -208 -140c-76 0 -135 31 -170 87c-58 -57 -123 -86 -189 -86c-94 0 -146 44 -146 119c0 96 99 162 297 195l-1 85c0 55 -26 77 -88 77c-30 0 -56 -5 -80 -19c26 -16 41 -40 41 -65c0 -39 -30 -70 -74 -70c-40 0 -71 31 -71 72
c0 62 69 114 188 114c80 0 134 -19 162 -57c36 37 82 57 133 57c114 0 198 -98 198 -251v-3h-273v-15c0 -115 44 -175 125 -175c54 0 101 30 127 84zM328 265c-107 -28 -159 -74 -159 -145c0 -49 28 -81 69 -81c55 0 91 40 91 110zM605 275v8c0 118 -23 177 -70 177
c-44 0 -70 -62 -70 -184z" />
    <glyph glyph-name="dotlessi" unicode="&#x131;" horiz-adv-x="331" 
d="M46 0v34c51 1 62 11 62 54v298c0 45 -21 61 -71 61v32l201 12v-403c0 -42 10 -54 58 -54v-34h-250z" />
    <glyph glyph-name="lslash" unicode="&#x142;" horiz-adv-x="352" 
d="M49 0v34h4c45 0 53 15 53 61v198l-115 -82v49l115 81v292c0 42 -14 57 -59 57h-9v32l201 14v-327l114 82v-49l-114 -81v-264c0 -49 12 -62 66 -63v-34h-256z" />
    <glyph glyph-name="oslash" unicode="&#xf8;" horiz-adv-x="549" 
d="M44 -93l78 127c-61 48 -92 116 -92 203c0 151 101 254 243 254c44 0 80 -8 111 -26l58 95h51l-72 -118c62 -47 94 -117 94 -205c0 -150 -100 -254 -242 -254c-42 0 -80 9 -115 27l-63 -103h-51zM181 132l168 275c-10 33 -35 50 -76 50c-79 0 -100 -55 -100 -184
c0 -34 3 -81 8 -141zM366 348l-171 -276c9 -37 35 -55 80 -55c77 0 97 56 97 186c0 36 -2 85 -6 145z" />
    <glyph glyph-name="oe" unicode="&#x153;" horiz-adv-x="775" 
d="M184 238c0 -147 8 -218 81 -218c72 0 82 71 82 218s-10 218 -82 218c-73 0 -81 -71 -81 -218zM723 125l31 -10c-40 -86 -110 -133 -199 -133c-54 0 -97 19 -141 59c-45 -40 -94 -58 -153 -58c-135 0 -233 102 -233 254s98 254 235 254c58 0 105 -19 151 -58
c33 37 77 57 135 57c123 0 199 -94 199 -253h-266c-1 -10 -1 -20 -1 -29c0 -106 42 -161 119 -161c48 0 91 26 123 78zM614 276v9c0 118 -19 175 -66 175c-44 0 -66 -53 -66 -158v-26h132z" />
    <glyph glyph-name="germandbls" unicode="&#xdf;" horiz-adv-x="606" 
d="M32 0v37c53 3 59 23 59 86v400c0 141 72 212 214 212c143 0 221 -63 221 -164c0 -77 -51 -130 -141 -142v-8c117 -19 181 -95 181 -209c0 -136 -86 -226 -211 -226c-28 0 -51 4 -70 14v42c15 -12 37 -19 56 -19c59 0 74 59 74 183c0 132 -1 196 -75 196h-9
c-24 0 -38 1 -38 16c0 26 41 11 63 26c24 16 30 57 30 126c0 93 -14 131 -81 131c-63 0 -80 -37 -80 -118v-583h-193z" />
    <glyph glyph-name="Aacute" unicode="&#xc1;" horiz-adv-x="711" 
d="M0 0v33c67 14 107 54 133 126l207 577h59l212 -625c18 -52 32 -78 94 -78v-33h-323v33c55 2 77 15 77 51c0 9 -2 23 -7 38l-33 95h-227l-23 -62c-8 -22 -12 -42 -12 -58c0 -38 36 -61 103 -64v-33h-260zM208 261h196l-95 284zM275 790l135 145c28 30 51 46 77 46
c30 0 53 -23 53 -53c0 -25 -17 -41 -51 -58l-159 -80h-55z" />
    <glyph glyph-name="Acircumflex" unicode="&#xc2;" horiz-adv-x="711" 
d="M0 0v33c67 14 107 54 133 126l207 577h59l212 -625c18 -52 32 -78 94 -78v-33h-323v33c55 2 77 15 77 51c0 9 -2 23 -7 38l-33 95h-227l-23 -62c-8 -22 -12 -42 -12 -58c0 -38 36 -61 103 -64v-33h-260zM208 261h196l-95 284zM218 790l115 181h90l112 -181h-49l-108 84
l-108 -84h-52z" />
    <glyph glyph-name="Adieresis" unicode="&#xc4;" horiz-adv-x="711" 
d="M0 0v33c67 14 107 54 133 126l207 577h59l212 -625c18 -52 32 -78 94 -78v-33h-323v33c55 2 77 15 77 51c0 9 -2 23 -7 38l-33 95h-227l-23 -62c-8 -22 -12 -42 -12 -58c0 -38 36 -61 103 -64v-33h-260zM208 261h196l-95 284zM213 881c0 37 32 69 70 69
c39 0 70 -31 70 -69c0 -41 -30 -71 -70 -71c-39 0 -70 31 -70 71zM403 881c0 37 32 69 70 69c39 0 70 -31 70 -69c0 -41 -30 -71 -70 -71c-39 0 -70 31 -70 71z" />
    <glyph glyph-name="Agrave" unicode="&#xc0;" horiz-adv-x="711" 
d="M0 0v33c67 14 107 54 133 126l207 577h59l212 -625c18 -52 32 -78 94 -78v-33h-323v33c55 2 77 15 77 51c0 9 -2 23 -7 38l-33 95h-227l-23 -62c-8 -22 -12 -42 -12 -58c0 -38 36 -61 103 -64v-33h-260zM208 261h196l-95 284zM482 790h-55l-160 80c-34 17 -50 33 -50 58
c0 30 23 53 53 53c26 0 48 -16 76 -46z" />
    <glyph glyph-name="Aring" unicode="&#xc5;" horiz-adv-x="711" 
d="M208 261h196l-95 284zM318 848c0 -30 23 -53 53 -53s52 23 52 53c0 29 -23 52 -52 52s-53 -23 -53 -52zM340 736c-53 17 -85 60 -85 112c0 64 51 115 116 115c64 0 115 -51 115 -115c0 -53 -33 -98 -87 -112l212 -625c18 -52 32 -78 94 -78v-33h-323v33c55 2 77 15 77 51
c0 9 -2 23 -7 38l-33 95h-227l-23 -62c-8 -22 -12 -42 -12 -58c0 -38 36 -61 103 -64v-33h-260v33c67 14 107 54 133 126z" />
    <glyph glyph-name="Atilde" unicode="&#xc3;" horiz-adv-x="711" 
d="M0 0v33c67 14 107 54 133 126l207 577h59l212 -625c18 -52 32 -78 94 -78v-33h-323v33c55 2 77 15 77 51c0 9 -2 23 -7 38l-33 95h-227l-23 -62c-8 -22 -12 -42 -12 -58c0 -38 36 -61 103 -64v-33h-260zM208 261h196l-95 284zM259 805h-41c17 87 53 130 113 130
c12 0 25 -2 39 -6l59 -15c9 -2 16 -4 22 -4c25 0 37 14 46 45h41c-17 -86 -56 -130 -111 -130c-11 0 -22 2 -34 5l-58 16c-12 3 -21 5 -28 5c-26 0 -42 -16 -48 -46z" />
    <glyph glyph-name="Ccedilla" unicode="&#xc7;" horiz-adv-x="706" 
d="M618 234h35c-3 -161 -104 -260 -262 -260c-73 0 -140 20 -197 60c-98 69 -156 184 -156 320c0 101 43 206 115 280c65 66 147 102 229 102c105 0 162 -55 183 -55c12 0 24 19 44 53h35l7 -269h-43c-40 158 -110 235 -217 235c-123 0 -181 -116 -181 -352
c0 -219 63 -328 193 -328c122 0 207 81 215 214zM224 -184l24 49c48 -25 84 -38 111 -38c30 0 47 13 47 38c0 26 -16 40 -45 40c-8 0 -18 -1 -30 -4v99h42v-56c12 2 23 3 33 3c57 0 91 -32 91 -83c0 -55 -42 -92 -105 -92c-54 0 -106 18 -168 44z" />
    <glyph glyph-name="Eacute" unicode="&#xc9;" horiz-adv-x="766" 
d="M294 392c8 -1 16 -1 23 -1c83 0 122 42 139 143h31v-337h-32c-11 111 -54 159 -152 159h-9v-250c0 -62 22 -70 90 -70c139 0 207 72 266 244h37l-12 -280h-645v34c84 3 104 17 104 84v490c0 62 -21 80 -97 80h-7v34h627l15 -258l-41 -5c-39 158 -120 232 -257 232
c-55 0 -80 -22 -80 -69v-230zM271 790l135 145c28 30 51 46 77 46c30 0 53 -23 53 -53c0 -25 -17 -41 -51 -58l-159 -80h-55z" />
    <glyph glyph-name="Ecircumflex" unicode="&#xca;" horiz-adv-x="766" 
d="M294 392c8 -1 16 -1 23 -1c83 0 122 42 139 143h31v-337h-32c-11 111 -54 159 -152 159h-9v-250c0 -62 22 -70 90 -70c139 0 207 72 266 244h37l-12 -280h-645v34c84 3 104 17 104 84v490c0 62 -21 80 -97 80h-7v34h627l15 -258l-41 -5c-39 158 -120 232 -257 232
c-55 0 -80 -22 -80 -69v-230zM214 790l115 181h90l112 -181h-49l-108 84l-108 -84h-52z" />
    <glyph glyph-name="Edieresis" unicode="&#xcb;" horiz-adv-x="766" 
d="M294 392c8 -1 16 -1 23 -1c83 0 122 42 139 143h31v-337h-32c-11 111 -54 159 -152 159h-9v-250c0 -62 22 -70 90 -70c139 0 207 72 266 244h37l-12 -280h-645v34c84 3 104 17 104 84v490c0 62 -21 80 -97 80h-7v34h627l15 -258l-41 -5c-39 158 -120 232 -257 232
c-55 0 -80 -22 -80 -69v-230zM209 881c0 37 32 69 70 69c39 0 70 -31 70 -69c0 -41 -30 -71 -70 -71c-39 0 -70 31 -70 71zM399 881c0 37 32 69 70 69c39 0 70 -31 70 -69c0 -41 -30 -71 -70 -71c-39 0 -70 31 -70 71z" />
    <glyph glyph-name="Egrave" unicode="&#xc8;" horiz-adv-x="766" 
d="M294 392c8 -1 16 -1 23 -1c83 0 122 42 139 143h31v-337h-32c-11 111 -54 159 -152 159h-9v-250c0 -62 22 -70 90 -70c139 0 207 72 266 244h37l-12 -280h-645v34c84 3 104 17 104 84v490c0 62 -21 80 -97 80h-7v34h627l15 -258l-41 -5c-39 158 -120 232 -257 232
c-55 0 -80 -22 -80 -69v-230zM478 790h-55l-160 80c-34 17 -50 33 -50 58c0 30 23 53 53 53c26 0 48 -16 76 -46z" />
    <glyph glyph-name="Eth" unicode="&#xd0;" horiz-adv-x="770" 
d="M278 99c0 -56 12 -63 84 -63c157 0 202 95 202 319c0 240 -40 332 -215 332c-56 0 -71 -13 -71 -65v-217h160v-47h-160v-259zM28 0v37c84 3 97 16 97 78v243h-130v47h130v211c0 58 -23 74 -85 74h-12v32h302c87 0 160 -2 227 -39c107 -59 177 -183 177 -320
c0 -139 -63 -255 -165 -315c-73 -43 -154 -48 -254 -48h-287z" />
    <glyph glyph-name="Euro" unicode="&#x20ac;" horiz-adv-x="493" 
d="M480 191c-6 -109 -52 -207 -167 -207c-127 0 -214 119 -235 280h-82l10 37h69c-1 14 -2 29 -2 44c0 17 1 35 3 52h-80l10 37h75c26 146 113 274 230 274c71 0 95 -48 109 -48c8 0 16 14 29 46h24l5 -194h-35c-25 92 -60 166 -126 166c-65 0 -97 -95 -106 -244h237
l-10 -37h-229c-1 -19 -1 -38 -1 -58v-38h204l-10 -37h-193c6 -149 35 -243 112 -243c76 0 119 82 126 170h33z" />
    <glyph glyph-name="Iacute" unicode="&#xcd;" horiz-adv-x="420" 
d="M41 0v37c69 0 92 22 92 80v496c0 52 -25 72 -83 72h-9v37h339v-37h-11c-54 0 -80 -21 -80 -70v-502c0 -57 19 -73 80 -73h11v-40h-339zM114 790l135 145c28 30 51 46 77 46c30 0 53 -23 53 -53c0 -25 -17 -41 -51 -58l-159 -80h-55z" />
    <glyph glyph-name="Icircumflex" unicode="&#xce;" horiz-adv-x="420" 
d="M41 0v37c69 0 92 22 92 80v496c0 52 -25 72 -83 72h-9v37h339v-37h-11c-54 0 -80 -21 -80 -70v-502c0 -57 19 -73 80 -73h11v-40h-339zM57 790l115 181h90l112 -181h-49l-108 84l-108 -84h-52z" />
    <glyph glyph-name="Idieresis" unicode="&#xcf;" horiz-adv-x="420" 
d="M41 0v37c69 0 92 22 92 80v496c0 52 -25 72 -83 72h-9v37h339v-37h-11c-54 0 -80 -21 -80 -70v-502c0 -57 19 -73 80 -73h11v-40h-339zM52 881c0 37 32 69 70 69c39 0 70 -31 70 -69c0 -41 -30 -71 -70 -71c-39 0 -70 31 -70 71zM242 881c0 37 32 69 70 69
c39 0 70 -31 70 -69c0 -41 -30 -71 -70 -71c-39 0 -70 31 -70 71z" />
    <glyph glyph-name="Igrave" unicode="&#xcc;" horiz-adv-x="420" 
d="M41 0v37c69 0 92 22 92 80v496c0 52 -25 72 -83 72h-9v37h339v-37h-11c-54 0 -80 -21 -80 -70v-502c0 -57 19 -73 80 -73h11v-40h-339zM321 790h-55l-160 80c-34 17 -50 33 -50 58c0 30 23 53 53 53c26 0 48 -16 76 -46z" />
    <glyph glyph-name="Ntilde" unicode="&#xd1;" horiz-adv-x="769" 
d="M16 0v37c79 3 112 41 112 125v457l-35 38c-19 20 -44 29 -77 30v35h228l360 -478v324c0 76 -38 117 -110 119v35h258v-37c-69 -2 -108 -44 -108 -120v-565h-46l-433 569v-406c0 -86 31 -123 116 -126v-37h-265zM273 805h-41c17 87 53 130 113 130c12 0 25 -2 39 -6
l59 -15c9 -2 16 -4 22 -4c25 0 37 14 46 45h41c-17 -86 -56 -130 -111 -130c-11 0 -22 2 -34 5l-58 16c-12 3 -21 5 -28 5c-26 0 -42 -16 -48 -46z" />
    <glyph glyph-name="Oacute" unicode="&#xd3;" horiz-adv-x="766" 
d="M383 -25c-99 0 -177 35 -244 110c-66 73 -102 169 -102 270c0 102 37 198 101 269c65 72 155 112 246 112c90 0 178 -39 244 -111c65 -70 101 -166 101 -270c0 -99 -37 -199 -101 -270c-65 -72 -151 -110 -245 -110zM213 337c0 -217 55 -325 170 -325c55 0 97 26 129 79
c37 61 42 147 42 265c0 117 -6 203 -42 264c-32 53 -74 79 -129 79c-53 0 -96 -27 -127 -79c-37 -62 -43 -154 -43 -283zM287 790l135 145c28 30 51 46 77 46c30 0 53 -23 53 -53c0 -25 -17 -41 -51 -58l-159 -80h-55z" />
    <glyph glyph-name="Ocircumflex" unicode="&#xd4;" horiz-adv-x="766" 
d="M383 -25c-99 0 -177 35 -244 110c-66 73 -102 169 -102 270c0 102 37 198 101 269c65 72 155 112 246 112c90 0 178 -39 244 -111c65 -70 101 -166 101 -270c0 -99 -37 -199 -101 -270c-65 -72 -151 -110 -245 -110zM213 337c0 -217 55 -325 170 -325c55 0 97 26 129 79
c37 61 42 147 42 265c0 117 -6 203 -42 264c-32 53 -74 79 -129 79c-53 0 -96 -27 -127 -79c-37 -62 -43 -154 -43 -283zM230 790l115 181h90l112 -181h-49l-108 84l-108 -84h-52z" />
    <glyph glyph-name="Odieresis" unicode="&#xd6;" horiz-adv-x="766" 
d="M383 -25c-99 0 -177 35 -244 110c-66 73 -102 169 -102 270c0 102 37 198 101 269c65 72 155 112 246 112c90 0 178 -39 244 -111c65 -70 101 -166 101 -270c0 -99 -37 -199 -101 -270c-65 -72 -151 -110 -245 -110zM213 337c0 -217 55 -325 170 -325c55 0 97 26 129 79
c37 61 42 147 42 265c0 117 -6 203 -42 264c-32 53 -74 79 -129 79c-53 0 -96 -27 -127 -79c-37 -62 -43 -154 -43 -283zM225 881c0 37 32 69 70 69c39 0 70 -31 70 -69c0 -41 -30 -71 -70 -71c-39 0 -70 31 -70 71zM415 881c0 37 32 69 70 69c39 0 70 -31 70 -69
c0 -41 -30 -71 -70 -71c-39 0 -70 31 -70 71z" />
    <glyph glyph-name="Ograve" unicode="&#xd2;" horiz-adv-x="766" 
d="M383 -25c-99 0 -177 35 -244 110c-66 73 -102 169 -102 270c0 102 37 198 101 269c65 72 155 112 246 112c90 0 178 -39 244 -111c65 -70 101 -166 101 -270c0 -99 -37 -199 -101 -270c-65 -72 -151 -110 -245 -110zM213 337c0 -217 55 -325 170 -325c55 0 97 26 129 79
c37 61 42 147 42 265c0 117 -6 203 -42 264c-32 53 -74 79 -129 79c-53 0 -96 -27 -127 -79c-37 -62 -43 -154 -43 -283zM494 790h-55l-160 80c-34 17 -50 33 -50 58c0 30 23 53 53 53c26 0 48 -16 76 -46z" />
    <glyph glyph-name="Otilde" unicode="&#xd5;" horiz-adv-x="766" 
d="M383 -25c-99 0 -177 35 -244 110c-66 73 -102 169 -102 270c0 102 37 198 101 269c65 72 155 112 246 112c90 0 178 -39 244 -111c65 -70 101 -166 101 -270c0 -99 -37 -199 -101 -270c-65 -72 -151 -110 -245 -110zM213 337c0 -217 55 -325 170 -325c55 0 97 26 129 79
c37 61 42 147 42 265c0 117 -6 203 -42 264c-32 53 -74 79 -129 79c-53 0 -96 -27 -127 -79c-37 -62 -43 -154 -43 -283zM271 805h-41c17 87 53 130 113 130c12 0 25 -2 39 -6l59 -15c9 -2 16 -4 22 -4c25 0 37 14 46 45h41c-17 -86 -56 -130 -111 -130c-11 0 -22 2 -34 5
l-58 16c-12 3 -21 5 -28 5c-26 0 -42 -16 -48 -46z" />
    <glyph glyph-name="Scaron" unicode="&#x160;" horiz-adv-x="605" 
d="M45 -24l-5 283h35c54 -161 152 -247 264 -247c90 0 147 52 147 120c0 66 -50 112 -152 142c-94 28 -174 44 -231 97c-45 42 -68 95 -68 155c0 119 91 211 211 211c95 0 145 -57 173 -57c14 0 37 18 66 56h29l3 -267h-33c-47 151 -136 231 -247 231
c-68 0 -125 -48 -125 -111c0 -59 47 -98 145 -126c103 -30 181 -51 229 -88c58 -45 89 -105 89 -176c0 -136 -89 -227 -236 -227c-70 0 -111 20 -150 40c-18 9 -30 19 -42 19c-18 0 -40 -19 -69 -55h-33zM153 971h49l108 -84l108 84h49l-112 -181h-90z" />
    <glyph glyph-name="Thorn" unicode="&#xde;" horiz-adv-x="712" 
d="M20 0v37c83 1 101 12 101 71v514c0 51 -24 65 -87 65h-14v35h353v-35h-14c-63 0 -87 -14 -87 -65v-42h75c216 0 324 -61 324 -191c0 -128 -119 -196 -354 -196c-14 0 -29 0 -45 1v-88c0 -56 19 -69 82 -69h23v-37h-357zM272 228c12 -1 25 -1 40 -1c138 0 185 40 185 170
c0 111 -28 153 -130 153c-66 0 -95 -17 -95 -65v-257z" />
    <glyph glyph-name="Uacute" unicode="&#xda;" horiz-adv-x="765" 
d="M20 687v35h356v-36h-6c-74 0 -97 -20 -97 -87v-398c0 -126 40 -183 163 -183c108 0 169 65 169 176v362c0 83 -29 121 -107 133v33h248v-35c-66 -9 -99 -48 -99 -118v-339c0 -69 -2 -123 -36 -171c-43 -61 -107 -86 -203 -86c-116 0 -201 29 -246 80
c-33 37 -40 82 -40 145v391c0 75 -15 97 -102 98zM319 790l135 145c28 30 51 46 77 46c30 0 53 -23 53 -53c0 -25 -17 -41 -51 -58l-159 -80h-55z" />
    <glyph glyph-name="Ucircumflex" unicode="&#xdb;" horiz-adv-x="765" 
d="M20 687v35h356v-36h-6c-74 0 -97 -20 -97 -87v-398c0 -126 40 -183 163 -183c108 0 169 65 169 176v362c0 83 -29 121 -107 133v33h248v-35c-66 -9 -99 -48 -99 -118v-339c0 -69 -2 -123 -36 -171c-43 -61 -107 -86 -203 -86c-116 0 -201 29 -246 80
c-33 37 -40 82 -40 145v391c0 75 -15 97 -102 98zM262 790l115 181h90l112 -181h-49l-108 84l-108 -84h-52z" />
    <glyph glyph-name="Udieresis" unicode="&#xdc;" horiz-adv-x="765" 
d="M20 687v35h356v-36h-6c-74 0 -97 -20 -97 -87v-398c0 -126 40 -183 163 -183c108 0 169 65 169 176v362c0 83 -29 121 -107 133v33h248v-35c-66 -9 -99 -48 -99 -118v-339c0 -69 -2 -123 -36 -171c-43 -61 -107 -86 -203 -86c-116 0 -201 29 -246 80
c-33 37 -40 82 -40 145v391c0 75 -15 97 -102 98zM257 881c0 37 32 69 70 69c39 0 70 -31 70 -69c0 -41 -30 -71 -70 -71c-39 0 -70 31 -70 71zM447 881c0 37 32 69 70 69c39 0 70 -31 70 -69c0 -41 -30 -71 -70 -71c-39 0 -70 31 -70 71z" />
    <glyph glyph-name="Ugrave" unicode="&#xd9;" horiz-adv-x="765" 
d="M20 687v35h356v-36h-6c-74 0 -97 -20 -97 -87v-398c0 -126 40 -183 163 -183c108 0 169 65 169 176v362c0 83 -29 121 -107 133v33h248v-35c-66 -9 -99 -48 -99 -118v-339c0 -69 -2 -123 -36 -171c-43 -61 -107 -86 -203 -86c-116 0 -201 29 -246 80
c-33 37 -40 82 -40 145v391c0 75 -15 97 -102 98zM526 790h-55l-160 80c-34 17 -50 33 -50 58c0 30 23 53 53 53c26 0 48 -16 76 -46z" />
    <glyph glyph-name="Yacute" unicode="&#xdd;" horiz-adv-x="765" 
d="M189 0v37c91 5 110 10 110 67v222l-173 301c-24 42 -56 61 -106 64v31h350v-31c-58 -3 -83 -4 -83 -32c0 -11 5 -19 11 -28l140 -235l106 182c11 19 24 34 24 57c0 38 -33 54 -102 56v31h278v-32c-60 -5 -106 -33 -130 -72l-159 -264v-248c0 -55 20 -68 102 -70v-36h-368
zM287 790l135 145c28 30 51 46 77 46c30 0 53 -23 53 -53c0 -25 -17 -41 -51 -58l-159 -80h-55z" />
    <glyph glyph-name="Ydieresis" unicode="&#x178;" horiz-adv-x="765" 
d="M189 0v37c91 5 110 10 110 67v222l-173 301c-24 42 -56 61 -106 64v31h350v-31c-58 -3 -83 -4 -83 -32c0 -11 5 -19 11 -28l140 -235l106 182c11 19 24 34 24 57c0 38 -33 54 -102 56v31h278v-32c-60 -5 -106 -33 -130 -72l-159 -264v-248c0 -55 20 -68 102 -70v-36h-368
zM225 881c0 37 32 69 70 69c39 0 70 -31 70 -69c0 -41 -30 -71 -70 -71c-39 0 -70 31 -70 71zM415 881c0 37 32 69 70 69c39 0 70 -31 70 -69c0 -41 -30 -71 -70 -71c-39 0 -70 31 -70 71z" />
    <glyph glyph-name="Zcaron" unicode="&#x17d;" horiz-adv-x="658" 
d="M36 0v32l402 657h-75c-136 0 -204 -58 -254 -224h-32l10 257h526v-25l-399 -660h73c162 0 248 72 294 247h30l-12 -284h-563zM179 971h49l108 -84l108 84h49l-112 -181h-90z" />
    <glyph glyph-name="aacute" unicode="&#xe1;" horiz-adv-x="549" 
d="M515 114h24v-14c0 -75 -39 -116 -111 -116c-50 0 -80 21 -94 67c-42 -44 -95 -67 -157 -67c-89 0 -141 46 -141 111c0 97 100 171 294 200v81c0 54 -27 79 -87 79c-28 0 -54 -6 -81 -18c26 -18 38 -41 38 -67c0 -42 -28 -66 -77 -66c-40 0 -69 28 -69 67
c0 62 82 118 203 118c141 0 202 -57 202 -183v-218c0 -24 5 -35 22 -35c21 0 32 20 34 61zM330 262c-107 -19 -162 -71 -162 -149c0 -49 26 -77 67 -77c56 0 95 42 95 110v116zM158 545l135 145c28 30 51 46 77 46c30 0 53 -23 53 -53c0 -25 -17 -41 -51 -58l-159 -80h-55z
" />
    <glyph glyph-name="acircumflex" unicode="&#xe2;" horiz-adv-x="549" 
d="M515 114h24v-14c0 -75 -39 -116 -111 -116c-50 0 -80 21 -94 67c-42 -44 -95 -67 -157 -67c-89 0 -141 46 -141 111c0 97 100 171 294 200v81c0 54 -27 79 -87 79c-28 0 -54 -6 -81 -18c26 -18 38 -41 38 -67c0 -42 -28 -66 -77 -66c-40 0 -69 28 -69 67
c0 62 82 118 203 118c141 0 202 -57 202 -183v-218c0 -24 5 -35 22 -35c21 0 32 20 34 61zM330 262c-107 -19 -162 -71 -162 -149c0 -49 26 -77 67 -77c56 0 95 42 95 110v116zM101 545l115 181h90l112 -181h-49l-108 84l-108 -84h-52z" />
    <glyph glyph-name="adieresis" unicode="&#xe4;" horiz-adv-x="549" 
d="M515 114h24v-14c0 -75 -39 -116 -111 -116c-50 0 -80 21 -94 67c-42 -44 -95 -67 -157 -67c-89 0 -141 46 -141 111c0 97 100 171 294 200v81c0 54 -27 79 -87 79c-28 0 -54 -6 -81 -18c26 -18 38 -41 38 -67c0 -42 -28 -66 -77 -66c-40 0 -69 28 -69 67
c0 62 82 118 203 118c141 0 202 -57 202 -183v-218c0 -24 5 -35 22 -35c21 0 32 20 34 61zM330 262c-107 -19 -162 -71 -162 -149c0 -49 26 -77 67 -77c56 0 95 42 95 110v116zM96 636c0 37 32 69 70 69c39 0 70 -31 70 -69c0 -41 -30 -71 -70 -71c-39 0 -70 31 -70 71z
M286 636c0 37 32 69 70 69c39 0 70 -31 70 -69c0 -41 -30 -71 -70 -71c-39 0 -70 31 -70 71z" />
    <glyph glyph-name="agrave" unicode="&#xe0;" horiz-adv-x="549" 
d="M515 114h24v-14c0 -75 -39 -116 -111 -116c-50 0 -80 21 -94 67c-42 -44 -95 -67 -157 -67c-89 0 -141 46 -141 111c0 97 100 171 294 200v81c0 54 -27 79 -87 79c-28 0 -54 -6 -81 -18c26 -18 38 -41 38 -67c0 -42 -28 -66 -77 -66c-40 0 -69 28 -69 67
c0 62 82 118 203 118c141 0 202 -57 202 -183v-218c0 -24 5 -35 22 -35c21 0 32 20 34 61zM330 262c-107 -19 -162 -71 -162 -149c0 -49 26 -77 67 -77c56 0 95 42 95 110v116zM365 545h-55l-160 80c-34 17 -50 33 -50 58c0 30 23 53 53 53c26 0 48 -16 76 -46z" />
    <glyph glyph-name="aring" unicode="&#xe5;" horiz-adv-x="549" 
d="M330 262c-107 -19 -162 -71 -162 -149c0 -49 26 -77 67 -77c56 0 95 42 95 110v116zM515 114h24v-14c0 -75 -39 -116 -111 -116c-50 0 -80 21 -94 67c-42 -44 -95 -67 -157 -67c-89 0 -141 46 -141 111c0 97 100 171 294 200v81c0 54 -27 79 -87 79c-28 0 -54 -6 -81 -18
c26 -18 38 -41 38 -67c0 -42 -28 -66 -77 -66c-40 0 -69 28 -69 67c0 62 82 118 203 118c141 0 202 -57 202 -183v-218c0 -24 5 -35 22 -35c21 0 32 20 34 61zM162 637c0 65 51 116 116 116c63 0 115 -53 115 -116c0 -65 -50 -115 -115 -115c-66 0 -116 49 -116 115z
M224 638c0 -30 23 -53 53 -53s53 23 53 53c0 29 -24 53 -53 53s-53 -24 -53 -53z" />
    <glyph glyph-name="atilde" unicode="&#xe3;" horiz-adv-x="549" 
d="M515 114h24v-14c0 -75 -39 -116 -111 -116c-50 0 -80 21 -94 67c-42 -44 -95 -67 -157 -67c-89 0 -141 46 -141 111c0 97 100 171 294 200v81c0 54 -27 79 -87 79c-28 0 -54 -6 -81 -18c26 -18 38 -41 38 -67c0 -42 -28 -66 -77 -66c-40 0 -69 28 -69 67
c0 62 82 118 203 118c141 0 202 -57 202 -183v-218c0 -24 5 -35 22 -35c21 0 32 20 34 61zM330 262c-107 -19 -162 -71 -162 -149c0 -49 26 -77 67 -77c56 0 95 42 95 110v116zM142 560h-41c17 87 53 130 113 130c12 0 25 -2 39 -6l59 -15c9 -2 16 -4 22 -4
c25 0 37 14 46 45h41c-17 -86 -56 -130 -111 -130c-11 0 -22 2 -34 5l-58 16c-12 3 -21 5 -28 5c-26 0 -42 -16 -48 -46z" />
    <glyph glyph-name="brokenbar" unicode="&#xa6;" 
d="M294 699v-370h-87v370h87zM294 199v-370h-87v370h87z" />
    <glyph glyph-name="ccedilla" unicode="&#xe7;" horiz-adv-x="486" 
d="M441 132l26 -21c-53 -84 -125 -127 -212 -127c-127 0 -222 100 -222 242c0 154 111 265 256 265c99 0 160 -50 160 -121c0 -43 -29 -72 -72 -72c-44 0 -72 26 -72 69c0 34 21 61 57 69c-21 17 -43 24 -70 24c-80 0 -108 -69 -108 -219c0 -137 28 -201 112 -201
c51 0 97 30 145 92zM99 -184l24 49c48 -25 84 -38 111 -38c30 0 47 13 47 38c0 26 -16 40 -45 40c-8 0 -18 -1 -30 -4v99h42v-56c12 2 23 3 33 3c57 0 91 -32 91 -83c0 -55 -42 -92 -105 -92c-54 0 -106 18 -168 44z" />
    <glyph glyph-name="copyright" unicode="&#xa9;" horiz-adv-x="822" 
d="M412 684c92 0 182 -38 247 -103c66 -66 104 -157 104 -250c0 -92 -37 -181 -104 -249c-66 -67 -153 -102 -248 -102c-94 0 -180 35 -248 102c-67 67 -104 154 -104 249c0 93 36 181 103 249c66 66 156 104 250 104zM715 331c0 81 -33 161 -90 218c-56 56 -134 88 -213 88
c-81 0 -159 -32 -216 -90c-58 -59 -89 -135 -89 -216c0 -83 32 -158 90 -216c59 -59 132 -89 214 -89s157 31 214 89c58 59 90 137 90 216zM569 537l1 -156h-23c-21 88 -68 133 -134 133c-75 0 -115 -61 -115 -180c0 -121 44 -185 124 -185c53 0 98 28 135 85l21 -13
c-41 -70 -97 -104 -171 -104c-115 0 -204 92 -204 210c0 121 89 212 203 212c65 0 97 -32 113 -32c18 0 26 8 30 30h20z" />
    <glyph glyph-name="degree" unicode="&#xb0;" horiz-adv-x="329" 
d="M165 713c80 0 144 -65 144 -145c0 -78 -64 -144 -145 -144c-80 0 -143 63 -143 144s64 145 144 145zM255 569c0 50 -40 90 -90 90s-91 -40 -91 -90s41 -91 91 -91c51 0 90 42 90 91z" />
    <glyph glyph-name="divide" unicode="&#xf7;" horiz-adv-x="833" 
d="M417 551c37 0 67 -31 67 -68c0 -36 -29 -66 -67 -66s-67 29 -67 66s31 68 67 68zM709 339v-81h-585v81h585zM417 179c37 0 67 -30 67 -67c0 -36 -29 -66 -67 -66s-67 29 -67 66s31 67 67 67z" />
    <glyph glyph-name="eacute" unicode="&#xe9;" horiz-adv-x="492" 
d="M431 123l30 -10c-32 -83 -101 -129 -196 -129c-131 0 -233 103 -233 246c0 154 96 261 224 261c123 0 202 -92 203 -254h-275v-13c0 -120 40 -178 127 -178c50 0 89 25 120 77zM184 276h142v20c0 108 -23 160 -71 160s-71 -52 -71 -160v-20zM154 545l135 145
c28 30 51 46 77 46c30 0 53 -23 53 -53c0 -25 -17 -41 -51 -58l-159 -80h-55z" />
    <glyph glyph-name="ecircumflex" unicode="&#xea;" horiz-adv-x="492" 
d="M431 123l30 -10c-32 -83 -101 -129 -196 -129c-131 0 -233 103 -233 246c0 154 96 261 224 261c123 0 202 -92 203 -254h-275v-13c0 -120 40 -178 127 -178c50 0 89 25 120 77zM184 276h142v20c0 108 -23 160 -71 160s-71 -52 -71 -160v-20zM97 545l115 181h90l112 -181
h-49l-108 84l-108 -84h-52z" />
    <glyph glyph-name="edieresis" unicode="&#xeb;" horiz-adv-x="492" 
d="M431 123l30 -10c-32 -83 -101 -129 -196 -129c-131 0 -233 103 -233 246c0 154 96 261 224 261c123 0 202 -92 203 -254h-275v-13c0 -120 40 -178 127 -178c50 0 89 25 120 77zM184 276h142v20c0 108 -23 160 -71 160s-71 -52 -71 -160v-20zM92 636c0 37 32 69 70 69
c39 0 70 -31 70 -69c0 -41 -30 -71 -70 -71c-39 0 -70 31 -70 71zM282 636c0 37 32 69 70 69c39 0 70 -31 70 -69c0 -41 -30 -71 -70 -71c-39 0 -70 31 -70 71z" />
    <glyph glyph-name="egrave" unicode="&#xe8;" horiz-adv-x="492" 
d="M431 123l30 -10c-32 -83 -101 -129 -196 -129c-131 0 -233 103 -233 246c0 154 96 261 224 261c123 0 202 -92 203 -254h-275v-13c0 -120 40 -178 127 -178c50 0 89 25 120 77zM184 276h142v20c0 108 -23 160 -71 160s-71 -52 -71 -160v-20zM361 545h-55l-160 80
c-34 17 -50 33 -50 58c0 30 23 53 53 53c26 0 48 -16 76 -46z" />
    <glyph glyph-name="eth" unicode="&#xf0;" horiz-adv-x="549" 
d="M187 224c0 -142 10 -208 87 -208s88 66 88 208c0 141 -11 209 -88 209s-87 -68 -87 -209zM350 452c-1 53 -14 100 -40 138l-162 -64l-14 39l153 60c-24 30 -53 56 -92 80l27 31c44 -21 87 -50 130 -87l144 56l14 -38l-126 -48c80 -88 122 -208 122 -351
c0 -187 -86 -285 -232 -285c-134 0 -230 98 -230 241s96 241 230 241c28 0 53 -3 76 -13z" />
    <glyph glyph-name="iacute" unicode="&#xed;" horiz-adv-x="331" 
d="M46 0v34c51 1 62 11 62 54v298c0 45 -21 61 -71 61v32l201 12v-403c0 -42 10 -54 58 -54v-34h-250zM59 545l135 145c28 30 51 46 77 46c30 0 53 -23 53 -53c0 -25 -17 -41 -51 -58l-159 -80h-55z" />
    <glyph glyph-name="icircumflex" unicode="&#xee;" horiz-adv-x="331" 
d="M46 0v34c51 1 62 11 62 54v298c0 45 -21 61 -71 61v32l201 12v-403c0 -42 10 -54 58 -54v-34h-250zM2 545l115 181h90l112 -181h-49l-108 84l-108 -84h-52z" />
    <glyph glyph-name="idieresis" unicode="&#xef;" horiz-adv-x="331" 
d="M46 0v34c51 1 62 11 62 54v298c0 45 -21 61 -71 61v32l201 12v-403c0 -42 10 -54 58 -54v-34h-250zM-3 636c0 37 32 69 70 69c39 0 70 -31 70 -69c0 -41 -30 -71 -70 -71c-39 0 -70 31 -70 71zM187 636c0 37 32 69 70 69c39 0 70 -31 70 -69c0 -41 -30 -71 -70 -71
c-39 0 -70 31 -70 71z" />
    <glyph glyph-name="igrave" unicode="&#xec;" horiz-adv-x="331" 
d="M46 0v34c51 1 62 11 62 54v298c0 45 -21 61 -71 61v32l201 12v-403c0 -42 10 -54 58 -54v-34h-250zM266 545h-55l-160 80c-34 17 -50 33 -50 58c0 30 23 53 53 53c26 0 48 -16 76 -46z" />
    <glyph glyph-name="logicalnot" unicode="&#xac;" horiz-adv-x="833" 
d="M709 421v-245h-81v164h-504v81h585z" />
    <glyph glyph-name="minus" unicode="&#x2212;" horiz-adv-x="833" 
d="M709 340v-83h-585v83h585z" />
    <glyph glyph-name="mu" unicode="&#xb5;" horiz-adv-x="578" 
d="M33 182l53 250h101l-49 -228c-7 -32 -10 -55 -10 -68c0 -42 26 -67 68 -67c57 0 89 34 105 108l54 255h102l-55 -260c-4 -19 -9 -39 -9 -61c0 -28 16 -44 42 -44c27 0 46 14 63 44c15 27 18 53 36 53c8 0 11 -5 11 -15c0 -14 -10 -58 -28 -91c-26 -46 -61 -70 -107 -70
c-54 0 -85 36 -86 103c-28 -68 -72 -103 -130 -103c-64 0 -103 38 -110 110c-38 -205 -23 -303 -89 -303c-30 0 -48 18 -48 49c0 52 48 160 86 338z" />
    <glyph glyph-name="multiply" unicode="&#xd7;" horiz-adv-x="833" 
d="M421 356l225 224l57 -57l-224 -225l224 -224l-57 -58l-225 225l-224 -225l-57 58l224 224l-224 225l57 57z" />
    <glyph glyph-name="ntilde" unicode="&#xf1;" horiz-adv-x="605" 
d="M30 0v34c45 2 56 14 56 52v303c0 41 -12 57 -56 58v31l183 12v-107c37 58 92 106 165 106c116 0 147 -67 147 -209v-193c0 -37 10 -52 52 -53v-34h-184v259c0 102 -8 149 -72 149c-61 0 -103 -46 -103 -115v-197c0 -43 17 -62 58 -62h6v-34h-252zM192 560h-41
c17 87 53 130 113 130c12 0 25 -2 39 -6l59 -15c9 -2 16 -4 22 -4c25 0 37 14 46 45h41c-17 -86 -56 -130 -111 -130c-11 0 -22 2 -34 5l-58 16c-12 3 -21 5 -28 5c-26 0 -42 -16 -48 -46z" />
    <glyph glyph-name="oacute" unicode="&#xf3;" horiz-adv-x="549" 
d="M32 237c0 151 100 254 242 254s243 -104 243 -254s-101 -254 -243 -254s-242 103 -242 254zM182 237c0 -149 11 -220 92 -220c82 0 92 71 92 220s-10 220 -92 220c-81 0 -92 -71 -92 -220zM180 545l135 145c28 30 51 46 77 46c30 0 53 -23 53 -53c0 -25 -17 -41 -51 -58
l-159 -80h-55z" />
    <glyph glyph-name="ocircumflex" unicode="&#xf4;" horiz-adv-x="549" 
d="M32 237c0 151 100 254 242 254s243 -104 243 -254s-101 -254 -243 -254s-242 103 -242 254zM182 237c0 -149 11 -220 92 -220c82 0 92 71 92 220s-10 220 -92 220c-81 0 -92 -71 -92 -220zM123 545l115 181h90l112 -181h-49l-108 84l-108 -84h-52z" />
    <glyph glyph-name="odieresis" unicode="&#xf6;" horiz-adv-x="549" 
d="M32 237c0 151 100 254 242 254s243 -104 243 -254s-101 -254 -243 -254s-242 103 -242 254zM182 237c0 -149 11 -220 92 -220c82 0 92 71 92 220s-10 220 -92 220c-81 0 -92 -71 -92 -220zM118 636c0 37 32 69 70 69c39 0 70 -31 70 -69c0 -41 -30 -71 -70 -71
c-39 0 -70 31 -70 71zM308 636c0 37 32 69 70 69c39 0 70 -31 70 -69c0 -41 -30 -71 -70 -71c-39 0 -70 31 -70 71z" />
    <glyph glyph-name="ograve" unicode="&#xf2;" horiz-adv-x="549" 
d="M32 237c0 151 100 254 242 254s243 -104 243 -254s-101 -254 -243 -254s-242 103 -242 254zM182 237c0 -149 11 -220 92 -220c82 0 92 71 92 220s-10 220 -92 220c-81 0 -92 -71 -92 -220zM387 545h-55l-160 80c-34 17 -50 33 -50 58c0 30 23 53 53 53
c26 0 48 -16 76 -46z" />
    <glyph glyph-name="onehalf" unicode="&#xbd;" horiz-adv-x="788" 
d="M48 305v20h10c48 0 65 5 65 36v231c0 34 -23 47 -73 47h-9v20c68 2 110 13 134 42h31v-341c0 -30 16 -34 62 -34h10v-21h-230zM144 -16l446 724h54l-446 -724h-54zM492 0v21c22 45 58 85 98 129c47 51 83 91 83 147c0 50 -30 80 -76 80c-33 0 -57 -17 -66 -48
c7 2 13 3 18 3c25 0 42 -17 42 -41c0 -23 -19 -41 -46 -41c-26 0 -47 20 -47 49c0 55 50 99 128 99c82 0 135 -45 135 -103c0 -44 -30 -77 -88 -120c-45 -33 -92 -62 -126 -108h125c45 0 61 11 69 58h16l-5 -125h-260z" />
    <glyph glyph-name="onequarter" unicode="&#xbc;" horiz-adv-x="788" 
d="M48 305v20h10c48 0 65 5 65 36v231c0 34 -23 47 -73 47h-9v20c68 2 110 13 134 42h31v-341c0 -30 16 -34 62 -34h10v-21h-230zM144 -16l446 724h54l-446 -724h-54zM569 0v16c43 1 58 10 58 38v41h-139v28l166 273h51v-278h62v-23h-62v-42c0 -23 16 -37 44 -37h5v-16h-185
zM627 118v202l-121 -202h121z" />
    <glyph glyph-name="onesuperior" unicode="&#xb9;" horiz-adv-x="325" 
d="M50 277v22h10c51 0 68 5 68 38v248c0 36 -23 50 -76 50h-10v21c71 3 116 14 141 46h32v-366c0 -32 17 -37 65 -37h11v-22h-241z" />
    <glyph glyph-name="otilde" unicode="&#xf5;" horiz-adv-x="549" 
d="M32 237c0 151 100 254 242 254s243 -104 243 -254s-101 -254 -243 -254s-242 103 -242 254zM182 237c0 -149 11 -220 92 -220c82 0 92 71 92 220s-10 220 -92 220c-81 0 -92 -71 -92 -220zM164 560h-41c17 87 53 130 113 130c12 0 25 -2 39 -6l59 -15c9 -2 16 -4 22 -4
c25 0 37 14 46 45h41c-17 -86 -56 -130 -111 -130c-11 0 -22 2 -34 5l-58 16c-12 3 -21 5 -28 5c-26 0 -42 -16 -48 -46z" />
    <glyph glyph-name="plusminus" unicode="&#xb1;" horiz-adv-x="833" 
d="M458 589v-163h251v-81h-251v-163h-83v163h-251v81h251v163h83zM709 89v-82h-585v82h585z" />
    <glyph glyph-name="registered" unicode="&#xae;" horiz-adv-x="822" 
d="M412 684c94 0 186 -39 251 -106c63 -65 100 -155 100 -251c0 -89 -40 -181 -110 -250c-66 -65 -149 -97 -249 -97c-87 0 -175 36 -241 102c-68 68 -104 154 -104 249c0 93 37 182 103 249c66 66 156 104 250 104zM715 331c0 80 -34 161 -90 218c-56 56 -134 88 -213 88
c-81 0 -159 -32 -216 -90c-58 -59 -89 -134 -89 -216c0 -83 32 -158 90 -216c59 -59 132 -89 214 -89s157 31 214 89c58 59 90 136 90 216zM423 535c100 0 156 -43 156 -96c0 -57 -43 -85 -138 -102c61 -16 94 -45 106 -98c9 -38 0 -77 31 -77c19 0 29 23 29 65h24v-11
c0 -56 -29 -85 -83 -85c-31 0 -53 10 -65 28c-19 31 -10 69 -17 100c-11 49 -40 71 -89 71h-12v-120c0 -33 13 -43 53 -47v-23h-190v23c42 2 55 13 55 47v254c0 34 -12 44 -55 47v24h195zM365 479v-126c15 -1 23 -1 26 -1c66 0 102 30 102 83c0 44 -31 77 -82 77
c-30 0 -46 -11 -46 -33z" />
    <glyph glyph-name="scaron" unicode="&#x161;" horiz-adv-x="442" 
d="M43 -16v195h33c36 -100 108 -157 175 -157c50 0 83 26 83 66c0 32 -27 56 -80 73l-80 26c-87 28 -133 83 -133 157c0 87 63 147 147 147c58 0 97 -35 120 -35c18 0 30 12 38 36h28v-173h-27c-45 92 -101 138 -167 138c-43 0 -73 -28 -73 -60c0 -25 22 -49 62 -62l102 -33
c88 -29 132 -83 132 -161c0 -94 -61 -157 -150 -157c-69 0 -109 38 -135 38c-20 0 -37 -13 -43 -38h-32zM60 726h49l108 -84l108 84h49l-112 -181h-90z" />
    <glyph glyph-name="thorn" unicode="&#xfe;" horiz-adv-x="553" 
d="M209 -102c0 -35 14 -52 46 -52c4 0 9 0 14 1v-32h-251v32h4c46 0 50 16 50 59v712c0 51 -12 71 -56 74v33l191 11v-311c30 43 70 65 122 65c110 0 190 -96 190 -249c0 -160 -79 -258 -189 -258c-51 0 -83 17 -121 59v-144zM207 144c0 -66 25 -98 75 -98
c68 0 92 62 92 192s-19 191 -86 191c-53 0 -81 -37 -81 -109v-176z" />
    <glyph glyph-name="threequarters" unicode="&#xbe;" horiz-adv-x="788" 
d="M161 507v-4c84 -12 128 -47 128 -98c0 -62 -62 -110 -149 -110c-77 0 -125 41 -125 89c0 29 20 49 51 49c25 0 42 -15 42 -40c0 -22 -19 -37 -41 -37c-8 0 -17 2 -26 6c16 -30 45 -46 81 -46c51 0 77 32 77 95c0 61 -16 86 -69 86c-20 0 -30 -4 -33 -4c-9 0 -14 5 -14 11
c0 8 5 13 14 13c4 0 13 -3 26 -3c50 0 72 28 72 89c0 51 -20 77 -62 77c-29 0 -50 -13 -64 -32c33 -6 49 -19 49 -42c0 -20 -15 -35 -39 -35c-26 0 -46 20 -46 46c0 43 50 84 116 84c78 0 128 -40 128 -96c0 -50 -45 -90 -116 -98zM144 -16l446 724h54l-446 -724h-54zM569 0
v16c43 1 58 10 58 38v41h-139v28l166 273h51v-278h62v-23h-62v-42c0 -23 16 -37 44 -37h5v-16h-185zM627 118v202l-121 -202h121z" />
    <glyph glyph-name="threesuperior" unicode="&#xb3;" horiz-adv-x="325" 
d="M168 494v-5c89 -13 135 -50 135 -105c0 -66 -65 -117 -156 -117c-81 0 -131 44 -131 95c0 31 21 52 53 52c27 0 45 -16 45 -43c0 -24 -20 -39 -43 -39c-10 0 -19 1 -28 6c16 -32 47 -50 85 -50c53 0 81 35 81 103c0 65 -17 91 -73 91c-20 0 -32 -4 -34 -4
c-10 0 -16 6 -16 13s6 13 16 13c4 0 13 -3 27 -3c53 0 76 30 76 95c0 55 -22 82 -66 82c-30 0 -53 -13 -67 -33c35 -7 52 -21 52 -45c0 -22 -16 -38 -41 -38c-28 0 -49 21 -49 50c0 45 52 89 122 89c82 0 134 -42 134 -103c0 -53 -46 -96 -122 -104z" />
    <glyph glyph-name="trademark" unicode="&#x2122;" horiz-adv-x="822" 
d="M338 707l5 -92h-15c-5 51 -24 75 -65 75h-5v-206c0 -15 7 -25 19 -26l15 -2v-14h-127v14l16 2c12 1 18 11 18 26v206h-7c-39 0 -59 -25 -64 -75h-14l5 92h219zM473 707l66 -186l67 186h92v-13l-13 -1c-13 -2 -20 -11 -20 -26v-183c0 -15 7 -24 20 -26l13 -2v-14h-120v14
l15 2c13 1 19 11 19 26v183l-80 -226h-13l-83 229v-186c0 -15 6 -25 19 -26l17 -2v-14h-96v14l16 2c13 1 20 10 20 25v182c0 15 -8 25 -20 26l-16 1v15h97z" />
    <glyph glyph-name="twosuperior" unicode="&#xb2;" horiz-adv-x="325" 
d="M15 277v22c23 49 60 92 102 139c50 54 87 97 87 157c0 53 -31 86 -79 86c-35 0 -60 -19 -70 -51c8 2 14 3 19 3c27 0 45 -18 45 -44c0 -25 -21 -44 -48 -44c-28 0 -50 22 -50 52c0 59 52 106 134 106c86 0 142 -48 142 -110c0 -47 -32 -83 -92 -128
c-48 -36 -97 -67 -132 -116h130c47 0 64 12 73 62h16l-5 -134h-272z" />
    <glyph glyph-name="uacute" unicode="&#xfa;" horiz-adv-x="608" 
d="M391 -11v92c-49 -69 -102 -101 -172 -101c-94 0 -137 49 -137 153v228c0 62 -1 83 -58 85v32l191 9v-351c0 -51 19 -76 67 -76c75 0 104 50 104 152v185c0 38 -12 46 -61 48v35l196 10v-412c0 -35 10 -43 56 -43v-36zM186 545l135 145c28 30 51 46 77 46
c30 0 53 -23 53 -53c0 -25 -17 -41 -51 -58l-159 -80h-55z" />
    <glyph glyph-name="ucircumflex" unicode="&#xfb;" horiz-adv-x="608" 
d="M391 -11v92c-49 -69 -102 -101 -172 -101c-94 0 -137 49 -137 153v228c0 62 -1 83 -58 85v32l191 9v-351c0 -51 19 -76 67 -76c75 0 104 50 104 152v185c0 38 -12 46 -61 48v35l196 10v-412c0 -35 10 -43 56 -43v-36zM129 545l115 181h90l112 -181h-49l-108 84l-108 -84
h-52z" />
    <glyph glyph-name="udieresis" unicode="&#xfc;" horiz-adv-x="608" 
d="M391 -11v92c-49 -69 -102 -101 -172 -101c-94 0 -137 49 -137 153v228c0 62 -1 83 -58 85v32l191 9v-351c0 -51 19 -76 67 -76c75 0 104 50 104 152v185c0 38 -12 46 -61 48v35l196 10v-412c0 -35 10 -43 56 -43v-36zM124 636c0 37 32 69 70 69c39 0 70 -31 70 -69
c0 -41 -30 -71 -70 -71c-39 0 -70 31 -70 71zM314 636c0 37 32 69 70 69c39 0 70 -31 70 -69c0 -41 -30 -71 -70 -71c-39 0 -70 31 -70 71z" />
    <glyph glyph-name="ugrave" unicode="&#xf9;" horiz-adv-x="608" 
d="M391 -11v92c-49 -69 -102 -101 -172 -101c-94 0 -137 49 -137 153v228c0 62 -1 83 -58 85v32l191 9v-351c0 -51 19 -76 67 -76c75 0 104 50 104 152v185c0 38 -12 46 -61 48v35l196 10v-412c0 -35 10 -43 56 -43v-36zM393 545h-55l-160 80c-34 17 -50 33 -50 58
c0 30 23 53 53 53c26 0 48 -16 76 -46z" />
    <glyph glyph-name="yacute" unicode="&#xfd;" horiz-adv-x="514" 
d="M241 -50c-37 -90 -92 -135 -159 -135c-56 0 -91 34 -91 84c0 43 30 73 74 73c42 0 68 -28 68 -61c0 -11 -1 -22 -4 -33c2 0 5 -1 7 -1c35 0 65 44 93 131l-150 372c-18 46 -35 67 -75 67h-6v32h253v-32c-29 -1 -45 -17 -45 -38c0 -4 1 -11 4 -19l82 -212l81 189
c5 12 8 25 8 35c0 29 -23 45 -66 45h-8v32h202v-32h-6c-50 0 -68 -25 -91 -81zM150 545l135 145c28 30 51 46 77 46c30 0 53 -23 53 -53c0 -25 -17 -41 -51 -58l-159 -80h-55z" />
    <glyph glyph-name="ydieresis" unicode="&#xff;" horiz-adv-x="514" 
d="M241 -50c-37 -90 -92 -135 -159 -135c-56 0 -91 34 -91 84c0 43 30 73 74 73c42 0 68 -28 68 -61c0 -11 -1 -22 -4 -33c2 0 5 -1 7 -1c35 0 65 44 93 131l-150 372c-18 46 -35 67 -75 67h-6v32h253v-32c-29 -1 -45 -17 -45 -38c0 -4 1 -11 4 -19l82 -212l81 189
c5 12 8 25 8 35c0 29 -23 45 -66 45h-8v32h202v-32h-6c-50 0 -68 -25 -91 -81zM88 636c0 37 32 69 70 69c39 0 70 -31 70 -69c0 -41 -30 -71 -70 -71c-39 0 -70 31 -70 71zM278 636c0 37 32 69 70 69c39 0 70 -31 70 -69c0 -41 -30 -71 -70 -71c-39 0 -70 31 -70 71z" />
    <glyph glyph-name="zcaron" unicode="&#x17e;" horiz-adv-x="492" 
d="M35 0v21l262 428c-10 1 -20 1 -30 1c-99 0 -158 -48 -184 -147h-26l9 176h378v-24l-266 -426c9 -1 19 -1 27 -1c114 0 185 54 217 166h24l-8 -194h-403zM85 726h49l108 -84l108 84h49l-112 -181h-90z" />
    </font>
</defs>
</svg>
