<?xml version="1.0" standalone="no"?>
<!DOCTYPE svg PUBLIC "-//W3C//DTD SVG 1.1//EN" "http://www.w3.org/Graphics/SVG/1.1/DTD/svg11.dtd" >
<svg>
<metadata>
Created by FontForge 20120731 at Tue Jul  2 17:55:43 2019
 By www
(c) Copyright SoftMaker Software GmbH and its licensors
</metadata>
<defs>
<font id="CenturyExpanded" horiz-adv-x="500" >
  <font-face 
    font-family="Century-Expanded"
    font-weight="400"
    font-stretch="normal"
    units-per-em="1000"
    panose-1="0 0 4 0 0 0 0 0 0 0"
    ascent="800"
    descent="-200"
    x-height="447"
    cap-height="667"
    bbox="-133 -289 1000 903"
    underline-thickness="46"
    underline-position="-88"
    unicode-range="U+0020-FB04"
  />
<missing-glyph 
d="M63 0v787h375v-787h-375zM125 63h250v662h-250v-662z" />
    <glyph glyph-name=".notdef" 
d="M63 0v787h375v-787h-375zM125 63h250v662h-250v-662z" />
    <glyph glyph-name="NULL" horiz-adv-x="0" 
 />
    <glyph glyph-name="nonmarkingreturn" horiz-adv-x="250" 
 />
    <glyph glyph-name="space" unicode=" " horiz-adv-x="250" 
 />
    <glyph glyph-name="exclam" unicode="!" horiz-adv-x="286" 
d="M158 190h-29q-1 192 -35 331q-14 58 -14 85q0 78 63 78t63 -78q0 -28 -14 -85q-33 -133 -34 -331zM143 123q26 0 44 -19.5t18 -47.5q0 -27 -18.5 -46.5t-43.5 -19.5q-26 0 -44 19.5t-18 47.5q0 27 18.5 46.5t43.5 19.5z" />
    <glyph glyph-name="quotedbl" unicode="&#x22;" horiz-adv-x="283" 
d="M91 424h-19q-7 63 -27 148q-5 21 -5 40q0 52 42 52q40 0 40 -53q0 -20 -11.5 -69t-19.5 -118zM212 424h-19q-8 71 -26 148q-5 21 -5 40q0 52 42 52q39 0 39 -53q0 -19 -12 -70q-9 -38 -19 -117z" />
    <glyph glyph-name="numbersign" unicode="#" horiz-adv-x="487" 
d="M351 209l-29 -209h-52l30 209h-148l-29 -209h-52l30 209h-72l5 37h72l25 178h-72l6 37h71l28 199h52l-28 -199h147l28 199h52l-28 -199h72l-6 -37h-71l-25 -178h71l-5 -37h-72zM330 424h-147l-25 -178h147z" />
    <glyph glyph-name="dollar" unicode="$" horiz-adv-x="487" 
d="M266 631v-255l33 -17q67 -35 108 -77.5t41 -108.5q0 -52 -24.5 -94.5t-65.5 -62.5t-92 -25v-106h-33v105q-88 4 -141 46t-53 107q0 35 18.5 56.5t48.5 21.5q26 0 43 -17t17 -43t-18.5 -43t-46.5 -17q-9 0 -23 5q8 -36 52.5 -60t102.5 -23v276l-48 25q-124 65 -124 173
q0 69 46 113.5t126 51.5v79h33v-78q72 -2 116.5 -35t44.5 -83q0 -30 -19.5 -51t-47.5 -21q-25 0 -41.5 17t-16.5 42q0 24 17.5 41t42.5 17q6 0 19 -3q-32 41 -115 44zM233 393v237q-58 -6 -91 -34.5t-33 -73.5q0 -65 95 -114zM266 281v-256q127 16 127 114q0 82 -106 132z
" />
    <glyph glyph-name="percent" unicode="%" horiz-adv-x="614" 
d="M147 657q47 0 83 -55.5t36 -128.5t-36 -128.5t-83 -55.5q-48 0 -84 56t-36 130q0 88 53 150q28 32 67 32zM147 645q-30 0 -49.5 -48t-19.5 -122q0 -79 19 -127t50 -48t50 48t19 124q0 77 -19 125t-50 48zM96 -47l387 760h40l-385 -760h-42zM469 348q47 0 83 -56t36 -129
t-36 -128.5t-83 -55.5q-48 0 -84 56t-36 131q0 88 53 150q28 32 67 32zM469 336q-30 0 -49.5 -48t-19.5 -123q0 -78 19 -126.5t50 -48.5t50 48t19 125t-19 125t-50 48z" />
    <glyph glyph-name="ampersand" unicode="&#x26;" horiz-adv-x="647" 
d="M381 396h253v-32q-54 -4 -77 -24.5t-45 -82.5q-27 -76 -73 -144q37 -65 85 -65q64 0 83 102h27q-2 -71 -41.5 -115.5t-101.5 -44.5q-66 0 -117 60q-43 -34 -75.5 -46.5t-77.5 -12.5q-82 0 -135 53t-53 135q0 135 158 221q-20 57 -20 111q0 73 47 123t115 50
q49 0 85.5 -29t36.5 -69q0 -45 -60 -97q-27 -24 -123 -77q16 -63 141 -269q56 84 56 148q0 38 -20 55t-68 18v32zM262 445q4 2 9 5q118 71 118 138q0 23 -18 38.5t-45 15.5q-78 0 -78 -95q0 -53 14 -102zM200 369q-84 -53 -84 -120q0 -76 55 -151q41 -56 96 -56q41 0 86 36
q-92 119 -153 291z" />
    <glyph glyph-name="quotesingle" unicode="'" horiz-adv-x="162" 
d="M91 424h-19q-7 63 -27 148q-5 21 -5 40q0 52 42 52q40 0 40 -53q0 -20 -11.5 -69t-19.5 -118z" />
    <glyph glyph-name="parenleft" unicode="(" horiz-adv-x="296" 
d="M275 -103v-34q-236 147 -236 419q0 271 236 418v-34q-84 -81 -120 -170t-36 -214q0 -126 36 -214.5t120 -170.5z" />
    <glyph glyph-name="parenright" unicode=")" horiz-adv-x="296" 
d="M20 -137v34q83 81 119 170t36 215t-36 215t-119 169v34q235 -147 235 -418q0 -272 -235 -419z" />
    <glyph glyph-name="asterisk" unicode="*" horiz-adv-x="487" 
d="M231 512v11q0 50 -20 92q-6 13 -6 27q0 17 11.5 29.5t27.5 12.5t27 -12.5t11 -29.5q0 -12 -13 -41t-13 -78v-11q60 20 92 50q18 17 37 17q17 0 28.5 -10.5t11.5 -26.5q0 -42 -51 -42q-4 0 -22 2q-4 1 -14 1q-30 0 -63 -12l-11 -4q35 -48 76 -71q30 -17 30 -44
q0 -38 -36 -38t-49 59q-6 26 -35 70l-6 9l-7 -9q-28 -36 -38 -85q-9 -44 -45 -44q-37 0 -37 38q0 26 43 51q29 17 56 56l7 8l-11 4q-33 12 -65 12q-6 0 -28 -3h-7q-50 0 -50 42q0 15 11.5 26t27.5 11q19 0 50 -27q27 -23 80 -40z" />
    <glyph glyph-name="plus" unicode="+" horiz-adv-x="487" 
d="M223 307h-173v40h173v163h40v-163h174v-40h-174v-164h-40v164z" />
    <glyph glyph-name="comma" unicode="," horiz-adv-x="245" 
d="M51 -185l-21 20q56 59 73.5 90.5t17.5 46.5q0 12 -19 18q-48 14 -48 62q0 28 17.5 47t43.5 19q30 0 48.5 -22.5t18.5 -59.5q0 -111 -131 -221z" />
    <glyph glyph-name="hyphen" unicode="-" horiz-adv-x="200" 
d="M0 200v66h200v-66h-200z" />
    <glyph glyph-name="period" unicode="." horiz-adv-x="257" 
d="M129 117q26 0 44 -18t18 -45q0 -25 -18.5 -43t-43.5 -18t-43.5 18.5t-18.5 43.5q0 26 18.5 44t43.5 18z" />
    <glyph glyph-name="slash" unicode="/" horiz-adv-x="323" 
d="M-3 -133l247 830h56l-246 -830h-57z" />
    <glyph glyph-name="zero" unicode="0" horiz-adv-x="487" 
d="M243 664q72 0 126 -74q78 -106 78 -263q0 -76 -24 -151t-64 -124q-50 -62 -116 -62q-72 0 -126 74q-78 106 -78 267q0 73 24.5 148.5t63.5 122.5q51 62 116 62zM246 631q-61 0 -86 -81q-18 -58 -18 -219q0 -178 23 -239q26 -69 80 -69q61 0 86 81q18 58 18 223
q0 175 -23 235q-27 69 -80 69z" />
    <glyph glyph-name="one" unicode="1" horiz-adv-x="487" 
d="M101 548v40q74 4 112.5 18t68.5 47h27v-520q0 -40 4 -55q8 -32 35 -37q14 -3 78 -4v-37h-325v37q42 1 54 2q39 4 52 15q17 15 17 78v299q0 45 -2 58q-6 36 -25.5 47t-95.5 12z" />
    <glyph glyph-name="two" unicode="2" horiz-adv-x="487" 
d="M444 196l-15 -196h-406v24q62 115 106 174q41 57 116 131q55 55 75 91.5t20 82.5q0 59 -28.5 93.5t-78.5 34.5q-71 0 -117 -50q-24 -26 -27 -68q12 5 24 5q61 0 61 -61q0 -28 -16.5 -46.5t-42.5 -18.5q-32 0 -52 25t-20 65q0 77 58 129.5t143 52.5q86 0 142.5 -49.5
t56.5 -124.5q0 -64 -52 -118q-22 -23 -132 -99q-96 -67 -161 -183h200q41 0 53 3q27 5 41 29q11 19 21 74h31z" />
    <glyph glyph-name="three" unicode="3" horiz-adv-x="487" 
d="M253 337q86 -15 125 -40q75 -49 75 -132q0 -73 -63 -124t-155 -51q-82 0 -135 42.5t-53 107.5q0 37 19.5 61t50.5 24q24 0 42 -17t18 -40q0 -25 -18 -41.5t-45 -16.5q-12 0 -31 9q10 -43 50.5 -69.5t95.5 -26.5q126 0 126 147q0 144 -129 144q-17 0 -24 -1q-20 -3 -27 -3
q-27 0 -27 25q0 23 24 23q10 -1 26 -3q7 -1 17 -1q122 0 122 147q0 67 -26 96q-31 34 -91 34q-80 0 -111 -74q15 0 38 -4q37 -13 37 -53q0 -25 -16 -41.5t-41 -16.5q-26 0 -44.5 21.5t-18.5 52.5q0 62 49.5 105t121.5 43q82 0 141 -48t59 -116q0 -58 -48.5 -101t-133.5 -62z
" />
    <glyph glyph-name="four" unicode="4" horiz-adv-x="487" 
d="M278 157h-247v45l289 451h43v-451h89v-45h-89v-48q0 -49 12 -59.5t70 -12.5v-37h-267v37h14q58 0 72 11.5t14 60.5v48zM278 202v322l-207 -322h207z" />
    <glyph glyph-name="five" unicode="5" horiz-adv-x="487" 
d="M138 569l-10 -191q50 38 119 38q77 0 136 -53q67 -60 67 -151t-66 -156.5t-158 -65.5q-77 0 -128 44.5t-51 111.5q0 34 19.5 55.5t50.5 21.5q25 0 41 -16t16 -41t-18 -43t-43 -18q-8 0 -23 4q8 -35 38 -57q40 -29 84 -29q135 0 135 183q0 177 -120 177q-49 0 -99 -33
q1 -5 1 -12q0 -53 -30 -53q-24 0 -24 28q0 18 21 52l13 299q95 -28 187 -28q56 0 125 28l11 -10q-80 -102 -208 -102q-49 0 -86 17z" />
    <glyph glyph-name="six" unicode="6" horiz-adv-x="487" 
d="M144 392v-93q43 105 128 105q72 0 125 -60.5t53 -142.5q0 -86 -56.5 -148.5t-135.5 -62.5q-93 0 -155.5 92.5t-62.5 229.5q0 145 74 248.5t178 103.5q53 0 90 -31.5t37 -75.5q0 -28 -17.5 -46.5t-44.5 -18.5q-25 0 -42.5 17.5t-17.5 42.5q0 53 55 56q-28 23 -60 23
q-148 0 -148 -239zM262 365q-55 0 -86 -46.5t-31 -127.5q0 -168 112 -168q95 0 95 177q0 165 -90 165z" />
    <glyph glyph-name="seven" unicode="7" horiz-adv-x="487" 
d="M71 653h387v-32q-78 -133 -109 -204q-58 -133 -58 -221q0 -34 8 -101q2 -17 2 -26q0 -35 -15.5 -57t-40.5 -22q-27 0 -43 26t-16 69q0 108 81 268q60 119 126 210h-194q-46 0 -64 -8q-25 -11 -40.5 -49t-23.5 -106h-26z" />
    <glyph glyph-name="eight" unicode="8" horiz-adv-x="487" 
d="M183 324q-66 37 -87 62q-39 47 -39 108q0 76 54 123t141 47q77 0 128 -42t51 -106q0 -89 -111 -156q134 -69 134 -182q0 -80 -53 -134t-160 -54q-89 0 -148 44t-59 111q0 104 149 179zM282 377l12 8q81 54 81 132q0 114 -127 114q-76 0 -110 -38q-27 -30 -27 -70
q0 -38 39.5 -71.5t131.5 -74.5zM217 308q-113 -72 -113 -158q0 -61 36.5 -94t103.5 -33q72 0 113.5 33t41.5 90q0 52 -55 93q-48 36 -127 69z" />
    <glyph glyph-name="nine" unicode="9" horiz-adv-x="487" 
d="M346 236v111q-36 -98 -128 -98q-70 0 -124 62t-54 143q0 89 66 153q58 57 128 57q92 0 151 -89q63 -95 63 -232q0 -174 -94 -275q-73 -78 -159 -78q-54 0 -92.5 31t-38.5 75q0 30 19.5 50.5t47.5 20.5q25 0 40.5 -17t15.5 -43q0 -49 -48 -60q27 -24 63 -24q29 0 59 16
t47 42q38 57 38 155zM240 631q-97 0 -97 -168q0 -172 97 -172q104 0 104 170t-104 170z" />
    <glyph glyph-name="colon" unicode=":" horiz-adv-x="257" 
d="M129 117q26 0 44 -18t18 -45q0 -25 -18.5 -43t-43.5 -18t-43.5 18.5t-18.5 43.5q0 26 18.5 44t43.5 18zM129 453q26 0 44 -18t18 -45q0 -25 -18.5 -43t-43.5 -18t-43.5 18.5t-18.5 43.5q0 26 18.5 44t43.5 18z" />
    <glyph glyph-name="semicolon" unicode=";" horiz-adv-x="245" 
d="M58 -185l-21 20q56 59 73.5 90.5t17.5 46.5q0 12 -19 18q-48 14 -48 62q0 28 17.5 47t43.5 19q30 0 48.5 -22.5t18.5 -59.5q0 -111 -131 -221zM123 453q26 0 44 -18t18 -45q0 -25 -18.5 -43t-43.5 -18t-43.5 18.5t-18.5 43.5q0 26 18.5 44t43.5 18z" />
    <glyph glyph-name="less" unicode="&#x3c;" horiz-adv-x="487" 
d="M451 615v-40l-306 -199l306 -205v-106l-415 277v7z" />
    <glyph glyph-name="equal" unicode="=" horiz-adv-x="487" 
d="M50 353v40h387v-40h-387zM50 260v40h387v-40h-387z" />
    <glyph glyph-name="greater" unicode="&#x3e;" horiz-adv-x="487" 
d="M36 65v40l306 199l-306 205v106l415 -278v-7z" />
    <glyph glyph-name="question" unicode="?" horiz-adv-x="376" 
d="M188 177h-33q-1 35 -1 60q0 55 12 97t52 125q28 58 28 104q0 38 -22 61t-59 23q-66 0 -88 -58q4 1 12 1q25 0 41 -16t16 -41q0 -23 -17 -39.5t-40 -16.5q-27 0 -44.5 20.5t-17.5 51.5q0 57 43 96t107 39q67 0 113 -40.5t46 -99.5q0 -42 -19 -76q-9 -17 -52 -61
q-52 -54 -66 -107q-10 -36 -11 -123zM175 123q25 0 42.5 -19.5t17.5 -47.5q0 -27 -17.5 -46.5t-42.5 -19.5t-42.5 19.5t-17.5 47.5q0 27 17.5 46.5t42.5 19.5z" />
    <glyph glyph-name="at" unicode="@" horiz-adv-x="736" 
d="M471 515h62l-53 -195q-21 -77 -21 -116q0 -32 29 -32q59 0 112 58q60 66 60 162q0 104 -81 178q-85 77 -196 77q-128 0 -217.5 -91t-89.5 -222q0 -130 89.5 -222t216.5 -92q69 0 131 29.5t100 79.5h41q-36 -55 -85 -87q-84 -55 -186 -55q-143 0 -243 101t-100 245
t100 245.5t242 101.5q132 0 223 -83t91 -204q0 -97 -64 -169q-71 -79 -150 -79q-62 0 -62 74q0 15 1 31q-53 -106 -114 -106q-46 0 -77 43t-31 107q0 96 71 170q57 59 112 59q29 0 49 -20.5t22 -52.5zM385 496q-38 0 -68 -52q-22 -38 -39 -100.5t-17 -101.5q0 -71 52 -71
q44 0 79 66q44 83 44 179q0 80 -51 80z" />
    <glyph glyph-name="A" unicode="A" horiz-adv-x="687" 
d="M430 223h-235l-27 -79q-9 -26 -9 -47q0 -41 41 -54q19 -6 53 -6v-37h-255v37q55 4 83.5 30t53.5 100l178 520h50l198 -564q19 -56 38.5 -71t71.5 -15h14v-37h-310v37q64 1 84.5 7.5t20.5 25.5q0 9 -11 41zM414 270l-99 311l-105 -311h204z" />
    <glyph glyph-name="B" unicode="B" horiz-adv-x="647" 
d="M27 667h302q90 0 144 -23q112 -48 112 -138q0 -83 -98 -129q-37 -17 -105 -32q101 -19 148 -50q77 -51 77 -123q0 -63 -63 -116q-67 -56 -181 -56h-336v37q73 1 90 15t17 76v411q0 62 -17 76t-90 15v37zM227 362h51q120 0 167 45q27 26 27 95q0 76 -30 103t-115 27
q-63 0 -77 -7q-23 -12 -23 -64v-199zM227 327v-224q0 -41 24 -54.5t94 -13.5q83 0 116 31.5t33 110.5q0 70 -39 105q-50 45 -176 45h-52z" />
    <glyph glyph-name="C" unicode="C" horiz-adv-x="650" 
d="M601 679v-265h-26q-31 103 -61 145q-65 91 -163 91q-96 0 -147 -85t-51 -245q0 -147 54 -225t157 -78q125 0 181 110q22 44 30 120h35q-4 -95 -42 -157q-67 -110 -210 -110t-227 102q-91 111 -91 246q0 167 116 274q91 84 190 84q64 0 146 -45q26 -14 37 -14q30 0 46 52
h26z" />
    <glyph glyph-name="D" unicode="D" horiz-adv-x="706" 
d="M134 128v411q0 62 -17 76t-90 15v37h287q104 0 164 -22t105 -76q38 -46 61 -110.5t23 -124.5q0 -68 -27.5 -138t-72 -116t-99 -63t-154.5 -17h-287v37q73 1 90 15t17 76zM227 544v-421q0 -50 24 -69t87 -19q216 0 216 298q0 153 -53 226t-164 73q-65 0 -87.5 -18
t-22.5 -70z" />
    <glyph glyph-name="E" unicode="E" horiz-adv-x="672" 
d="M597 667l8 -236h-26q-17 90 -41 131q-29 50 -72 63q-24 7 -97 7h-61q-53 0 -67 -16t-14 -77v-175q97 -1 130.5 24.5t44.5 105.5h24v-311h-24q-12 88 -48.5 118.5t-126.5 28.5v-208q0 -54 16.5 -70.5t70.5 -16.5h71q48 0 68 4q34 5 61 26q64 49 83 193h28l-11 -258h-587
v37q73 1 90 15t17 76v411q0 62 -17 76t-90 15v37h570z" />
    <glyph glyph-name="F" unicode="F" horiz-adv-x="611" 
d="M598 667v-258h-23q-20 109 -51 158q-28 45 -74 59q-20 6 -72 6h-84q-40 0 -53.5 -15t-13.5 -59v-193h14q94 0 123 25.5t33 112.5h24v-326h-24q-6 79 -21 104q-21 35 -67 46q-17 4 -68 4h-14v-203q0 -61 17 -75t90 -16v-37h-307v37q73 1 90 15t17 76v411q0 62 -17 76
t-90 15v37h571z" />
    <glyph glyph-name="G" unicode="G" horiz-adv-x="666" 
d="M375 295h281v-34q-52 -6 -66 -16q-19 -14 -19 -79v-186h-30q-15 59 -39 59q-12 0 -40 -18q-63 -41 -129 -41q-125 0 -213 116q-80 106 -80 238q0 142 85.5 247.5t199.5 105.5q60 0 129 -38q24 -13 35 -13q25 0 50 51h24l8 -260h-30q-38 97 -59 129q-62 94 -153 94
q-94 0 -142 -89q-34 -63 -34 -217q0 -181 47 -254t134 -73q63 0 103 37.5t40 96.5v41q0 41 -19 53.5t-83 15.5v34z" />
    <glyph glyph-name="H" unicode="H" horiz-adv-x="745" 
d="M519 305h-292v-177q0 -62 17 -76t90 -15v-37h-307v37q73 1 90 15t17 76v411q0 62 -17 76t-90 15v37h307v-37q-73 -1 -90 -15t-17 -76v-187h292v187q0 62 -17 76t-90 15v37h307v-37q-73 -1 -90 -15t-17 -76v-411q0 -62 17 -76t90 -15v-37h-307v37q73 1 90 15t17 76v177z
" />
    <glyph glyph-name="I" unicode="I" horiz-adv-x="363" 
d="M135 128v411q0 62 -17 76t-90 15v37h307v-37q-73 -1 -90 -15t-17 -76v-411q0 -62 17 -76t90 -15v-37h-307v37q73 1 90 15t17 76z" />
    <glyph glyph-name="J" unicode="J" horiz-adv-x="457" 
d="M42 101v-5q0 -34 28.5 -56.5t71.5 -22.5q59 0 89 43q26 38 26 141v336q0 68 -18.5 80t-101.5 13v37h320v-37q-73 -1 -90 -15t-17 -76v-301q0 -93 -12 -136.5t-46 -74.5q-52 -47 -136 -47q-71 0 -113.5 38t-42.5 101q0 41 21 66.5t56 25.5q26 0 43 -17t17 -44
q0 -25 -17.5 -42t-42.5 -17q-21 0 -35 10z" />
    <glyph glyph-name="K" unicode="K" horiz-adv-x="712" 
d="M709 0h-311v37q52 1 68 5.5t16 19.5q0 8 -22 41l-147 223l-86 -95v-103q0 -62 17 -76t90 -15v-37h-307v37q73 1 90 15t17 76v411q0 62 -17 76t-90 15v37h307v-37q-73 -1 -90 -15t-17 -76v-255l193 213q63 70 63 92q0 38 -78 41v37h261v-37q-54 -8 -85.5 -27t-84.5 -77
l-117 -128l187 -283q35 -53 57.5 -65t85.5 -13v-37z" />
    <glyph glyph-name="L" unicode="L" horiz-adv-x="619" 
d="M571 268h29l-15 -268h-558v37q73 1 90 15t17 76v411q0 62 -17 76t-90 15v37h313v-37q-77 -1 -95 -15.5t-18 -75.5v-411q0 -58 13.5 -75.5t60.5 -17.5h58q80 0 114 23t54.5 66t43.5 144z" />
    <glyph glyph-name="M" unicode="M" horiz-adv-x="802" 
d="M262 667l133 -478l142 478h238v-37q-73 -1 -90 -15t-17 -76v-411q0 -62 17 -76t90 -15v-37h-307v37q73 1 90 15t17 76v522l-199 -670h-18l-192 670v-483q0 -69 21 -95.5t81 -34.5v-37h-250v37q63 6 85.5 33.5t22.5 98.5v366q0 65 -14.5 80t-78.5 15h-15v37h244z" />
    <glyph glyph-name="N" unicode="N" horiz-adv-x="723" 
d="M183 667l373 -518v319q0 56 -3 75q-7 43 -34 63t-65 24v37h249v-37q-56 -3 -77.5 -26t-27.5 -64q-2 -17 -2 -72v-488h-26l-404 553v-336q0 -54 3 -74q8 -42 34 -63q22 -18 76 -23v-37h-266v37q67 7 90 40.5t23 119.5v377q-31 48 -111 56v37h168z" />
    <glyph glyph-name="O" unicode="O" horiz-adv-x="660" 
d="M330 687q107 0 191 -92q99 -109 99 -262q0 -165 -113 -275q-80 -78 -177 -78q-118 0 -204 106t-86 251q0 75 30 147.5t83 124.5q79 78 177 78zM330 650q-177 0 -177 -313q0 -164 43 -242t134 -78q177 0 177 316q0 317 -177 317z" />
    <glyph glyph-name="P" unicode="P" horiz-adv-x="616" 
d="M227 306v-178q0 -62 17 -76t90 -15v-37h-307v37q73 1 90 15t17 76v411q0 62 -17 76t-90 15v37h294q134 0 198 -54q71 -60 71 -132q0 -95 -113 -148q-42 -20 -103 -25q-25 -2 -107 -2h-40zM227 341h31q72 0 92 2q59 4 87 23q40 27 40 126q0 82 -31 111t-118 29
q-75 0 -92 -22q-9 -12 -9 -67v-202z" />
    <glyph glyph-name="Q" unicode="Q" horiz-adv-x="660" 
d="M399 -16v6q-36 -10 -69 -10q-106 0 -191 93q-99 108 -99 261q0 165 113 275q80 78 177 78q107 0 191 -92q99 -109 99 -261q0 -92 -40 -174t-111 -134q20 -112 82 -112q64 0 69 93h29v-14q0 -85 -35 -135.5t-94 -50.5q-72 0 -105 77q-16 38 -16 100zM402 33v7q4 22 4 53
q0 40 -20.5 64.5t-53.5 24.5q-69 0 -69 -72q0 -37 23.5 -65t55.5 -28q28 0 60 16zM242 43q-16 32 -16 65q0 47 32.5 79t80.5 32q49 0 82 -35.5t39 -93.5q47 76 47 243q0 317 -177 317t-177 -316q0 -225 89 -291z" />
    <glyph glyph-name="R" unicode="R" horiz-adv-x="671" 
d="M227 323v-195q0 -62 17 -76t90 -15v-37h-307v37q73 1 90 15t17 76v411q0 62 -17 76t-90 15v37h294q144 0 206 -50q57 -46 57 -112q0 -79 -88 -131q-43 -25 -122 -39q61 -26 95.5 -70.5t62.5 -135.5q13 -41 22.5 -55t25.5 -14q38 0 41 94h26q1 -10 1 -24q0 -69 -28 -109.5
t-76 -40.5q-58 0 -89 61q-21 41 -26 117q-4 67 -14.5 97.5t-36.5 49.5q-16 12 -35 15t-76 3h-40zM227 358h37q85 0 110.5 3.5t47.5 16.5q52 32 52 119q0 77 -33 106t-122 29q-61 0 -78 -20q-14 -16 -14 -85v-169z" />
    <glyph glyph-name="S" unicode="S" horiz-adv-x="581" 
d="M490 419h-28q-28 112 -79 164q-65 67 -148 67q-54 0 -88.5 -31.5t-34.5 -81.5q0 -46 33.5 -78.5t146.5 -67.5q137 -42 188 -90t51 -132q0 -87 -56 -136q-61 -53 -149 -53q-53 0 -101 20q-17 7 -66 38q-13 8 -25 8q-17 0 -27.5 -12t-29.5 -54h-27q4 54 4 155q0 22 -4 129
h27q35 -122 84 -171q76 -76 166 -76q65 0 105 34t40 90q0 54 -39 84q-34 26 -149 64q-148 49 -193 112q-34 48 -34 112q0 76 51 125t130 49q69 0 154 -51q17 -10 28 -10q22 0 42 44l5 11h28q-8 -121 -8 -164q0 -51 3 -98z" />
    <glyph glyph-name="T" unicode="T" horiz-adv-x="618" 
d="M29 667h554l11 -258h-29q-21 127 -66.5 176t-143.5 48v-503q0 -64 16 -78.5t88 -14.5h16v-37h-333v37l14 -1q21 -1 35 -1q46 0 60 19q11 18 11 76v502q-106 2 -147 -41.5t-64 -181.5h-28z" />
    <glyph glyph-name="U" unicode="U" horiz-adv-x="700" 
d="M588 454v-212q0 -75 -5 -102q-9 -54 -43 -90q-65 -70 -178 -70q-140 0 -207 84q-30 38 -39 95q-4 29 -4 105v275q0 62 -17 76t-90 15v37h307v-37q-73 -1 -90 -15t-17 -76v-312q0 -57 5 -84q8 -46 35 -74q45 -47 127 -47q108 0 154 77q22 36 22 119v234q0 105 -18.5 137.5
t-83.5 40.5v37h244v-37q-65 -3 -83.5 -35t-18.5 -141z" />
    <glyph glyph-name="V" unicode="V" horiz-adv-x="674" 
d="M318 -30l-198 572q-20 57 -40 71.5t-80 16.5v37h306v-37h-19q-40 0 -59 -7q-22 -8 -22 -30q0 -8 17 -57l141 -410l132 350q22 58 22 85q0 38 -27 54q-19 11 -61 15v37h248v-37q-54 -4 -78.5 -32t-59.5 -122l-189 -506h-33z" />
    <glyph glyph-name="W" unicode="W" horiz-adv-x="909" 
d="M625 -30h-23l-151 490l-158 -490h-24l-157 564q-18 63 -35.5 79t-79.5 20v34h272v-34q-45 -2 -59.5 -7.5t-14.5 -21.5q0 -14 10 -50l108 -387l115 359l-11 43q-10 39 -32 52q-17 11 -59 12v34h276v-34l-16 -1l-29 -1q-47 -2 -47 -30q0 -10 14 -56l117 -384l110 353
q15 48 15 64q0 30 -22 45q-11 7 -48 10v34h214v-34q-51 -6 -73 -34t-52 -123z" />
    <glyph glyph-name="X" unicode="X" horiz-adv-x="672" 
d="M668 0h-304v37h13q76 0 76 30q0 11 -17 38l-119 191l-105 -152q-26 -38 -26 -56q0 -51 84 -51h2v-37h-269v37q62 7 88.5 22.5t59.5 62.5l143 206l-126 201q-39 62 -69.5 82t-87.5 19v37h306v-37q-72 -1 -72 -34q0 -15 17 -38l89 -148l89 124q27 38 27 55q0 20 -17.5 29
t-63.5 12v37h257v-37q-63 -6 -93.5 -26.5t-77.5 -87.5l-100 -141l161 -253q37 -59 56 -71.5t79 -13.5v-37z" />
    <glyph glyph-name="Y" unicode="Y" horiz-adv-x="676" 
d="M387 284v-154q0 -68 20 -81q17 -11 100 -12v-37h-333v37q87 1 103.5 14t16.5 79v140l-148 264q-32 57 -60.5 76t-83.5 20v37h308v-37q-47 0 -52 -1q-37 -4 -37 -24q0 -9 9 -25l139 -253l102 187q27 50 27 73q0 42 -76 43v37h249v-37q-60 -5 -95 -34t-81 -114z" />
    <glyph glyph-name="Z" unicode="Z" horiz-adv-x="568" 
d="M531 0h-514v31l408 601h-113q-71 0 -96 -4t-45 -20q-43 -34 -63 -101q-8 -28 -19 -85h-29v245h480v-30l-407 -602h99q116 0 157 12q98 29 127 208h29z" />
    <glyph glyph-name="bracketleft" unicode="[" horiz-adv-x="296" 
d="M260 -101v-32h-183v830h183v-32h-81q-14 0 -19.5 -5.5t-5.5 -27.5v-699q0 -22 6 -28t19 -6h81z" />
    <glyph glyph-name="backslash" unicode="\" horiz-adv-x="323" 
d="M326 -133h-56l-247 830h57z" />
    <glyph glyph-name="bracketright" unicode="]" horiz-adv-x="296" 
d="M219 697v-830h-183v32h81q25 0 25 34v699q0 22 -6 27.5t-19 5.5h-81v32h183z" />
    <glyph glyph-name="asciicircum" unicode="^" 
d="M525 285h-40l-199 306l-205 -306h-106l278 415h6z" />
    <glyph glyph-name="underscore" unicode="_" 
d="M21 -88h457v-46h-457v46z" />
    <glyph glyph-name="grave" unicode="`" 
d="M264 523l-68 59q-68 59 -68 81q0 12 9.5 20.5t22.5 8.5q15 0 27 -11t36 -47l75 -111h-34z" />
    <glyph glyph-name="a" unicode="a" horiz-adv-x="460" 
d="M427 128h21q-1 -55 -13 -86q-19 -52 -66 -52q-63 0 -75 97q-19 -42 -61.5 -69.5t-87.5 -27.5q-51 0 -84.5 29.5t-33.5 73.5q0 62 75 105q37 21 183 70l9 3v38q0 65 -16 87q-25 33 -86 33q-55 0 -85 -30q51 -13 51 -58q0 -23 -15.5 -38.5t-37.5 -15.5q-25 0 -42 18t-17 45
q0 45 47.5 76t115.5 31q94 0 134 -41q17 -18 21 -50q2 -13 2 -57v-211q0 -51 23 -51q32 0 38 81zM294 196v47q-97 -40 -137 -72t-40 -70q0 -28 17.5 -45t46.5 -17q49 0 84 46q29 38 29 111z" />
    <glyph glyph-name="b" unicode="b" horiz-adv-x="506" 
d="M152 694v-349q45 112 140 112q73 0 127 -69t54 -162q0 -94 -56.5 -165t-131.5 -71q-46 0 -86 32.5t-63 86.5q-14 -35 -25 -62q-13 -32 -31 -64l-17 7q12 55 12 177v394q0 55 -10 68t-55 15v33q20 2 22 2q22 2 49 5q2 0 49 7q6 0 22 3zM280 422q-55 0 -90.5 -55.5
t-35.5 -140.5q0 -89 35.5 -145t90.5 -56q103 0 103 199q0 198 -103 198z" />
    <glyph glyph-name="c" unicode="c" horiz-adv-x="416" 
d="M372 115l21 -16q-61 -109 -163 -109q-82 0 -139.5 67.5t-57.5 162.5q0 107 73 177q63 60 136 60q56 0 96 -36.5t40 -88.5q0 -29 -18 -50t-44 -21q-23 0 -39 16t-16 40q0 25 17.5 42t42.5 17h9q-22 48 -83 48q-58 0 -91 -51.5t-33 -143.5q0 -89 32.5 -140t90.5 -51
q38 0 64 16t62 61z" />
    <glyph glyph-name="d" unicode="d" horiz-adv-x="519" 
d="M355 105l-5 -10q-12 -24 -38 -65q-35 -40 -89 -40q-78 0 -134 69t-56 165q0 93 57.5 163t133.5 70q93 0 131 -112v207q0 60 -15 75.5t-78 16.5v33q26 2 28 2l54 5l55 6q1 0 33 4v-573q0 -55 9 -68t46 -15v-33q-8 0 -20.5 -1.5t-28 -2.5t-17.5 -1q-12 -2 -46 -7l-20 -3
v115zM231 422q-108 0 -108 -196q0 -201 108 -201q52 0 86 56.5t34 142.5q0 85 -34 141.5t-86 56.5z" />
    <glyph glyph-name="e" unicode="e" horiz-adv-x="458" 
d="M423 216h-302q1 -85 30 -128q38 -56 113 -56q79 0 137 93l23 -15q-60 -120 -178 -120q-94 0 -153.5 63t-59.5 162q0 97 60.5 169.5t142.5 72.5q80 0 132.5 -68t54.5 -173zM123 251h128q50 0 66.5 11t16.5 45q0 50 -26 81.5t-68 31.5q-111 0 -117 -169z" />
    <glyph glyph-name="f" unicode="f" horiz-adv-x="324" 
d="M13 447h87q4 91 25 139q44 98 142 98q45 0 73.5 -22.5t28.5 -57.5q0 -26 -17.5 -44.5t-42.5 -18.5q-21 0 -37 15t-16 34q0 35 34 50q-17 9 -31 9q-52 0 -71 -69q-10 -37 -11 -133h113v-37h-113v-282q0 -67 10 -78t71 -16l12 -1v-33h-263v33l12 1q61 5 71 16t10 78v282
h-87v37z" />
    <glyph glyph-name="g" unicode="g" horiz-adv-x="502" 
d="M382 372q20 -41 20 -77q0 -67 -48 -113t-117 -46q-47 0 -85 12q-24 -24 -24 -39q0 -17 22.5 -31t92.5 -17q114 -5 163 -34t49 -93q0 -127 -218 -127q-100 0 -158.5 26.5t-58.5 71.5q0 65 153 95q-118 24 -118 80q0 45 75 81q-74 44 -74 127q0 69 52.5 119t125.5 50
q91 0 134 -68q41 68 92 68q22 0 36.5 -16t14.5 -40q0 -51 -44 -51q-36 0 -36 42q0 14 15 39q-12 0 -32.5 -18.5t-31.5 -40.5zM229 429q-45 0 -69 -32q-21 -28 -21 -98q0 -80 24.5 -107.5t65.5 -27.5q45 0 69 32q21 28 21 100q0 77 -24 105t-66 28zM254 -16q-75 0 -117 -20.5
t-42 -57.5q0 -33 38 -52t104 -19q80 0 128.5 22t48.5 59q0 32 -43 50t-117 18z" />
    <glyph glyph-name="h" unicode="h" horiz-adv-x="517" 
d="M167 694v-375q23 68 54 99q40 39 89 39q66 0 98 -62q22 -42 22 -121v-158q0 -56 9 -69t51 -14v-33h-197v33l8 1q38 1 45 13.5t7 80.5v161q0 109 -65 109q-55 0 -90 -67q-31 -59 -31 -172v-43q0 -56 9 -69t51 -14v-33h-207v33l9 1q44 1 52.5 14t8.5 80v436q0 54 -12 66.5
t-65 13.5v33q24 2 25 2q47 5 52 5q1 0 52 7q9 0 25 3z" />
    <glyph glyph-name="i" unicode="i" horiz-adv-x="263" 
d="M177 464v-348q0 -56 9 -69t51 -14v-33h-207v33l9 1q44 1 52.5 14t8.5 80v206q0 54 -13 66.5t-69 13.5v33q24 2 27 2l53 5l53 7q10 0 26 3zM134 682q26 0 43.5 -18t17.5 -44q0 -24 -18 -42t-43 -18t-43 18t-18 43t18 43t43 18z" />
    <glyph glyph-name="j" unicode="j" horiz-adv-x="283" 
d="M206 457v-340q0 -117 -11 -173t-41 -92q-44 -52 -110 -52q-46 0 -79 30.5t-33 72.5q0 26 17.5 44t42.5 18q24 0 39.5 -15.5t15.5 -40.5q0 -42 -40 -57q13 -16 38 -16q47 0 70 53q14 32 14 147v298q0 54 -17.5 66.5t-94.5 13.5v33q15 0 34 1q28 1 61 3q-8 0 60 4
q10 1 34 2zM157 679q26 0 43.5 -18t17.5 -44q0 -24 -18 -42t-43 -18t-43 18t-18 43t18 43t43 18z" />
    <glyph glyph-name="k" unicode="k" horiz-adv-x="504" 
d="M167 215l111 113q38 39 38 57q0 22 -38 29v33h204v-33q-81 -5 -148 -73l-43 -44l118 -193q25 -41 42.5 -54.5t52.5 -16.5v-33h-213v33q4 1 15 1q36 1 36 25q0 11 -16 36l-89 141l-70 -70v-50q0 -56 9 -69t51 -14v-33h-207v33l9 1q44 1 52.5 14t8.5 80v436q0 54 -12 66.5
t-65 13.5v33q24 2 25 2q47 5 52 5q1 0 52 7q9 0 25 3v-479z" />
    <glyph glyph-name="l" unicode="l" horiz-adv-x="253" 
d="M167 693v-577q0 -56 9 -69t51 -14v-33h-207v33l9 1q44 1 52.5 14t8.5 80v436q0 54 -12 66.5t-65 13.5v33l25 2q10 1 52 5q7 0 52 6q6 1 25 3z" />
    <glyph glyph-name="m" unicode="m" horiz-adv-x="790" 
d="M177 464v-142q19 54 41 83q40 52 97 52q62 0 96 -59q15 -26 24 -76q46 135 145 135q73 0 103 -60q20 -40 20 -141v-140q0 -56 9 -69t51 -14v-33h-207v33l9 1q44 1 52.5 14t8.5 80v142q0 73 -14 96q-19 32 -61 32q-49 0 -78 -51q-33 -58 -33 -192v-39q0 -56 9 -69t51 -14
v-33h-207v33l9 1q44 1 52.5 14t8.5 80v142q0 71 -16 97q-20 33 -58 33q-46 0 -77 -57q-35 -64 -35 -183v-44q0 -56 9 -69t51 -14v-33h-207v33l9 1q44 1 52.5 14t8.5 80v206q0 54 -12 66.5t-65 13.5v33q24 2 25 2q47 5 52 5q1 0 52 7q9 0 25 3z" />
    <glyph glyph-name="n" unicode="n" horiz-adv-x="527" 
d="M175 464v-140q48 133 147 133q52 0 85 -45t33 -152v-144q0 -56 9 -69t51 -14v-33h-207v33l9 1q44 1 52.5 14t8.5 80v155q0 68 -16 90q-20 27 -51 27q-58 0 -89 -68.5t-31 -193.5v-22q0 -56 9.5 -68.5t50.5 -14.5v-33h-206v33l9 1q44 1 52.5 14t8.5 80v206q0 54 -12 66.5
t-65 13.5v33q22 2 25 2q47 5 51 5q12 2 51 7q7 0 25 3z" />
    <glyph glyph-name="o" unicode="o" horiz-adv-x="459" 
d="M230 457q77 0 133 -66q63 -74 63 -168q0 -102 -72 -177q-54 -56 -125 -56q-77 0 -133 66q-63 74 -63 170q0 100 72 175q54 56 125 56zM230 425q-71 0 -95 -71q-12 -36 -12 -127q0 -105 17 -145q25 -60 89 -60q71 0 95 71q12 36 12 130q0 102 -17 142q-25 60 -89 60z" />
    <glyph glyph-name="p" unicode="p" horiz-adv-x="516" 
d="M164 464v-121q30 63 59.5 88.5t72.5 25.5q74 0 130.5 -70.5t56.5 -164.5q0 -88 -55.5 -160t-122.5 -72q-86 0 -141 118v-185q0 -56 9 -69t51 -14v-33h-207v33l9 1q44 1 52.5 14t8.5 80v399q0 54 -11 66.5t-59 13.5v33q22 2 23 2q47 5 50 5t50 7q9 0 24 3zM289 422
q-48 0 -86 -60.5t-38 -135.5q0 -79 37.5 -140t86.5 -61q48 0 76 53t28 146q0 92 -28 145t-76 53z" />
    <glyph glyph-name="q" unicode="q" horiz-adv-x="505" 
d="M351 -65v154q-50 -99 -139 -99q-73 0 -126.5 68t-53.5 161q0 95 59 166.5t138 71.5q92 0 142 -108q5 20 23.5 58.5t28.5 50.5h23l-2 -12l-7 -40q-9 -51 -9 -182v-301q0 -56 9 -69t51 -14v-33h-207v33l9 1q44 1 52.5 14t8.5 80zM228 422q-64 0 -90 -74q-16 -46 -16 -123
q0 -86 20 -134q28 -66 86 -66q55 0 89.5 55.5t34.5 143.5q0 87 -34.5 142.5t-89.5 55.5z" />
    <glyph glyph-name="r" unicode="r" horiz-adv-x="413" 
d="M177 464v-181q28 80 57 117q40 52 95 52q36 0 59 -22.5t23 -57.5q0 -29 -17.5 -49t-42.5 -20q-23 0 -39.5 16.5t-16.5 39.5q0 42 50 62q-15 3 -21 3q-49 0 -87 -63q-26 -42 -43 -107t-17 -120v-6q0 -67 10.5 -77.5t71.5 -16.5l11 -1v-33h-263v33l12 1q61 5 71 16t10 78
v206q0 54 -12 66.5t-65 13.5v33l29 2q45 3 51 5l50 7q9 0 24 3z" />
    <glyph glyph-name="s" unicode="s" horiz-adv-x="408" 
d="M42 -10v187h24q36 -81 59 -105q51 -54 116 -54q37 0 61.5 22t24.5 56q0 31 -25.5 54t-110.5 43q-146 35 -146 140q0 53 35.5 88.5t88.5 35.5q34 0 82 -22q15 -7 26 -7q16 0 38 28h21v-165h-21q-21 69 -56 99q-45 39 -95 39q-32 0 -54.5 -19.5t-22.5 -47.5q0 -34 33 -55
q18 -11 103.5 -36t117.5 -55.5t32 -88.5t-39.5 -98t-96.5 -40q-41 0 -95 25q-30 14 -44 14q-22 0 -32 -38h-24z" />
    <glyph glyph-name="t" unicode="t" horiz-adv-x="333" 
d="M159 447h134v-37h-134v-249q0 -73 18.5 -102t51.5 -29q35 0 58.5 38.5t28.5 107.5h19q1 -7 1 -16q0 -71 -30 -119q-32 -51 -96 -51q-79 0 -112 64q-16 31 -16 159v197h-69v32q59 19 81 54.5t35 136.5h30v-186z" />
    <glyph glyph-name="u" unicode="u" horiz-adv-x="517" 
d="M355 -10v136q-20 -62 -63 -99t-97 -37q-47 0 -76 30q-32 34 -32 117v194q0 56 -10.5 69t-59.5 14v33q22 2 23 2q47 5 50 5t50 7q9 0 24 3v-302q0 -67 14.5 -92t49.5 -25q61 0 98 78q28 59 28 176v23q0 60 -15 75.5t-78 16.5v33q55 5 170 17v-343q0 -56 10 -68.5t57 -14.5
v-33l-42 -4l-29 -2q-9 -1 -72 -9z" />
    <glyph glyph-name="v" unicode="v" horiz-adv-x="467" 
d="M246 -18h-28l-127 333q-21 55 -38.5 74t-52.5 25v33h202v-33q-57 -3 -57 -20q0 -7 10 -34l101 -268l69 186q24 65 24 88q0 47 -71 48v33h185v-33q-36 -9 -54.5 -34t-48.5 -102z" />
    <glyph glyph-name="w" unicode="w" horiz-adv-x="702" 
d="M488 -18h-34l-98 302l-110 -302h-36l-122 361q-14 42 -29 54.5t-56 16.5v33h207v-33q-33 -1 -34 -1q-20 -3 -20 -19q0 -14 13 -51l84 -239l83 239l-8 27q-13 44 -75 44v33h213v-33q-17 0 -41 -3q-17 -6 -17 -23q0 -6 12 -45l76 -245l69 193q19 53 19 77q0 29 -21 39
q-9 5 -49 7v33h188v-33q-39 -7 -55 -24.5t-38 -78.5z" />
    <glyph glyph-name="x" unicode="x" 
d="M490 0h-206v33q4 1 10 1q33 3 33 15q0 10 -17 34l-77 107l-71 -92q-15 -19 -15 -35q0 -15 11 -20.5t46 -9.5v-33h-194v33q46 4 69 20.5t71 80.5l62 83l-92 130q-30 42 -45.5 53t-52.5 14v33h202v-33q-3 -1 -7 -1q-27 -1 -27 -18q0 -13 14 -32l60 -81l46 65q22 31 22 41
q0 25 -48 26v33h185v-33q-49 -5 -73.5 -21.5t-65.5 -73.5l-46 -64l111 -157q24 -34 42.5 -47t52.5 -19v-32z" />
    <glyph glyph-name="y" unicode="y" horiz-adv-x="485" 
d="M286 447h192v-33q-40 -5 -59.5 -26t-42.5 -85l-118 -321q-35 -94 -74 -138t-94 -44q-44 0 -73.5 25t-29.5 62q0 31 18.5 51t47.5 20q25 0 41 -16.5t16 -41.5q0 -45 -48 -53q19 -10 33 -10q68 0 114 126l7 19l-123 339q-22 59 -35.5 73.5t-53.5 17.5q-5 1 -16 2v33h212
v-33q-49 -3 -49 -23q0 -7 10 -34l97 -265l69 193q21 59 21 88q0 41 -62 41v33z" />
    <glyph glyph-name="z" unicode="z" horiz-adv-x="420" 
d="M386 0h-361v32l272 383h-40q-82 0 -119.5 -28t-65.5 -109h-24l10 169h328v-25l-275 -390h46q101 0 145.5 33t69.5 125h24z" />
    <glyph glyph-name="braceleft" unicode="{" horiz-adv-x="296" 
d="M20 283v26q44 4 53.5 21t9.5 90v113q0 102 22 130q26 34 96 34h54v-32h-39q-31 0 -43 -20q-13 -23 -13 -120v-103q0 -70 -17.5 -94.5t-51.5 -29.5v-4q32 -5 53 -33q11 -15 13.5 -33t2.5 -81v-94q0 -85 1 -95q9 -60 50 -60h44v-31h-62q-74 0 -95 40q-10 20 -12.5 40
t-2.5 94v110q0 63 -2 79t-12 32t-49 21z" />
    <glyph glyph-name="bar" unicode="|" 
d="M221 667h58v-834h-58v834z" />
    <glyph glyph-name="braceright" unicode="}" horiz-adv-x="296" 
d="M276 309v-26q-39 -5 -49 -21t-12 -32t-2 -79v-110q0 -74 -2.5 -94t-12.5 -40q-21 -40 -95 -40h-62v31h44q41 0 50 60q1 10 1 95v94q0 63 2.5 81t13.5 33q21 28 53 33v4q-51 7 -63 55q-6 20 -6 69v103q0 97 -13 120q-12 20 -43 20h-39v32h54q70 0 96 -34q22 -28 22 -130
v-113q0 -73 9.5 -90t53.5 -21z" />
    <glyph glyph-name="asciitilde" unicode="~" horiz-adv-x="667" 
d="M528 734l15 -10q-24 -43 -61.5 -70t-74.5 -27q-21 0 -91 23q-58 19 -87 19t-51 -17q-11 -8 -38 -40l-15 10q58 98 138 98q27 0 101 -25q45 -15 67 -15q54 0 97 54z" />
    <glyph glyph-name="Adieresis" unicode="&#xc4;" horiz-adv-x="687" 
d="M430 223h-235l-27 -79q-9 -26 -9 -47q0 -41 41 -54q19 -6 53 -6v-37h-255v37q55 4 83.5 30t53.5 100l178 520h50l198 -564q19 -56 38.5 -71t71.5 -15h14v-37h-310v37q64 1 84.5 7.5t20.5 25.5q0 9 -11 41zM414 270l-99 311l-105 -311h204zM241 841q23 0 38.5 -16
t15.5 -39q0 -22 -16 -38t-38 -16t-38.5 16.5t-16.5 38.5t16.5 38t38.5 16zM438 841q23 0 38.5 -16t15.5 -39q0 -22 -16 -38t-38 -16t-38.5 16.5t-16.5 38.5t16.5 38t38.5 16z" />
    <glyph glyph-name="Aring" unicode="&#xc5;" horiz-adv-x="687" 
d="M430 223h-235l-27 -79q-9 -26 -9 -47q0 -41 41 -54q19 -6 53 -6v-37h-255v37q55 4 83.5 30t53.5 100l178 520h50l198 -564q19 -56 38.5 -71t71.5 -15h14v-37h-310v37q64 1 84.5 7.5t20.5 25.5q0 9 -11 41zM414 270l-99 311l-105 -311h204zM339 903q38 0 64.5 -26.5
t26.5 -65.5q0 -37 -27 -64t-64 -27t-64.5 27.5t-27.5 64.5q0 38 27 64.5t65 26.5zM339 860q-20 0 -34.5 -14t-14.5 -34t14.5 -34.5t34.5 -14.5t34 14.5t14 33.5q0 21 -14 35t-34 14z" />
    <glyph glyph-name="Ccedilla" unicode="&#xc7;" horiz-adv-x="650" 
d="M374 -20l-10 -31q92 0 92 -67q0 -37 -32.5 -61t-81.5 -24q-63 0 -121 39l20 32q55 -32 98 -32q48 0 48 39q0 34 -40 34q-13 0 -38 -7l31 79q-99 6 -167 60q-60 47 -100 133q-33 71 -33 154q0 167 116 274q91 84 190 84q64 0 146 -45q26 -14 37 -14q30 0 46 52h26v-265
h-26q-31 103 -61 145q-65 91 -163 91q-96 0 -147 -85t-51 -245q0 -147 54 -225t157 -78q125 0 181 110q22 44 30 120h35q-4 -120 -66 -189.5t-170 -77.5z" />
    <glyph glyph-name="Eacute" unicode="&#xc9;" horiz-adv-x="672" 
d="M597 667l8 -236h-26q-17 90 -41 131q-29 50 -72 63q-24 7 -97 7h-61q-53 0 -67 -16t-14 -77v-175q97 -1 130.5 24.5t44.5 105.5h24v-311h-24q-12 88 -48.5 118.5t-126.5 28.5v-208q0 -54 16.5 -70.5t70.5 -16.5h71q48 0 68 4q34 5 61 26q64 49 83 193h28l-11 -258h-587
v37q73 1 90 15t17 76v411q0 62 -17 76t-90 15v37h570zM337 726h-34l100 101q49 49 67 49q14 0 24 -10t10 -23q0 -27 -71 -65z" />
    <glyph glyph-name="Ntilde" unicode="&#xd1;" horiz-adv-x="723" 
d="M183 667l373 -518v319q0 56 -3 75q-7 43 -34 63t-65 24v37h249v-37q-56 -3 -77.5 -26t-27.5 -64q-2 -17 -2 -72v-488h-26l-404 553v-336q0 -54 3 -74q8 -42 34 -63q22 -18 76 -23v-37h-266v37q67 7 90 40.5t23 119.5v377q-31 48 -111 56v37h168zM495 836h36
q-5 -44 -29 -69.5t-61 -25.5q-24 0 -106 29q-23 8 -38 8q-28 0 -42 -33h-38q17 95 86 95q20 0 85 -23q45 -16 64 -16q27 0 43 35z" />
    <glyph glyph-name="Odieresis" unicode="&#xd6;" horiz-adv-x="660" 
d="M330 687q107 0 191 -92q99 -109 99 -262q0 -165 -113 -275q-80 -78 -177 -78q-118 0 -204 106t-86 251q0 75 30 147.5t83 124.5q79 78 177 78zM330 650q-177 0 -177 -313q0 -164 43 -242t134 -78q177 0 177 316q0 317 -177 317zM238 841q23 0 38.5 -16t15.5 -39
q0 -22 -16 -38t-38 -16t-38.5 16.5t-16.5 38.5t16.5 38t38.5 16zM435 841q23 0 38.5 -16t15.5 -39q0 -22 -16 -38t-38 -16t-38.5 16.5t-16.5 38.5t16.5 38t38.5 16z" />
    <glyph glyph-name="Udieresis" unicode="&#xdc;" horiz-adv-x="700" 
d="M588 454v-212q0 -75 -5 -102q-9 -54 -43 -90q-65 -70 -178 -70q-140 0 -207 84q-30 38 -39 95q-4 29 -4 105v275q0 62 -17 76t-90 15v37h307v-37q-73 -1 -90 -15t-17 -76v-312q0 -57 5 -84q8 -46 35 -74q45 -47 127 -47q108 0 154 77q22 36 22 119v234q0 105 -18.5 137.5
t-83.5 40.5v37h244v-37q-65 -3 -83.5 -35t-18.5 -141zM279 841q23 0 38.5 -16t15.5 -39q0 -22 -16 -38t-38 -16t-38.5 16.5t-16.5 38.5t16.5 38t38.5 16zM476 841q23 0 38.5 -16t15.5 -39q0 -22 -16 -38t-38 -16t-38.5 16.5t-16.5 38.5t16.5 38t38.5 16z" />
    <glyph glyph-name="aacute" unicode="&#xe1;" horiz-adv-x="460" 
d="M427 128h21q-1 -55 -13 -86q-19 -52 -66 -52q-63 0 -75 97q-19 -42 -61.5 -69.5t-87.5 -27.5q-51 0 -84.5 29.5t-33.5 73.5q0 62 75 105q37 21 183 70l9 3v38q0 65 -16 87q-25 33 -86 33q-55 0 -85 -30q51 -13 51 -58q0 -23 -15.5 -38.5t-37.5 -15.5q-25 0 -42 18t-17 45
q0 45 47.5 76t115.5 31q94 0 134 -41q17 -18 21 -50q2 -13 2 -57v-211q0 -51 23 -51q32 0 38 81zM294 196v47q-97 -40 -137 -72t-40 -70q0 -28 17.5 -45t46.5 -17q49 0 84 46q29 38 29 111zM228 523h-34l75 111q39 58 63 58q13 0 22.5 -8.5t9.5 -20.5q0 -22 -68 -81z" />
    <glyph glyph-name="agrave" unicode="&#xe0;" horiz-adv-x="460" 
d="M427 128h21q-1 -55 -13 -86q-19 -52 -66 -52q-63 0 -75 97q-19 -42 -61.5 -69.5t-87.5 -27.5q-51 0 -84.5 29.5t-33.5 73.5q0 62 75 105q37 21 183 70l9 3v38q0 65 -16 87q-25 33 -86 33q-55 0 -85 -30q51 -13 51 -58q0 -23 -15.5 -38.5t-37.5 -15.5q-25 0 -42 18t-17 45
q0 45 47.5 76t115.5 31q94 0 134 -41q17 -18 21 -50q2 -13 2 -57v-211q0 -51 23 -51q32 0 38 81zM294 196v47q-97 -40 -137 -72t-40 -70q0 -28 17.5 -45t46.5 -17q49 0 84 46q29 38 29 111zM227 523l-68 59q-68 59 -68 81q0 12 9.5 20.5t22.5 8.5q15 0 27 -11t36 -47
l75 -111h-34z" />
    <glyph glyph-name="acircumflex" unicode="&#xe2;" horiz-adv-x="460" 
d="M427 128h21q-1 -55 -13 -86q-19 -52 -66 -52q-63 0 -75 97q-19 -42 -61.5 -69.5t-87.5 -27.5q-51 0 -84.5 29.5t-33.5 73.5q0 62 75 105q37 21 183 70l9 3v38q0 65 -16 87q-25 33 -86 33q-55 0 -85 -30q51 -13 51 -58q0 -23 -15.5 -38.5t-37.5 -15.5q-25 0 -42 18t-17 45
q0 45 47.5 76t115.5 31q94 0 134 -41q17 -18 21 -50q2 -13 2 -57v-211q0 -51 23 -51q32 0 38 81zM294 196v47q-97 -40 -137 -72t-40 -70q0 -28 17.5 -45t46.5 -17q49 0 84 46q29 38 29 111zM194 677h61l108 -154h-45l-10 8l-36 30q-28 23 -49 43q-9 -8 -32 -29
q-8 -7 -30 -26l-30 -26h-45q47 67 108 154z" />
    <glyph glyph-name="adieresis" unicode="&#xe4;" horiz-adv-x="460" 
d="M427 128h21q-1 -55 -13 -86q-19 -52 -66 -52q-63 0 -75 97q-19 -42 -61.5 -69.5t-87.5 -27.5q-51 0 -84.5 29.5t-33.5 73.5q0 62 75 105q37 21 183 70l9 3v38q0 65 -16 87q-25 33 -86 33q-55 0 -85 -30q51 -13 51 -58q0 -23 -15.5 -38.5t-37.5 -15.5q-25 0 -42 18t-17 45
q0 45 47.5 76t115.5 31q94 0 134 -41q17 -18 21 -50q2 -13 2 -57v-211q0 -51 23 -51q32 0 38 81zM294 196v47q-97 -40 -137 -72t-40 -70q0 -28 17.5 -45t46.5 -17q49 0 84 46q29 38 29 111zM133 653q22 0 37 -15.5t15 -37.5q0 -21 -15.5 -36t-36.5 -15t-36.5 15.5
t-15.5 36.5q0 22 15 37t37 15zM301 653q22 0 37 -15.5t15 -37.5q0 -21 -15.5 -36t-36.5 -15t-36.5 15.5t-15.5 36.5q0 22 15 37t37 15z" />
    <glyph glyph-name="atilde" unicode="&#xe3;" horiz-adv-x="460" 
d="M427 128h21q-1 -55 -13 -86q-19 -52 -66 -52q-63 0 -75 97q-19 -42 -61.5 -69.5t-87.5 -27.5q-51 0 -84.5 29.5t-33.5 73.5q0 62 75 105q37 21 183 70l9 3v38q0 65 -16 87q-25 33 -86 33q-55 0 -85 -30q51 -13 51 -58q0 -23 -15.5 -38.5t-37.5 -15.5q-25 0 -42 18t-17 45
q0 45 47.5 76t115.5 31q94 0 134 -41q17 -18 21 -50q2 -13 2 -57v-211q0 -51 23 -51q32 0 38 81zM294 196v47q-97 -40 -137 -72t-40 -70q0 -28 17.5 -45t46.5 -17q49 0 84 46q29 38 29 111zM345 646h36q-5 -44 -29 -70t-61 -26q-23 0 -106 30q-22 8 -38 8q-28 0 -42 -34h-38
q17 96 86 96q21 0 85 -23q44 -16 64 -16q27 0 43 35z" />
    <glyph glyph-name="aring" unicode="&#xe5;" horiz-adv-x="460" 
d="M427 128h21q-1 -55 -13 -86q-19 -52 -66 -52q-63 0 -75 97q-19 -42 -61.5 -69.5t-87.5 -27.5q-51 0 -84.5 29.5t-33.5 73.5q0 62 75 105q37 21 183 70l9 3v38q0 65 -16 87q-25 33 -86 33q-55 0 -85 -30q51 -13 51 -58q0 -23 -15.5 -38.5t-37.5 -15.5q-25 0 -42 18t-17 45
q0 45 47.5 76t115.5 31q94 0 134 -41q17 -18 21 -50q2 -13 2 -57v-211q0 -51 23 -51q32 0 38 81zM294 196v47q-97 -40 -137 -72t-40 -70q0 -28 17.5 -45t46.5 -17q49 0 84 46q29 38 29 111zM227 692q38 0 64.5 -26.5t26.5 -65.5q0 -37 -27 -64t-64 -27t-64.5 27.5
t-27.5 64.5q0 38 27 64.5t65 26.5zM227 649q-20 0 -34.5 -14t-14.5 -34t14.5 -34.5t34.5 -14.5t34 14.5t14 33.5q0 21 -14 35t-34 14z" />
    <glyph glyph-name="ccedilla" unicode="&#xe7;" horiz-adv-x="416" 
d="M250 -9l-13 -33h6q39 0 63 -17.5t24 -47.5q0 -35 -31.5 -58t-80.5 -23q-54 0 -105 30l18 30q47 -26 83 -26q48 0 48 39q0 33 -40 33q-14 0 -36 -6l31 79q-53 6 -92 35q-92 70 -92 194q0 107 73 177q63 60 136 60q56 0 96 -36.5t40 -88.5q0 -29 -18 -50t-44 -21
q-23 0 -39 16t-16 40q0 25 17.5 42t42.5 17h9q-22 48 -83 48q-58 0 -91 -51.5t-33 -143.5q0 -89 32.5 -140t90.5 -51q37 0 63.5 16.5t62.5 61.5l21 -17q-54 -99 -143 -108z" />
    <glyph glyph-name="eacute" unicode="&#xe9;" horiz-adv-x="458" 
d="M423 216h-302q1 -85 30 -128q38 -56 113 -56q79 0 137 93l23 -15q-60 -120 -178 -120q-94 0 -153.5 63t-59.5 162q0 97 60.5 169.5t142.5 72.5q80 0 132.5 -68t54.5 -173zM123 251h128q50 0 66.5 11t16.5 45q0 50 -26 81.5t-68 31.5q-111 0 -117 -169zM237 523h-34
l75 111q39 58 63 58q13 0 22.5 -8.5t9.5 -20.5q0 -22 -68 -81z" />
    <glyph glyph-name="egrave" unicode="&#xe8;" horiz-adv-x="458" 
d="M423 216h-302q1 -85 30 -128q38 -56 113 -56q79 0 137 93l23 -15q-60 -120 -178 -120q-94 0 -153.5 63t-59.5 162q0 97 60.5 169.5t142.5 72.5q80 0 132.5 -68t54.5 -173zM123 251h128q50 0 66.5 11t16.5 45q0 50 -26 81.5t-68 31.5q-111 0 -117 -169zM226 523l-68 59
q-68 59 -68 81q0 12 9.5 20.5t22.5 8.5q15 0 27 -11t36 -47l75 -111h-34z" />
    <glyph glyph-name="ecircumflex" unicode="&#xea;" horiz-adv-x="458" 
d="M423 216h-302q1 -85 30 -128q38 -56 113 -56q79 0 137 93l23 -15q-60 -120 -178 -120q-94 0 -153.5 63t-59.5 162q0 97 60.5 169.5t142.5 72.5q80 0 132.5 -68t54.5 -173zM123 251h128q50 0 66.5 11t16.5 45q0 50 -26 81.5t-68 31.5q-111 0 -117 -169zM205 677h61
l108 -154h-45l-10 8l-36 30q-28 23 -49 43q-9 -8 -32 -29q-8 -7 -30 -26l-30 -26h-45q47 67 108 154z" />
    <glyph glyph-name="edieresis" unicode="&#xeb;" horiz-adv-x="458" 
d="M423 216h-302q1 -85 30 -128q38 -56 113 -56q79 0 137 93l23 -15q-60 -120 -178 -120q-94 0 -153.5 63t-59.5 162q0 97 60.5 169.5t142.5 72.5q80 0 132.5 -68t54.5 -173zM123 251h128q50 0 66.5 11t16.5 45q0 50 -26 81.5t-68 31.5q-111 0 -117 -169zM155 653
q22 0 37 -15.5t15 -37.5q0 -21 -15.5 -36t-36.5 -15t-36.5 15.5t-15.5 36.5q0 22 15 37t37 15zM323 653q22 0 37 -15.5t15 -37.5q0 -21 -15.5 -36t-36.5 -15t-36.5 15.5t-15.5 36.5q0 22 15 37t37 15z" />
    <glyph glyph-name="iacute" unicode="&#xed;" horiz-adv-x="263" 
d="M177 464v-348q0 -56 9 -69t51 -14v-33h-207v33l9 1q44 1 52.5 14t8.5 80v206q0 54 -13 66.5t-69 13.5v33q24 2 27 2l53 5l53 7q10 0 26 3zM140 523h-34l75 111q39 58 63 58q13 0 22.5 -8.5t9.5 -20.5q0 -22 -68 -81z" />
    <glyph glyph-name="igrave" unicode="&#xec;" horiz-adv-x="263" 
d="M177 464v-348q0 -56 9 -69t51 -14v-33h-207v33l9 1q44 1 52.5 14t8.5 80v206q0 54 -13 66.5t-69 13.5v33q24 2 27 2l53 5l53 7q10 0 26 3zM133 523l-68 59q-68 59 -68 81q0 12 9.5 20.5t22.5 8.5q15 0 27 -11t36 -47l75 -111h-34z" />
    <glyph glyph-name="icircumflex" unicode="&#xee;" horiz-adv-x="263" 
d="M177 464v-348q0 -56 9 -69t51 -14v-33h-207v33l9 1q44 1 52.5 14t8.5 80v206q0 54 -13 66.5t-69 13.5v33q24 2 27 2l53 5l53 7q10 0 26 3zM98 677h61l108 -154h-45l-10 8l-36 30q-28 23 -49 43q-9 -8 -32 -29q-8 -7 -30 -26l-30 -26h-45q47 67 108 154z" />
    <glyph glyph-name="idieresis" unicode="&#xef;" horiz-adv-x="263" 
d="M177 464v-348q0 -56 9 -69t51 -14v-33h-207v33l9 1q44 1 52.5 14t8.5 80v206q0 54 -13 66.5t-69 13.5v33q24 2 27 2l53 5l53 7q10 0 26 3zM66 653q22 0 37 -15.5t15 -37.5q0 -21 -15.5 -36t-36.5 -15t-36.5 15.5t-15.5 36.5q0 22 15 37t37 15zM204 653q22 0 37 -15.5
t15 -37.5q0 -21 -15.5 -36t-36.5 -15t-36.5 15.5t-15.5 36.5q0 22 15 37t37 15z" />
    <glyph glyph-name="ntilde" unicode="&#xf1;" horiz-adv-x="527" 
d="M175 464v-140q48 133 147 133q52 0 85 -45t33 -152v-144q0 -56 9 -69t51 -14v-33h-207v33l9 1q44 1 52.5 14t8.5 80v155q0 68 -16 90q-20 27 -51 27q-58 0 -89 -68.5t-31 -193.5v-22q0 -56 9.5 -68.5t50.5 -14.5v-33h-206v33l9 1q44 1 52.5 14t8.5 80v206q0 54 -12 66.5
t-65 13.5v33q22 2 25 2q47 5 51 5q12 2 51 7q7 0 25 3zM401 646h36q-5 -44 -29 -70t-61 -26q-23 0 -106 30q-22 8 -38 8q-28 0 -42 -34h-38q17 96 86 96q21 0 85 -23q44 -16 64 -16q27 0 43 35z" />
    <glyph glyph-name="oacute" unicode="&#xf3;" horiz-adv-x="459" 
d="M230 457q77 0 133 -66q63 -74 63 -168q0 -102 -72 -177q-54 -56 -125 -56q-77 0 -133 66q-63 74 -63 170q0 100 72 175q54 56 125 56zM230 425q-71 0 -95 -71q-12 -36 -12 -127q0 -105 17 -145q25 -60 89 -60q71 0 95 71q12 36 12 130q0 102 -17 142q-25 60 -89 60z
M235 523h-34l75 111q39 58 63 58q13 0 22.5 -8.5t9.5 -20.5q0 -22 -68 -81z" />
    <glyph glyph-name="ograve" unicode="&#xf2;" horiz-adv-x="459" 
d="M230 457q77 0 133 -66q63 -74 63 -168q0 -102 -72 -177q-54 -56 -125 -56q-77 0 -133 66q-63 74 -63 170q0 100 72 175q54 56 125 56zM230 425q-71 0 -95 -71q-12 -36 -12 -127q0 -105 17 -145q25 -60 89 -60q71 0 95 71q12 36 12 130q0 102 -17 142q-25 60 -89 60z
M227 523l-68 59q-68 59 -68 81q0 12 9.5 20.5t22.5 8.5q15 0 27 -11t36 -47l75 -111h-34z" />
    <glyph glyph-name="ocircumflex" unicode="&#xf4;" horiz-adv-x="459" 
d="M230 457q77 0 133 -66q63 -74 63 -168q0 -102 -72 -177q-54 -56 -125 -56q-77 0 -133 66q-63 74 -63 170q0 100 72 175q54 56 125 56zM230 425q-71 0 -95 -71q-12 -36 -12 -127q0 -105 17 -145q25 -60 89 -60q71 0 95 71q12 36 12 130q0 102 -17 142q-25 60 -89 60z
M206 677h61l108 -154h-45l-10 8l-36 30q-28 23 -49 43q-9 -8 -32 -29q-8 -7 -30 -26l-30 -26h-45q47 67 108 154z" />
    <glyph glyph-name="odieresis" unicode="&#xf6;" horiz-adv-x="459" 
d="M230 457q77 0 133 -66q63 -74 63 -168q0 -102 -72 -177q-54 -56 -125 -56q-77 0 -133 66q-63 74 -63 170q0 100 72 175q54 56 125 56zM230 425q-71 0 -95 -71q-12 -36 -12 -127q0 -105 17 -145q25 -60 89 -60q71 0 95 71q12 36 12 130q0 102 -17 142q-25 60 -89 60z
M152 653q22 0 37 -15.5t15 -37.5q0 -21 -15.5 -36t-36.5 -15t-36.5 15.5t-15.5 36.5q0 22 15 37t37 15zM320 653q22 0 37 -15.5t15 -37.5q0 -21 -15.5 -36t-36.5 -15t-36.5 15.5t-15.5 36.5q0 22 15 37t37 15z" />
    <glyph glyph-name="otilde" unicode="&#xf5;" horiz-adv-x="459" 
d="M230 457q77 0 133 -66q63 -74 63 -168q0 -102 -72 -177q-54 -56 -125 -56q-77 0 -133 66q-63 74 -63 170q0 100 72 175q54 56 125 56zM230 425q-71 0 -95 -71q-12 -36 -12 -127q0 -105 17 -145q25 -60 89 -60q71 0 95 71q12 36 12 130q0 102 -17 142q-25 60 -89 60z
M360 646h36q-5 -44 -29 -70t-61 -26q-23 0 -106 30q-22 8 -38 8q-28 0 -42 -34h-38q17 96 86 96q21 0 85 -23q44 -16 64 -16q27 0 43 35z" />
    <glyph glyph-name="uacute" unicode="&#xfa;" horiz-adv-x="517" 
d="M355 -10v136q-20 -62 -63 -99t-97 -37q-47 0 -76 30q-32 34 -32 117v194q0 56 -10.5 69t-59.5 14v33q22 2 23 2q47 5 50 5t50 7q9 0 24 3v-302q0 -67 14.5 -92t49.5 -25q61 0 98 78q28 59 28 176v23q0 60 -15 75.5t-78 16.5v33q55 5 170 17v-343q0 -56 10 -68.5t57 -14.5
v-33l-42 -4l-29 -2q-9 -1 -72 -9zM254 523h-34l75 111q39 58 63 58q13 0 22.5 -8.5t9.5 -20.5q0 -22 -68 -81z" />
    <glyph glyph-name="ugrave" unicode="&#xf9;" horiz-adv-x="517" 
d="M355 -10v136q-20 -62 -63 -99t-97 -37q-47 0 -76 30q-32 34 -32 117v194q0 56 -10.5 69t-59.5 14v33q22 2 23 2q47 5 50 5t50 7q9 0 24 3v-302q0 -67 14.5 -92t49.5 -25q61 0 98 78q28 59 28 176v23q0 60 -15 75.5t-78 16.5v33q55 5 170 17v-343q0 -56 10 -68.5t57 -14.5
v-33l-42 -4l-29 -2q-9 -1 -72 -9zM259 523l-68 59q-68 59 -68 81q0 12 9.5 20.5t22.5 8.5q15 0 27 -11t36 -47l75 -111h-34z" />
    <glyph glyph-name="ucircumflex" unicode="&#xfb;" horiz-adv-x="517" 
d="M355 -10v136q-20 -62 -63 -99t-97 -37q-47 0 -76 30q-32 34 -32 117v194q0 56 -10.5 69t-59.5 14v33q22 2 23 2q47 5 50 5t50 7q9 0 24 3v-302q0 -67 14.5 -92t49.5 -25q61 0 98 78q28 59 28 176v23q0 60 -15 75.5t-78 16.5v33q55 5 170 17v-343q0 -56 10 -68.5t57 -14.5
v-33l-42 -4l-29 -2q-9 -1 -72 -9zM222 677h61l108 -154h-45l-10 8l-36 30q-28 23 -49 43q-9 -8 -32 -29q-8 -7 -30 -26l-30 -26h-45q47 67 108 154z" />
    <glyph glyph-name="udieresis" unicode="&#xfc;" horiz-adv-x="517" 
d="M355 -10v136q-20 -62 -63 -99t-97 -37q-47 0 -76 30q-32 34 -32 117v194q0 56 -10.5 69t-59.5 14v33q22 2 23 2q47 5 50 5t50 7q9 0 24 3v-302q0 -67 14.5 -92t49.5 -25q61 0 98 78q28 59 28 176v23q0 60 -15 75.5t-78 16.5v33q55 5 170 17v-343q0 -56 10 -68.5t57 -14.5
v-33l-42 -4l-29 -2q-9 -1 -72 -9zM172 653q22 0 37 -15.5t15 -37.5q0 -21 -15.5 -36t-36.5 -15t-36.5 15.5t-15.5 36.5q0 22 15 37t37 15zM340 653q22 0 37 -15.5t15 -37.5q0 -21 -15.5 -36t-36.5 -15t-36.5 15.5t-15.5 36.5q0 22 15 37t37 15z" />
    <glyph glyph-name="dagger" unicode="&#x2020;" horiz-adv-x="487" 
d="M257 -120h-26q-1 12 -1 23l-1 100q-2 174 -37 287q3 5 6 11q35 54 32 141q0 5 1 13q-24 -1 -44 -5q-6 -2 -47 -19q-19 -8 -31 -8q-22 0 -36 13t-14 33q0 19 13.5 32t33.5 13q14 0 46.5 -14.5t68.5 -18.5l10 -1q-2 45 -5.5 60.5t-17.5 48.5q-13 30 -13 46q0 49 46 49
q47 0 47 -50q0 -15 -19 -68q-7 -19 -11 -73l-1 -13q42 2 92 25q15 7 35 7q43 0 43 -43q0 -19 -12.5 -32t-31.5 -13q-13 0 -36 10q-50 22 -79 22q-6 0 -11 -1v-20q0 -50 6 -76q8 -32 33 -69q-30 -84 -37 -203q-3 -45 -2 -207z" />
    <glyph glyph-name="degree" unicode="&#xb0;" horiz-adv-x="272" 
d="M136 664q40 0 68 -28.5t28 -68.5t-28.5 -67.5t-69.5 -27.5q-38 0 -66 28.5t-28 67.5q0 40 28 68t68 28zM136 624q-23 0 -39.5 -16.5t-16.5 -39.5t16.5 -39.5t38.5 -16.5q24 0 40.5 16.5t16.5 39.5t-16.5 39.5t-39.5 16.5z" />
    <glyph glyph-name="cent" unicode="&#xa2;" horiz-adv-x="487" 
d="M268 610v-67q54 0 88 -22q59 -38 59 -102q0 -29 -18 -50t-44 -21q-23 0 -39 16t-16 40q0 25 17.5 42t42.5 17h9q-23 47 -82 47t-92 -51.5t-33 -143.5q0 -89 33 -140t91 -51q37 0 63 16t62 62l21 -17q-60 -110 -162 -108v-70h-36v73q-70 14 -116 78.5t-46 147.5
q0 82 45 146t117 85v73h36z" />
    <glyph glyph-name="sterling" unicode="&#xa3;" horiz-adv-x="487" 
d="M255 351h123v-45h-110q7 -39 7 -66q0 -74 -36 -137q40 -17 82 -17q100 0 103 124h25q1 -10 1 -23q0 -92 -32 -144.5t-88 -52.5q-48 0 -125 60q-59 -60 -107 -60q-35 0 -57.5 20.5t-22.5 54.5q0 35 24 57t63 22q29 0 78 -19l10 -5q13 29 13 57q0 56 -30 129h-110v45h96
q-28 76 -28 123q0 82 50.5 136t126.5 54q61 0 98 -34.5t37 -92.5q0 -36 -17.5 -57.5t-46.5 -21.5q-26 0 -43.5 18t-17.5 44q0 25 17 41.5t43 16.5q13 0 27 -7q-15 60 -89 60q-46 0 -78 -31.5t-32 -75.5q0 -43 46 -173zM169 75q-41 31 -70 31q-43 0 -43 -40q0 -19 12 -31
t30 -12q39 0 71 52z" />
    <glyph glyph-name="section" unicode="&#xa7;" horiz-adv-x="487" 
d="M166 -75q21 -34 73 -34q35 0 57.5 20.5t22.5 51.5q0 29 -25 57q-8 9 -104 90q-122 99 -122 183q0 52 31 88t76 36q12 0 20 -1q-49 40 -69 72.5t-20 72.5q0 55 38.5 89t100.5 34q53 0 91 -29.5t38 -70.5q0 -23 -15 -39t-37 -16q-21 0 -35 14.5t-14 35.5q0 31 38 46
q-22 33 -63 33q-35 0 -58 -19.5t-23 -49.5q0 -41 64 -93q112 -90 139 -122q49 -56 49 -117q0 -53 -30 -87.5t-76 -34.5q-6 0 -26 2q94 -68 94 -143q0 -56 -40.5 -93t-102.5 -37q-59 0 -99.5 29t-40.5 72q0 26 15.5 43t38.5 17q22 0 36.5 -14t14.5 -34q0 -33 -37 -52z
M188 390q-26 0 -45 -19t-19 -45q0 -42 70 -106q65 -59 102 -59q27 0 48 19t21 44q0 37 -54 90q-77 76 -123 76z" />
    <glyph glyph-name="bullet" unicode="&#x2022;" horiz-adv-x="667" 
d="M337 477q55 0 95.5 -41t40.5 -97q0 -58 -40.5 -98.5t-97.5 -40.5t-98 40.5t-41 97.5q0 58 41 98.5t100 40.5z" />
    <glyph glyph-name="paragraph" unicode="&#xb6;" horiz-adv-x="487" 
d="M317 624h-44v-757h-150v37q62 1 76 15.5t14 75.5v298h-10q-60 0 -104 38q-62 54 -62 148q0 114 85 163q43 25 103 25h242v-37q-62 -1 -76 -15.5t-14 -75.5v-553q0 -54 15.5 -67.5t74.5 -14.5v-37h-150v757z" />
    <glyph glyph-name="germandbls" unicode="&#xdf;" horiz-adv-x="494" 
d="M73 128v319q0 69 6 98q10 50 44 85q53 54 134 54q75 0 127.5 -52.5t52.5 -127.5q0 -60 -35 -99.5t-93 -43.5q151 -34 151 -193q0 -82 -37.5 -130t-101.5 -48q-46 0 -79.5 28.5t-33.5 67.5q0 24 14 39t36 15q20 0 33.5 -12.5t13.5 -31.5t-10 -34q-4 -8 -4 -12
q0 -23 31 -23q37 0 46 57q2 15 2 84q0 97 -20.5 134t-73.5 37q-11 0 -20 -1h-5q-30 0 -30 19t26 19q11 0 25 -1t17 -1q65 0 65 126q0 147 -101 147q-54 0 -80 -34q-23 -30 -23 -141v-472h-147v33l9 1q44 1 52.5 14t8.5 80z" />
    <glyph glyph-name="registered" unicode="&#xae;" horiz-adv-x="739" 
d="M308 324v-106q0 -33 9 -40t54 -8v-27h-187v27q44 1 53.5 8t9.5 40v230q0 33 -9 40t-54 8v27h176q86 0 121.5 -27.5t35.5 -66.5q0 -75 -114 -97q32 -15 50 -39.5t34 -73.5q12 -36 25 -36q18 0 20 53h22q1 -7 1 -16q0 -40 -17.5 -64t-46.5 -24q-65 0 -71 103q-4 62 -28 79
q-14 10 -63 10h-21zM308 350h18q73 0 91 11q29 18 29 64q0 41 -18.5 56.5t-69.5 15.5q-34 0 -42 -9t-8 -47v-91zM369 680q146 0 248 -101.5t102 -247.5q0 -143 -103.5 -243.5t-251.5 -100.5q-140 0 -242 102.5t-102 243.5q0 144 102.5 245.5t246.5 101.5zM370 640
q-127 0 -216 -89.5t-89 -217.5q0 -125 89 -215.5t211 -90.5q128 0 218.5 88.5t90.5 215.5q0 128 -89 218.5t-215 90.5z" />
    <glyph glyph-name="copyright" unicode="&#xa9;" horiz-adv-x="739" 
d="M527 530v-155h-21q-20 60 -36 82q-38 50 -93 50q-112 0 -112 -181q0 -166 120 -166q71 0 103 60q13 24 18 69h26q-3 -74 -42.5 -115t-108.5 -41q-85 0 -135 58q-54 63 -54 140q0 80 55 141.5t128 61.5q35 0 86 -27q13 -7 20 -7q16 0 25 30h21zM369 680q146 0 248 -101.5
t102 -247.5q0 -143 -103.5 -243.5t-251.5 -100.5q-140 0 -242 102.5t-102 243.5q0 144 102.5 245.5t246.5 101.5zM370 640q-127 0 -216 -89.5t-89 -217.5q0 -125 89 -215.5t211 -90.5q128 0 218.5 88.5t90.5 215.5q0 128 -89 218.5t-215 90.5z" />
    <glyph glyph-name="trademark" unicode="&#x2122;" horiz-adv-x="884" 
d="M28 667h330l7 -151h-23q-13 71 -38 98t-79 27v-278q0 -34 8.5 -41.5t48.5 -7.5h13v-27h-201v27h11q41 0 50 7.5t9 41.5v278q-58 1 -80.5 -23.5t-36.5 -101.5h-23zM562 287h-153v27q38 3 51 17.5t13 53.5v205q0 34 -8 42t-43 8h-12v27h148l75 -259l81 259h144v-27
q-44 -1 -53 -8t-9 -40v-230q0 -33 9 -40t53 -8v-27h-186v27q45 1 54 8t9 40v270l-111 -357h-16l-105 356v-247q0 -38 11.5 -51.5t47.5 -18.5v-27z" />
    <glyph glyph-name="acute" unicode="&#xb4;" 
d="M226 523h-34l75 111q39 58 63 58q13 0 22.5 -8.5t9.5 -20.5q0 -22 -68 -81z" />
    <glyph glyph-name="dieresis" unicode="&#xa8;" 
d="M166 653q22 0 37 -15.5t15 -37.5q0 -21 -15.5 -36t-36.5 -15t-36.5 15.5t-15.5 36.5q0 22 15 37t37 15zM334 653q22 0 37 -15.5t15 -37.5q0 -21 -15.5 -36t-36.5 -15t-36.5 15.5t-15.5 36.5q0 22 15 37t37 15z" />
    <glyph glyph-name="notequal" unicode="&#x2260;" horiz-adv-x="487" 
d="M253 393l43 93l36 -17l-35 -76h140v-40h-159l-25 -53h184v-40h-203l-43 -93l-36 17l35 76h-140v40h159l25 53h-184v40h203z" />
    <glyph glyph-name="AE" unicode="&#xc6;" horiz-adv-x="1001" 
d="M489 220h-276q-58 -96 -58 -130q0 -49 89 -53v-37h-244v37q42 16 69.5 41.5t62.5 85.5l226 388q25 43 25 56q0 14 -20 19q-8 3 -49 5v35h612l8 -236h-26q-17 90 -41 131q-29 50 -72 63q-24 7 -97 7h-35q-53 0 -67 -16t-14 -77v-175q93 -1 126 24.5t43 105.5h24v-311h-24
q-12 88 -47 118.5t-122 28.5v-208q0 -54 16.5 -70.5t71.5 -16.5h44q48 0 68 4q34 5 61 26q66 50 83 193h28l-11 -258h-561v37q73 1 90 15t17 76v92zM489 267v359q-32 -5 -48.5 -18t-37.5 -50l-165 -291h251z" />
    <glyph glyph-name="Oslash" unicode="&#xd8;" horiz-adv-x="660" 
d="M541 682l-36 -71q115 -115 115 -278q0 -164 -113 -275q-79 -78 -177 -78q-71 0 -130 39l-32 -62l-37 18l36 70q-127 113 -127 289q0 164 113 275q79 78 177 78q75 0 143 -49l32 62zM474 551l-252 -490q40 -44 108 -44q177 0 177 319q0 142 -33 215zM195 98l254 495
q-44 57 -119 57q-177 0 -177 -317q0 -163 42 -235z" />
    <glyph glyph-name="infinity" unicode="&#x221e;" horiz-adv-x="667" 
d="M312 284q-42 -66 -74.5 -90.5t-77.5 -24.5q-63 0 -106.5 46.5t-43.5 114.5q0 74 47.5 125.5t114.5 51.5q93 0 169 -123q2 4 12 19q40 61 64 78q38 26 82 26q66 0 112 -49t46 -120q0 -74 -49.5 -126t-120.5 -52q-101 0 -175 124zM355 363q19 -29 32 -47q67 -89 143 -89
q43 0 72 31.5t29 77.5q0 49 -36 78.5t-97 29.5q-91 0 -143 -81zM295 309q-24 38 -38 56q-57 75 -126 75q-40 0 -67.5 -30.5t-27.5 -75.5q0 -47 34 -75t92 -28q44 0 74 17.5t59 60.5z" />
    <glyph glyph-name="plusminus" unicode="&#xb1;" horiz-adv-x="487" 
d="M223 307h-173v40h173v163h40v-163h174v-40h-174v-164h-40v164zM50 67v40h387v-40h-387z" />
    <glyph glyph-name="lessequal" unicode="&#x2264;" horiz-adv-x="487" 
d="M451 617v-40l-306 -199l306 -205v-106l-415 277v7zM36 37h415v-37h-415v37z" />
    <glyph glyph-name="greaterequal" unicode="&#x2265;" horiz-adv-x="487" 
d="M36 37h415v-37h-415v37zM36 67v40l306 199l-306 205v106l415 -280v-7z" />
    <glyph glyph-name="yen" unicode="&#xa5;" horiz-adv-x="487" 
d="M203 246h-158v45h150l-33 81h-117v45h98l-41 103q-23 57 -43 76.5t-59 19.5v37h225v-37q-35 0 -44.5 -4.5t-9.5 -17.5q0 -6 5 -18l4 -10l93 -239l61 173q20 58 20 76q0 36 -40 40v37h168v-37q-49 -7 -73 -36t-52 -112l-17 -51h104v-45h-119l-29 -81h148v-45h-156v-116
q0 -66 12 -79.5t71 -13.5h10v-37h-271v37h10q59 0 71 13.5t12 79.5v116z" />
    <glyph glyph-name="partialdiff" unicode="&#x2202;" 
d="M145 671l10 17q95 -39 163 -104q65 -62 111 -177q40 -100 40 -179q0 -105 -62.5 -174t-158.5 -69q-92 0 -154.5 67t-62.5 165t62 165t153 67q65 0 103 -32q5 -5 35 -38q-35 105 -90 172.5t-149 119.5zM253 425q-44 0 -78 -31q-26 -24 -44.5 -75.5t-18.5 -100.5
q0 -52 17.5 -102.5t43.5 -74.5q34 -32 75 -32q59 0 99.5 61.5t40.5 152.5q0 89 -38 145.5t-97 56.5z" />
    <glyph glyph-name="summation" unicode="&#x2211;" horiz-adv-x="667" 
d="M55 667h519v-162h-19q-10 78 -45.5 106.5t-121.5 28.5h-225l204 -384l-239 -438h264q88 0 136 35t68 117h19l-33 -203h-527l245 448z" />
    <glyph glyph-name="product" unicode="&#x220f;" horiz-adv-x="667" 
d="M567 569v-704q0 -47 8 -60q12 -19 56 -19h24v-19h-266v19h22q30 0 41 4q18 8 22 32q3 15 3 43v703q0 36 -3 48q-7 25 -31 30q-11 2 -32 2h-152q-47 0 -59 -19q-8 -13 -8 -61v-703q0 -47 8 -60q12 -19 56 -19h24v-19h-266v19h22q30 0 41 4q18 8 22 32q3 15 3 43v704
q0 35 -3 47q-6 25 -30 30q-12 2 -33 2h-25v19h645v-19h-23q-32 0 -43 -5q-18 -8 -21 -37q-2 -13 -2 -37z" />
    <glyph glyph-name="integral" unicode="&#x222b;" horiz-adv-x="501" 
d="M295 480v-466q0 -71 -3 -100q-6 -56 -28 -95q-45 -81 -134 -81q-54 0 -91 30.5t-37 75.5q0 24 16 41t40 17q22 0 37.5 -15t15.5 -35q0 -11 -6.5 -24.5t-6.5 -21.5q0 -30 32 -30q33 0 54 45.5t21 118.5v485q0 74 3 101q5 57 27 96q45 81 134 81q55 0 92 -30.5t37 -75.5
q0 -24 -16 -41t-40 -17q-22 0 -37.5 15t-15.5 35q0 13 6.5 25t6.5 21q0 30 -32 30q-35 0 -55 -49.5t-20 -135.5z" />
    <glyph glyph-name="ordfeminine" unicode="&#xaa;" horiz-adv-x="343" 
d="M288 470h20q-3 -88 -53 -88q-34 0 -47 50q-40 -50 -90 -50q-33 0 -54.5 18t-21.5 46q0 39 48 65q17 9 113 41l3 1v20q0 39 -9 50q-15 18 -50 18q-29 0 -45 -13q27 -9 27 -36q0 -14 -10.5 -24.5t-24.5 -10.5q-17 0 -28.5 12t-11.5 29q0 28 30 47t73 19q60 0 85 -25
q15 -15 15 -66v-124q0 -27 11 -27q17 0 20 48zM206 506v23q-102 -39 -102 -78q0 -33 36 -33q29 0 47.5 24.5t18.5 63.5zM33 293v37h276v-37h-276z" />
    <glyph glyph-name="ordmasculine" unicode="&#xba;" horiz-adv-x="343" 
d="M171 664q49 0 86.5 -42.5t37.5 -98.5t-37.5 -98.5t-86.5 -42.5q-50 0 -87 42.5t-37 99.5q0 55 37.5 97.5t86.5 42.5zM171 639q-51 0 -59 -58q-3 -18 -3 -57q0 -66 13.5 -91.5t48.5 -25.5t48.5 25.5t13.5 91.5q0 64 -13.5 89.5t-48.5 25.5zM33 293v37h276v-37h-276z" />
    <glyph glyph-name="Omega" unicode="&#x3a9;" horiz-adv-x="667" 
d="M689 123l-38 -123h-278v48q81 40 123 92q74 93 74 218q0 117 -62 204t-175 87q-123 0 -187 -106q-49 -81 -49 -183q0 -143 92 -241q33 -36 104 -71v-48h-279l-38 123h19q16 -46 50 -61q22 -10 78 -12l108 -3v5q-82 32 -130 76q-106 97 -106 232q0 67 31.5 132.5
t86.5 111.5q87 74 221 74q162 0 257 -109q80 -92 80 -207q0 -74 -35 -142t-97 -114q-36 -27 -104 -54v-5l115 4q57 2 81 16t39 56h19z" />
    <glyph glyph-name="ae" unicode="&#xe6;" horiz-adv-x="704" 
d="M671 212h-292v-19q0 -69 39 -119q32 -41 92 -41q80 0 130 95l27 -13q-54 -125 -172 -125q-105 0 -162 94q-74 -94 -179 -94q-56 0 -91.5 29t-35.5 75q0 61 71.5 103.5t197.5 56.5v72q0 53 -22 72q-31 27 -77 27q-49 0 -81 -27q45 -8 45 -55q0 -22 -16.5 -38.5
t-39.5 -16.5q-25 0 -42 17.5t-17 43.5q0 46 49 77t122 31q100 0 143 -59q62 59 132 59q74 0 126.5 -65.5t52.5 -159.5v-20zM296 212q-20 0 -44 -4q-58 -10 -96.5 -43t-38.5 -73q0 -29 18 -46.5t47 -17.5q26 0 52 17.5t40 45.5q18 35 22 121zM382 254h108q46 0 58 3
q32 8 32 40q0 123 -88 123q-60 0 -89 -59q-7 -15 -14.5 -48.5t-7.5 -52.5q0 -4 1 -6z" />
    <glyph glyph-name="oslash" unicode="&#xf8;" horiz-adv-x="459" 
d="M370 459l-25 -49q81 -78 81 -187q0 -103 -72 -177q-55 -56 -124 -56q-50 0 -91 27l-29 -56l-35 19l33 63q-75 78 -75 181t72 177q55 56 124 56q47 0 84 -23l23 42zM320 363l-163 -311q27 -30 73 -30q70 0 94 71q12 36 12 129q0 98 -16 141zM135 94l161 307q-25 24 -67 24
q-70 0 -94 -71q-12 -36 -12 -132q0 -92 12 -128z" />
    <glyph glyph-name="questiondown" unicode="&#xbf;" horiz-adv-x="376" 
d="M188 266h34q1 -33 1 -60q0 -60 -18 -114q-11 -34 -46 -107q-29 -60 -29 -104q0 -38 22 -61t59 -23q67 0 89 58q-5 -1 -12 -1q-25 0 -41 16t-16 41q0 23 16.5 39.5t40.5 16.5q26 0 43.5 -20.5t17.5 -51.5q0 -57 -43 -96t-107 -39q-67 0 -113 40.5t-46 99.5q0 42 19 76
q8 14 52 60q52 54 66 107q10 35 11 123zM201 454q25 0 42.5 -19.5t17.5 -47.5t-17.5 -47.5t-42.5 -19.5t-42.5 20t-17.5 48q0 27 17.5 46.5t42.5 19.5z" />
    <glyph glyph-name="exclamdown" unicode="&#xa1;" horiz-adv-x="286" 
d="M129 253h29q1 -198 34 -331q14 -57 14 -84q0 -78 -63 -78t-63 77q0 27 14 85q34 139 35 331zM143 454q26 0 44 -19.5t18 -48.5q0 -27 -18.5 -46.5t-43.5 -19.5q-26 0 -44 19.5t-18 47.5q0 27 18.5 47t43.5 20z" />
    <glyph glyph-name="logicalnot" unicode="&#xac;" 
d="M365 0v224h-330v43h430v-267h-100z" />
    <glyph glyph-name="radical" unicode="&#x221a;" horiz-adv-x="667" 
d="M650 823v-29h-118l-185 -794h-86l-87 358h-157v29h228l79 -337l181 773h145z" />
    <glyph glyph-name="florin" unicode="&#x192;" horiz-adv-x="487" 
d="M204 409h-104l7 38h104l8 43q20 107 68.5 172t110.5 65q40 0 66 -27.5t26 -70.5q0 -66 -56 -66q-24 0 -40 16t-16 39q0 22 15.5 38t37.5 16q5 0 18 -3q-13 33 -41 33q-74 0 -109 -218l-6 -37h126l-6 -38h-127l-12 -66q-44 -242 -99.5 -355.5t-130.5 -113.5q-37 0 -62 28
t-25 70q0 66 56 66q24 0 40 -16t16 -39q0 -22 -15.5 -38t-37.5 -16q-4 0 -18 3q13 -33 43 -33q29 0 48 28t38 98q29 107 61 292z" />
    <glyph glyph-name="approxequal" unicode="&#x2248;" horiz-adv-x="487" 
d="M450 465l17 -10q-62 -97 -145 -97q-24 0 -65 13q-92 29 -126 29q-43 0 -85 -47l-9 -10l-17 10q68 98 147 98q31 0 96 -21q59 -19 86 -19q55 0 101 54zM450 308l17 -10q-62 -97 -145 -97q-22 0 -97 23q-62 19 -94 19q-42 0 -85 -47q-2 -2 -9 -10l-17 10q68 98 147 98
q31 0 111 -26q45 -14 71 -14q57 0 101 54z" />
    <glyph glyph-name="approxequal" unicode="&#x22f2;" horiz-adv-x="487" 
d="M450 465l17 -10q-62 -97 -145 -97q-24 0 -65 13q-92 29 -126 29q-43 0 -85 -47l-9 -10l-17 10q68 98 147 98q31 0 96 -21q59 -19 86 -19q55 0 101 54zM450 308l17 -10q-62 -97 -145 -97q-22 0 -97 23q-62 19 -94 19q-42 0 -85 -47q-2 -2 -9 -10l-17 10q68 98 147 98
q31 0 111 -26q45 -14 71 -14q57 0 101 54z" />
    <glyph glyph-name="guillemotleft" unicode="&#xab;" horiz-adv-x="406" 
d="M341 381l18 -14q-42 -66 -96 -134q53 -65 96 -134l-18 -13q-63 63 -157 147q86 77 157 148zM194 381l19 -14q-48 -74 -96 -134q52 -65 96 -134l-19 -13q-62 63 -157 147q96 86 157 148z" />
    <glyph glyph-name="guillemotright" unicode="&#xbb;" horiz-adv-x="406" 
d="M66 86l-19 13q44 69 96 134q-52 66 -96 134l19 14q61 -62 157 -148q-95 -84 -157 -147zM213 86l-19 13q39 62 96 134q-58 74 -96 134l19 14q60 -61 156 -148q-95 -85 -156 -147z" />
    <glyph glyph-name="ellipsis" unicode="&#x2026;" horiz-adv-x="770" 
d="M129 117q26 0 44 -18t18 -45q0 -25 -18.5 -43t-43.5 -18t-43.5 18.5t-18.5 43.5q0 26 18.5 44t43.5 18zM386 117q26 0 44 -18t18 -45q0 -25 -18.5 -43t-43.5 -18t-43.5 18.5t-18.5 43.5q0 26 18.5 44t43.5 18zM642 117q26 0 44 -18t18 -45q0 -25 -18.5 -43t-43.5 -18
t-43.5 18.5t-18.5 43.5q0 26 18.5 44t43.5 18z" />
    <glyph glyph-name="nonbreakingspace" unicode="&#xa0;" horiz-adv-x="250" 
 />
    <glyph glyph-name="Agrave" unicode="&#xc0;" horiz-adv-x="687" 
d="M430 223h-235l-27 -79q-9 -26 -9 -47q0 -41 41 -54q19 -6 53 -6v-37h-255v37q55 4 83.5 30t53.5 100l178 520h50l198 -564q19 -56 38.5 -71t71.5 -15h14v-37h-310v37q64 1 84.5 7.5t20.5 25.5q0 9 -11 41zM414 270l-99 311l-105 -311h204zM365 726h-34l-96 52
q-71 38 -71 65q0 13 10 23t24 10q16 0 37 -18q15 -16 30 -31z" />
    <glyph glyph-name="Atilde" unicode="&#xc3;" horiz-adv-x="687" 
d="M430 223h-235l-27 -79q-9 -26 -9 -47q0 -41 41 -54q19 -6 53 -6v-37h-255v37q55 4 83.5 30t53.5 100l178 520h50l198 -564q19 -56 38.5 -71t71.5 -15h14v-37h-310v37q64 1 84.5 7.5t20.5 25.5q0 9 -11 41zM414 270l-99 311l-105 -311h204zM464 836h36q-5 -44 -29 -69.5
t-61 -25.5q-24 0 -106 29q-23 8 -38 8q-28 0 -42 -33h-38q17 95 86 95q20 0 85 -23q45 -16 64 -16q27 0 43 35z" />
    <glyph glyph-name="Otilde" unicode="&#xd5;" horiz-adv-x="660" 
d="M330 687q107 0 191 -92q99 -109 99 -262q0 -165 -113 -275q-80 -78 -177 -78q-118 0 -204 106t-86 251q0 75 30 147.5t83 124.5q79 78 177 78zM330 650q-177 0 -177 -313q0 -164 43 -242t134 -78q177 0 177 316q0 317 -177 317zM461 836h36q-5 -44 -29 -69.5t-61 -25.5
q-24 0 -106 29q-23 8 -38 8q-28 0 -42 -33h-38q17 95 86 95q20 0 85 -23q45 -16 64 -16q27 0 43 35z" />
    <glyph glyph-name="OE" unicode="&#x152;" horiz-adv-x="975" 
d="M900 667l8 -236h-25q-17 88 -42 131q-29 50 -72 63q-24 7 -96 7h-42q-53 0 -67 -16t-14 -77v-175q93 -1 126 24.5t43 105.5h24v-311h-24q-12 88 -47 118.5t-122 28.5v-208q0 -54 16.5 -70.5t71.5 -16.5h51q53 0 78 6q37 8 66 37q52 51 67 180h29l-12 -258h-460
q-107 0 -135.5 2t-61.5 12q-96 29 -158 119t-62 200q0 80 36 154.5t96 120.5t142 56q25 3 143 3h443zM457 243v176q0 123 -28.5 160t-93.5 37q-182 0 -182 -285q0 -284 182 -284q69 0 98 43q24 36 24 153z" />
    <glyph glyph-name="oe" unicode="&#x153;" horiz-adv-x="759" 
d="M702 125l23 -15q-61 -120 -179 -120q-104 0 -169 84q-60 -84 -148 -84q-77 0 -133 66q-63 74 -63 167q0 103 72 178q54 56 124 56q85 0 152 -89q67 89 154 89q81 0 134 -68t54 -173h-301q1 -86 30 -128q38 -56 113 -56q79 0 137 93zM230 425q-85 0 -102 -99
q-5 -30 -5 -99q0 -106 17 -145q26 -60 89 -60q71 0 95 71q12 36 12 130q0 102 -17 142q-25 60 -89 60zM423 251h129q50 0 66.5 11t16.5 45q0 50 -26 81.5t-68 31.5q-110 0 -118 -169z" />
    <glyph glyph-name="endash" unicode="&#x2013;" horiz-adv-x="487" 
d="M73 200v66h340v-66h-340z" />
    <glyph glyph-name="emdash" unicode="&#x2014;" horiz-adv-x="603" 
d="M0 200v66h603v-66h-603z" />
    <glyph glyph-name="quotedblleft" unicode="&#x201c;" horiz-adv-x="428" 
d="M364 684l21 -20q-56 -60 -73.5 -91t-17.5 -47q0 -12 19 -18q49 -15 49 -62q0 -28 -17.5 -47t-43.5 -19q-30 0 -48.5 23t-18.5 59q0 111 130 222zM197 684l22 -20q-56 -58 -73.5 -90.5t-17.5 -47.5q0 -12 19 -18q48 -14 48 -62q0 -28 -17.5 -47t-43.5 -19q-30 0 -48.5 23
t-18.5 59q0 110 130 222z" />
    <glyph glyph-name="quotedblright" unicode="&#x201d;" horiz-adv-x="428" 
d="M64 380l-21 20q56 60 73.5 91t17.5 47q0 12 -19 18q-48 14 -48 62q0 28 17.5 47t43.5 19q30 0 48.5 -23t18.5 -59q0 -110 -131 -222zM231 380l-21 20q56 60 73.5 91t17.5 47q0 12 -19 18q-49 15 -49 62q0 28 17.5 47t43.5 19q30 0 48.5 -23t18.5 -59q0 -111 -130 -222z
" />
    <glyph glyph-name="quoteleft" unicode="&#x2018;" horiz-adv-x="262" 
d="M197 684l22 -20q-56 -58 -73.5 -90.5t-17.5 -47.5q0 -12 19 -18q48 -14 48 -62q0 -28 -17.5 -47t-43.5 -19q-30 0 -48.5 23t-18.5 59q0 110 130 222z" />
    <glyph glyph-name="quoteright" unicode="&#x2019;" horiz-adv-x="262" 
d="M64 380l-21 20q56 60 73.5 91t17.5 47q0 12 -19 18q-48 14 -48 62q0 28 17.5 47t43.5 19q30 0 48.5 -23t18.5 -59q0 -110 -131 -222z" />
    <glyph glyph-name="divide" unicode="&#xf7;" horiz-adv-x="487" 
d="M50 307v40h387v-40h-387zM244 510q21 0 35.5 -15t14.5 -36q0 -20 -15 -35t-35 -15q-21 0 -36 15t-15 36q0 20 15 35t36 15zM244 243q21 0 35.5 -15t14.5 -36q0 -20 -15 -35t-35 -15q-21 0 -36 15t-15 36q0 20 15 35t36 15z" />
    <glyph glyph-name="lozenge" unicode="&#x25ca;" horiz-adv-x="667" 
d="M334 693l259 -359l-259 -360l-260 360zM334 604l-197 -270l197 -271l197 271z" />
    <glyph glyph-name="ydieresis" unicode="&#xff;" horiz-adv-x="485" 
d="M286 447h192v-33q-40 -5 -59.5 -26t-42.5 -85l-118 -321q-35 -94 -74 -138t-94 -44q-44 0 -73.5 25t-29.5 62q0 31 18.5 51t47.5 20q25 0 41 -16.5t16 -41.5q0 -45 -48 -53q19 -10 33 -10q68 0 114 126l7 19l-123 339q-22 59 -35.5 73.5t-53.5 17.5q-5 1 -16 2v33h212
v-33q-49 -3 -49 -23q0 -7 10 -34l97 -265l69 193q21 59 21 88q0 41 -62 41v33zM169 653q22 0 37 -15.5t15 -37.5q0 -21 -15.5 -36t-36.5 -15t-36.5 15.5t-15.5 36.5q0 22 15 37t37 15zM337 653q22 0 37 -15.5t15 -37.5q0 -21 -15.5 -36t-36.5 -15t-36.5 15.5t-15.5 36.5
q0 22 15 37t37 15z" />
    <glyph glyph-name="Ydieresis" unicode="&#x178;" horiz-adv-x="676" 
d="M387 284v-154q0 -68 20 -81q17 -11 100 -12v-37h-333v37q87 1 103.5 14t16.5 79v140l-148 264q-32 57 -60.5 76t-83.5 20v37h308v-37q-47 0 -52 -1q-37 -4 -37 -24q0 -9 9 -25l139 -253l102 187q27 50 27 73q0 42 -76 43v37h249v-37q-60 -5 -95 -34t-81 -114zM260 841
q23 0 38.5 -16t15.5 -39q0 -22 -16 -38t-38 -16t-38.5 16.5t-16.5 38.5t16.5 38t38.5 16zM458 841q23 0 38.5 -16t15.5 -39q0 -22 -16 -38t-38 -16t-38.5 16.5t-16.5 38.5t16.5 38t38.5 16z" />
    <glyph glyph-name="fraction" unicode="&#x2044;" horiz-adv-x="117" 
d="M206 667h44l-340 -667h-43z" />
    <glyph glyph-name="currency" unicode="&#xa4;" horiz-adv-x="708" 
d="M214 396h295l-19 -45h-278q-1 -9 -1 -35h264l-19 -45h-243q7 -92 36 -149q54 -105 172 -105q126 0 182 110q22 44 30 120h35q-4 -95 -42 -157q-67 -110 -210 -110q-106 0 -185 61q-48 37 -84.5 102t-44.5 128h-63l19 45h40v35h-59l19 45h45q16 92 69 160q100 130 232 130
q64 0 146 -45q26 -14 37 -14q31 0 46 52h26v-265h-26q-31 103 -61 145q-65 91 -163 91q-83 0 -134 -66.5t-61 -187.5z" />
    <glyph glyph-name="guilsinglleft" unicode="&#x2039;" horiz-adv-x="259" 
d="M194 381l19 -14q-48 -74 -96 -134q52 -65 96 -134l-19 -13q-62 63 -157 147q96 86 157 148z" />
    <glyph glyph-name="guilsinglright" unicode="&#x203a;" horiz-adv-x="259" 
d="M66 86l-19 13q44 69 96 134q-52 66 -96 134l19 14q61 -62 157 -148q-95 -84 -157 -147z" />
    <glyph glyph-name="fi" unicode="&#xf001;" horiz-adv-x="527" 
d="M13 447h87q0 97 29 149q49 88 164 88q67 0 110.5 -25.5t43.5 -65.5q0 -23 -15.5 -38.5t-38.5 -15.5t-38.5 14t-15.5 36t21 47q-29 13 -64 13q-92 0 -111 -82q-8 -34 -8 -120h85q44 0 152 14q8 0 26 3v-348q0 -56 9 -69t51 -14v-33h-190v33l6 1q34 1 40.5 14t6.5 80v202
q0 56 -14 68t-80 12h-92v-282q0 -67 8.5 -78t58.5 -16l10 -1v-33h-247v33l12 1q61 5 71 16t10 78v282h-87v37z" />
    <glyph glyph-name="fl" unicode="&#xf002;" horiz-adv-x="527" 
d="M13 447h87q0 96 29 149q48 88 160 88q8 0 23.5 -1t23.5 -1q17 0 79 8q7 1 25 4v-578q0 -56 9 -69t51 -14v-33h-190v33l6 1q34 1 40.5 14t6.5 80v434q0 48 -16.5 67.5t-57.5 19.5q-84 0 -104 -82q-8 -33 -8 -120h113v-37h-113v-282q0 -67 8.5 -78t58.5 -16l10 -1v-33h-247
v33l12 1q61 5 71 16t10 78v282h-87v37z" />
    <glyph glyph-name="daggerdbl" unicode="&#x2021;" horiz-adv-x="487" 
d="M256 128v-22q29 1 43 5q4 1 47 19q19 8 31 8q22 0 36 -13t14 -33q0 -19 -13.5 -32t-33.5 -13q-18 0 -45 13q-34 16 -70 20l-9 1q1 -52 4.5 -69.5t18.5 -52.5q13 -30 13 -46q0 -49 -46 -49q-47 0 -47 50q0 17 19 67q7 26 10 80l1 20q-42 -2 -92 -25q-15 -7 -35 -7
q-43 0 -43 43q0 19 12.5 32t31.5 13q13 0 42 -13q45 -19 74 -19h11q1 30 1 50q0 45 -6.5 69.5t-30.5 60.5q24 36 31 64q6 23 6 69q0 20 -1 37q-41 -2 -70 -15q-39 -17 -51 -17q-22 0 -36 13t-14 33q0 19 13.5 32t33.5 13q14 0 46.5 -14.5t68.5 -18.5l10 -1q-2 45 -5.5 60.5
t-17.5 48.5q-13 30 -13 46q0 49 46 49q47 0 47 -50q0 -15 -19 -68q-7 -19 -11 -73l-1 -13q42 2 92 25q15 7 35 7q43 0 43 -43q0 -19 -12.5 -32t-31.5 -13q-13 0 -36 10q-50 22 -80 22q-3 0 -11 -1q-1 -15 -1 -34q0 -47 6 -71q8 -30 31 -65q-24 -36 -30 -62.5t-6 -94.5z" />
    <glyph glyph-name="periodcentered" unicode="&#x2219;" horiz-adv-x="257" 
d="M129 295q26 0 44 -18t18 -45q0 -25 -18.5 -43t-43.5 -18t-43.5 18.5t-18.5 43.5q0 26 18.5 44t43.5 18z" />
    <glyph glyph-name="quotesinglbase" unicode="&#x201a;" horiz-adv-x="262" 
d="M64 -185l-21 20q56 59 73.5 90.5t17.5 46.5q0 12 -19 18q-48 14 -48 62q0 28 17.5 47t43.5 19q30 0 48.5 -22.5t18.5 -59.5q0 -111 -131 -221z" />
    <glyph glyph-name="quotedblbase" unicode="&#x201e;" horiz-adv-x="428" 
d="M64 -185l-21 20q56 59 73.5 90.5t17.5 46.5q0 12 -19 18q-48 14 -48 62q0 28 17.5 47t43.5 19q30 0 48.5 -22.5t18.5 -59.5q0 -111 -131 -221zM231 -185l-21 20q58 62 73 89q18 33 18 48q0 12 -19 18q-49 15 -49 62q0 28 17.5 47t43.5 19q30 0 48.5 -22.5t18.5 -59.5
q0 -110 -130 -221z" />
    <glyph glyph-name="perthousand" unicode="&#x2030;" horiz-adv-x="914" 
d="M147 657q47 0 83 -55.5t36 -128.5t-36 -128.5t-83 -55.5q-48 0 -84 56t-36 130q0 88 53 150q28 32 67 32zM147 645q-30 0 -49.5 -48t-19.5 -122q0 -79 19 -127t50 -48t50 48t19 124q0 77 -19 125t-50 48zM96 -47l387 760h40l-385 -760h-42zM469 348q47 0 83 -56t36 -129
t-36 -128.5t-83 -55.5q-48 0 -84 56t-36 131q0 88 53 150q28 32 67 32zM469 336q-30 0 -49.5 -48t-19.5 -123q0 -78 19 -126.5t50 -48.5t50 48t19 125t-19 125t-50 48zM769 348q47 0 83 -56t36 -129t-36 -128.5t-83 -55.5q-48 0 -84 56t-36 131q0 88 53 150q28 32 67 32z
M769 336q-30 0 -49.5 -48t-19.5 -123q0 -78 19 -126.5t50 -48.5t50 48t19 125t-19 125t-50 48z" />
    <glyph glyph-name="Acircumflex" unicode="&#xc2;" horiz-adv-x="687" 
d="M430 223h-235l-27 -79q-9 -26 -9 -47q0 -41 41 -54q19 -6 53 -6v-37h-255v37q55 4 83.5 30t53.5 100l178 520h50l198 -564q19 -56 38.5 -71t71.5 -15h14v-37h-310v37q64 1 84.5 7.5t20.5 25.5q0 9 -11 41zM414 270l-99 311l-105 -311h204zM312 864h63l7 -9q21 -27 76 -92
l22 -26q2 -2 8 -11h-47q-9 6 -48 34q-18 13 -52 38q-13 -9 -86 -65l-9 -7h-48l9 11q57 70 105 127z" />
    <glyph glyph-name="Ecircumflex" unicode="&#xca;" horiz-adv-x="672" 
d="M597 667l8 -236h-26q-17 90 -41 131q-29 50 -72 63q-24 7 -97 7h-61q-53 0 -67 -16t-14 -77v-175q97 -1 130.5 24.5t44.5 105.5h24v-311h-24q-12 88 -48.5 118.5t-126.5 28.5v-208q0 -54 16.5 -70.5t70.5 -16.5h71q48 0 68 4q34 5 61 26q64 49 83 193h28l-11 -258h-587
v37q73 1 90 15t17 76v411q0 62 -17 76t-90 15v37h570zM315 864h63l7 -9q21 -27 76 -92l22 -26q2 -2 8 -11h-47q-9 6 -48 34q-18 13 -52 38q-13 -9 -86 -65l-9 -7h-48l9 11q57 70 105 127z" />
    <glyph glyph-name="Aacute" unicode="&#xc1;" horiz-adv-x="687" 
d="M430 223h-235l-27 -79q-9 -26 -9 -47q0 -41 41 -54q19 -6 53 -6v-37h-255v37q55 4 83.5 30t53.5 100l178 520h50l198 -564q19 -56 38.5 -71t71.5 -15h14v-37h-310v37q64 1 84.5 7.5t20.5 25.5q0 9 -11 41zM414 270l-99 311l-105 -311h204zM351 726h-34l100 101
q49 49 67 49q14 0 24 -10t10 -23q0 -27 -71 -65z" />
    <glyph glyph-name="Edieresis" unicode="&#xcb;" horiz-adv-x="672" 
d="M597 667l8 -236h-26q-17 90 -41 131q-29 50 -72 63q-24 7 -97 7h-61q-53 0 -67 -16t-14 -77v-175q97 -1 130.5 24.5t44.5 105.5h24v-311h-24q-12 88 -48.5 118.5t-126.5 28.5v-208q0 -54 16.5 -70.5t70.5 -16.5h71q48 0 68 4q34 5 61 26q64 49 83 193h28l-11 -258h-587
v37q73 1 90 15t17 76v411q0 62 -17 76t-90 15v37h570zM251 841q23 0 38.5 -16t15.5 -39q0 -22 -16 -38t-38 -16t-38.5 16.5t-16.5 38.5t16.5 38t38.5 16zM448 841q23 0 38.5 -16t15.5 -39q0 -22 -16 -38t-38 -16t-38.5 16.5t-16.5 38.5t16.5 38t38.5 16z" />
    <glyph glyph-name="Egrave" unicode="&#xc8;" horiz-adv-x="672" 
d="M597 667l8 -236h-26q-17 90 -41 131q-29 50 -72 63q-24 7 -97 7h-61q-53 0 -67 -16t-14 -77v-175q97 -1 130.5 24.5t44.5 105.5h24v-311h-24q-12 88 -48.5 118.5t-126.5 28.5v-208q0 -54 16.5 -70.5t70.5 -16.5h71q48 0 68 4q34 5 61 26q64 49 83 193h28l-11 -258h-587
v37q73 1 90 15t17 76v411q0 62 -17 76t-90 15v37h570zM391 726h-34l-96 52q-71 38 -71 65q0 13 10 23t24 10q16 0 37 -18q15 -16 30 -31z" />
    <glyph glyph-name="Iacute" unicode="&#xcd;" horiz-adv-x="363" 
d="M135 128v411q0 62 -17 76t-90 15v37h307v-37q-73 -1 -90 -15t-17 -76v-411q0 -62 17 -76t90 -15v-37h-307v37q73 1 90 15t17 76zM179 726h-34l100 101q49 49 67 49q14 0 24 -10t10 -23q0 -27 -71 -65z" />
    <glyph glyph-name="Icircumflex" unicode="&#xce;" horiz-adv-x="363" 
d="M135 128v411q0 62 -17 76t-90 15v37h307v-37q-73 -1 -90 -15t-17 -76v-411q0 -62 17 -76t90 -15v-37h-307v37q73 1 90 15t17 76zM155 864h63l7 -9q21 -27 76 -92l22 -26q2 -2 8 -11h-47q-9 6 -48 34q-18 13 -52 38q-13 -9 -86 -65l-9 -7h-48l9 11q57 70 105 127z" />
    <glyph glyph-name="Idieresis" unicode="&#xcf;" horiz-adv-x="363" 
d="M135 128v411q0 62 -17 76t-90 15v37h307v-37q-73 -1 -90 -15t-17 -76v-411q0 -62 17 -76t90 -15v-37h-307v37q73 1 90 15t17 76zM113 841q23 0 38.5 -16t15.5 -39q0 -22 -16 -38t-38 -16t-38.5 16.5t-16.5 38.5t16.5 38t38.5 16zM264 841q23 0 38.5 -16t15.5 -39
q0 -22 -16 -38t-38 -16t-38.5 16.5t-16.5 38.5t16.5 38t38.5 16z" />
    <glyph glyph-name="Igrave" unicode="&#xcc;" horiz-adv-x="363" 
d="M135 128v411q0 62 -17 76t-90 15v37h307v-37q-73 -1 -90 -15t-17 -76v-411q0 -62 17 -76t90 -15v-37h-307v37q73 1 90 15t17 76zM230 726h-34l-96 52q-71 38 -71 65q0 13 10 23t24 10q16 0 37 -18q15 -16 30 -31z" />
    <glyph glyph-name="Oacute" unicode="&#xd3;" horiz-adv-x="660" 
d="M330 687q107 0 191 -92q99 -109 99 -262q0 -165 -113 -275q-80 -78 -177 -78q-118 0 -204 106t-86 251q0 75 30 147.5t83 124.5q79 78 177 78zM330 650q-177 0 -177 -313q0 -164 43 -242t134 -78q177 0 177 316q0 317 -177 317zM324 726h-34l100 101q49 49 67 49
q14 0 24 -10t10 -23q0 -27 -71 -65z" />
    <glyph glyph-name="Ocircumflex" unicode="&#xd4;" horiz-adv-x="660" 
d="M330 687q107 0 191 -92q99 -109 99 -262q0 -165 -113 -275q-80 -78 -177 -78q-118 0 -204 106t-86 251q0 75 30 147.5t83 124.5q79 78 177 78zM330 650q-177 0 -177 -313q0 -164 43 -242t134 -78q177 0 177 316q0 317 -177 317zM302 864h63l7 -9q21 -27 76 -92l22 -26
q2 -2 8 -11h-47q-9 6 -48 34q-18 13 -52 38q-13 -9 -86 -65l-9 -7h-48l9 11q57 70 105 127z" />
    <glyph glyph-name="apple" unicode="&#xf000;" horiz-adv-x="667" 
d="M481 691v-10q0 -65 -44.5 -114t-102.5 -49h-2q-1 68 40.5 117t108.5 56zM624 457q-81 -63 -81 -139q0 -108 100 -149q-80 -196 -170 -196q-19 0 -81 27q-7 3 -37 3q-26 0 -36.5 -3t-52.5 -20q-19 -8 -39 -8q-65 0 -129.5 111.5t-64.5 223.5q0 65 27.5 119.5t73.5 79.5
q37 20 86 20q35 0 77 -17q32 -13 47 -13q17 0 44 10q58 22 92 22q91 0 144 -71z" />
    <glyph glyph-name="Ograve" unicode="&#xd2;" horiz-adv-x="660" 
d="M330 687q107 0 191 -92q99 -109 99 -262q0 -165 -113 -275q-80 -78 -177 -78q-118 0 -204 106t-86 251q0 75 30 147.5t83 124.5q79 78 177 78zM330 650q-177 0 -177 -313q0 -164 43 -242t134 -78q177 0 177 316q0 317 -177 317zM375 726h-34l-96 52q-71 38 -71 65
q0 13 10 23t24 10q16 0 37 -18q15 -16 30 -31z" />
    <glyph glyph-name="Uacute" unicode="&#xda;" horiz-adv-x="700" 
d="M588 454v-212q0 -75 -5 -102q-9 -54 -43 -90q-65 -70 -178 -70q-140 0 -207 84q-30 38 -39 95q-4 29 -4 105v275q0 62 -17 76t-90 15v37h307v-37q-73 -1 -90 -15t-17 -76v-312q0 -57 5 -84q8 -46 35 -74q45 -47 127 -47q108 0 154 77q22 36 22 119v234q0 105 -18.5 137.5
t-83.5 40.5v37h244v-37q-65 -3 -83.5 -35t-18.5 -141zM348 726h-34l100 101q49 49 67 49q14 0 24 -10t10 -23q0 -27 -71 -65z" />
    <glyph glyph-name="Ucircumflex" unicode="&#xdb;" horiz-adv-x="700" 
d="M588 454v-212q0 -75 -5 -102q-9 -54 -43 -90q-65 -70 -178 -70q-140 0 -207 84q-30 38 -39 95q-4 29 -4 105v275q0 62 -17 76t-90 15v37h307v-37q-73 -1 -90 -15t-17 -76v-312q0 -57 5 -84q8 -46 35 -74q45 -47 127 -47q108 0 154 77q22 36 22 119v234q0 105 -18.5 137.5
t-83.5 40.5v37h244v-37q-65 -3 -83.5 -35t-18.5 -141zM349 864h63l7 -9q21 -27 76 -92l22 -26q2 -2 8 -11h-47q-9 6 -48 34q-18 13 -52 38q-13 -9 -86 -65l-9 -7h-48l9 11q57 70 105 127z" />
    <glyph glyph-name="Ugrave" unicode="&#xd9;" horiz-adv-x="700" 
d="M588 454v-212q0 -75 -5 -102q-9 -54 -43 -90q-65 -70 -178 -70q-140 0 -207 84q-30 38 -39 95q-4 29 -4 105v275q0 62 -17 76t-90 15v37h307v-37q-73 -1 -90 -15t-17 -76v-312q0 -57 5 -84q8 -46 35 -74q45 -47 127 -47q108 0 154 77q22 36 22 119v234q0 105 -18.5 137.5
t-83.5 40.5v37h244v-37q-65 -3 -83.5 -35t-18.5 -141zM408 726h-34l-96 52q-71 38 -71 65q0 13 10 23t24 10q16 0 37 -18q15 -16 30 -31z" />
    <glyph glyph-name="dotlessi" unicode="&#x131;" horiz-adv-x="263" 
d="M177 464v-348q0 -56 9 -69t51 -14v-33h-207v33l9 1q44 1 52.5 14t8.5 80v206q0 54 -13 66.5t-69 13.5v33q24 2 27 2l53 5l53 7q10 0 26 3z" />
    <glyph glyph-name="circumflex" unicode="&#x2c6;" 
d="M219 677h61l108 -154h-45l-10 8l-36 30q-28 23 -49 43q-9 -8 -32 -29q-8 -7 -30 -26l-30 -26h-45q47 67 108 154z" />
    <glyph glyph-name="tilde" unicode="&#x2dc;" 
d="M371 646h36q-5 -44 -29 -70t-61 -26q-23 0 -106 30q-22 8 -38 8q-28 0 -42 -34h-38q17 96 86 96q21 0 85 -23q44 -16 64 -16q27 0 43 35z" />
    <glyph glyph-name="overscore.001" unicode="&#x2c9;" 
d="M132 571v57h235v-57h-235z" />
    <glyph glyph-name="breve" unicode="&#x2d8;" 
d="M340 660h36q-25 -119 -128 -119q-50 0 -85.5 34t-37.5 85h34q3 -25 29.5 -42.5t60.5 -17.5q68 0 91 60z" />
    <glyph glyph-name="dotaccent" unicode="&#x2d9;" 
d="M250 653q22 0 37 -15.5t15 -37.5q0 -21 -15.5 -36t-36.5 -15t-36.5 15.5t-15.5 36.5q0 22 15 37t37 15z" />
    <glyph glyph-name="ring" unicode="&#x2da;" 
d="M250 692q38 0 64.5 -26.5t26.5 -65.5q0 -37 -27 -64t-64 -27t-64.5 27.5t-27.5 64.5q0 38 27 64.5t65 26.5zM250 649q-20 0 -34.5 -14t-14.5 -34t14.5 -34.5t34.5 -14.5t34 14.5t14 33.5q0 21 -14 35t-34 14z" />
    <glyph glyph-name="cedilla" unicode="&#xb8;" 
d="M263 0h32l-16 -43q3 1 6 1q87 0 87 -65q0 -35 -31.5 -58t-79.5 -23q-56 0 -106 30l18 30q49 -26 83 -26q48 0 48 39q0 33 -39 33q-12 0 -37 -7z" />
    <glyph glyph-name="hungarumlaut" unicode="&#x2dd;" 
d="M182 523h-34l75 111q39 58 63 58q13 0 22.5 -8.5t9.5 -20.5q0 -22 -68 -81zM309 523h-34l75 111q24 36 36 47t27 11q13 0 22.5 -8.5t9.5 -20.5q0 -22 -68 -81z" />
    <glyph glyph-name="ogonek" unicode="&#x2db;" 
d="M296 0h36q-42 -36 -42 -79q0 -50 48 -50q31 0 71 29l16 -22q-57 -50 -113 -50q-38 0 -62 20t-24 52q0 51 70 100z" />
    <glyph glyph-name="caron" unicode="&#x2c7;" 
d="M280 523h-61l-108 154h45q39 -32 95 -81q33 31 92 81h45l-8 -12q-33 -46 -100 -142z" />
    <glyph glyph-name="Lslash" unicode="&#x141;" horiz-adv-x="619" 
d="M134 270l-75 -49l-22 34l97 63v221q0 62 -17 76t-90 15v37h313v-37q-77 -1 -95 -15.5t-18 -75.5v-167l145 94l22 -33l-167 -109v-196q0 -58 13.5 -75.5t60.5 -17.5h58q80 0 114 23t54.5 66t43.5 144h29l-15 -268h-558v37q73 1 90 15t17 76v142z" />
    <glyph glyph-name="lslash" unicode="&#x142;" horiz-adv-x="253" 
d="M167 416l56 36l20 -30l-76 -50v-256q0 -56 9 -69t51 -14v-33h-207v33l9 1q44 1 52.5 14t8.5 80v201l-49 -31l-20 30l69 45v191q0 54 -12 66.5t-65 13.5v33l25 2q10 1 52 5q7 0 52 6q6 1 25 3v-277z" />
    <glyph glyph-name="Scaron" unicode="&#x160;" horiz-adv-x="581" 
d="M490 419h-28q-28 112 -79 164q-65 67 -148 67q-54 0 -88.5 -31.5t-34.5 -81.5q0 -46 33.5 -78.5t146.5 -67.5q137 -42 188 -90t51 -132q0 -87 -56 -136q-61 -53 -149 -53q-53 0 -101 20q-17 7 -66 38q-13 8 -25 8q-17 0 -27.5 -12t-29.5 -54h-27q4 54 4 155q0 22 -4 129
h27q35 -122 84 -171q76 -76 166 -76q65 0 105 34t40 90q0 54 -39 84q-34 26 -149 64q-148 49 -193 112q-34 48 -34 112q0 76 51 125t130 49q69 0 154 -51q17 -10 28 -10q22 0 42 44l5 11h28q-8 -121 -8 -164q0 -51 3 -98zM312 726h-63l-8 9q-27 33 -76 92l-25 30l-5 7h48
q2 -1 48 -34q30 -21 51 -38q12 11 86 65l10 7h47l-8 -11q-35 -42 -105 -127z" />
    <glyph glyph-name="scaron" unicode="&#x161;" horiz-adv-x="408" 
d="M42 -10v187h24q36 -81 59 -105q51 -54 116 -54q37 0 61.5 22t24.5 56q0 31 -25.5 54t-110.5 43q-146 35 -146 140q0 53 35.5 88.5t88.5 35.5q34 0 82 -22q15 -7 26 -7q16 0 38 28h21v-165h-21q-21 69 -56 99q-45 39 -95 39q-32 0 -54.5 -19.5t-22.5 -47.5q0 -34 33 -55
q18 -11 103.5 -36t117.5 -55.5t32 -88.5t-39.5 -98t-96.5 -40q-41 0 -95 25q-30 14 -44 14q-22 0 -32 -38h-24zM221 523h-60l-108 154h45q65 -54 95 -81q20 19 91 81h46l-9 -12q-9 -12 -100 -142z" />
    <glyph glyph-name="Zcaron" unicode="&#x17d;" horiz-adv-x="568" 
d="M531 0h-514v31l408 601h-113q-71 0 -96 -4t-45 -20q-43 -34 -63 -101q-8 -28 -19 -85h-29v245h480v-30l-407 -602h99q116 0 157 12q98 29 127 208h29zM346 726h-63l-8 9q-19 21 -76 92l-30 37h48q2 -1 48 -34q30 -21 51 -38q12 11 86 65l10 7h47l-8 -11
q-35 -42 -105 -127z" />
    <glyph glyph-name="zcaron" unicode="&#x17e;" horiz-adv-x="420" 
d="M386 0h-361v32l272 383h-40q-82 0 -119.5 -28t-65.5 -109h-24l10 169h328v-25l-275 -390h46q101 0 145.5 33t69.5 125h24zM264 523h-60l-109 154h46q65 -54 95 -81q30 29 91 81h45l-8 -12q-33 -46 -100 -142z" />
    <glyph glyph-name="brokenbar" unicode="&#xa6;" 
d="M221 667h58v-337h-58v337zM221 153h58v-320h-58v320z" />
    <glyph glyph-name="Eth" unicode="&#xd0;" horiz-adv-x="706" 
d="M134 320h-107v40h107v179q0 62 -17 76t-90 15v37h287q104 0 164 -22t105 -76q38 -45 60.5 -110t22.5 -126q0 -68 -27.5 -138t-72 -115.5t-99 -62.5t-153.5 -17h-287v37q73 1 90 15t17 76v192zM227 320v-197q0 -50 24 -69t86 -19q111 0 163.5 73t52.5 225q0 299 -216 299
q-65 0 -87.5 -18t-22.5 -71v-183h200v-40h-200z" />
    <glyph glyph-name="eth" unicode="&#xf0;" horiz-adv-x="459" 
d="M272 577l-88 -45l-14 28l88 47q-12 26 -42 74l24 14q3 -3 6 -8q11 -17 30 -41l7 -9l8 -12l92 46l15 -29l-89 -46q117 -193 117 -368q0 -97 -58 -167.5t-138 -70.5q-78 0 -134 66q-63 74 -63 168q0 91 58.5 162t134.5 71q47 0 90 -32q-12 76 -44 152zM230 425
q-71 0 -95 -71q-12 -36 -12 -127q0 -105 17 -145q25 -60 89 -60q71 0 95 71q12 36 12 130q0 102 -17 142q-25 60 -89 60z" />
    <glyph glyph-name="Yacute" unicode="&#xdd;" horiz-adv-x="676" 
d="M387 284v-154q0 -68 20 -81q17 -11 100 -12v-37h-333v37q87 1 103.5 14t16.5 79v140l-148 264q-32 57 -60.5 76t-83.5 20v37h308v-37q-47 0 -52 -1q-37 -4 -37 -24q0 -9 9 -25l139 -253l102 187q27 50 27 73q0 42 -76 43v37h249v-37q-60 -5 -95 -34t-81 -114zM340 726
h-34l100 101q49 49 67 49q14 0 24 -10t10 -23q0 -27 -71 -65z" />
    <glyph glyph-name="yacute" unicode="&#xfd;" horiz-adv-x="485" 
d="M286 447h192v-33q-40 -5 -59.5 -26t-42.5 -85l-118 -321q-35 -94 -74 -138t-94 -44q-44 0 -73.5 25t-29.5 62q0 31 18.5 51t47.5 20q25 0 41 -16.5t16 -41.5q0 -45 -48 -53q19 -10 33 -10q68 0 114 126l7 19l-123 339q-22 59 -35.5 73.5t-53.5 17.5q-5 1 -16 2v33h212
v-33q-49 -3 -49 -23q0 -7 10 -34l97 -265l69 193q21 59 21 88q0 41 -62 41v33zM248 523h-34l75 111q39 58 63 58q13 0 22.5 -8.5t9.5 -20.5q0 -22 -68 -81z" />
    <glyph glyph-name="Thorn" unicode="&#xde;" horiz-adv-x="616" 
d="M227 533h94q134 0 198 -54q71 -60 71 -131q0 -95 -113 -148q-42 -20 -103 -25q-25 -2 -107 -2h-40v-45q0 -62 17 -76t90 -15v-37h-307v37q73 1 90 15t17 76v411q0 62 -17 76t-90 15v37h307v-37q-73 -1 -90 -15t-17 -76v-6zM227 208h31q72 0 92 2q59 4 87 23q40 27 40 126
q0 81 -31 110t-118 29q-75 0 -92 -22q-9 -12 -9 -67v-201z" />
    <glyph glyph-name="thorn" unicode="&#xfe;" horiz-adv-x="516" 
d="M164 694v-351q30 63 59.5 88.5t72.5 25.5q74 0 130.5 -70.5t56.5 -164.5q0 -88 -55.5 -160t-122.5 -72q-86 0 -141 118v-185q0 -56 9 -69t51 -14v-33h-207v33l9 1q44 1 52.5 14t8.5 80v629q0 54 -12 66.5t-65 13.5v33q24 2 25 2q47 5 52 5q1 0 52 7q9 0 25 3zM289 422
q-48 0 -86 -60.5t-38 -135.5q0 -79 37.5 -140t86.5 -61q48 0 76 53t28 146q0 92 -28 145t-76 53z" />
    <glyph glyph-name="minus" unicode="&#x2212;" horiz-adv-x="487" 
d="M50 307v40h387v-40h-387z" />
    <glyph glyph-name="multiply" unicode="&#xd7;" horiz-adv-x="487" 
d="M243 298l-137 -136l-28 28l137 137l-137 136l28 29l137 -137l137 137l28 -29l-137 -136l137 -137l-28 -28z" />
    <glyph glyph-name="onesuperior" unicode="&#xb9;" horiz-adv-x="316" 
d="M274 261h-207v28q57 2 66.5 9t9.5 44v176q0 45 -9.5 55.5t-51.5 10.5q-8 0 -15 1v29q82 5 113 39h22v-310q0 -39 9 -45.5t63 -8.5v-28z" />
    <glyph glyph-name="twosuperior" unicode="&#xb2;" horiz-adv-x="316" 
d="M285 383l-10 -122h-256v19q61 108 138 181q57 54 57 101q0 72 -63 72q-32 0 -57 -18t-28 -44q12 2 13 2q40 0 40 -40q0 -18 -11.5 -30t-28.5 -12q-21 0 -34.5 16t-13.5 41q0 47 37 79t90 32q54 0 90 -30t36 -76q0 -39 -33 -72q-13 -13 -82 -60q-53 -36 -95 -101h118
q38 0 49.5 10t18.5 52h25z" />
    <glyph glyph-name="threesuperior" unicode="&#xb3;" horiz-adv-x="316" 
d="M130 477h11q71 0 71 83q0 74 -68 74q-47 0 -63 -38q44 0 44 -36q0 -38 -38 -38q-18 0 -30 13.5t-12 33.5q0 38 31 64.5t77 26.5q52 0 89 -29.5t37 -71.5q0 -64 -98 -95q109 -24 109 -102q0 -44 -39.5 -75t-97.5 -31q-52 0 -85.5 26t-33.5 66q0 22 13 37.5t33 15.5
q17 0 29 -11t12 -26q0 -38 -42 -38q-4 0 -15 3q25 -47 85 -47q74 0 74 83q0 82 -76 82q-6 0 -16.5 -1.5t-14.5 -1.5q-20 -1 -20 18q0 17 18 17q4 0 16 -2z" />
    <glyph glyph-name="onehalf" unicode="&#xbd;" horiz-adv-x="749" 
d="M274 261h-207v28q57 2 66.5 9t9.5 44v176q0 45 -9.5 55.5t-51.5 10.5q-8 0 -15 1v29q82 5 113 39h22v-310q0 -39 9 -45.5t63 -8.5v-28zM529 667h43l-339 -667h-43zM718 122l-10 -122h-256v19q60 106 138 180q57 54 57 101q0 72 -63 72q-32 0 -57 -18t-28 -43l13 1
q17 1 28.5 -10.5t11.5 -28.5q0 -18 -11.5 -30t-28.5 -12q-21 0 -34.5 16t-13.5 40q0 47 37 79t90 32q54 0 90 -30t36 -76q0 -39 -33 -72q-12 -12 -82 -59q-55 -37 -95 -101h118q38 0 49.5 10t18.5 52h25z" />
    <glyph glyph-name="onequarter" unicode="&#xbc;" horiz-adv-x="749" 
d="M274 261h-207v28q57 2 66.5 9t9.5 44v176q0 45 -9.5 55.5t-51.5 10.5q-8 0 -15 1v29q82 5 113 39h22v-310q0 -39 9 -45.5t63 -8.5v-28zM539 667h43l-339 -667h-43zM608 92h-151v31l178 269h32v-267h55v-33h-55v-25q0 -25 5.5 -30.5t31.5 -7.5l13 -1v-28h-170v28h11
q35 0 42.5 6t7.5 33v25zM608 125v176l-117 -176h117z" />
    <glyph glyph-name="threequarters" unicode="&#xbe;" horiz-adv-x="749" 
d="M130 477h11q71 0 71 83q0 74 -68 74q-47 0 -63 -38q44 0 44 -36q0 -38 -38 -38q-18 0 -30 13.5t-12 33.5q0 38 31 64.5t77 26.5q52 0 89 -29.5t37 -71.5q0 -64 -98 -95q109 -24 109 -102q0 -44 -39.5 -75t-97.5 -31q-52 0 -85.5 26t-33.5 66q0 22 13 37.5t33 15.5
q17 0 29 -11t12 -26q0 -38 -42 -38q-4 0 -15 3q25 -47 85 -47q74 0 74 83q0 82 -76 82q-6 0 -16.5 -1.5t-14.5 -1.5q-20 -1 -20 18q0 17 18 17q4 0 16 -2zM543 667h43l-339 -667h-44zM609 92h-152v31l179 269h32v-267h55v-33h-55v-25q0 -25 5.5 -30.5t31.5 -7.5l13 -1v-28
h-170v28h11q35 0 42.5 6t7.5 33v25zM609 125v176l-118 -176h118z" />
    <glyph glyph-name="franc" unicode="&#x20a3;" horiz-adv-x="735" 
d="M480 653v-220h-22q-20 90 -50 130t-74 50q-22 5 -71 5h-15q-38 0 -51.5 -15t-13.5 -57v-189h13q74 0 98 39q18 29 22 97h23v-320h-23l-2 15q-11 84 -34 106q-32 30 -84 30h-13v-198q0 -59 13.5 -73t71.5 -16v-37h-255v37q58 1 71.5 15t13.5 74v402q0 60 -13.5 74
t-71.5 15v37zM499 394v-164q25 78 55 115q40 51 88 51q31 0 51.5 -22t20.5 -56q0 -29 -16.5 -48.5t-40.5 -19.5q-22 0 -38.5 16.5t-16.5 38.5q0 42 49 61q-12 3 -16 3q-25 0 -50.5 -24.5t-41.5 -64.5q-44 -107 -44 -169v-25q0 -17 11 -39q9 -13 80 -14v-33h-239v33h10
q49 0 58.5 13t9.5 80v141q0 53 -9.5 65t-52.5 13v33l21 2q35 2 45 5q6 0 45 6q4 1 21 3z" />
    <glyph glyph-name="Gbreve" unicode="&#x11e;" horiz-adv-x="666" 
d="M375 295h281v-34q-52 -6 -66 -16q-19 -14 -19 -79v-186h-30q-15 59 -39 59q-12 0 -40 -18q-63 -41 -129 -41q-125 0 -213 116q-80 106 -80 238q0 142 85.5 247.5t199.5 105.5q60 0 129 -38q24 -13 35 -13q25 0 50 51h24l8 -260h-30q-38 97 -59 129q-62 94 -153 94
q-94 0 -142 -89q-34 -63 -34 -217q0 -181 47 -254t134 -73q63 0 103 37.5t40 96.5v41q0 41 -19 53.5t-83 15.5v34zM430 850h37q-25 -121 -140 -121q-57 0 -92.5 32t-41.5 89h35q5 -25 32.5 -40.5t68.5 -15.5q78 0 101 56z" />
    <glyph glyph-name="gbreve" unicode="&#x11f;" horiz-adv-x="502" 
d="M382 372q20 -41 20 -77q0 -67 -48 -113t-117 -46q-47 0 -85 12q-24 -24 -24 -39q0 -17 22.5 -31t92.5 -17q114 -5 163 -34t49 -93q0 -127 -218 -127q-100 0 -158.5 26.5t-58.5 71.5q0 65 153 95q-118 24 -118 80q0 45 75 81q-74 44 -74 127q0 69 52.5 119t125.5 50
q91 0 134 -68q41 68 92 68q22 0 36.5 -16t14.5 -40q0 -51 -44 -51q-36 0 -36 42q0 14 15 39q-12 0 -32.5 -18.5t-31.5 -40.5zM229 429q-45 0 -69 -32q-21 -28 -21 -98q0 -80 24.5 -107.5t65.5 -27.5q45 0 69 32q21 28 21 100q0 77 -24 105t-66 28zM254 -16q-75 0 -117 -20.5
t-42 -57.5q0 -33 38 -52t104 -19q80 0 128.5 22t48.5 59q0 32 -43 50t-117 18zM330 660h36q-24 -119 -127 -119q-50 0 -85.5 34t-37.5 85h33q4 -25 30.5 -42.5t60.5 -17.5q68 0 90 60z" />
    <glyph glyph-name="Scedilla" unicode="&#x15e;" horiz-adv-x="581" 
d="M339 -20l-9 -31q91 0 91 -67q0 -37 -32.5 -61t-81.5 -24q-63 0 -121 39l21 32q55 -32 97 -32q48 0 48 39q0 34 -40 34q-11 0 -38 -7l32 79q-47 5 -74 16t-73 41q-12 8 -25 8q-17 0 -27.5 -12t-29.5 -54h-27q4 54 4 155q0 22 -4 129h27q35 -122 84 -171q76 -76 166 -76
q65 0 105 34t40 90q0 54 -39 84q-34 26 -149 64q-148 49 -193 112q-34 48 -34 112q0 76 51 125t130 49q69 0 154 -51q17 -10 28 -10q22 0 42 44l5 11h28q-8 -121 -8 -164q0 -51 3 -98h-28q-28 112 -79 164q-65 67 -148 67q-54 0 -88.5 -31.5t-34.5 -81.5q0 -46 33.5 -78.5
t146.5 -67.5q137 -42 188 -90t51 -132q0 -81 -51 -131t-141 -58z" />
    <glyph glyph-name="scedilla" unicode="&#x15f;" horiz-adv-x="408" 
d="M239 -11l-12 -32h15q35 0 56 -18t21 -47q0 -35 -31.5 -57.5t-79.5 -22.5q-55 0 -105 30l18 30q47 -26 83 -26q47 0 47 39q0 33 -39 33q-10 0 -36 -6l32 80q-31 6 -66 22q-31 14 -44 14q-22 0 -32 -38h-24v187h24q36 -81 59 -105q51 -54 116 -54q37 0 61.5 22t24.5 56
q0 31 -25.5 54t-110.5 43q-146 35 -146 140q0 53 35.5 88.5t88.5 35.5q34 0 82 -22q15 -7 26 -7q16 0 38 28h21v-165h-21q-21 69 -56 99q-45 39 -95 39q-32 0 -54.5 -19.5t-22.5 -47.5q0 -34 33 -55q18 -11 103.5 -36t117.5 -55.5t32 -88.5q0 -57 -38 -96.5t-96 -41.5z" />
    <glyph glyph-name="Cacute" unicode="&#x106;" horiz-adv-x="650" 
d="M601 679v-265h-26q-31 103 -61 145q-65 91 -163 91q-96 0 -147 -85t-51 -245q0 -147 54 -225t157 -78q125 0 181 110q22 44 30 120h35q-4 -95 -42 -157q-67 -110 -210 -110t-227 102q-91 111 -91 246q0 167 116 274q91 84 190 84q64 0 146 -45q26 -14 37 -14q30 0 46 52
h26zM359 726h-34l100 101q15 15 30 31q21 18 37 18q14 0 24 -10t10 -23q0 -27 -71 -65z" />
    <glyph glyph-name="cacute" unicode="&#x107;" horiz-adv-x="416" 
d="M372 115l21 -16q-61 -109 -163 -109q-82 0 -139.5 67.5t-57.5 162.5q0 107 73 177q63 60 136 60q56 0 96 -36.5t40 -88.5q0 -29 -18 -50t-44 -21q-23 0 -39 16t-16 40q0 25 17.5 42t42.5 17h9q-22 48 -83 48q-58 0 -91 -51.5t-33 -143.5q0 -89 32.5 -140t90.5 -51
q38 0 64 16t62 61zM244 523h-35l75 111q39 58 64 58q13 0 22.5 -8.5t9.5 -20.5q0 -15 -8 -25q-11 -14 -60 -56z" />
    <glyph glyph-name="Ccaron" unicode="&#x10c;" horiz-adv-x="650" 
d="M601 679v-265h-26q-31 103 -61 145q-65 91 -163 91q-96 0 -147 -85t-51 -245q0 -147 54 -225t157 -78q125 0 181 110q22 44 30 120h35q-4 -95 -42 -157q-67 -110 -210 -110t-227 102q-91 111 -91 246q0 167 116 274q91 84 190 84q64 0 146 -45q26 -14 37 -14q30 0 46 52
h26zM380 726h-63q-5 5 -26 31l-36 45q-16 18 -45 53l-7 9h48q2 -1 48 -34q30 -21 51 -38q12 11 86 65l10 7h47z" />
    <glyph glyph-name="ccaron" unicode="&#x10d;" horiz-adv-x="416" 
d="M372 115l21 -16q-61 -109 -163 -109q-82 0 -139.5 67.5t-57.5 162.5q0 107 73 177q63 60 136 60q56 0 96 -36.5t40 -88.5q0 -29 -18 -50t-44 -21q-23 0 -39 16t-16 40q0 25 17.5 42t42.5 17h9q-22 48 -83 48q-58 0 -91 -51.5t-33 -143.5q0 -89 32.5 -140t90.5 -51
q38 0 64 16t62 61zM265 523h-61l-108 154h45q39 -32 95 -81q33 31 92 81h45l-8 -12q-33 -46 -100 -142z" />
    <glyph glyph-name="sfthyphen" unicode="&#xad;" horiz-adv-x="200" 
d="M0 200v66h200v-66h-200z" />
    <glyph glyph-name="macron" unicode="&#xaf;" 
d="M21 842h457v-46h-457v46z" />
    <glyph glyph-name="mu1" unicode="&#xb5;" horiz-adv-x="448" 
d="M459 52v-16l-86 -46q-2 -1 -4 -1q-35 0 -48 64l-4 19q-54 -54 -83.5 -70.5t-67.5 -16.5q-81 0 -110 88v-27q0 -42 16 -138q5 -30 5 -48q0 -22 -11.5 -36t-28.5 -14t-28.5 13.5t-11.5 34.5q0 20 7 60q28 160 28 357v182h77v-286q0 -82 25 -112q22 -26 61 -26q65 0 118 77
v347h76v-339q0 -37 4 -50q8 -27 35 -27q13 0 31 11z" />
    <glyph glyph-name="mu1" unicode="&#x3bc;" horiz-adv-x="448" 
d="M459 52v-16l-86 -46q-2 -1 -4 -1q-35 0 -48 64l-4 19q-54 -54 -83.5 -70.5t-67.5 -16.5q-81 0 -110 88v-27q0 -42 16 -138q5 -30 5 -48q0 -22 -11.5 -36t-28.5 -14t-28.5 13.5t-11.5 34.5q0 20 7 60q28 160 28 357v182h77v-286q0 -82 25 -112q22 -26 61 -26q65 0 118 77
v347h76v-339q0 -37 4 -50q8 -27 35 -27q13 0 31 11z" />
    <glyph glyph-name="middot.001" unicode="&#xb7;" horiz-adv-x="257" 
d="M129 295q26 0 44 -18t18 -45q0 -25 -18.5 -43t-43.5 -18t-43.5 18.5t-18.5 43.5q0 26 18.5 44t43.5 18z" />
    <glyph glyph-name="Amacron" unicode="&#x100;" horiz-adv-x="687" 
d="M430 223h-235l-27 -79q-9 -26 -9 -47q0 -41 41 -54q19 -6 53 -6v-37h-255v37q55 4 83.5 30t53.5 100l178 520h50l198 -564q19 -56 38.5 -71t71.5 -15h14v-37h-310v37q64 1 84.5 7.5t20.5 25.5q0 9 -11 41zM414 270l-99 311l-105 -311h204zM199 756v57h282v-57h-282z" />
    <glyph glyph-name="amacron" unicode="&#x101;" horiz-adv-x="460" 
d="M427 128h21q-1 -55 -13 -86q-19 -52 -66 -52q-63 0 -75 97q-19 -42 -61.5 -69.5t-87.5 -27.5q-51 0 -84.5 29.5t-33.5 73.5q0 62 75 105q37 21 183 70l9 3v38q0 65 -16 87q-25 33 -86 33q-55 0 -85 -30q51 -13 51 -58q0 -23 -15.5 -38.5t-37.5 -15.5q-25 0 -42 18t-17 45
q0 45 47.5 76t115.5 31q94 0 134 -41q17 -18 21 -50q2 -13 2 -57v-211q0 -51 23 -51q32 0 38 81zM294 196v47q-97 -40 -137 -72t-40 -70q0 -28 17.5 -45t46.5 -17q49 0 84 46q29 38 29 111zM106 571v57h235v-57h-235z" />
    <glyph glyph-name="Abreve" unicode="&#x102;" horiz-adv-x="687" 
d="M430 223h-235l-27 -79q-9 -26 -9 -47q0 -41 41 -54q19 -6 53 -6v-37h-255v37q55 4 83.5 30t53.5 100l178 520h50l198 -564q19 -56 38.5 -71t71.5 -15h14v-37h-310v37q64 1 84.5 7.5t20.5 25.5q0 9 -11 41zM414 270l-99 311l-105 -311h204zM440 850h37q-25 -121 -140 -121
q-57 0 -92.5 32t-41.5 89h35q5 -25 32.5 -40.5t68.5 -15.5q78 0 101 56z" />
    <glyph glyph-name="abreve" unicode="&#x103;" horiz-adv-x="460" 
d="M427 128h21q-1 -55 -13 -86q-19 -52 -66 -52q-63 0 -75 97q-19 -42 -61.5 -69.5t-87.5 -27.5q-51 0 -84.5 29.5t-33.5 73.5q0 62 75 105q37 21 183 70l9 3v38q0 65 -16 87q-25 33 -86 33q-55 0 -85 -30q51 -13 51 -58q0 -23 -15.5 -38.5t-37.5 -15.5q-25 0 -42 18t-17 45
q0 45 47.5 76t115.5 31q94 0 134 -41q17 -18 21 -50q2 -13 2 -57v-211q0 -51 23 -51q32 0 38 81zM294 196v47q-97 -40 -137 -72t-40 -70q0 -28 17.5 -45t46.5 -17q49 0 84 46q29 38 29 111zM321 660h36q-25 -119 -128 -119q-50 0 -85.5 34t-37.5 85h34q3 -25 29.5 -42.5
t60.5 -17.5q68 0 91 60z" />
    <glyph glyph-name="Aogonek" unicode="&#x104;" horiz-adv-x="687" 
d="M685 0h-126q-45 -38 -45 -83q0 -23 14 -37.5t37 -14.5q32 0 75 31l16 -24q-59 -52 -118 -52q-41 0 -66 21t-25 55q0 52 74 104h-146v37q64 1 84.5 7.5t20.5 25.5q0 9 -11 41l-39 112h-235l-27 -79q-9 -26 -9 -47q0 -41 41 -54q19 -6 53 -6v-37h-255v37q56 4 83.5 29.5
t53.5 100.5l178 520h50l198 -564q19 -56 38.5 -71t71.5 -15h14v-37zM414 270l-99 311l-105 -311h204z" />
    <glyph glyph-name="aogonek" unicode="&#x105;" horiz-adv-x="460" 
d="M368 -10h-7q-32 -30 -32 -69q0 -50 48 -50q31 0 72 29l16 -22q-57 -50 -113 -50q-39 0 -63 20t-24 52q0 51 70 100q-35 23 -41 87q-19 -42 -61.5 -69.5t-87.5 -27.5q-51 0 -84.5 29.5t-33.5 73.5q0 62 75 105q37 21 183 70l9 3v38q0 65 -16 87q-25 33 -86 33
q-55 0 -85 -30q51 -13 51 -58q0 -23 -15.5 -38.5t-37.5 -15.5q-25 0 -42 18t-17 45q0 45 47.5 76t115.5 31q94 0 134 -41q17 -18 21 -50q2 -13 2 -57v-211q0 -51 23 -51q32 0 38 81h21q-1 -55 -13 -86q-19 -52 -67 -52zM294 196v47q-97 -40 -137 -72t-40 -70q0 -28 17.5 -45
t46.5 -17q49 0 84 46q29 38 29 111z" />
    <glyph glyph-name="Ccircumflex" unicode="&#x108;" horiz-adv-x="650" 
d="M601 679v-265h-26q-31 103 -61 145q-65 91 -163 91q-96 0 -147 -85t-51 -245q0 -147 54 -225t157 -78q125 0 181 110q22 44 30 120h35q-4 -95 -42 -157q-67 -110 -210 -110t-227 102q-91 111 -91 246q0 167 116 274q91 84 190 84q64 0 146 -45q26 -14 37 -14q30 0 46 52
h26zM317 864h63q11 -14 51 -63l54 -64q2 -2 9 -11h-48q-9 6 -48 34q-33 23 -52 38q-13 -9 -86 -65l-9 -7h-48l9 11q35 42 105 127z" />
    <glyph glyph-name="Cdotaccent" unicode="&#x10a;" horiz-adv-x="650" 
d="M601 679v-265h-26q-31 103 -61 145q-65 91 -163 91q-96 0 -147 -85t-51 -245q0 -147 54 -225t157 -78q125 0 181 110q22 44 30 120h35q-4 -95 -42 -157q-67 -110 -210 -110t-227 102q-91 111 -91 246q0 167 116 274q91 84 190 84q64 0 146 -45q26 -14 37 -14q30 0 46 52
h26zM349 841q23 0 38.5 -16t15.5 -39q0 -22 -16 -38t-38 -16t-38.5 16.5t-16.5 38.5t16.5 38t38.5 16z" />
    <glyph glyph-name="cdotaccent" unicode="&#x10b;" horiz-adv-x="416" 
d="M372 115l21 -16q-61 -109 -163 -109q-82 0 -139.5 67.5t-57.5 162.5q0 107 73 177q63 60 136 60q56 0 96 -36.5t40 -88.5q0 -29 -18 -50t-44 -21q-23 0 -39 16t-16 40q0 25 17.5 42t42.5 17h9q-22 48 -83 48q-58 0 -91 -51.5t-33 -143.5q0 -89 32.5 -140t90.5 -51
q38 0 64 16t62 61zM241 653q22 0 37 -15.5t15 -37.5q0 -21 -15.5 -36t-36.5 -15t-36.5 15.5t-15.5 36.5q0 22 15 37t37 15z" />
    <glyph glyph-name="Dcaron" unicode="&#x10e;" horiz-adv-x="706" 
d="M134 128v411q0 62 -17 76t-90 15v37h287q104 0 164 -22t105 -76q38 -46 61 -110.5t23 -124.5q0 -68 -27.5 -138t-72 -116t-99 -63t-154.5 -17h-287v37q73 1 90 15t17 76zM227 544v-421q0 -50 24 -69t87 -19q216 0 216 298q0 153 -53 226t-164 73q-65 0 -87.5 -18
t-22.5 -70zM349 726h-63q-5 5 -26 31l-36 45q-16 18 -45 53l-7 9h48q2 -1 48 -34q30 -21 51 -38q12 11 86 65l10 7h47z" />
    <glyph glyph-name="dcaron" unicode="&#x10f;" horiz-adv-x="646" 
d="M355 105l-5 -10q-12 -24 -38 -65q-35 -40 -89 -40q-78 0 -134 69t-56 165q0 93 57.5 163t133.5 70q93 0 131 -112v207q0 60 -15 75.5t-78 16.5v33q26 2 28 2l54 5l55 6q1 0 33 4v-573q0 -55 9 -68t46 -15v-33q-8 0 -20.5 -1.5t-28 -2.5t-17.5 -1q-12 -2 -46 -7l-20 -3
v115zM231 422q-108 0 -108 -196q0 -201 108 -201q52 0 86 56.5t34 142.5q0 85 -34 141.5t-86 56.5zM477 466l-19 19q76 66 76 97q0 8 -16 13q-39 11 -39 49q0 23 15.5 38t38.5 15q26 0 42.5 -18.5t16.5 -46.5q0 -85 -115 -166z" />
    <glyph glyph-name="Dcroat" unicode="&#x110;" horiz-adv-x="706" 
d="M134 320h-107v40h107v179q0 62 -17 76t-90 15v37h287q104 0 164 -22t105 -76q38 -45 60.5 -110t22.5 -126q0 -68 -27.5 -138t-72 -115.5t-99 -62.5t-153.5 -17h-287v37q73 1 90 15t17 76v192zM227 320v-197q0 -50 24 -69t86 -19q111 0 163.5 73t52.5 225q0 299 -216 299
q-65 0 -87.5 -18t-22.5 -71v-183h200v-40h-200z" />
    <glyph glyph-name="dcroat" unicode="&#x111;" horiz-adv-x="519" 
d="M355 514h-159v38h159q1 59 -15.5 75t-77.5 16v34q22 2 28 2q26 2 54 5l55 6q8 2 33 3v-141h55v-38h-55v-393q0 -55 9 -68t46 -15v-33q-8 0 -20.5 -1.5t-28 -2.5t-17.5 -1q-12 -2 -46 -7l-20 -3v115l-5 -10q-12 -24 -38 -65q-35 -40 -89 -40q-78 0 -134 69t-56 165
q0 93 57.5 163t134.5 70q92 0 130 -112v169zM231 422q-108 0 -108 -196q0 -201 108 -201q52 0 86 56.5t34 142.5q0 85 -34 141.5t-86 56.5z" />
    <glyph glyph-name="emacron" unicode="&#x113;" horiz-adv-x="458" 
d="M423 216h-302q1 -85 30 -128q38 -56 113 -56q79 0 137 93l23 -15q-60 -120 -178 -120q-94 0 -153.5 63t-59.5 162q0 97 60.5 169.5t142.5 72.5q80 0 132.5 -68t54.5 -173zM123 251h128q50 0 66.5 11t16.5 45q0 50 -26 81.5t-68 31.5q-111 0 -117 -169zM118 571v57h235
v-57h-235z" />
    <glyph glyph-name="Ebreve" unicode="&#x114;" horiz-adv-x="672" 
d="M597 667l8 -236h-26q-17 90 -41 131q-29 50 -72 63q-24 7 -97 7h-61q-53 0 -67 -16t-14 -77v-175q97 -1 130.5 24.5t44.5 105.5h24v-311h-24q-12 88 -48.5 118.5t-126.5 28.5v-208q0 -54 16.5 -70.5t70.5 -16.5h71q48 0 68 4q34 5 61 26q64 49 83 193h28l-11 -258h-587
v37q73 1 90 15t17 76v411q0 62 -17 76t-90 15v37h570zM449 850h37q-25 -121 -139 -121q-57 0 -92.5 32t-42.5 89h35q5 -25 33 -40.5t69 -15.5q77 0 100 56z" />
    <glyph glyph-name="Edotaccent" unicode="&#x116;" horiz-adv-x="672" 
d="M597 667l8 -236h-26q-17 90 -41 131q-29 50 -72 63q-24 7 -97 7h-61q-53 0 -67 -16t-14 -77v-175q97 -1 130.5 24.5t44.5 105.5h24v-311h-24q-12 88 -48.5 118.5t-126.5 28.5v-208q0 -54 16.5 -70.5t70.5 -16.5h71q48 0 68 4q34 5 61 26q64 49 83 193h28l-11 -258h-587
v37q73 1 90 15t17 76v411q0 62 -17 76t-90 15v37h570zM349 841q23 0 38.5 -16t15.5 -39q0 -22 -16 -38t-38 -16t-38.5 16.5t-16.5 38.5t16.5 38t38.5 16z" />
    <glyph glyph-name="edotaccent" unicode="&#x117;" horiz-adv-x="458" 
d="M423 216h-302q1 -85 30 -128q38 -56 113 -56q79 0 137 93l23 -15q-60 -120 -178 -120q-94 0 -153.5 63t-59.5 162q0 97 60.5 169.5t142.5 72.5q80 0 132.5 -68t54.5 -173zM123 251h128q50 0 66.5 11t16.5 45q0 50 -26 81.5t-68 31.5q-111 0 -117 -169zM239 653
q22 0 37 -15.5t15 -37.5q0 -21 -15.5 -36t-36.5 -15t-36.5 15.5t-15.5 36.5q0 22 15 37t37 15z" />
    <glyph glyph-name="Eogonek" unicode="&#x118;" horiz-adv-x="672" 
d="M614 0h-107q-44 -38 -44 -83q0 -52 50 -52q33 0 75 31l17 -24q-60 -52 -118 -52q-41 0 -66 21t-25 55q0 52 73 104h-442v37q73 1 90 15t17 76v411q0 62 -17 76t-90 15v37h570l8 -236h-26q-17 89 -41 131q-29 50 -72 63q-24 7 -97 7h-61q-53 0 -67 -16t-14 -77v-175
q97 -1 130.5 24.5t44.5 105.5h24v-311h-24q-12 88 -48.5 118.5t-126.5 28.5v-208q0 -54 16.5 -70.5t70.5 -16.5h71q48 0 68 4q34 5 61 26q64 49 83 193h28z" />
    <glyph glyph-name="eogonek" unicode="&#x119;" horiz-adv-x="458" 
d="M401 125l23 -15q-34 -69 -86 -98q-57 -41 -57 -91t48 -50q30 0 71 29l15 -22q-56 -50 -112 -50q-38 0 -62 20t-24 52q0 49 55 91q-10 -1 -27 -1q-93 0 -152.5 63.5t-59.5 161.5q0 97 60.5 169.5t142.5 72.5q80 0 132.5 -68t54.5 -173h-302q1 -85 30 -128q38 -56 113 -56
q79 0 137 93zM123 251h128q50 0 66.5 11t16.5 45q0 50 -26 81.5t-68 31.5q-111 0 -117 -169z" />
    <glyph glyph-name="Ecaron" unicode="&#x11a;" horiz-adv-x="672" 
d="M597 667l8 -236h-26q-17 90 -41 131q-29 50 -72 63q-24 7 -97 7h-61q-53 0 -67 -16t-14 -77v-175q97 -1 130.5 24.5t44.5 105.5h24v-311h-24q-12 88 -48.5 118.5t-126.5 28.5v-208q0 -54 16.5 -70.5t70.5 -16.5h71q48 0 68 4q34 5 61 26q64 49 83 193h28l-11 -258h-587
v37q73 1 90 15t17 76v411q0 62 -17 76t-90 15v37h570zM378 726h-63q-5 5 -26 31l-36 45q-16 18 -45 53l-7 9h48q2 -1 48 -34q30 -21 51 -38q12 11 86 65l10 7h47z" />
    <glyph glyph-name="ecaron" unicode="&#x11b;" horiz-adv-x="458" 
d="M423 216h-302q1 -85 30 -128q38 -56 113 -56q79 0 137 93l23 -15q-60 -120 -178 -120q-94 0 -153.5 63t-59.5 162q0 97 60.5 169.5t142.5 72.5q80 0 132.5 -68t54.5 -173zM123 251h128q50 0 66.5 11t16.5 45q0 50 -26 81.5t-68 31.5q-111 0 -117 -169zM266 523h-61
l-108 154h45q39 -32 95 -81q33 31 92 81h45l-8 -12q-33 -46 -100 -142z" />
    <glyph glyph-name="Gcircumflex" unicode="&#x11c;" horiz-adv-x="666" 
d="M375 295h281v-34q-52 -6 -66 -16q-19 -14 -19 -79v-186h-30q-15 59 -39 59q-12 0 -40 -18q-63 -41 -129 -41q-125 0 -213 116q-80 106 -80 238q0 142 85.5 247.5t199.5 105.5q60 0 129 -38q24 -13 35 -13q25 0 50 51h24l8 -260h-30q-38 97 -59 129q-62 94 -153 94
q-94 0 -142 -89q-34 -63 -34 -217q0 -181 47 -254t134 -73q63 0 103 37.5t40 96.5v41q0 41 -19 53.5t-83 15.5v34zM298 864h63l52 -63q17 -22 53 -64q2 -2 9 -11h-48q-9 6 -48 34q-35 25 -51 38q-12 -11 -86 -65l-10 -7h-47l8 11q35 42 105 127z" />
    <glyph glyph-name="gcircumflex" unicode="&#x11d;" horiz-adv-x="502" 
d="M382 372q20 -41 20 -77q0 -67 -48 -113t-117 -46q-47 0 -85 12q-24 -24 -24 -39q0 -17 22.5 -31t92.5 -17q114 -5 163 -34t49 -93q0 -127 -218 -127q-100 0 -158.5 26.5t-58.5 71.5q0 65 153 95q-118 24 -118 80q0 45 75 81q-74 44 -74 127q0 69 52.5 119t125.5 50
q91 0 134 -68q41 68 92 68q22 0 36.5 -16t14.5 -40q0 -51 -44 -51q-36 0 -36 42q0 14 15 39q-12 0 -32.5 -18.5t-31.5 -40.5zM229 429q-45 0 -69 -32q-21 -28 -21 -98q0 -80 24.5 -107.5t65.5 -27.5q45 0 69 32q21 28 21 100q0 77 -24 105t-66 28zM254 -16q-75 0 -117 -20.5
t-42 -57.5q0 -33 38 -52t104 -19q80 0 128.5 22t48.5 59q0 32 -43 50t-117 18zM204 677h61l108 -154h-45l-10 8l-36 30q-23 19 -50 43q-1 -1 -82 -73l-9 -8h-45q47 67 108 154z" />
    <glyph glyph-name="Gdotaccent" unicode="&#x120;" horiz-adv-x="666" 
d="M375 295h281v-34q-52 -6 -66 -16q-19 -14 -19 -79v-186h-30q-15 59 -39 59q-12 0 -40 -18q-63 -41 -129 -41q-125 0 -213 116q-80 106 -80 238q0 142 85.5 247.5t199.5 105.5q60 0 129 -38q24 -13 35 -13q25 0 50 51h24l8 -260h-30q-38 97 -59 129q-62 94 -153 94
q-94 0 -142 -89q-34 -63 -34 -217q0 -181 47 -254t134 -73q63 0 103 37.5t40 96.5v41q0 41 -19 53.5t-83 15.5v34zM327 841q23 0 38.5 -16t15.5 -39q0 -22 -16 -38t-38 -16t-38.5 16.5t-16.5 38.5t16.5 38t38.5 16z" />
    <glyph glyph-name="gdotaccent" unicode="&#x121;" horiz-adv-x="502" 
d="M382 372q20 -41 20 -77q0 -67 -48 -113t-117 -46q-47 0 -85 12q-24 -24 -24 -39q0 -17 22.5 -31t92.5 -17q114 -5 163 -34t49 -93q0 -127 -218 -127q-100 0 -158.5 26.5t-58.5 71.5q0 65 153 95q-118 24 -118 80q0 45 75 81q-74 44 -74 127q0 69 52.5 119t125.5 50
q91 0 134 -68q41 68 92 68q22 0 36.5 -16t14.5 -40q0 -51 -44 -51q-36 0 -36 42q0 14 15 39q-12 0 -32.5 -18.5t-31.5 -40.5zM229 429q-45 0 -69 -32q-21 -28 -21 -98q0 -80 24.5 -107.5t65.5 -27.5q45 0 69 32q21 28 21 100q0 77 -24 105t-66 28zM254 -16q-75 0 -117 -20.5
t-42 -57.5q0 -33 38 -52t104 -19q80 0 128.5 22t48.5 59q0 32 -43 50t-117 18zM238 653q22 0 37 -15.5t15 -37.5q0 -21 -15.5 -36t-36.5 -15t-36.5 15.5t-15.5 36.5q0 22 15 37t37 15z" />
    <glyph glyph-name="Gcommaaccent" unicode="&#x122;" horiz-adv-x="666" 
d="M375 295h281v-34q-52 -6 -66 -16q-19 -14 -19 -79v-186h-30q-15 59 -39 59q-12 0 -40 -18q-63 -41 -129 -41q-125 0 -213 116q-80 106 -80 238q0 142 85.5 247.5t199.5 105.5q60 0 129 -38q24 -13 35 -13q25 0 50 51h24l8 -260h-30q-38 97 -59 129q-62 94 -153 94
q-94 0 -142 -89q-34 -63 -34 -217q0 -181 47 -254t134 -73q63 0 103 37.5t40 96.5v41q0 41 -19 53.5t-83 15.5v34zM271 -289l-20 20q78 65 78 98q0 9 -16 14q-40 11 -40 50q0 23 16 38.5t39 15.5q27 0 44 -18.5t17 -47.5q0 -87 -118 -170z" />
    <glyph glyph-name="Hcircumflex" unicode="&#x124;" horiz-adv-x="745" 
d="M519 305h-292v-177q0 -62 17 -76t90 -15v-37h-307v37q73 1 90 15t17 76v411q0 62 -17 76t-90 15v37h307v-37q-73 -1 -90 -15t-17 -76v-187h292v187q0 62 -17 76t-90 15v37h307v-37q-73 -1 -90 -15t-17 -76v-411q0 -62 17 -76t90 -15v-37h-307v37q73 1 90 15t17 76v177z
M344 864h64q11 -14 51 -63l53 -64q5 -5 9 -11h-47q-9 6 -48 34q-18 13 -52 38q-12 -11 -86 -65l-10 -7h-47z" />
    <glyph glyph-name="Hbar" unicode="&#x126;" horiz-adv-x="745" 
d="M134 477h-94v40h94v22q0 62 -17 76t-90 15v37h307v-37q-73 -1 -90 -15t-17 -76v-22h292v22q0 62 -17 76t-90 15v37h307v-37q-73 -1 -90 -15t-17 -76v-22h93v-40h-93v-349q0 -62 17 -76t90 -15v-37h-307v37q73 1 90 15t17 76v177h-292v-177q0 -62 17 -76t90 -15v-37h-307
v37q73 1 90 15t17 76v349zM227 477v-125h292v125h-292z" />
    <glyph glyph-name="hbar" unicode="&#x127;" horiz-adv-x="517" 
d="M90 514h-77v38h77v12q0 54 -12 66.5t-65 13.5v33l25 2q45 4 52 5q-4 0 52 6q6 1 25 3v-141h144v-38h-144v-195q24 69 54 99q40 39 89 39q65 0 98 -62q22 -41 22 -121v-158q0 -56 9 -69t51 -14v-33h-197v33l8 1q38 1 45 13.5t7 80.5v161q0 109 -65 109q-55 0 -90 -67
q-31 -59 -31 -172v-43q0 -56 9 -69t51 -14v-33h-207v33l9 1q44 1 52.5 14t8.5 80v386z" />
    <glyph glyph-name="ibreve" unicode="&#x12d;" horiz-adv-x="263" 
d="M177 464v-348q0 -56 9 -69t51 -14v-33h-207v33l9 1q44 1 52.5 14t8.5 80v206q0 54 -13 66.5t-69 13.5v33q24 2 27 2l53 5l53 7q10 0 26 3zM221 660h36q-25 -119 -128 -119q-50 0 -85.5 34t-37.5 85h34q3 -25 29.5 -42.5t60.5 -17.5q68 0 91 60z" />
    <glyph glyph-name="Iogonek" unicode="&#x12e;" horiz-adv-x="363" 
d="M335 0h-127q-45 -39 -45 -83q0 -52 50 -52q33 0 76 31l16 -24q-60 -52 -118 -52q-41 0 -66 21t-25 55q0 52 73 104h-141v37q73 1 90 15t17 76v411q0 62 -17 76t-90 15v37h307v-37q-73 -1 -90 -15t-17 -76v-411q0 -62 17 -76t90 -15v-37z" />
    <glyph glyph-name="iogonek" unicode="&#x12f;" horiz-adv-x="263" 
d="M236 0h-89q-42 -36 -42 -79q0 -50 48 -50q30 0 71 29l15 -22q-56 -50 -112 -50q-39 0 -62.5 20t-23.5 52q0 51 69 100h-80v33l9 1q44 1 52.5 14t8.5 80v206q0 54 -13 66.5t-69 13.5v33q105 10 159 17v-348q0 -56 9 -69t50 -14v-33zM134 682q26 0 43.5 -18t17.5 -44
q0 -24 -18 -42t-43 -18t-43 18t-18 43t18 43t43 18z" />
    <glyph glyph-name="Idotaccent" unicode="&#x130;" horiz-adv-x="363" 
d="M135 128v411q0 62 -17 76t-90 15v37h307v-37q-73 -1 -90 -15t-17 -76v-411q0 -62 17 -76t90 -15v-37h-307v37q73 1 90 15t17 76zM192 841q23 0 38.5 -16t15.5 -39q0 -22 -16 -38t-38 -16t-38.5 16.5t-16.5 38.5t16.5 38t38.5 16z" />
    <glyph glyph-name="IJ" unicode="&#x132;" horiz-adv-x="820" 
d="M135 128v411q0 62 -17 76t-90 15v37h307v-37q-73 -1 -90 -15t-17 -76v-411q0 -62 17 -76t90 -15v-37h-307v37q73 1 90 15t17 76zM405 101v-5q0 -34 28.5 -56.5t71.5 -22.5q59 0 89 43q26 38 26 141v336q0 68 -18.5 80t-101.5 13v37h320v-37q-73 -1 -90 -15t-17 -76v-301
q0 -93 -12 -136.5t-46 -74.5q-52 -47 -136 -47q-71 0 -113.5 38t-42.5 101q0 41 21 66.5t56 25.5q26 0 43 -17t17 -44q0 -25 -17.5 -42t-42.5 -17q-21 0 -35 10z" />
    <glyph glyph-name="ij" unicode="&#x133;" horiz-adv-x="547" 
d="M177 464v-348q0 -56 9 -69t51 -14v-33h-207v33l9 1q44 1 52.5 14t8.5 80v206q0 54 -13 66.5t-69 13.5v33q24 2 27 2l53 5l53 7q10 0 26 3zM134 682q26 0 43.5 -18t17.5 -44q0 -24 -18 -42t-43 -18t-43 18t-18 43t18 43t43 18zM470 457v-340q0 -117 -11 -173t-41 -92
q-44 -52 -110 -52q-46 0 -79 30.5t-33 72.5q0 26 17.5 44t42.5 18q24 0 39.5 -15.5t15.5 -40.5q0 -42 -40 -57q13 -16 38 -16q47 0 70 53q14 32 14 147v298q0 54 -17.5 66.5t-94.5 13.5v33q15 0 34 1q28 1 61 3q-8 0 60 4q10 1 34 2zM420 679q26 0 43.5 -18t17.5 -44
q0 -24 -18 -42t-43 -18t-43 18t-18 43t18 43t43 18z" />
    <glyph glyph-name="Kcommaaccent" unicode="&#x136;" horiz-adv-x="712" 
d="M709 0h-311v37q52 1 68 5.5t16 19.5q0 8 -22 41l-147 223l-86 -95v-103q0 -62 17 -76t90 -15v-37h-307v37q73 1 90 15t17 76v411q0 62 -17 76t-90 15v37h307v-37q-73 -1 -90 -15t-17 -76v-255l193 213q63 70 63 92q0 38 -78 41v37h261v-37q-54 -8 -85.5 -27t-84.5 -77
l-117 -128l187 -283q35 -53 57.5 -65t85.5 -13v-37zM294 -289l-20 20q78 65 78 98q0 9 -16 14q-40 11 -40 50q0 23 16 38.5t39 15.5q27 0 44 -18.5t17 -47.5q0 -87 -118 -170z" />
    <glyph glyph-name="kcommaaccent" unicode="&#x137;" horiz-adv-x="504" 
d="M167 215l111 113q38 39 38 57q0 22 -38 29v33h204v-33q-81 -5 -148 -73l-43 -44l118 -193q25 -41 42.5 -54.5t52.5 -16.5v-33h-213v33q4 1 15 1q36 1 36 25q0 11 -16 36l-89 141l-70 -70v-50q0 -56 9 -69t51 -14v-33h-207v33l9 1q44 1 52.5 14t8.5 80v436q0 54 -12 66.5
t-65 13.5v33q24 2 25 2q47 5 52 5q1 0 52 7q9 0 25 3v-479zM191 -284l-20 19q77 66 77 96q0 9 -16 14q-39 11 -39 49q0 23 15.5 38t38.5 15q26 0 42.5 -18.5t16.5 -46.5q0 -84 -115 -166z" />
    <glyph glyph-name="kgreenlandic" unicode="&#x138;" horiz-adv-x="504" 
d="M167 215l111 113q38 39 38 57q0 22 -38 29v33h204v-33q-81 -5 -148 -73l-43 -44l118 -193q25 -41 42.5 -54.5t52.5 -16.5v-33h-213v33q4 1 15 1q36 1 36 25q0 11 -16 36l-89 141l-70 -70v-50q0 -56 9 -69t51 -14v-33h-207v33l9 1q44 1 52.5 14t8.5 80v206q0 54 -12 66.5
t-65 13.5v33q24 2 25 2q47 5 52 5q1 0 52 7q9 0 25 3v-249z" />
    <glyph glyph-name="Lacute" unicode="&#x139;" horiz-adv-x="619" 
d="M571 268h29l-15 -268h-558v37q73 1 90 15t17 76v411q0 62 -17 76t-90 15v37h313v-37q-77 -1 -95 -15.5t-18 -75.5v-411q0 -58 13.5 -75.5t60.5 -17.5h58q80 0 114 23t54.5 66t43.5 144zM200 726h-34l100 101q49 49 67 49q14 0 24 -10t10 -23q0 -27 -71 -65z" />
    <glyph glyph-name="lacute" unicode="&#x13a;" horiz-adv-x="253" 
d="M167 693v-577q0 -56 9 -69t51 -14v-33h-207v33l9 1q44 1 52.5 14t8.5 80v436q0 54 -12 66.5t-65 13.5v33l25 2q10 1 52 5q7 0 52 6q6 1 25 3zM128 726h-34l100 101q15 15 30 31q21 18 37 18q14 0 24 -10t10 -23q0 -27 -71 -65z" />
    <glyph glyph-name="Lcommaaccent" unicode="&#x13b;" horiz-adv-x="619" 
d="M571 268h29l-15 -268h-558v37q73 1 90 15t17 76v411q0 62 -17 76t-90 15v37h313v-37q-77 -1 -95 -15.5t-18 -75.5v-411q0 -58 13.5 -75.5t60.5 -17.5h58q80 0 114 23t54.5 66t43.5 144zM254 -289l-20 20q78 65 78 98q0 9 -16 14q-40 11 -40 50q0 23 16 38.5t39 15.5
q27 0 44 -18.5t17 -47.5q0 -87 -118 -170z" />
    <glyph glyph-name="lcommaaccent" unicode="&#x13c;" horiz-adv-x="253" 
d="M167 693v-577q0 -56 9 -69t51 -14v-33h-207v33l9 1q44 1 52.5 14t8.5 80v436q0 54 -12 66.5t-65 13.5v33l25 2q10 1 52 5q7 0 52 6q6 1 25 3zM72 -284l-20 19q77 66 77 96q0 9 -16 14q-39 11 -39 49q0 23 15.5 38t38.5 15q26 0 42.5 -18.5t16.5 -46.5q0 -84 -115 -166z
" />
    <glyph glyph-name="Lcaron" unicode="&#x13d;" horiz-adv-x="619" 
d="M571 268h29l-15 -268h-558v37q73 1 90 15t17 76v411q0 62 -17 76t-90 15v37h313v-37q-77 -1 -95 -15.5t-18 -75.5v-411q0 -58 13.5 -75.5t60.5 -17.5h58q80 0 114 23t54.5 66t43.5 144zM402 448l-20 20q79 65 79 98q0 9 -16 14q-40 11 -40 50q0 23 15.5 38.5t39.5 15.5
q26 0 43 -18.5t17 -47.5q0 -87 -118 -170z" />
    <glyph glyph-name="lcaron" unicode="&#x13e;" horiz-adv-x="380" 
d="M167 693v-577q0 -56 9 -69t51 -14v-33h-207v33l9 1q44 1 52.5 14t8.5 80v436q0 54 -12 66.5t-65 13.5v33l25 2q10 1 52 5q7 0 52 6q6 1 25 3zM212 466l-20 19q77 66 77 97q0 8 -16 13q-39 11 -39 49q0 23 15.5 38t38.5 15q26 0 42.5 -18.5t16.5 -46.5q0 -84 -115 -166z
" />
    <glyph glyph-name="Ldot" unicode="&#x13f;" horiz-adv-x="619" 
d="M571 268h29l-15 -268h-558v37q73 1 90 15t17 76v411q0 62 -17 76t-90 15v37h313v-37q-77 -1 -95 -15.5t-18 -75.5v-411q0 -58 13.5 -75.5t60.5 -17.5h58q80 0 114 23t54.5 66t43.5 144zM413 415q32 0 54 -22t22 -54q0 -31 -22 -53t-53 -22t-53.5 22.5t-22.5 53.5t22 53
t53 22z" />
    <glyph glyph-name="ldot" unicode="&#x140;" horiz-adv-x="383" 
d="M167 693v-577q0 -56 9 -69t51 -14v-33h-207v33l9 1q44 1 52.5 14t8.5 80v436q0 54 -12 66.5t-65 13.5v33l25 2q10 1 52 5q7 0 52 6q6 1 25 3zM322 401q26 0 44 -18t18 -45q0 -25 -18.5 -43t-43.5 -18t-43.5 18.5t-18.5 43.5q0 26 18.5 44t43.5 18z" />
    <glyph glyph-name="Ncommaaccent" unicode="&#x145;" horiz-adv-x="723" 
d="M183 667l373 -518v319q0 56 -3 75q-7 43 -34 63t-65 24v37h249v-37q-56 -3 -77.5 -26t-27.5 -64q-2 -17 -2 -72v-488h-26l-404 553v-336q0 -54 3 -74q8 -42 34 -63q22 -18 76 -23v-37h-266v37q67 7 90 40.5t23 119.5v377q-31 48 -111 56v37h168zM305 -289l-20 20
q78 65 78 98q0 9 -16 14q-40 11 -40 50q0 23 16 38.5t39 15.5q27 0 44 -18.5t17 -47.5q0 -87 -118 -170z" />
    <glyph glyph-name="ncommaaccent" unicode="&#x146;" horiz-adv-x="527" 
d="M175 464v-140q48 133 147 133q52 0 85 -45t33 -152v-144q0 -56 9 -69t51 -14v-33h-207v33l9 1q44 1 52.5 14t8.5 80v155q0 68 -16 90q-20 27 -51 27q-58 0 -89 -68.5t-31 -193.5v-22q0 -56 9.5 -68.5t50.5 -14.5v-33h-206v33l9 1q44 1 52.5 14t8.5 80v206q0 54 -12 66.5
t-65 13.5v33q22 2 25 2q47 5 51 5q12 2 51 7q7 0 25 3zM209 -284l-20 19q77 66 77 96q0 9 -16 14q-39 11 -39 49q0 23 15.5 38t38.5 15q26 0 42.5 -18.5t16.5 -46.5q0 -84 -115 -166z" />
    <glyph glyph-name="Ncaron" unicode="&#x147;" horiz-adv-x="723" 
d="M183 667l373 -518v319q0 56 -3 75q-7 43 -34 63t-65 24v37h249v-37q-56 -3 -77.5 -26t-27.5 -64q-2 -17 -2 -72v-488h-26l-404 553v-336q0 -54 3 -74q8 -42 34 -63q22 -18 76 -23v-37h-266v37q67 7 90 40.5t23 119.5v377q-31 48 -111 56v37h168zM393 726h-63q-5 5 -26 31
l-36 45q-16 18 -45 53l-7 9h48q2 -1 48 -34q30 -21 51 -38q12 11 86 65l10 7h47z" />
    <glyph glyph-name="ncaron" unicode="&#x148;" horiz-adv-x="527" 
d="M175 464v-140q48 133 147 133q52 0 85 -45t33 -152v-144q0 -56 9 -69t51 -14v-33h-207v33l9 1q44 1 52.5 14t8.5 80v155q0 68 -16 90q-20 27 -51 27q-58 0 -89 -68.5t-31 -193.5v-22q0 -56 9.5 -68.5t50.5 -14.5v-33h-206v33l9 1q44 1 52.5 14t8.5 80v206q0 54 -12 66.5
t-65 13.5v33q22 2 25 2q47 5 51 5q12 2 51 7q7 0 25 3zM310 523h-61l-108 154h45q39 -32 95 -81q33 31 92 81h45l-8 -12q-33 -46 -100 -142z" />
    <glyph glyph-name="napostrophe" unicode="&#x149;" horiz-adv-x="655" 
d="M38 380l-21 20q56 60 73.5 91t17.5 47q0 12 -19 18q-48 14 -48 62q0 28 17.5 47t43.5 19q30 0 48.5 -23t18.5 -59q0 -110 -131 -222zM304 464v-140q48 133 147 133q52 0 85 -45t33 -152v-144q0 -56 9 -69t51 -14v-33h-207v33l9 1q44 1 52.5 14t8.5 80v155q0 68 -16 90
q-20 27 -51 27q-58 0 -89 -68.5t-31 -193.5v-22q0 -56 9.5 -68.5t50.5 -14.5v-33h-206v33l9 1q44 1 52.5 14t8.5 80v206q0 54 -12 66.5t-65 13.5v33q22 2 25 2q47 5 51 5q12 2 51 7q7 0 25 3z" />
    <glyph glyph-name="Eng" unicode="&#x14a;" horiz-adv-x="715" 
d="M314 0h-287v37q73 1 90 15.5t17 75.5v411q0 62 -17 76t-90 15v37h200v-183q47 203 213 203q91 0 131.5 -63.5t40.5 -224.5v-335q0 -92 -11.5 -134t-45.5 -76q-48 -47 -115 -47q-55 0 -91.5 32.5t-36.5 81.5q0 38 22 63t56 25q26 0 43 -17t17 -43q0 -25 -17.5 -42
t-43.5 -17q-20 0 -34 11q1 -25 21 -41t49 -16q47 0 70.5 42.5t23.5 141.5v400q0 119 -22 160q-26 49 -86 49q-83 0 -133.5 -103.5t-50.5 -275.5v-130q0 -61 14 -75.5t73 -15.5v-37z" />
    <glyph glyph-name="eng" unicode="&#x14b;" horiz-adv-x="527" 
d="M236 0h-206v33l9 1q44 1 52.5 14t8.5 80v206q0 54 -12 66.5t-65 13.5v33q22 2 25 2q47 5 51 5q12 2 51 7q7 0 25 3v-140q48 133 147 133q52 0 85 -45t33 -152v-143q0 -117 -11 -173.5t-41 -91.5q-44 -52 -111 -52q-45 0 -78 30.5t-33 71.5q0 26 17 44t42 18t40.5 -15.5
t15.5 -40.5q0 -40 -41 -56q13 -16 39 -16q47 0 70 53q14 32 14 147v247q0 68 -16 90q-20 27 -52 27q-57 0 -88 -68.5t-31 -193.5v-22q0 -56 9.5 -68.5t50.5 -14.5v-33z" />
    <glyph glyph-name="omacron" unicode="&#x14d;" horiz-adv-x="459" 
d="M230 457q77 0 133 -66q63 -74 63 -168q0 -102 -72 -177q-54 -56 -125 -56q-77 0 -133 66q-63 74 -63 170q0 100 72 175q54 56 125 56zM230 425q-71 0 -95 -71q-12 -36 -12 -127q0 -105 17 -145q25 -60 89 -60q71 0 95 71q12 36 12 130q0 102 -17 142q-25 60 -89 60z
M112 571v57h235v-57h-235z" />
    <glyph glyph-name="Ohungarumlaut" unicode="&#x150;" horiz-adv-x="660" 
d="M330 687q107 0 191 -92q99 -109 99 -262q0 -165 -113 -275q-80 -78 -177 -78q-118 0 -204 106t-86 251q0 75 30 147.5t83 124.5q79 78 177 78zM330 650q-177 0 -177 -313q0 -164 43 -242t134 -78q177 0 177 316q0 317 -177 317zM260 726h-34l100 101q49 49 67 49
q13 0 23.5 -10t10.5 -23q0 -27 -71 -65zM413 726h-34l100 101q49 49 67 49q14 0 24 -10t10 -23q0 -27 -70 -65z" />
    <glyph glyph-name="ohungarumlaut" unicode="&#x151;" horiz-adv-x="459" 
d="M230 457q77 0 133 -66q63 -74 63 -168q0 -102 -72 -177q-54 -56 -125 -56q-77 0 -133 66q-63 74 -63 170q0 100 72 175q54 56 125 56zM230 425q-71 0 -95 -71q-12 -36 -12 -127q0 -105 17 -145q25 -60 89 -60q71 0 95 71q12 36 12 130q0 102 -17 142q-25 60 -89 60z
M175 523h-34l75 111q39 58 63 58q13 0 22.5 -8.5t9.5 -20.5q0 -22 -68 -81zM302 523h-34l75 111q24 36 36 47t27 11q13 0 22.5 -8.5t9.5 -20.5q0 -22 -68 -81z" />
    <glyph glyph-name="Rcommaaccent" unicode="&#x156;" horiz-adv-x="671" 
d="M227 323v-195q0 -62 17 -76t90 -15v-37h-307v37q73 1 90 15t17 76v411q0 62 -17 76t-90 15v37h294q144 0 206 -50q57 -46 57 -112q0 -79 -88 -131q-43 -25 -122 -39q61 -26 95.5 -70.5t62.5 -135.5q13 -41 22.5 -55t25.5 -14q38 0 41 94h26q1 -10 1 -24q0 -69 -28 -109.5
t-76 -40.5q-58 0 -89 61q-21 41 -26 117q-4 67 -14.5 97.5t-36.5 49.5q-16 12 -35 15t-76 3h-40zM227 358h37q85 0 110.5 3.5t47.5 16.5q52 32 52 119q0 77 -33 106t-122 29q-61 0 -78 -20q-14 -16 -14 -85v-169zM270 -289l-20 20q78 65 78 98q0 9 -16 14q-40 11 -40 50
q0 23 15.5 38.5t39.5 15.5q26 0 43 -18.5t17 -47.5q0 -87 -117 -170z" />
    <glyph glyph-name="rcommaaccent" unicode="&#x157;" horiz-adv-x="413" 
d="M177 464v-181q28 80 57 117q40 52 95 52q36 0 59 -22.5t23 -57.5q0 -29 -17.5 -49t-42.5 -20q-23 0 -39.5 16.5t-16.5 39.5q0 42 50 62q-15 3 -21 3q-49 0 -87 -63q-26 -42 -43 -107t-17 -120v-6q0 -67 10.5 -77.5t71.5 -16.5l11 -1v-33h-263v33l12 1q61 5 71 16t10 78
v206q0 54 -12 66.5t-65 13.5v33l29 2q45 3 51 5l50 7q9 0 24 3zM78 -284l-20 19q77 66 77 96q0 9 -16 14q-39 11 -39 49q0 23 15.5 38t38.5 15q26 0 42.5 -18.5t16.5 -46.5q0 -84 -115 -166z" />
    <glyph glyph-name="Rcaron" unicode="&#x158;" horiz-adv-x="671" 
d="M227 323v-195q0 -62 17 -76t90 -15v-37h-307v37q73 1 90 15t17 76v411q0 62 -17 76t-90 15v37h294q144 0 206 -50q57 -46 57 -112q0 -79 -88 -131q-43 -25 -122 -39q61 -26 95.5 -70.5t62.5 -135.5q13 -41 22.5 -55t25.5 -14q38 0 41 94h26q1 -10 1 -24q0 -69 -28 -109.5
t-76 -40.5q-58 0 -89 61q-21 41 -26 117q-4 67 -14.5 97.5t-36.5 49.5q-16 12 -35 15t-76 3h-40zM227 358h37q85 0 110.5 3.5t47.5 16.5q52 32 52 119q0 77 -33 106t-122 29q-61 0 -78 -20q-14 -16 -14 -85v-169zM351 726h-64l-7 9q-28 33 -76 92l-30 37h47l48 -34
q19 -13 52 -38q12 11 86 65l10 7h47z" />
    <glyph glyph-name="rcaron" unicode="&#x159;" horiz-adv-x="413" 
d="M177 464v-181q28 80 57 117q40 52 95 52q36 0 59 -22.5t23 -57.5q0 -29 -17.5 -49t-42.5 -20q-23 0 -39.5 16.5t-16.5 39.5q0 42 50 62q-15 3 -21 3q-49 0 -87 -63q-26 -42 -43 -107t-17 -120v-6q0 -67 10.5 -77.5t71.5 -16.5l11 -1v-33h-263v33l12 1q61 5 71 16t10 78
v206q0 54 -12 66.5t-65 13.5v33l29 2q45 3 51 5l50 7q9 0 24 3zM250 523h-60l-108 154h45q39 -32 95 -81q32 30 91 81h46l-9 -12q-9 -12 -100 -142z" />
    <glyph glyph-name="Sacute" unicode="&#x15a;" horiz-adv-x="581" 
d="M490 419h-28q-28 112 -79 164q-65 67 -148 67q-54 0 -88.5 -31.5t-34.5 -81.5q0 -46 33.5 -78.5t146.5 -67.5q137 -42 188 -90t51 -132q0 -87 -56 -136q-61 -53 -149 -53q-53 0 -101 20q-17 7 -66 38q-13 8 -25 8q-17 0 -27.5 -12t-29.5 -54h-27q4 54 4 155q0 22 -4 129
h27q35 -122 84 -171q76 -76 166 -76q65 0 105 34t40 90q0 54 -39 84q-34 26 -149 64q-148 49 -193 112q-34 48 -34 112q0 76 51 125t130 49q69 0 154 -51q17 -10 28 -10q22 0 42 44l5 11h28q-8 -121 -8 -164q0 -51 3 -98zM255 726h-34l100 101q49 49 67 49q14 0 24 -10
t10 -23q0 -27 -71 -65z" />
    <glyph glyph-name="sacute" unicode="&#x15b;" horiz-adv-x="408" 
d="M42 -10v187h24q36 -81 59 -105q51 -54 116 -54q37 0 61.5 22t24.5 56q0 31 -25.5 54t-110.5 43q-146 35 -146 140q0 53 35.5 88.5t88.5 35.5q34 0 82 -22q15 -7 26 -7q16 0 38 28h21v-165h-21q-21 69 -56 99q-45 39 -95 39q-32 0 -54.5 -19.5t-22.5 -47.5q0 -34 33 -55
q18 -11 103.5 -36t117.5 -55.5t32 -88.5t-39.5 -98t-96.5 -40q-41 0 -95 25q-30 14 -44 14q-22 0 -32 -38h-24zM190 523h-34l75 111q39 58 63 58q33 0 33 -29q0 -21 -69 -81z" />
    <glyph glyph-name="Scircumflex" unicode="&#x15c;" horiz-adv-x="581" 
d="M490 419h-28q-28 112 -79 164q-65 67 -148 67q-54 0 -88.5 -31.5t-34.5 -81.5q0 -46 33.5 -78.5t146.5 -67.5q137 -42 188 -90t51 -132q0 -87 -56 -136q-61 -53 -149 -53q-53 0 -101 20q-17 7 -66 38q-13 8 -25 8q-17 0 -27.5 -12t-29.5 -54h-27q4 54 4 155q0 22 -4 129
h27q35 -122 84 -171q76 -76 166 -76q65 0 105 34t40 90q0 54 -39 84q-34 26 -149 64q-148 49 -193 112q-34 48 -34 112q0 76 51 125t130 49q69 0 154 -51q17 -10 28 -10q22 0 42 44l5 11h28q-8 -121 -8 -164q0 -51 3 -98zM242 864h63q11 -14 51 -63l54 -64q2 -2 9 -11h-48
q-9 6 -48 34q-35 25 -51 38q-12 -11 -86 -65l-10 -7h-48l9 11q35 42 105 127z" />
    <glyph glyph-name="scircumflex" unicode="&#x15d;" horiz-adv-x="408" 
d="M42 -10v187h24q36 -81 59 -105q51 -54 116 -54q37 0 61.5 22t24.5 56q0 31 -25.5 54t-110.5 43q-146 35 -146 140q0 53 35.5 88.5t88.5 35.5q34 0 82 -22q15 -7 26 -7q16 0 38 28h21v-165h-21q-21 69 -56 99q-45 39 -95 39q-32 0 -54.5 -19.5t-22.5 -47.5q0 -34 33 -55
q18 -11 103.5 -36t117.5 -55.5t32 -88.5t-39.5 -98t-96.5 -40q-41 0 -95 25q-30 14 -44 14q-22 0 -32 -38h-24zM164 677h61l108 -154h-45l-10 8l-36 30q-28 23 -49 43q-21 -18 -62 -55l-20 -18l-10 -8h-45q47 67 108 154z" />
    <glyph glyph-name="Tcaron" unicode="&#x164;" horiz-adv-x="618" 
d="M29 667h554l11 -258h-29q-21 127 -66.5 176t-143.5 48v-503q0 -64 16 -78.5t88 -14.5h16v-37h-333v37l14 -1q21 -1 35 -1q46 0 60 19q11 18 11 76v502q-106 2 -147 -41.5t-64 -181.5h-28zM347 726h-63l-8 9q-19 21 -76 92l-30 37h48q2 -1 48 -34q30 -21 51 -38
q12 11 86 65l10 7h47z" />
    <glyph glyph-name="tcaron" unicode="&#x165;" horiz-adv-x="333" 
d="M160 447h133v-37h-133v-249q0 -75 17 -101q19 -30 52 -30q35 0 58.5 38.5t28.5 107.5h19q1 -7 1 -16q0 -71 -30 -119q-32 -51 -96 -51q-78 0 -111 64q-16 31 -16 159v197h-69v32q59 19 81 54.5t35 136.5h30v-186zM165 699h-63l-8 9q-10 11 -76 93l-30 37h48l10 -7
q3 -3 38 -28q6 -5 51 -38q13 12 86 66l10 7h47l-9 -11q-34 -42 -104 -128z" />
    <glyph glyph-name="Tbar" unicode="&#x166;" horiz-adv-x="618" 
d="M355 380h166v-40h-166v-210q0 -64 16 -78.5t88 -14.5h16v-37h-333v37l14 -1q21 -1 35 -1q46 0 60 19q11 18 11 76v210h-166v40h166v252q-106 2 -147 -41.5t-64 -181.5h-28l6 258h554l11 -258h-29q-21 127 -66.5 176t-143.5 48v-253z" />
    <glyph glyph-name="tbar" unicode="&#x167;" horiz-adv-x="333" 
d="M159 333h117v-37h-117v-135q0 -73 18.5 -102t51.5 -29q35 0 58.5 38.5t28.5 107.5h19q1 -7 1 -16q0 -70 -30.5 -120t-95.5 -50q-79 0 -112 64q-16 31 -16 159v83h-56v37h56v77h-69v32q59 19 81 54.5t35 136.5h30v-186h134v-37h-134v-77z" />
    <glyph glyph-name="utilde" unicode="&#x169;" horiz-adv-x="517" 
d="M355 -10v136q-20 -62 -63 -99t-97 -37q-47 0 -76 30q-32 34 -32 117v194q0 56 -10.5 69t-59.5 14v33q22 2 23 2q47 5 50 5t50 7q9 0 24 3v-302q0 -67 14.5 -92t49.5 -25q61 0 98 78q28 59 28 176v23q0 60 -15 75.5t-78 16.5v33q55 5 170 17v-343q0 -56 10 -68.5t57 -14.5
v-33l-42 -4l-29 -2q-9 -1 -72 -9zM390 646h36q-5 -44 -29 -70t-61 -26q-23 0 -106 30q-22 8 -38 8q-28 0 -42 -34h-38q17 96 86 96q21 0 85 -23q44 -16 63 -16q28 0 44 35z" />
    <glyph glyph-name="ubreve" unicode="&#x16d;" horiz-adv-x="517" 
d="M355 -10v136q-20 -62 -63 -99t-97 -37q-47 0 -76 30q-32 34 -32 117v194q0 56 -10.5 69t-59.5 14v33q22 2 23 2q47 5 50 5t50 7q9 0 24 3v-302q0 -67 14.5 -92t49.5 -25q61 0 98 78q28 59 28 176v23q0 60 -15 75.5t-78 16.5v33q55 5 170 17v-343q0 -56 10 -68.5t57 -14.5
v-33l-42 -4l-29 -2q-9 -1 -72 -9zM345 660h36q-25 -119 -128 -119q-50 0 -85.5 34t-37.5 85h34q4 -25 30 -42.5t60 -17.5q68 0 91 60z" />
    <glyph glyph-name="Uring" unicode="&#x16e;" horiz-adv-x="700" 
d="M588 454v-212q0 -75 -5 -102q-9 -54 -43 -90q-65 -70 -178 -70q-140 0 -207 84q-30 38 -39 95q-4 29 -4 105v275q0 62 -17 76t-90 15v37h307v-37q-73 -1 -90 -15t-17 -76v-312q0 -57 5 -84q8 -46 35 -74q45 -47 127 -47q108 0 154 77q22 36 22 119v234q0 105 -18.5 137.5
t-83.5 40.5v37h244v-37q-65 -3 -83.5 -35t-18.5 -141zM384 903q38 0 64.5 -26.5t26.5 -65.5q0 -37 -27 -64t-64 -27t-64.5 27.5t-27.5 64.5q0 38 27 64.5t65 26.5zM384 860q-20 0 -34.5 -14t-14.5 -34t14.5 -34.5t34.5 -14.5t34 14.5t14 33.5q0 21 -14 35t-34 14z" />
    <glyph glyph-name="uring" unicode="&#x16f;" horiz-adv-x="517" 
d="M355 -10v136q-20 -62 -63 -99t-97 -37q-47 0 -76 30q-32 34 -32 117v194q0 56 -10.5 69t-59.5 14v33q22 2 23 2q47 5 50 5t50 7q9 0 24 3v-302q0 -67 14.5 -92t49.5 -25q61 0 98 78q28 59 28 176v23q0 60 -15 75.5t-78 16.5v33q55 5 170 17v-343q0 -56 10 -68.5t57 -14.5
v-33l-42 -4l-29 -2q-9 -1 -72 -9zM259 692q39 0 65.5 -26.5t26.5 -65.5q0 -37 -27 -64t-65 -27q-37 0 -64.5 27.5t-27.5 64.5q0 38 27 64.5t65 26.5zM259 649q-20 0 -34.5 -14t-14.5 -34t14.5 -34.5t34.5 -14.5t34.5 14t14.5 34t-14.5 34.5t-34.5 14.5z" />
    <glyph glyph-name="Uhungarumlaut" unicode="&#x170;" horiz-adv-x="700" 
d="M588 454v-212q0 -75 -5 -102q-9 -54 -43 -90q-65 -70 -178 -70q-140 0 -207 84q-30 38 -39 95q-4 29 -4 105v275q0 62 -17 76t-90 15v37h307v-37q-73 -1 -90 -15t-17 -76v-312q0 -57 5 -84q8 -46 35 -74q45 -47 127 -47q108 0 154 77q22 36 22 119v234q0 105 -18.5 137.5
t-83.5 40.5v37h244v-37q-65 -3 -83.5 -35t-18.5 -141zM300 726h-34l100 101q49 49 67 49q14 0 24 -10t10 -23q0 -27 -70 -65zM454 726h-34l100 101q15 15 30 31q21 18 37 18q14 0 24 -10t10 -23q0 -27 -71 -65z" />
    <glyph glyph-name="uhungarumlaut" unicode="&#x171;" horiz-adv-x="517" 
d="M355 -10v136q-20 -62 -63 -99t-97 -37q-47 0 -76 30q-32 34 -32 117v194q0 56 -10.5 69t-59.5 14v33q22 2 23 2q47 5 50 5t50 7q9 0 24 3v-302q0 -67 14.5 -92t49.5 -25q61 0 98 78q28 59 28 176v23q0 60 -15 75.5t-78 16.5v33q55 5 170 17v-343q0 -56 10 -68.5t57 -14.5
v-33l-42 -4l-29 -2q-9 -1 -72 -9zM201 523h-34l75 111q39 58 63 58q33 0 33 -29q0 -21 -69 -81zM328 523h-34l75 111q24 36 36 47t27 11q13 0 22.5 -8.5t9.5 -20.5q0 -22 -68 -81z" />
    <glyph glyph-name="Uogonek" unicode="&#x172;" horiz-adv-x="700" 
d="M588 454v-212q0 -75 -5 -102q-9 -54 -43 -90q-12 -13 -43 -35q-58 -42 -58 -98q0 -52 50 -52q33 0 76 31l16 -24q-60 -52 -118 -52q-41 0 -66 21t-25 55q0 47 48 89q-33 -5 -58 -5q-141 0 -207 84q-30 38 -39 95q-4 30 -4 105v275q0 62 -17 76t-90 15v37h307v-37
q-73 -1 -90 -15t-17 -76v-312q0 -57 5 -84q8 -46 35 -74q45 -47 127 -47q108 0 154 77q22 36 22 119v234q0 105 -18.5 137.5t-83.5 40.5v37h244v-37q-65 -3 -83.5 -35t-18.5 -141z" />
    <glyph glyph-name="uogonek" unicode="&#x173;" horiz-adv-x="517" 
d="M413 -3l-13 -1q-38 -33 -38 -75q0 -50 49 -50q30 0 71 29l15 -22q-54 -50 -112 -50q-39 0 -62.5 20t-23.5 52q0 45 56 90v136q-20 -62 -63 -99t-97 -37q-47 0 -76 30q-32 34 -32 117v194q0 56 -10.5 69t-59.5 14v33q22 2 23 2q47 5 50 5t50 7q9 0 24 3v-302
q0 -67 14.5 -92t49.5 -25q61 0 98 78q28 59 28 176v23q0 60 -15 75.5t-78 16.5v33l21 2l64 5l64 8q-1 0 21 2v-343q0 -56 10 -68.5t56 -14.5v-33l-21 -2q-60 -4 -49 -4z" />
    <glyph glyph-name="Wcircumflex" unicode="&#x174;" horiz-adv-x="909" 
d="M625 -30h-23l-151 490l-158 -490h-24l-157 564q-18 63 -35.5 79t-79.5 20v34h272v-34q-45 -2 -59.5 -7.5t-14.5 -21.5q0 -14 10 -50l108 -387l115 359l-11 43q-10 39 -32 52q-17 11 -59 12v34h276v-34l-16 -1l-29 -1q-47 -2 -47 -30q0 -10 14 -56l117 -384l110 353
q15 48 15 64q0 30 -22 45q-11 7 -48 10v34h214v-34q-51 -6 -73 -34t-52 -123zM433 864h64q11 -14 51 -63l53 -64q2 -2 9 -11h-47l-48 34q-18 13 -52 38q-12 -11 -86 -65l-10 -7h-47z" />
    <glyph glyph-name="Ycircumflex" unicode="&#x176;" horiz-adv-x="676" 
d="M387 284v-154q0 -68 20 -81q17 -11 100 -12v-37h-333v37q87 1 103.5 14t16.5 79v140l-148 264q-32 57 -60.5 76t-83.5 20v37h308v-37q-47 0 -52 -1q-37 -4 -37 -24q0 -9 9 -25l139 -253l102 187q27 50 27 73q0 42 -76 43v37h249v-37q-60 -5 -95 -34t-81 -114zM333 864h64
q11 -14 51 -63l53 -64q2 -2 9 -11h-47q-9 6 -48 34q-18 13 -52 38q-12 -11 -86 -65l-10 -7h-47z" />
    <glyph glyph-name="ycircumflex" unicode="&#x177;" horiz-adv-x="485" 
d="M286 447h192v-33q-40 -5 -59.5 -26t-42.5 -85l-118 -321q-35 -94 -74 -138t-94 -44q-44 0 -73.5 25t-29.5 62q0 31 18.5 51t47.5 20q25 0 41 -16.5t16 -41.5q0 -45 -48 -53q19 -10 33 -10q68 0 114 126l7 19l-123 339q-22 59 -35.5 73.5t-53.5 17.5q-5 1 -16 2v33h212
v-33q-49 -3 -49 -23q0 -7 10 -34l97 -265l69 193q21 59 21 88q0 41 -62 41v33zM216 677h60l109 -154h-46l-9 8l-37 30q-23 19 -49 43q-2 -2 -82 -73l-9 -8h-45q26 45 108 154z" />
    <glyph glyph-name="Zacute" unicode="&#x179;" horiz-adv-x="568" 
d="M531 0h-514v31l408 601h-113q-71 0 -96 -4t-45 -20q-43 -34 -63 -101q-8 -28 -19 -85h-29v245h480v-30l-407 -602h99q116 0 157 12q98 29 127 208h29zM322 726h-34l100 101q15 15 30 31q21 18 37 18q14 0 24 -10t10 -23q0 -27 -71 -65z" />
    <glyph glyph-name="zacute" unicode="&#x17a;" horiz-adv-x="420" 
d="M386 0h-361v32l272 383h-40q-82 0 -119.5 -28t-65.5 -109h-24l10 169h328v-25l-275 -390h46q101 0 145.5 33t69.5 125h24zM235 523h-34l75 111q39 58 63 58q33 0 33 -29q0 -21 -69 -81z" />
    <glyph glyph-name="Zdotaccent" unicode="&#x17b;" horiz-adv-x="568" 
d="M531 0h-514v31l408 601h-113q-71 0 -96 -4t-45 -20q-43 -34 -63 -101q-8 -28 -19 -85h-29v245h480v-30l-407 -602h99q116 0 157 12q98 29 127 208h29zM312 841q23 0 38.5 -16t15.5 -39q0 -22 -16 -38t-38 -16t-38.5 16.5t-16.5 38.5t16.5 38t38.5 16z" />
    <glyph glyph-name="zdotaccent" unicode="&#x17c;" horiz-adv-x="420" 
d="M386 0h-361v32l272 383h-40q-82 0 -119.5 -28t-65.5 -109h-24l10 169h328v-25l-275 -390h46q101 0 145.5 33t69.5 125h24zM234 653q22 0 37 -15.5t15 -37.5q0 -21 -15.5 -36t-36.5 -15t-36.5 15.5t-15.5 36.5q0 22 15 37t37 15z" />
    <glyph glyph-name="Acaron" unicode="&#x1cd;" horiz-adv-x="687" 
d="M430 223h-235l-27 -79q-9 -26 -9 -47q0 -41 41 -54q19 -6 53 -6v-37h-255v37q55 4 83.5 30t53.5 100l178 520h50l198 -564q19 -56 38.5 -71t71.5 -15h14v-37h-310v37q64 1 84.5 7.5t20.5 25.5q0 9 -11 41zM414 270l-99 311l-105 -311h204zM372 726h-64l-7 9
q-28 33 -76 92l-30 37h47q9 -6 48 -34q19 -13 52 -38q12 11 86 65l10 7h47z" />
    <glyph glyph-name="acaron" unicode="&#x1ce;" horiz-adv-x="460" 
d="M427 128h21q-1 -55 -13 -86q-19 -52 -66 -52q-63 0 -75 97q-19 -42 -61.5 -69.5t-87.5 -27.5q-51 0 -84.5 29.5t-33.5 73.5q0 62 75 105q37 21 183 70l9 3v38q0 65 -16 87q-25 33 -86 33q-55 0 -85 -30q51 -13 51 -58q0 -23 -15.5 -38.5t-37.5 -15.5q-25 0 -42 18t-17 45
q0 45 47.5 76t115.5 31q94 0 134 -41q17 -18 21 -50q2 -13 2 -57v-211q0 -51 23 -51q32 0 38 81zM294 196v47q-97 -40 -137 -72t-40 -70q0 -28 17.5 -45t46.5 -17q49 0 84 46q29 38 29 111zM248 523h-61l-108 154h45q39 -32 95 -81q33 31 92 81h45l-8 -12q-33 -46 -100 -142
z" />
    <glyph glyph-name="Ucaron" unicode="&#x1d3;" horiz-adv-x="700" 
d="M588 454v-212q0 -75 -5 -102q-9 -54 -43 -90q-65 -70 -178 -70q-140 0 -207 84q-30 38 -39 95q-4 29 -4 105v275q0 62 -17 76t-90 15v37h307v-37q-73 -1 -90 -15t-17 -76v-312q0 -57 5 -84q8 -46 35 -74q45 -47 127 -47q108 0 154 77q22 36 22 119v234q0 105 -18.5 137.5
t-83.5 40.5v37h244v-37q-65 -3 -83.5 -35t-18.5 -141zM415 726h-63q-11 14 -51 63l-63 75h48q2 -1 48 -34q30 -21 51 -38q12 11 86 65l10 7h48l-9 -11q-35 -42 -105 -127z" />
    <glyph glyph-name="Gcaron" unicode="&#x1e6;" horiz-adv-x="666" 
d="M375 295h281v-34q-52 -6 -66 -16q-19 -14 -19 -79v-186h-30q-15 59 -39 59q-12 0 -40 -18q-63 -41 -129 -41q-125 0 -213 116q-80 106 -80 238q0 142 85.5 247.5t199.5 105.5q60 0 129 -38q24 -13 35 -13q25 0 50 51h24l8 -260h-30q-38 97 -59 129q-62 94 -153 94
q-94 0 -142 -89q-34 -63 -34 -217q0 -181 47 -254t134 -73q63 0 103 37.5t40 96.5v41q0 41 -19 53.5t-83 15.5v34zM358 726h-63l-8 9q-19 21 -76 92l-30 37h48q2 -1 48 -34q30 -21 51 -38q12 11 86 65l10 7h48l-9 -11q-35 -42 -105 -127z" />
    <glyph glyph-name="gcaron" unicode="&#x1e7;" horiz-adv-x="502" 
d="M382 372q20 -41 20 -77q0 -67 -48 -113t-117 -46q-47 0 -85 12q-24 -24 -24 -39q0 -17 22.5 -31t92.5 -17q114 -5 163 -34t49 -93q0 -127 -218 -127q-100 0 -158.5 26.5t-58.5 71.5q0 65 153 95q-118 24 -118 80q0 45 75 81q-74 44 -74 127q0 69 52.5 119t125.5 50
q91 0 134 -68q41 68 92 68q22 0 36.5 -16t14.5 -40q0 -51 -44 -51q-36 0 -36 42q0 14 15 39q-12 0 -32.5 -18.5t-31.5 -40.5zM229 429q-45 0 -69 -32q-21 -28 -21 -98q0 -80 24.5 -107.5t65.5 -27.5q45 0 69 32q21 28 21 100q0 77 -24 105t-66 28zM254 -16q-75 0 -117 -20.5
t-42 -57.5q0 -33 38 -52t104 -19q80 0 128.5 22t48.5 59q0 32 -43 50t-117 18zM268 523h-60l-109 154h46q65 -54 95 -81q30 29 91 81h45l-8 -12q-33 -46 -100 -142z" />
    <glyph glyph-name="Gacute" unicode="&#x1f4;" horiz-adv-x="666" 
d="M375 295h281v-34q-52 -6 -66 -16q-19 -14 -19 -79v-186h-30q-15 59 -39 59q-12 0 -40 -18q-63 -41 -129 -41q-125 0 -213 116q-80 106 -80 238q0 142 85.5 247.5t199.5 105.5q60 0 129 -38q24 -13 35 -13q25 0 50 51h24l8 -260h-30q-38 97 -59 129q-62 94 -153 94
q-94 0 -142 -89q-34 -63 -34 -217q0 -181 47 -254t134 -73q63 0 103 37.5t40 96.5v41q0 41 -19 53.5t-83 15.5v34zM328 726h-34l100 101q15 15 30 31q21 18 37 18q14 0 24 -10t10 -23q0 -27 -71 -65z" />
    <glyph glyph-name="Scommaaccent" unicode="&#x218;" horiz-adv-x="581" 
d="M490 419h-28q-28 112 -79 164q-65 67 -148 67q-54 0 -88.5 -31.5t-34.5 -81.5q0 -46 33.5 -78.5t146.5 -67.5q137 -42 188 -90t51 -132q0 -87 -56 -136q-61 -53 -149 -53q-53 0 -101 20q-17 7 -66 38q-13 8 -25 8q-17 0 -27.5 -12t-29.5 -54h-27q4 54 4 155q0 22 -4 129
h27q35 -122 84 -171q76 -76 166 -76q65 0 105 34t40 90q0 54 -39 84q-34 26 -149 64q-148 49 -193 112q-34 48 -34 112q0 76 51 125t130 49q69 0 154 -51q17 -10 28 -10q22 0 42 44l5 11h28q-8 -121 -8 -164q0 -51 3 -98zM238 -289l-20 20q78 65 78 98q0 9 -16 14
q-40 11 -40 50q0 23 16 38.5t39 15.5q27 0 44 -18.5t17 -47.5q0 -87 -118 -170z" />
    <glyph glyph-name="scommaaccent" unicode="&#x219;" horiz-adv-x="408" 
d="M42 -10v187h24q36 -81 59 -105q51 -54 116 -54q37 0 61.5 22t24.5 56q0 31 -25.5 54t-110.5 43q-146 35 -146 140q0 53 35.5 88.5t88.5 35.5q34 0 82 -22q15 -7 26 -7q16 0 38 28h21v-165h-21q-21 69 -56 99q-45 39 -95 39q-32 0 -54.5 -19.5t-22.5 -47.5q0 -34 33 -55
q18 -11 103.5 -36t117.5 -55.5t32 -88.5t-39.5 -98t-96.5 -40q-41 0 -95 25q-30 14 -44 14q-22 0 -32 -38h-24zM163 -284l-20 19q77 66 77 96q0 9 -16 14q-39 11 -39 49q0 23 15.5 38t38.5 15q26 0 42.5 -18.5t16.5 -46.5q0 -85 -115 -166z" />
    <glyph glyph-name="Tcommaaccent" unicode="&#x162;" horiz-adv-x="618" 
d="M29 667h554l11 -258h-29q-21 127 -66.5 176t-143.5 48v-503q0 -64 16 -78.5t88 -14.5h16v-37h-333v37l14 -1q21 -1 35 -1q46 0 60 19q11 18 11 76v502q-106 2 -147 -41.5t-64 -181.5h-28zM253 -289l-20 20q78 67 78 98q0 9 -16 14q-40 11 -40 50q0 23 15.5 38.5
t39.5 15.5q26 0 43 -18.5t17 -47.5q0 -87 -117 -170z" />
    <glyph glyph-name="tcommaaccent" unicode="&#x163;" horiz-adv-x="333" 
d="M159 447h134v-37h-134v-249q0 -73 18.5 -102t51.5 -29q35 0 58.5 38.5t28.5 107.5h19q1 -7 1 -16q0 -71 -30 -119q-32 -51 -96 -51q-79 0 -112 64q-16 31 -16 159v197h-69v32q59 19 81 54.5t35 136.5h30v-186zM118 -284l-20 19q77 64 77 96q0 9 -16 14q-39 11 -39 49
q0 23 15.5 38t38.5 15q26 0 42.5 -18.5t16.5 -46.5q0 -86 -115 -166z" />
    <glyph glyph-name="Adotaccent" unicode="&#x226;" horiz-adv-x="687" 
d="M430 223h-235l-27 -79q-9 -26 -9 -47q0 -41 41 -54q19 -6 53 -6v-37h-255v37q55 4 83.5 30t53.5 100l178 520h50l198 -564q19 -56 38.5 -71t71.5 -15h14v-37h-310v37q64 1 84.5 7.5t20.5 25.5q0 9 -11 41zM414 270l-99 311l-105 -311h204zM342 841q23 0 38.5 -16
t15.5 -39q0 -22 -16 -38t-38 -16t-38.5 16.5t-16.5 38.5t16.5 38t38.5 16z" />
    <glyph glyph-name="adotaccent" unicode="&#x227;" horiz-adv-x="460" 
d="M427 128h21q-1 -55 -13 -86q-19 -52 -66 -52q-63 0 -75 97q-19 -42 -61.5 -69.5t-87.5 -27.5q-51 0 -84.5 29.5t-33.5 73.5q0 62 75 105q37 21 183 70l9 3v38q0 65 -16 87q-25 33 -86 33q-55 0 -85 -30q51 -13 51 -58q0 -23 -15.5 -38.5t-37.5 -15.5q-25 0 -42 18t-17 45
q0 45 47.5 76t115.5 31q94 0 134 -41q17 -18 21 -50q2 -13 2 -57v-211q0 -51 23 -51q32 0 38 81zM294 196v47q-97 -40 -137 -72t-40 -70q0 -28 17.5 -45t46.5 -17q49 0 84 46q29 38 29 111zM220 653q22 0 37 -15.5t15 -37.5q0 -21 -15.5 -36t-36.5 -15t-36.5 15.5
t-15.5 36.5q0 22 15 37t37 15z" />
    <glyph glyph-name="commabelow" unicode="&#x326;" 
d="M192 -284l-20 19q77 66 77 96q0 9 -16 14q-39 11 -39 49q0 23 15.5 38t38.5 15q26 0 42.5 -18.5t16.5 -46.5q0 -84 -115 -166z" />
    <glyph glyph-name="Dcommaaccent" unicode="&#x1e10;" horiz-adv-x="706" 
d="M134 128v411q0 62 -17 76t-90 15v37h287q104 0 164 -22t105 -76q38 -46 61 -110.5t23 -124.5q0 -68 -27.5 -138t-72 -116t-99 -63t-154.5 -17h-287v37q73 1 90 15t17 76zM227 544v-421q0 -50 24 -69t87 -19q216 0 216 298q0 153 -53 226t-164 73q-65 0 -87.5 -18
t-22.5 -70zM308 -289l-20 20q78 65 78 98q0 9 -16 14q-40 11 -40 50q0 23 15.5 38.5t39.5 15.5q26 0 43 -18.5t17 -47.5q0 -86 -117 -170z" />
    <glyph glyph-name="dcommaaccent" unicode="&#x1e11;" horiz-adv-x="519" 
d="M355 105l-5 -10q-12 -24 -38 -65q-35 -40 -89 -40q-78 0 -134 69t-56 165q0 93 57.5 163t133.5 70q93 0 131 -112v207q0 60 -15 75.5t-78 16.5v33q26 2 28 2l54 5l55 6q1 0 33 4v-573q0 -55 9 -68t46 -15v-33q-8 0 -20.5 -1.5t-28 -2.5t-17.5 -1q-12 -2 -46 -7l-20 -3
v115zM231 422q-108 0 -108 -196q0 -201 108 -201q52 0 86 56.5t34 142.5q0 85 -34 141.5t-86 56.5zM178 -284l-20 19q77 64 77 96q0 9 -16 14q-39 11 -39 49q0 23 15.5 38t38.5 15q26 0 42.5 -18.5t16.5 -46.5q0 -86 -115 -166z" />
    <glyph glyph-name="Fdotaccent" unicode="&#x1e1e;" horiz-adv-x="611" 
d="M598 667v-258h-23q-20 109 -51 158q-28 45 -74 59q-20 6 -72 6h-84q-40 0 -53.5 -15t-13.5 -59v-193h14q94 0 123 25.5t33 112.5h24v-326h-24q-6 79 -21 104q-21 35 -67 46q-17 4 -68 4h-14v-203q0 -61 17 -75t90 -16v-37h-307v37q73 1 90 15t17 76v411q0 62 -17 76
t-90 15v37h571zM347 841q23 0 38.5 -16t15.5 -39q0 -22 -16 -38t-38 -16t-38.5 16.5t-16.5 38.5t16.5 38t38.5 16z" />
    <glyph glyph-name="Wdieresis" unicode="&#x1e84;" horiz-adv-x="909" 
d="M625 -30h-23l-151 490l-158 -490h-24l-157 564q-18 63 -35.5 79t-79.5 20v34h272v-34q-45 -2 -59.5 -7.5t-14.5 -21.5q0 -14 10 -50l108 -387l115 359l-11 43q-10 39 -32 52q-17 11 -59 12v34h276v-34l-16 -1l-29 -1q-47 -2 -47 -30q0 -10 14 -56l117 -384l110 353
q15 48 15 64q0 30 -22 45q-11 7 -48 10v34h214v-34q-51 -6 -73 -34t-52 -123zM364 841q23 0 38.5 -16t15.5 -39q0 -22 -16 -38t-38 -16t-38.5 16.5t-16.5 38.5t16.5 38t38.5 16zM561 841q23 0 38.5 -16t15.5 -39q0 -22 -16 -38t-38 -16t-38.5 16.5t-16.5 38.5t16.5 38
t38.5 16z" />
    <glyph glyph-name="enquad" unicode="&#x2000;" 
 />
    <glyph glyph-name="enspace" unicode="&#x2002;" 
 />
    <glyph glyph-name="threeperemspace" unicode="&#x2004;" horiz-adv-x="333" 
 />
    <glyph glyph-name="fourperemspace" unicode="&#x2005;" horiz-adv-x="250" 
 />
    <glyph glyph-name="figurespace" unicode="&#x2007;" horiz-adv-x="487" 
 />
    <glyph glyph-name="hyphenminus" unicode="&#x2010;" horiz-adv-x="200" 
d="M0 200v66h200v-66h-200z" />
    <glyph glyph-name="underscoredbl" unicode="&#x2017;" 
d="M21 -36h457v-46h-457v46zM21 -140h457v-46h-457v46z" />
    <glyph glyph-name="trianglebullet" unicode="&#x2023;" 
d="M71 119v433l405 -217z" />
    <glyph glyph-name="onedotlead" unicode="&#x2024;" horiz-adv-x="250" 
d="M126 112q23 0 39.5 -16.5t16.5 -40.5q0 -22 -16.5 -38.5t-39.5 -16.5t-39.5 16.5t-16.5 39.5t16.5 39.5t39.5 16.5z" />
    <glyph glyph-name="twodotlead" unicode="&#x2025;" 
d="M126 112q23 0 39.5 -16.5t16.5 -40.5q0 -22 -16.5 -38.5t-39.5 -16.5t-39.5 16.5t-16.5 39.5t16.5 39.5t39.5 16.5zM376 112q23 0 39.5 -16.5t16.5 -40.5q0 -22 -16.5 -38.5t-39.5 -16.5t-39.5 16.5t-16.5 39.5t16.5 39.5t39.5 16.5z" />
    <glyph glyph-name="minute" unicode="&#x2032;" horiz-adv-x="162" 
d="M91 424h-19q-7 63 -27 148q-5 21 -5 40q0 52 42 52q40 0 40 -53q0 -20 -11.5 -69t-19.5 -118z" />
    <glyph glyph-name="second" unicode="&#x2033;" horiz-adv-x="283" 
d="M91 424h-19q-7 63 -27 148q-5 21 -5 40q0 52 42 52q40 0 40 -53q0 -20 -11.5 -69t-19.5 -118zM212 424h-19q-8 71 -26 148q-5 21 -5 40q0 52 42 52q39 0 39 -53q0 -19 -12 -70q-9 -38 -19 -117z" />
    <glyph glyph-name="exclamdbl" unicode="&#x203c;" horiz-adv-x="573" 
d="M158 190h-29q-1 192 -35 331q-14 58 -14 85q0 78 63 78t63 -78q0 -28 -14 -85q-33 -133 -34 -331zM143 123q26 0 44 -19.5t18 -47.5q0 -27 -18.5 -46.5t-43.5 -19.5q-26 0 -44 19.5t-18 47.5q0 27 18.5 46.5t43.5 19.5zM444 190h-29q-1 194 -35 331q-14 57 -14 85
q0 78 64 78q63 0 63 -78q0 -27 -14 -85q-34 -140 -35 -331zM430 123q25 0 43 -19.5t18 -47.5q0 -27 -18 -46.5t-43 -19.5q-26 0 -44 19.5t-18 47.5q0 27 18.5 46.5t43.5 19.5z" />
    <glyph glyph-name="overscore2" unicode="&#x203e;" 
d="M21 842h457v-46h-457v46z" />
    <glyph glyph-name="zerosuperior" unicode="&#x2070;" horiz-adv-x="316" 
d="M158 660q52 0 90.5 -60t38.5 -142t-38.5 -142t-90.5 -60q-53 0 -91 60.5t-38 143.5q0 80 38.5 140t90.5 60zM160 634q-36 0 -50 -46q-11 -35 -11 -128q0 -105 14 -140q15 -38 47 -38q35 0 49 46q11 36 11 130q0 103 -14.5 139.5t-45.5 36.5z" />
    <glyph glyph-name="foursuperior" unicode="&#x2074;" horiz-adv-x="316" 
d="M176 354h-152v31l179 268h32v-266h55v-33h-55v-25q0 -25 5.5 -31t31.5 -8l13 -1v-28h-171v28q5 1 11 1q36 0 43.5 5.5t7.5 33.5v25zM176 387v175l-118 -175h118z" />
    <glyph glyph-name="fivesuperior" unicode="&#x2075;" horiz-adv-x="316" 
d="M96 595l-5 -100q33 19 69 19q53 0 90.5 -36t37.5 -88q0 -55 -41.5 -94.5t-99.5 -39.5q-49 0 -81 27t-32 68q0 49 46 49q39 0 39 -37q0 -16 -12 -27.5t-29 -11.5q-6 0 -10 1q6 -18 26.5 -30.5t44.5 -12.5q79 0 79 105q0 101 -71 101q-29 0 -56 -19v-5q0 -34 -22 -34
q-18 0 -18 19q0 12 13 32l9 180q59 -18 118 -18q33 0 77 17l10 -9q-51 -64 -133 -64q-20 0 -49 8z" />
    <glyph glyph-name="sixsuperior" unicode="&#x2076;" horiz-adv-x="316" 
d="M101 496v-39q27 49 75 49q46 0 79.5 -36.5t33.5 -86.5q0 -52 -36 -89.5t-86 -37.5q-59 0 -98 55.5t-39 137.5q0 87 46.5 149t111.5 62q34 0 58 -19.5t24 -46.5q0 -42 -42 -42q-17 0 -28.5 11t-11.5 27q0 26 29 36q-15 8 -29 8q-87 0 -87 -138zM170 477q-69 0 -69 -99
q0 -96 66 -96q55 0 55 101q0 94 -52 94z" />
    <glyph glyph-name="sevensuperior" unicode="&#x2077;" horiz-adv-x="316" 
d="M49 653h244v-23q-103 -169 -103 -250q0 -25 6 -59q1 -6 1 -16q0 -50 -38 -50q-40 0 -40 60q0 65 50 159q36 68 74 119h-113q-39 0 -53.5 -18t-21.5 -78h-23z" />
    <glyph glyph-name="eightsuperior" unicode="&#x2078;" horiz-adv-x="316" 
d="M113 456q-73 41 -73 100q0 46 34 75t89 29q49 0 81.5 -26t32.5 -65q0 -54 -65 -92q79 -39 79 -107q0 -52 -36.5 -83t-97.5 -31q-56 0 -93.5 27t-37.5 68q0 62 87 105zM182 491q54 35 54 79q0 64 -75 64q-37 0 -59 -16.5t-22 -44.5q0 -39 102 -82zM142 443
q-66 -42 -66 -89q0 -72 83 -72q92 0 92 69q0 50 -109 92z" />
    <glyph glyph-name="ninesuperior" unicode="&#x2079;" horiz-adv-x="316" 
d="M217 404v50q-30 -46 -75 -46t-79 37.5t-34 87.5t37 88.5t86 38.5q57 0 95.5 -55.5t38.5 -137.5q0 -88 -46 -149.5t-112 -61.5q-34 0 -59 19.5t-25 46.5q0 19 13 32t31 13q38 0 38 -39q0 -29 -26 -37q15 -9 32 -9q38 0 61.5 33.5t23.5 88.5zM155 634q-56 0 -56 -96
q0 -99 56 -99q60 0 60 97q0 98 -60 98z" />
    <glyph glyph-name="plussuperior" unicode="&#x207a;" horiz-adv-x="316" 
d="M143 442h-101v31h101v94h31v-94h100v-31h-100v-95h-31v95z" />
    <glyph glyph-name="minussuperior" unicode="&#x207b;" horiz-adv-x="316" 
d="M42 442v31h232v-31h-232z" />
    <glyph glyph-name="parenleftsuperior" unicode="&#x207d;" horiz-adv-x="199" 
d="M181 206v-28q-152 90 -152 253t152 253v-28q-52 -48 -74 -100t-22 -125q0 -137 96 -225z" />
    <glyph glyph-name="parenrightsuperior" unicode="&#x207e;" horiz-adv-x="199" 
d="M17 178v28q96 88 96 225q0 73 -22 125t-74 100v28q152 -90 152 -253t-152 -253z" />
    <glyph glyph-name="nsuperior" unicode="&#x207f;" horiz-adv-x="341" 
d="M119 541v-69q35 65 87 65q76 0 76 -120v-84q0 -32 5 -38.5t32 -7.5v-26h-134v26h9q25 0 29.5 7t4.5 46v91q0 66 -38 66q-70 0 -70 -151v-13q0 -32 5 -38.5t32 -7.5v-26h-134v26h9q25 0 29.5 7t4.5 46v121q0 31 -6.5 37t-40.5 7v26q14 1 50 4q3 1 50 6z" />
    <glyph glyph-name="zeroinferior" unicode="&#x2080;" horiz-adv-x="316" 
d="M158 398q52 0 90.5 -60t38.5 -142t-38.5 -142t-90.5 -60q-53 0 -91 60.5t-38 143.5q0 80 38.5 140t90.5 60zM160 372q-36 0 -50 -46q-11 -35 -11 -128q0 -105 14 -140q15 -38 47 -38q35 0 49 46q11 36 11 130q0 103 -14.5 139.5t-45.5 36.5z" />
    <glyph glyph-name="oneinferior" unicode="&#x2081;" horiz-adv-x="316" 
d="M67 324v29q82 5 113 39h22v-310q0 -39 9 -45.5t63 -8.5v-28h-207v28q57 2 66.5 9t9.5 44v176q0 45 -9.5 55.5t-51.5 10.5q-8 0 -15 1z" />
    <glyph glyph-name="twoinferior" unicode="&#x2082;" horiz-adv-x="316" 
d="M285 122l-10 -122h-256v19q60 106 138 180q57 54 57 101q0 72 -63 72q-32 0 -57 -18t-28 -43l13 1q17 1 28.5 -10.5t11.5 -28.5q0 -18 -11.5 -30t-28.5 -12q-21 0 -34.5 16t-13.5 40q0 47 37 79t90 32q54 0 90 -30t36 -76q0 -39 -33 -72q-12 -12 -82 -59
q-55 -37 -95 -101h118q38 0 49.5 10t18.5 52h25z" />
    <glyph glyph-name="threeinferior" unicode="&#x2083;" horiz-adv-x="316" 
d="M133 184l-17 -1q-20 -1 -20 18t18 17q4 0 16 -2q3 -1 11 -1q71 0 71 83q0 74 -68 74q-47 0 -63 -37q44 -2 44 -37q0 -37 -38 -37q-18 0 -30 13t-12 33q0 38 31 64.5t77 26.5q52 0 89 -29.5t37 -70.5q0 -64 -98 -95q109 -24 109 -103q0 -44 -39.5 -75t-97.5 -31
q-52 0 -85.5 26t-33.5 66q0 22 13 37.5t33 15.5q17 0 29 -11t12 -26q0 -16 -12 -26.5t-30 -10.5q-8 0 -15 3q25 -48 85 -48q74 0 74 83q0 82 -76 82q-9 0 -14 -1z" />
    <glyph glyph-name="fourinferior" unicode="&#x2084;" horiz-adv-x="316" 
d="M176 92h-152v31l179 269h32v-267h55v-33h-55v-25q0 -25 5.5 -30.5t31.5 -7.5l13 -1v-28h-170v28h11q35 0 42.5 6t7.5 33v25zM176 125v176l-118 -176h118z" />
    <glyph glyph-name="fiveinferior" unicode="&#x2085;" horiz-adv-x="316" 
d="M96 334l-5 -101q34 19 69 19q53 0 90.5 -36t37.5 -88q0 -55 -41.5 -94.5t-99.5 -39.5q-49 0 -81 27t-32 68q0 49 46 49q39 0 39 -37q0 -16 -12 -27.5t-29 -11.5q-2 0 -10 1q6 -18 26.5 -30.5t44.5 -12.5q79 0 79 105q0 101 -71 101q-28 0 -56 -18v-5q0 -35 -22 -35
q-18 0 -18 19q0 13 13 33l9 179q60 -18 118 -18q34 0 77 18l10 -10q-51 -64 -133 -64q-21 0 -49 9z" />
    <glyph glyph-name="sixinferior" unicode="&#x2086;" horiz-adv-x="316" 
d="M101 235v-40q28 50 75 50q46 0 79.5 -36.5t33.5 -86.5q0 -53 -36 -90.5t-86 -37.5q-59 0 -98 55.5t-39 137.5q0 87 46.5 149t111.5 62q34 0 58 -19.5t24 -46.5q0 -42 -42 -42q-17 0 -28.5 11t-11.5 27q0 26 29 36q-15 8 -29 8q-87 0 -87 -137zM170 216q-69 0 -69 -100
q0 -96 66 -96q55 0 55 101q0 95 -52 95z" />
    <glyph glyph-name="seveninferior" unicode="&#x2087;" horiz-adv-x="316" 
d="M49 392h244v-23q-103 -169 -103 -250q0 -25 6 -59q1 -6 1 -16q0 -50 -38 -50q-40 0 -40 60q0 65 50 159q36 68 74 119h-113q-39 0 -53.5 -18t-21.5 -78h-23z" />
    <glyph glyph-name="eightinferior" unicode="&#x2088;" horiz-adv-x="316" 
d="M113 195q-73 39 -73 99q0 46 34 75t89 29q49 0 81.5 -26t32.5 -64q0 -54 -65 -92q79 -41 79 -108q0 -52 -36.5 -83t-97.5 -31q-56 0 -93.5 27t-37.5 68q0 63 87 106zM182 230q32 20 43 36.5t11 41.5q0 64 -75 64q-37 0 -59 -16.5t-22 -43.5q0 -40 102 -82zM142 181
q-66 -42 -66 -89q0 -72 83 -72q92 0 92 69q0 49 -109 92z" />
    <glyph glyph-name="nineinferior" unicode="&#x2089;" horiz-adv-x="316" 
d="M217 143v49q-28 -45 -75 -45q-45 0 -79 37.5t-34 86.5q0 50 37 88.5t86 38.5q57 0 95.5 -55.5t38.5 -137.5q0 -88 -46 -149.5t-112 -61.5q-34 0 -59 19.5t-25 46.5q0 19 13 32t31 13q38 0 38 -39q0 -27 -26 -37q15 -9 32 -9q38 0 61.5 34t23.5 89zM155 372q-56 0 -56 -96
q0 -98 56 -98q60 0 60 97t-60 97z" />
    <glyph glyph-name="lira" unicode="&#x20a4;" horiz-adv-x="487" 
d="M198 239h-132v45h118q-4 14 -23 68h-95v45h80q-12 41 -12 77q0 82 50.5 136t126.5 54q61 0 98 -34.5t37 -92.5q0 -36 -17.5 -57.5t-46.5 -21.5q-26 0 -43.5 18t-17.5 44q0 25 17 41.5t43 16.5q13 0 27 -7q-15 60 -89 60q-46 0 -78 -31.5t-32 -75.5q0 -32 30 -127h139v-45
h-124q14 -41 18 -68h106v-45h-103q0 -77 -36 -136q40 -17 82 -17q100 0 103 124h25q1 -10 1 -23q0 -92 -32 -144.5t-88 -52.5q-48 0 -125 60q-59 -60 -107 -60q-35 0 -57.5 20.5t-22.5 54.5q0 35 24 57t63 22q29 0 78 -19l10 -5q14 28 14 56q0 30 -9 63zM169 75
q-41 31 -70 31q-43 0 -43 -40q0 -19 12 -31t30 -12q39 0 71 52z" />
    <glyph glyph-name="peseta" unicode="&#x20a7;" horiz-adv-x="672" 
d="M183 300v-174q0 -60 14.5 -74t76.5 -15v-37h-261v37q58 1 71.5 15t13.5 74v402q0 60 -13.5 74t-71.5 15v37l195 -1q121 -1 179 -52q62 -55 62 -130q0 -97 -101 -146q-51 -25 -132 -25h-33zM183 335h18q85 0 114.5 30t29.5 117q0 73 -23 104.5t-75 31.5q-40 0 -55 -21
q-9 -13 -9 -66v-196zM519 265v-108q0 -128 58 -128q55 0 63 116h19v-15q0 -58 -25.5 -99t-71.5 -41q-67 0 -98 62q-15 30 -15 156v57h-68v34q56 14 76 43.5t32 117.5h30v-156h98v-39h-98z" />
    <glyph glyph-name="Euro" unicode="&#x20ac;" horiz-adv-x="708" 
d="M214 396h295l-19 -45h-278q-1 -9 -1 -35h264l-19 -45h-243q7 -92 36 -149q54 -105 172 -105q126 0 182 110q22 44 30 120h35q-4 -95 -42 -157q-67 -110 -210 -110q-106 0 -185 61q-48 37 -84.5 102t-44.5 128h-63l19 45h40v35h-59l19 45h45q16 92 69 160q100 130 232 130
q64 0 146 -45q26 -14 37 -14q31 0 46 52h26v-265h-26q-31 103 -61 145q-65 91 -163 91q-83 0 -134 -66.5t-61 -187.5z" />
    <glyph glyph-name="aslashs" unicode="&#x2101;" horiz-adv-x="439" 
d="M271 393h-140l-17 -45q-5 -13 -5 -26q0 -30 58 -33v-28h-163v28q36 2 52 16.5t32 58.5l110 309h37l122 -335q12 -32 22.5 -40.5t41.5 -8.5h12v-28h-197v28q64 1 64 17q0 6 -6 23zM258 427l-56 170l-60 -170h116z" />
    <glyph glyph-name="liter" unicode="&#x2113;" 
d="M250 265q-29 -155 -29 -203q0 -26 17 -26q23 0 49 53q9 19 20 19q14 0 14 -15q0 -21 -20 -54q-35 -57 -83 -57q-71 0 -71 95q0 33 8 116q-40 -44 -53 -44q-14 0 -14 19q0 9 19 26.5t55 60.5q41 217 89 318.5t110 101.5q31 0 49 -23t18 -61q0 -85 -64 -188
q-35 -56 -114 -138zM259 321q45 50 71 94q57 96 57 177q0 36 -25 36q-29 0 -51 -65.5t-52 -241.5z" />
    <glyph glyph-name="Ohm" unicode="&#x2126;" horiz-adv-x="667" 
d="M689 123l-38 -123h-278v48q81 40 123 92q74 93 74 218q0 117 -62 204t-175 87q-123 0 -187 -106q-49 -81 -49 -183q0 -143 92 -241q33 -36 104 -71v-48h-279l-38 123h19q16 -46 50 -61q22 -10 78 -12l108 -3v5q-82 32 -130 76q-106 97 -106 232q0 67 31.5 132.5
t86.5 111.5q87 74 221 74q162 0 257 -109q80 -92 80 -207q0 -74 -35 -142t-97 -114q-36 -27 -104 -54v-5l115 4q57 2 81 16t39 56h19z" />
    <glyph glyph-name="onethird" unicode="&#x2153;" horiz-adv-x="749" 
d="M274 261h-207v28q57 2 66.5 9t9.5 44v176q0 45 -9.5 55.5t-51.5 10.5q-8 0 -15 1v29q82 5 113 39h22v-310q0 -39 9 -45.5t63 -8.5v-28zM532 667h44l-340 -667h-43zM566 184l-17 -1q-20 -1 -20 18t18 17q3 0 16 -2q3 -1 11 -1q71 0 71 83q0 74 -69 74q-46 0 -63 -37
q44 -2 44 -37q0 -37 -38 -37q-18 0 -30 13t-12 33q0 38 31.5 64.5t77.5 26.5q52 0 89 -29.5t37 -70.5q0 -65 -98 -95q109 -24 109 -103q0 -44 -39.5 -75t-97.5 -31q-53 0 -86.5 26t-33.5 66q0 22 13 37.5t33 15.5q17 0 29 -11t12 -26q0 -16 -12 -26.5t-30 -10.5q-8 0 -14 3
q23 -48 85 -48q74 0 74 83q0 82 -76 82q-9 0 -14 -1z" />
    <glyph glyph-name="twothirds" unicode="&#x2154;" horiz-adv-x="749" 
d="M285 383l-10 -122h-256v19q61 108 138 181q57 54 57 101q0 72 -63 72q-32 0 -57 -18t-28 -44q12 2 13 2q40 0 40 -40q0 -18 -11.5 -30t-28.5 -12q-21 0 -34.5 16t-13.5 41q0 47 37 79t90 32q54 0 90 -30t36 -76q0 -39 -33 -72q-13 -13 -82 -60q-53 -36 -95 -101h118
q38 0 49.5 10t18.5 52h25zM529 667h43l-339 -667h-44zM565 184l-17 -1q-20 -1 -20 18t18 17q4 0 16 -2q3 -1 11 -1q71 0 71 83q0 74 -68 74q-47 0 -63 -37q44 -2 44 -37q0 -37 -38 -37q-18 0 -30 13t-12 33q0 38 31 64.5t77 26.5q52 0 89 -29.5t37 -70.5q0 -64 -97 -95
q108 -24 108 -103q0 -44 -39.5 -75t-97.5 -31q-52 0 -85.5 26t-33.5 66q0 22 13 37.5t33 15.5q17 0 29 -11t12 -26q0 -16 -12 -26.5t-30 -10.5q-8 0 -14 3q23 -48 84 -48q74 0 74 83q0 82 -76 82q-9 0 -14 -1z" />
    <glyph glyph-name="onefifth" unicode="&#x2155;" horiz-adv-x="749" 
d="M274 261h-207v28q57 2 66.5 9t9.5 44v176q0 45 -9.5 55.5t-51.5 10.5q-8 0 -15 1v29q82 5 113 39h22v-310q0 -39 9 -45.5t63 -8.5v-28zM529 667h43l-339 -667h-43zM529 334l-5 -101q34 19 69 19q53 0 90.5 -36t37.5 -88q0 -55 -41.5 -94.5t-99.5 -39.5q-49 0 -81 27
t-32 68q0 49 46 49q39 0 39 -37q0 -16 -12 -27.5t-29 -11.5q-3 0 -10 1q6 -18 26.5 -30.5t44.5 -12.5q79 0 79 105q0 101 -71 101q-28 0 -56 -18v-5q0 -35 -22 -35q-18 0 -18 19q0 14 13 33l8 179q62 -18 119 -18q34 0 77 18l10 -10q-51 -64 -133 -64q-22 0 -49 9z" />
    <glyph glyph-name="twofifths" unicode="&#x2156;" horiz-adv-x="749" 
d="M285 383l-10 -122h-256v19q61 108 138 181q57 54 57 101q0 72 -63 72q-32 0 -57 -18t-28 -44q12 2 13 2q40 0 40 -40q0 -18 -11.5 -30t-28.5 -12q-21 0 -34.5 16t-13.5 41q0 47 37 79t90 32q54 0 90 -30t36 -76q0 -39 -33 -72q-13 -13 -82 -60q-53 -36 -95 -101h118
q38 0 49.5 10t18.5 52h25zM532 667h43l-339 -667h-43zM529 334l-5 -101q33 19 69 19q53 0 90.5 -36t37.5 -88q0 -55 -42 -94.5t-100 -39.5q-48 0 -80.5 27.5t-32.5 67.5q0 49 46 49q39 0 39 -37q0 -16 -12 -27.5t-28 -11.5q-6 0 -10 1q5 -18 25.5 -30.5t45.5 -12.5
q79 0 79 105q0 101 -71 101q-28 0 -57 -18q1 -3 1 -5q0 -35 -22 -35q-18 0 -18 19q0 13 12 33l9 179q60 -18 118 -18q34 0 78 18l10 -10q-51 -64 -134 -64q-21 0 -48 9z" />
    <glyph glyph-name="threefifths" unicode="&#x2157;" horiz-adv-x="749" 
d="M130 477h11q71 0 71 83q0 74 -68 74q-47 0 -63 -38q44 0 44 -36q0 -38 -38 -38q-18 0 -30 13.5t-12 33.5q0 38 31 64.5t77 26.5q52 0 89 -29.5t37 -71.5q0 -64 -98 -95q109 -24 109 -102q0 -44 -39.5 -75t-97.5 -31q-52 0 -85.5 26t-33.5 66q0 22 13 37.5t33 15.5
q17 0 29 -11t12 -26q0 -38 -42 -38q-4 0 -15 3q25 -47 85 -47q74 0 74 83q0 82 -76 82q-6 0 -16.5 -1.5t-14.5 -1.5q-20 -1 -20 18q0 17 18 17q4 0 16 -2zM523 667h43l-339 -667h-44zM529 334l-5 -101q34 19 69 19q53 0 90.5 -36t37.5 -88q0 -55 -41.5 -94.5t-99.5 -39.5
q-49 0 -81 27t-32 68q0 49 46 49q39 0 39 -37q0 -16 -12 -27.5t-28 -11.5q-6 0 -11 1q6 -18 26.5 -30.5t44.5 -12.5q79 0 79 105q0 101 -71 101q-28 0 -56 -18q0 -40 -22 -40q-18 0 -18 19q0 15 13 33l9 179q60 -18 118 -18q34 0 77 18l10 -10q-51 -64 -133 -64q-21 0 -49 9
z" />
    <glyph glyph-name="fourfifths" unicode="&#x2158;" horiz-adv-x="749" 
d="M176 354h-152v31l179 268h32v-266h55v-33h-55v-25q0 -25 5.5 -31t31.5 -8l13 -1v-28h-171v28q5 1 11 1q36 0 43.5 5.5t7.5 33.5v25zM176 387v175l-118 -175h118zM529 667h43l-339 -667h-43zM529 334l-5 -101q34 19 69 19q53 0 90.5 -36t37.5 -88q0 -55 -41.5 -94.5
t-99.5 -39.5q-49 0 -81 27t-32 68q0 49 46 49q39 0 39 -37q0 -16 -12 -27.5t-29 -11.5q-3 0 -10 1q6 -18 26.5 -30.5t44.5 -12.5q79 0 79 105q0 101 -71 101q-28 0 -56 -18v-5q0 -35 -22 -35q-18 0 -18 19q0 14 13 33l8 179q62 -18 119 -18q34 0 77 18l10 -10
q-51 -64 -133 -64q-22 0 -49 9z" />
    <glyph glyph-name="onesixth" unicode="&#x2159;" horiz-adv-x="749" 
d="M274 261h-207v28q57 2 66.5 9t9.5 44v176q0 45 -9.5 55.5t-51.5 10.5q-8 0 -15 1v29q82 5 113 39h22v-310q0 -39 9 -45.5t63 -8.5v-28zM529 667h43l-339 -667h-43zM533 235v-40q28 50 75 50q46 0 79.5 -36.5t33.5 -86.5q0 -53 -36 -90.5t-86 -37.5q-59 0 -98 55.5
t-39 137.5q0 87 46.5 149t111.5 62q34 0 58 -19.5t24 -46.5q0 -42 -42 -42q-17 0 -28.5 11t-11.5 27q0 26 29 36q-15 8 -29 8q-87 0 -87 -137zM602 216q-69 0 -69 -100q0 -96 66 -96q55 0 55 101q0 95 -52 95z" />
    <glyph glyph-name="fivesixths" unicode="&#x215a;" horiz-adv-x="749" 
d="M96 595l-5 -100q33 19 69 19q53 0 90.5 -36t37.5 -88q0 -55 -41.5 -94.5t-99.5 -39.5q-49 0 -81 27t-32 68q0 49 46 49q39 0 39 -37q0 -16 -12 -27.5t-29 -11.5q-6 0 -10 1q6 -18 26.5 -30.5t44.5 -12.5q79 0 79 105q0 101 -71 101q-29 0 -56 -19v-5q0 -34 -22 -34
q-18 0 -18 19q0 12 13 32l9 180q59 -18 118 -18q33 0 77 17l10 -9q-51 -64 -133 -64q-20 0 -49 8zM529 667h43l-339 -667h-43zM533 235v-40q28 50 75 50q46 0 79.5 -36.5t33.5 -86.5q0 -53 -36 -90.5t-86 -37.5q-59 0 -98 55.5t-39 137.5q0 87 46.5 149t111.5 62
q34 0 58 -19.5t24 -46.5q0 -42 -42 -42q-17 0 -28.5 11t-11.5 27q0 26 29 36q-15 8 -29 8q-87 0 -87 -137zM602 216q-69 0 -69 -100q0 -96 66 -96q55 0 55 101q0 95 -52 95z" />
    <glyph glyph-name="oneeighth" unicode="&#x215b;" horiz-adv-x="749" 
d="M274 261h-207v28q57 2 66.5 9t9.5 44v176q0 45 -9.5 55.5t-51.5 10.5q-8 0 -15 1v29q82 5 113 39h22v-310q0 -39 9 -45.5t63 -8.5v-28zM529 667h43l-339 -667h-43zM546 195q-73 39 -73 99q0 46 34 75t89 29q49 0 81 -26t32 -64q0 -54 -64 -92q78 -41 78 -108
q0 -52 -36.5 -83t-97.5 -31q-56 0 -93.5 27t-37.5 68q0 61 88 106zM614 230q32 21 43 36.5t11 41.5q0 64 -75 64q-36 0 -58 -16.5t-22 -43.5q0 -40 101 -82zM574 181q-66 -41 -66 -89q0 -72 83 -72q92 0 92 69q0 49 -109 92z" />
    <glyph glyph-name="threeeighths" unicode="&#x215c;" horiz-adv-x="749" 
d="M130 477h11q71 0 71 83q0 74 -68 74q-47 0 -63 -38q44 0 44 -36q0 -38 -38 -38q-18 0 -30 13.5t-12 33.5q0 38 31 64.5t77 26.5q52 0 89 -29.5t37 -71.5q0 -64 -98 -95q109 -24 109 -102q0 -44 -39.5 -75t-97.5 -31q-52 0 -85.5 26t-33.5 66q0 22 13 37.5t33 15.5
q17 0 29 -11t12 -26q0 -38 -42 -38q-4 0 -15 3q25 -47 85 -47q74 0 74 83q0 82 -76 82q-6 0 -16.5 -1.5t-14.5 -1.5q-20 -1 -20 18q0 17 18 17q4 0 16 -2zM523 667h43l-339 -667h-44zM546 195q-73 39 -73 99q0 46 34 75t89 29q49 0 81.5 -26t32.5 -64q0 -54 -65 -92
q78 -41 78 -108q0 -52 -36.5 -83t-97.5 -31q-56 0 -93.5 27t-37.5 68q0 61 88 106zM614 230q2 1 11 7q44 28 44 71q0 64 -75 64q-37 0 -59 -16.5t-22 -43.5q0 -41 101 -82zM574 181q-66 -41 -66 -89q0 -72 83 -72q92 0 92 69q0 49 -109 92z" />
    <glyph glyph-name="fiveeighths" unicode="&#x215d;" horiz-adv-x="749" 
d="M96 595l-5 -100q33 19 69 19q53 0 90.5 -36t37.5 -88q0 -55 -41.5 -94.5t-99.5 -39.5q-49 0 -81 27t-32 68q0 49 46 49q39 0 39 -37q0 -16 -12 -27.5t-29 -11.5q-6 0 -10 1q6 -18 26.5 -30.5t44.5 -12.5q79 0 79 105q0 101 -71 101q-29 0 -56 -19v-5q0 -34 -22 -34
q-18 0 -18 19q0 12 13 32l9 180q59 -18 118 -18q33 0 77 17l10 -9q-51 -64 -133 -64q-20 0 -49 8zM522 667h44l-340 -667h-43zM546 195q-73 40 -73 99q0 46 34 75t89 29q49 0 81 -26t32 -64q0 -54 -64 -92q78 -41 78 -108q0 -52 -36.5 -83t-97.5 -31q-56 0 -93.5 27
t-37.5 68q0 63 88 106zM614 230q3 1 6 4q48 32 48 74q0 64 -75 64q-36 0 -58 -16.5t-22 -43.5q0 -40 101 -82zM574 181q-66 -41 -66 -89q0 -72 83 -72q92 0 92 69q0 49 -109 92z" />
    <glyph glyph-name="seveneighths" unicode="&#x215e;" horiz-adv-x="749" 
d="M49 653h244v-23q-103 -169 -103 -250q0 -25 6 -59q1 -6 1 -16q0 -50 -38 -50q-40 0 -40 60q0 65 50 159q36 68 74 119h-113q-39 0 -53.5 -18t-21.5 -78h-23zM505 667h44l-340 -667h-43zM545 195q-73 39 -73 99q0 46 34 75t89 29q49 0 81.5 -26t32.5 -64q0 -54 -65 -92
q79 -41 79 -108q0 -52 -36.5 -83t-97.5 -31q-56 0 -93.5 27t-37.5 68q0 63 87 106zM614 230q32 20 43 36.5t11 41.5q0 64 -75 64q-37 0 -59 -16.5t-22 -43.5q0 -40 102 -82zM574 181q-66 -42 -66 -89q0 -72 83 -72q92 0 92 69q0 49 -109 92z" />
    <glyph glyph-name="arrowleft" unicode="&#x2190;" horiz-adv-x="667" 
d="M653 363v-51h-500q15 -19 33.5 -56t18.5 -48q0 -14 -15 -14q-9 0 -23 17q-49 57 -131 103q-23 13 -23 21q0 9 16 19q57 34 79 51q32 25 68 66q7 8 14 8q15 0 15 -15q0 -29 -52 -101h500z" />
    <glyph glyph-name="arrowup" unicode="&#x2191;" horiz-adv-x="667" 
d="M360 13h-51v501q-19 -16 -56 -34.5t-48 -18.5q-14 0 -14 15q0 9 17 23q53 45 103 132q13 23 21 23q9 0 19 -17q33 -56 51 -80q24 -30 66 -67q8 -7 8 -14q0 -15 -15 -15q-30 0 -101 53v-501z" />
    <glyph glyph-name="arrowright" unicode="&#x2192;" horiz-adv-x="667" 
d="M13 310v51h500q-15 19 -33.5 56t-18.5 48q0 14 15 14q9 0 23 -17q49 -57 131 -103q23 -13 23 -21q0 -9 -16 -19q-57 -34 -79 -51q-32 -25 -68 -66q-7 -8 -14 -8q-15 0 -15 15q0 29 52 101h-500z" />
    <glyph glyph-name="arrowdown" unicode="&#x2193;" horiz-adv-x="667" 
d="M307 653h51v-500q19 16 56 34t48 18q14 0 14 -15q0 -9 -17 -23q-56 -47 -103 -131q-13 -23 -21 -23q-10 0 -19 16q-56 94 -117 147q-8 7 -8 14q0 15 15 15q29 0 101 -52v500z" />
    <glyph glyph-name="arrowboth" unicode="&#x2194;" horiz-adv-x="667" 
d="M513 310h-361q53 -71 53 -101q0 -15 -15 -15q-7 0 -24 19q-46 53 -143 110q-10 6 -10 15q0 7 21 19l2 1q86 49 132 104q14 17 22 17q15 0 15 -14q0 -11 -18.5 -47.5t-34.5 -56.5h361q-15 19 -33.5 56t-18.5 48q0 14 15 14q9 0 23 -17q49 -57 131 -103q23 -13 23 -21
q0 -9 -16 -19q-57 -34 -79 -51q-32 -25 -68 -66q-7 -8 -14 -8q-15 0 -15 15q0 29 52 101z" />
    <glyph glyph-name="arrowupdn" unicode="&#x2195;" horiz-adv-x="667" 
d="M360 514v-362q71 54 101 54q15 0 15 -15q0 -8 -19 -24q-51 -44 -110 -144q-6 -10 -15 -10q-7 0 -20 23q-46 82 -104 132q-17 15 -17 23q0 15 14 15q11 0 47 -18.5t57 -35.5v362q-19 -16 -56 -34.5t-48 -18.5q-14 0 -14 15q0 9 17 23q55 47 103 132q13 23 21 23
q9 0 19 -17q33 -56 51 -80q24 -31 66 -67q8 -7 8 -14q0 -15 -15 -15q-30 0 -101 53z" />
    <glyph glyph-name="arrowupdnbse" unicode="&#x21a8;" horiz-adv-x="667" 
d="M360 514v-362q71 54 101 54q15 0 15 -15q0 -8 -19 -24q-51 -44 -110 -144q-6 -10 -15 -10q-7 0 -20 23q-46 82 -104 132q-17 15 -17 23q0 15 14 15q11 0 47 -18.5t57 -35.5v362q-19 -16 -56 -34.5t-48 -18.5q-14 0 -14 15q0 8 17 23q57 50 106 136q11 19 18 19
q9 0 19 -17q33 -56 51 -80q24 -30 66 -67q8 -7 8 -14q0 -15 -15 -15q-30 0 -101 53zM201 -68h264v-43h-264v43z" />
    <glyph glyph-name="emptyset" unicode="&#x2205;" horiz-adv-x="618" 
d="M439 667l48 -25l-48 -88q113 -78 113 -204q0 -102 -72 -172.5t-176 -70.5q-46 0 -79 16l-63 -123l-48 25l61 122q-108 80 -108 202q0 101 71 172t173 71q39 0 81 -14zM416 502l-165 -330q32 -8 58 -8q77 0 132 54.5t55 130.5q0 47 -21.5 89t-58.5 64zM200 198l166 329
q-28 8 -54 8q-78 0 -133.5 -54.5t-55.5 -130.5q0 -90 77 -152z" />
    <glyph glyph-name="Delta" unicode="&#x394;" horiz-adv-x="667" 
d="M354 682l308 -682h-657l307 682h42zM308 586l-202 -452q-15 -34 -15 -47q0 -32 47 -32h403z" />
    <glyph glyph-name="Delta" unicode="&#x2206;" horiz-adv-x="667" 
d="M354 682l308 -682h-657l307 682h42zM308 586l-202 -452q-15 -34 -15 -47q0 -32 47 -32h403z" />
    <glyph glyph-name="intersection" unicode="&#x2229;" horiz-adv-x="562" 
d="M66 0h-29v424q0 119 42 173q66 84 197 84q124 0 192 -70q32 -34 43 -69.5t11 -109.5v-432h-92v427q0 99 -19 134q-22 40 -65 63.5t-94 23.5q-100 0 -151 -73q-24 -35 -31 -80q-4 -25 -4 -87v-408z" />
    <glyph glyph-name="union" unicode="&#x222a;" horiz-adv-x="562" 
d="M39 667h92v-427q0 -99 19 -134q22 -40 65.5 -63.5t93.5 -23.5q100 0 151 73q24 35 31 80q4 25 4 87v408h29v-424q0 -119 -42 -173q-66 -84 -197 -84q-124 0 -192 70q-32 34 -43 69.5t-11 109.5v432z" />
    <glyph glyph-name="contintegral" unicode="&#x222e;" horiz-adv-x="498" 
d="M203 -60v103q-65 10 -109.5 64t-44.5 124t44 123.5t110 64.5v39q0 112 45 179t120 67q54 0 91.5 -30t37.5 -74q0 -26 -16 -43.5t-40 -17.5q-22 0 -37.5 15t-15.5 35q0 10 6.5 22t6.5 23q0 32 -32 32q-34 0 -55 -47t-21 -124v-76q68 -12 111 -64.5t43 -123.5
q0 -70 -44 -123.5t-110 -64.5v-29q0 -72 -3 -100q-6 -57 -28 -95q-46 -81 -132 -81q-57 0 -93 30.5t-36 78.5q0 22 16 38t39 16q22 0 37.5 -15t15.5 -35q0 -10 -6.5 -23.5t-6.5 -21.5q0 -30 32 -30q33 0 54 45.5t21 118.5zM293 373v-283q49 10 79 49t30 92q0 77 -59 118
q-29 20 -50 24zM203 90v283q-47 -9 -78 -49t-31 -92t31.5 -93t77.5 -49z" />
    <glyph glyph-name="equivalence" unicode="&#x2261;" horiz-adv-x="487" 
d="M50 400v40h387v-40h-387zM50 213v40h387v-40h-387zM50 307v40h387v-40h-387z" />
    <glyph glyph-name="house" unicode="&#x2302;" horiz-adv-x="751" 
d="M84 0v401l291 328l292 -328v-401h-583zM135 51h481v328l-241 270l-240 -270v-328z" />
    <glyph glyph-name="turnednot" unicode="&#x2319;" 
d="M135 267v-224h330v-43h-430v267h100z" />
    <glyph glyph-name="integraltp" unicode="&#x2320;" 
d="M247 -256h-90v681q0 74 3 101q5 57 27 96q45 81 134 81q55 0 92 -30.5t37 -75.5q0 -24 -16.5 -41t-39.5 -17q-22 0 -37.5 15t-15.5 35q0 13 6.5 25t6.5 21q0 30 -32 30q-35 0 -55 -49.5t-20 -135.5v-736z" />
    <glyph glyph-name="integralbt" unicode="&#x2321;" 
d="M253 703h90v-681q0 -74 -3 -101q-5 -57 -27 -96q-45 -81 -134 -81q-55 0 -92 30.5t-37 75.5q0 24 16.5 41t39.5 17q22 0 37.5 -15t15.5 -35q0 -13 -6.5 -25t-6.5 -21q0 -30 32 -30q35 0 55 49t20 136v736z" />
    <glyph glyph-name="SF100000" unicode="&#x2500;" horiz-adv-x="1000" 
d="M0 217v66h1000v-66h-1000z" />
    <glyph glyph-name="SF110000" unicode="&#x2502;" horiz-adv-x="1000" 
d="M467 -250v1000h66v-1000h-66z" />
    <glyph glyph-name="SF010000" unicode="&#x250c;" horiz-adv-x="1000" 
d="M1000 283v-66h-467v-467h-66v533h533z" />
    <glyph glyph-name="SF030000" unicode="&#x2510;" horiz-adv-x="1000" 
d="M467 217h-467v66h533v-533h-66v467z" />
    <glyph glyph-name="SF020000" unicode="&#x2514;" horiz-adv-x="1000" 
d="M533 283h467v-66h-533v533h66v-467z" />
    <glyph glyph-name="SF040000" unicode="&#x2518;" horiz-adv-x="1000" 
d="M0 217v66h467v467h66v-533h-533z" />
    <glyph glyph-name="SF080000" unicode="&#x251c;" horiz-adv-x="1000" 
d="M533 283h467v-66h-467v-467h-66v1000h66v-467z" />
    <glyph glyph-name="SF090000" unicode="&#x2524;" horiz-adv-x="1000" 
d="M467 217h-467v66h467v467h66v-1000h-66v467z" />
    <glyph glyph-name="SF060000" unicode="&#x252c;" horiz-adv-x="1000" 
d="M533 217v-467h-66v467h-467v66h1000v-66h-467z" />
    <glyph glyph-name="SF070000" unicode="&#x2534;" horiz-adv-x="1000" 
d="M467 283v467h66v-467h467v-66h-1000v66h467z" />
    <glyph glyph-name="SF050000" unicode="&#x253c;" horiz-adv-x="1000" 
d="M467 217h-467v66h467v467h66v-467h467v-66h-467v-467h-66v467z" />
    <glyph glyph-name="SF430000" unicode="&#x2550;" horiz-adv-x="1000" 
d="M0 151v66h1000v-66h-1000zM0 283v66h1000v-66h-1000z" />
    <glyph glyph-name="SF240000" unicode="&#x2551;" horiz-adv-x="1000" 
d="M401 -250v1000h66v-1000h-66zM533 -250v1000h66v-1000h-66z" />
    <glyph glyph-name="SF510000" unicode="&#x2552;" horiz-adv-x="1000" 
d="M467 -250v599h533v-66h-467v-66h467v-66h-467v-401h-66z" />
    <glyph glyph-name="SF520000" unicode="&#x2553;" horiz-adv-x="1000" 
d="M533 217h-66v-467h-66v533h599v-66h-401v-467h-66v467z" />
    <glyph glyph-name="SF390000" unicode="&#x2554;" horiz-adv-x="1000" 
d="M467 283v-533h-66v599h599v-66h-533zM599 151v-401h-66v467h467v-66h-401z" />
    <glyph glyph-name="SF220000" unicode="&#x2555;" horiz-adv-x="1000" 
d="M467 151h-467v66h467v66h-467v66h533v-599h-66v401z" />
    <glyph glyph-name="SF210000" unicode="&#x2556;" horiz-adv-x="1000" 
d="M467 217v-467h-66v467h-401v66h599v-533h-66v467h-66z" />
    <glyph glyph-name="SF250000" unicode="&#x2557;" horiz-adv-x="1000" 
d="M533 283h-533v66h599v-599h-66v533zM401 151h-401v66h467v-467h-66v401z" />
    <glyph glyph-name="SF500000" unicode="&#x2558;" horiz-adv-x="1000" 
d="M467 750h66v-401h467v-66h-467v-66h467v-66h-533v599z" />
    <glyph glyph-name="SF490000" unicode="&#x2559;" horiz-adv-x="1000" 
d="M533 283v467h66v-467h401v-66h-599v533h66v-467h66z" />
    <glyph glyph-name="SF380000" unicode="&#x255a;" horiz-adv-x="1000" 
d="M467 217h533v-66h-599v599h66v-533zM599 349h401v-66h-467v467h66v-401z" />
    <glyph glyph-name="SF280000" unicode="&#x255b;" horiz-adv-x="1000" 
d="M467 349v401h66v-599h-533v66h467v66h-467v66h467z" />
    <glyph glyph-name="SF270000" unicode="&#x255c;" horiz-adv-x="1000" 
d="M467 283h66v467h66v-533h-599v66h401v467h66v-467z" />
    <glyph glyph-name="SF260000" unicode="&#x255d;" horiz-adv-x="1000" 
d="M533 217v533h66v-599h-599v66h533zM401 349v401h66v-467h-467v66h401z" />
    <glyph glyph-name="SF360000" unicode="&#x255e;" horiz-adv-x="1000" 
d="M467 750h66v-401h467v-66h-467v-66h467v-66h-467v-401h-66v1000z" />
    <glyph glyph-name="SF370000" unicode="&#x255f;" horiz-adv-x="1000" 
d="M599 217v-467h-66v1000h66v-467h401v-66h-401zM467 -250h-66v1000h66v-1000z" />
    <glyph glyph-name="SF420000" unicode="&#x2560;" horiz-adv-x="1000" 
d="M401 -250v1000h66v-1000h-66zM599 349h401v-66h-467v467h66v-401zM599 151v-401h-66v467h467v-66h-401z" />
    <glyph glyph-name="SF190000" unicode="&#x2561;" horiz-adv-x="1000" 
d="M467 349v401h66v-1000h-66v401h-467v66h467v66h-467v66h467z" />
    <glyph glyph-name="SF200000" unicode="&#x2562;" horiz-adv-x="1000" 
d="M401 217h-401v66h401v467h66v-1000h-66v467zM533 -250v1000h66v-1000h-66z" />
    <glyph glyph-name="SF230000" unicode="&#x2563;" horiz-adv-x="1000" 
d="M599 -250h-66v1000h66v-1000zM401 349v401h66v-467h-467v66h401zM401 151h-401v66h467v-467h-66v401z" />
    <glyph glyph-name="SF470000" unicode="&#x2564;" horiz-adv-x="1000" 
d="M0 349h1000v-66h-1000v66zM467 151h-467v66h1000v-66h-467v-401h-66v401z" />
    <glyph glyph-name="SF480000" unicode="&#x2565;" horiz-adv-x="1000" 
d="M401 217h-401v66h1000v-66h-401v-467h-66v467h-66v-467h-66v467z" />
    <glyph glyph-name="SF410000" unicode="&#x2566;" horiz-adv-x="1000" 
d="M0 349h1000v-66h-1000v66zM599 151v-401h-66v467h467v-66h-401zM401 151h-401v66h467v-467h-66v401z" />
    <glyph glyph-name="SF450000" unicode="&#x2567;" horiz-adv-x="1000" 
d="M0 151v66h1000v-66h-1000zM467 349v401h66v-401h467v-66h-1000v66h467z" />
    <glyph glyph-name="SF460000" unicode="&#x2568;" horiz-adv-x="1000" 
d="M0 217v66h401v467h66v-467h66v467h66v-467h401v-66h-1000z" />
    <glyph glyph-name="SF400000" unicode="&#x2569;" horiz-adv-x="1000" 
d="M0 151v66h1000v-66h-1000zM599 349h401v-66h-467v467h66v-401zM401 349v401h66v-467h-467v66h401z" />
    <glyph glyph-name="SF540000" unicode="&#x256a;" horiz-adv-x="1000" 
d="M467 217v66h-467v66h467v401h66v-401h467v-66h-467v-66h467v-66h-467v-401h-66v401h-467v66h467z" />
    <glyph glyph-name="SF530000" unicode="&#x256b;" horiz-adv-x="1000" 
d="M401 217h-401v66h401v467h66v-467h66v467h66v-467h401v-66h-401v-467h-66v467h-66v-467h-66v467z" />
    <glyph glyph-name="SF440000" unicode="&#x256c;" horiz-adv-x="1000" 
d="M599 349h401v-66h-467v467h66v-401zM401 349v401h66v-467h-467v66h401zM599 151v-401h-66v467h467v-66h-401zM401 151h-401v66h467v-467h-66v401z" />
    <glyph glyph-name="upblock" unicode="&#x2580;" horiz-adv-x="1000" 
d="M0 250v500h1000v-500h-1000z" />
    <glyph glyph-name="dnblock" unicode="&#x2584;" horiz-adv-x="1000" 
d="M0 -250v500h1000v-500h-1000z" />
    <glyph glyph-name="block" unicode="&#x2588;" horiz-adv-x="1000" 
d="M0 -250v1000h1000v-1000h-1000z" />
    <glyph glyph-name="lfblock" unicode="&#x258c;" horiz-adv-x="1000" 
d="M0 -250v1000h500v-1000h-500z" />
    <glyph glyph-name="rtblock" unicode="&#x2590;" horiz-adv-x="1000" 
d="M500 -250v1000h500v-1000h-500z" />
    <glyph glyph-name="ltshade" unicode="&#x2591;" horiz-adv-x="1000" 
d="M0 750h100v-100h-100v100zM200 750h100v-100h-100v100zM800 750h100v-100h-100v100zM400 750h100v-100h-100v100zM600 750h100v-100h-100v100zM0 550h100v-100h-100v100zM0 350h100v-100h-100v100zM0 150h100v-100h-100v100zM0 -50h100v-100h-100v100zM200 550h100v-100
h-100v100zM200 350h100v-100h-100v100zM200 150h100v-100h-100v100zM200 -50h100v-100h-100v100zM400 550h100v-100h-100v100zM400 350h100v-100h-100v100zM400 150h100v-100h-100v100zM400 -50h100v-100h-100v100zM600 550h100v-100h-100v100zM600 350h100v-100h-100v100z
M600 150h100v-100h-100v100zM600 -50h100v-100h-100v100zM800 550h100v-100h-100v100zM800 350h100v-100h-100v100zM800 150h100v-100h-100v100zM800 -50h100v-100h-100v100z" />
    <glyph glyph-name="shade" unicode="&#x2592;" horiz-adv-x="1000" 
d="M900 -150h100v-100h-100v100h-100v-100h-100v100h-100v-100h-100v100h-100v-100h-100v100h-100v-100h-100v100h-100v100h100v-100h100v100h100v-100h100v100h100v-100h100v100h100v-100h100v100h100v100h-100v-100h-100v100h-100v-100h-100v100h-100v-100h-100v100h-100
v-100h-100v100h-100v100h100v-100h100v100h100v-100h100v100h100v-100h100v100h100v-100h100v100h100v100h-100v-100h-100v100h-100v-100h-100v100h-100v-100h-100v100h-100v-100h-100v100h-100v100h100v-100h100v100h100v-100h100v100h100v-100h100v100h100v-100h100v100
h100v100h-100v-100h-100v100h-100v-100h-100v100h-100v-100h-100v100h-100v-100h-100v100h-100v100h100v-100h100v100h100v-100h100v100h100v-100h100v100h100v-100h100v100h100v100h-100v-100h-100v100h-100v-100h-100v100h-100v-100h-100v100h-100v-100h-100v100h-100v100
h100v-100h100v100h100v-100h100v100h100v-100h100v100h100v-100h100v100h100v-100h100v-100h-100v-100h100v-100h-100v-100h100v-100h-100v-100h100v-100h-100v-100z" />
    <glyph glyph-name="dkshade" unicode="&#x2593;" horiz-adv-x="1000" 
d="M1000 -250h-1000v100h100v100h-100v100h100v100h-100v100h100v100h-100v100h100v100h-100v100h100v100h100v-100h100v100h100v-100h100v100h100v-100h100v100h100v-100h100v100h100v-1000zM900 550h-100v-100h100v100zM700 550h-100v-100h100v100zM500 550h-100v-100h100
v100zM300 550h-100v-100h100v100zM900 350h-100v-100h100v100zM700 350h-100v-100h100v100zM500 350h-100v-100h100v100zM300 350h-100v-100h100v100zM900 150h-100v-100h100v100zM700 150h-100v-100h100v100zM500 150h-100v-100h100v100zM300 150h-100v-100h100v100z
M900 -50h-100v-100h100v100zM700 -50h-100v-100h100v100zM500 -50h-100v-100h100v100zM300 -50h-100v-100h100v100z" />
    <glyph glyph-name="filledbox" unicode="&#x25a0;" horiz-adv-x="667" 
d="M667 0h-667v667h667v-667z" />
    <glyph glyph-name="outlinedbox" unicode="&#x25a1;" horiz-adv-x="667" 
d="M667 0h-667v667h667v-667zM620 47v573h-573v-573h573z" />
    <glyph glyph-name="triagup" unicode="&#x25b2;" 
d="M466 147h-433l217 405z" />
    <glyph glyph-name="triagrt" unicode="&#x25b6;" 
d="M71 119v433l405 -217z" />
    <glyph glyph-name="triagdn" unicode="&#x25bc;" 
d="M33 520h433l-216 -405z" />
    <glyph glyph-name="triaglt" unicode="&#x25c0;" 
d="M428 552v-433l-405 216z" />
    <glyph glyph-name="diamondrhombsolid" unicode="&#x25c6;" horiz-adv-x="667" 
d="M333 693q22 -47 111.5 -173t142.5 -186q-160 -190 -254 -360q-71 135 -253 360q180 226 253 359z" />
    <glyph glyph-name="diamondrhomb" unicode="&#x25c7;" horiz-adv-x="667" 
d="M334 693l259 -359l-259 -360l-260 360zM334 604l-197 -270l197 -271l197 271z" />
    <glyph glyph-name="circle" unicode="&#x25cb;" horiz-adv-x="667" 
d="M334 589q107 0 183.5 -75t76.5 -180q0 -106 -76.5 -181.5t-183.5 -75.5q-109 0 -185 75.5t-76 184.5q0 103 77.5 177.5t183.5 74.5zM334 543q-88 0 -151 -61t-63 -146q0 -89 62 -151t152 -62q88 0 150.5 62t62.5 149q0 86 -62.5 147.5t-150.5 61.5z" />
    <glyph glyph-name="invbullet" unicode="&#x25d8;" horiz-adv-x="667" 
d="M0 0v667h667v-667h-667zM336 473q-58 0 -99 -40.5t-41 -99.5q0 -57 40.5 -98t97.5 -41q56 0 96.5 41t40.5 99q0 56 -40 97.5t-95 41.5z" />
    <glyph glyph-name="invcircle" unicode="&#x25d9;" horiz-adv-x="667" 
d="M334 543q88 0 150.5 -61.5t62.5 -147.5q0 -87 -62.5 -149t-150.5 -62q-90 0 -152 62t-62 151q0 85 63 146t151 61zM667 0h-667v667h667v-667zM334 590q-107 0 -184 -74.5t-77 -177.5q0 -109 76 -185t185 -76q107 0 183.5 75.5t76.5 181.5t-76.5 181t-183.5 75z" />
    <glyph glyph-name="smileface" unicode="&#x263a;" horiz-adv-x="667" 
d="M240 466q17 0 30 -13t13 -31t-13 -31t-31 -13t-31 13t-13 31t13 31t32 13zM434 467q18 0 31 -13t13 -31q0 -19 -13 -32t-31 -13q-19 0 -32 13t-13 32q0 18 13 31t32 13zM540 372q-7 -106 -50 -161q-56 -70 -156 -70q-108 0 -164 83q-34 51 -42 148q13 -59 50 -97
q60 -62 156 -62q105 0 165 71q29 34 41 88zM339 650q127 0 219 -93.5t92 -222.5q0 -131 -93 -224t-224 -93t-223.5 93t-92.5 226q0 131 94 222.5t228 91.5zM338 608q-126 0 -208 -91q-71 -79 -71 -181q0 -116 80 -196.5t195 -80.5q114 0 194.5 80.5t80.5 194.5
q0 112 -80.5 193t-190.5 81z" />
    <glyph glyph-name="invsmileface" unicode="&#x263b;" horiz-adv-x="667" 
d="M339 650q127 0 219 -93.5t92 -222.5q0 -131 -93 -224t-224 -93t-223.5 93t-92.5 226q0 131 94 222.5t228 91.5zM240 466q-19 0 -32 -13t-13 -31t13 -31t31 -13t31 13t13 31t-13 31t-30 13zM434 466q-19 0 -32 -13t-13 -31q0 -19 13 -32t32 -13q18 0 31 13t13 32
q0 18 -13 31t-31 13zM540 372q-13 -56 -41 -88q-61 -71 -165 -71q-103 0 -164 71q-29 34 -42 88q8 -107 51 -161q56 -70 155 -70q110 0 165 83q35 52 41 148z" />
    <glyph glyph-name="sun" unicode="&#x263c;" horiz-adv-x="667" 
d="M159 472l-75 75l36 35l75 -75q49 40 113 48v105h50v-105q68 -8 114 -48l74 75l35 -35l-74 -75q38 -46 47 -113h105v-51h-105q-9 -67 -47 -113l74 -75l-35 -35l-75 75q-48 -40 -113 -48v-105h-50v105q-56 6 -114 47l-74 -74l-36 35l75 74q-41 50 -47 114h-105v51h105
q9 63 47 113zM336 493q-68 0 -115 -46t-47 -112q0 -67 46.5 -114t112.5 -47t112.5 47t46.5 113q0 64 -46.5 111.5t-109.5 47.5z" />
    <glyph glyph-name="female" unicode="&#x2640;" horiz-adv-x="667" 
d="M308 209v105q-68 10 -111.5 61.5t-43.5 120.5q0 76 52.5 129.5t126.5 53.5q75 0 128 -53.5t53 -129.5q0 -70 -44 -120.5t-113 -61.5v-105h163v-43h-163v-166h-48v166h-161v43h161zM335 632q-56 0 -95.5 -39.5t-39.5 -96.5q0 -56 39 -96t94 -40t94 40t39 96q0 55 -39 95.5
t-92 40.5z" />
    <glyph glyph-name="male" unicode="&#x2642;" horiz-adv-x="667" 
d="M570 499l-152 -151q36 -48 36 -110q0 -76 -53 -129.5t-127 -53.5t-127 53.5t-53 129.5t53 129.5t127 53.5q61 0 112 -39l151 151q-55 13 -106 40q-21 11 -21 23t13 12q17 0 51 -6t52 -6q56 0 93 10q19 5 23 5q10 0 10 -10q0 -5 -5 -23q-11 -39 -11 -87q0 -38 9 -84
q3 -16 3 -20q0 -13 -12 -13q-9 0 -23 21q-31 47 -43 104zM276 374q-56 0 -95.5 -39.5t-39.5 -96.5q0 -56 39 -95.5t94 -39.5t94 39.5t39 95.5q0 55 -39 95.5t-92 40.5z" />
    <glyph glyph-name="spade" unicode="&#x2660;" horiz-adv-x="667" 
d="M108 0v18q71 14 103 29t62 49q52 59 56 159q-5 -11 -13 -27q-20 -34 -56 -54.5t-76 -20.5q-49 0 -84.5 37t-35.5 88q0 83 104 169q142 118 164 239q26 -80 51.5 -117t99 -104.5t97.5 -104.5t24 -83q0 -52 -35.5 -87.5t-86.5 -35.5q-84 0 -140 101q6 -108 58.5 -163
t167.5 -74v-18h-460z" />
    <glyph glyph-name="club" unicode="&#x2663;" horiz-adv-x="667" 
d="M561 0h-455v18q221 31 221 256q-21 -35 -34 -52q-59 -75 -146 -75q-59 0 -101.5 45t-42.5 107t38.5 104.5t93.5 42.5q32 0 71 -21l15 -8q-35 53 -35 100q0 59 43.5 101t104.5 42t104 -42t43 -101q0 -48 -35 -100q16 8 19 10q39 19 67 19q55 0 93.5 -43t38.5 -104
q0 -64 -42.5 -108t-103.5 -44q-37 0 -76 19t-64 50q-11 14 -38 58q3 -122 59 -182q30 -33 61 -46.5t101 -27.5v-18z" />
    <glyph glyph-name="heart" unicode="&#x2665;" horiz-adv-x="667" 
d="M332 -11q-16 67 -52 129t-134 192q-54 72 -72 111.5t-18 83.5q0 56 37.5 95t91.5 39q75 0 120 -68q14 -21 27 -62q37 131 147 131q54 0 93 -38.5t39 -92.5q0 -50 -24.5 -101t-85.5 -128q-143 -180 -169 -291z" />
    <glyph glyph-name="diamond" unicode="&#x2666;" horiz-adv-x="667" 
d="M333 693q22 -47 111.5 -173t142.5 -186q-160 -190 -254 -360q-71 135 -253 360q180 226 253 359z" />
    <glyph glyph-name="musicalnote" unicode="&#x266a;" horiz-adv-x="667" 
d="M306 156v511h46v-61q7 -8 15 -18l52 -63q91 -110 91 -225q0 -91 -57 -162h-28q33 77 33 149q0 65 -31.5 116t-74.5 57v-304q0 -72 -42.5 -118.5t-109.5 -46.5q-69 0 -69 61q0 45 36.5 80t84.5 35q29 0 54 -11z" />
    <glyph glyph-name="musicalnotedbl" unicode="&#x266b;" horiz-adv-x="667" 
d="M195 587l421 107v-502q0 -72 -42.5 -118.5t-109.5 -46.5q-68 0 -68 61q0 45 36.5 80t83.5 35q30 0 54 -11v270l-329 -90v-236q0 -61 -29 -101q-45 -63 -123 -63q-69 0 -69 60q0 45 36.5 79.5t84.5 34.5q27 0 54 -10v451zM241 448l329 90v70l-329 -90v-70z" />
    <glyph glyph-name="nmacron" unicode="&#xe00c;" horiz-adv-x="527" 
d="M175 464v-140q48 133 147 133q52 0 85 -45t33 -152v-144q0 -56 9 -69t51 -14v-33h-207v33l9 1q44 1 52.5 14t8.5 80v155q0 68 -16 90q-20 27 -51 27q-58 0 -89 -68.5t-31 -193.5v-22q0 -56 9.5 -68.5t50.5 -14.5v-33h-206v33l9 1q44 1 52.5 14t8.5 80v206q0 54 -12 66.5
t-65 13.5v33q22 2 25 2q47 5 51 5q12 2 51 7q7 0 25 3zM155 571v57h235v-57h-235z" />
    <glyph glyph-name="ahungarumlaut" unicode="&#xeb01;" horiz-adv-x="460" 
d="M427 128h21q-1 -55 -13 -86q-19 -52 -66 -52q-63 0 -75 97q-19 -42 -61.5 -69.5t-87.5 -27.5q-51 0 -84.5 29.5t-33.5 73.5q0 62 75 105q37 21 183 70l9 3v38q0 65 -16 87q-25 33 -86 33q-55 0 -85 -30q51 -13 51 -58q0 -23 -15.5 -38.5t-37.5 -15.5q-25 0 -42 18t-17 45
q0 45 47.5 76t115.5 31q94 0 134 -41q17 -18 21 -50q2 -13 2 -57v-211q0 -51 23 -51q32 0 38 81zM294 196v47q-97 -40 -137 -72t-40 -70q0 -28 17.5 -45t46.5 -17q49 0 84 46q29 38 29 111zM173 523h-35l75 111q39 58 64 58q13 0 22.5 -8.5t9.5 -20.5q0 -22 -68 -81z
M299 523h-34l75 111q39 58 63 58q33 0 33 -29q0 -21 -69 -81z" />
    <glyph glyph-name="Dbreve" unicode="&#xeb06;" horiz-adv-x="706" 
d="M134 128v411q0 62 -17 76t-90 15v37h287q104 0 164 -22t105 -76q38 -46 61 -110.5t23 -124.5q0 -68 -27.5 -138t-72 -116t-99 -63t-154.5 -17h-287v37q73 1 90 15t17 76zM227 544v-421q0 -50 24 -69t87 -19q216 0 216 298q0 153 -53 226t-164 73q-65 0 -87.5 -18
t-22.5 -70zM433 850h37q-25 -121 -139 -121q-57 0 -92.5 32t-42.5 89h35q5 -25 33 -40.5t69 -15.5q77 0 100 56z" />
    <glyph glyph-name="ocommaaccent" unicode="&#xeb15;" horiz-adv-x="459" 
d="M230 457q77 0 133 -66q63 -74 63 -168q0 -102 -72 -177q-54 -56 -125 -56q-77 0 -133 66q-63 74 -63 170q0 100 72 175q54 56 125 56zM230 425q-71 0 -95 -71q-12 -36 -12 -127q0 -105 17 -145q25 -60 89 -60q71 0 95 71q12 36 12 130q0 102 -17 142q-25 60 -89 60z
M174 -284l-19 19q76 66 76 96q0 9 -16 14q-39 11 -39 49q0 23 15.5 38t38.5 15q26 0 42.5 -18.5t16.5 -46.5q0 -85 -115 -166z" />
    <glyph glyph-name="Sbreve" unicode="&#xeb1e;" horiz-adv-x="581" 
d="M490 419h-28q-28 112 -79 164q-65 67 -148 67q-54 0 -88.5 -31.5t-34.5 -81.5q0 -46 33.5 -78.5t146.5 -67.5q137 -42 188 -90t51 -132q0 -87 -56 -136q-61 -53 -149 -53q-53 0 -101 20q-17 7 -66 38q-13 8 -25 8q-17 0 -27.5 -12t-29.5 -54h-27q4 54 4 155q0 22 -4 129
h27q35 -122 84 -171q76 -76 166 -76q65 0 105 34t40 90q0 54 -39 84q-34 26 -149 64q-148 49 -193 112q-34 48 -34 112q0 76 51 125t130 49q69 0 154 -51q17 -10 28 -10q22 0 42 44l5 11h28q-8 -121 -8 -164q0 -51 3 -98zM370 850h37q-25 -121 -139 -121q-57 0 -93 32
t-42 89h35q5 -25 33 -40.5t69 -15.5q77 0 100 56z" />
    <glyph glyph-name="Tcaron_1" unicode="&#xeb22;" horiz-adv-x="831" 
d="M29 667h554l11 -258h-29q-21 127 -66.5 176t-143.5 48v-503q0 -64 16 -78.5t88 -14.5h16v-37h-333v37l14 -1q21 -1 35 -1q46 0 60 19q11 18 11 76v502q-106 2 -147 -41.5t-64 -181.5h-28zM648 448l-20 20q78 65 78 98q0 9 -16 14q-40 11 -40 50q0 23 16 38.5t39 15.5
q27 0 44 -18.5t17 -47.5q0 -87 -118 -170z" />
    <glyph glyph-name="tcaron_1" unicode="&#xeb23;" horiz-adv-x="333" 
d="M160 447h133v-37h-133v-249q0 -75 17 -101q19 -30 52 -30q35 0 58.5 38.5t28.5 107.5h19q1 -7 1 -16q0 -71 -30 -119q-32 -51 -96 -51q-78 0 -111 64q-16 31 -16 159v197h-69v32q59 19 81 54.5t35 136.5h30v-186zM165 699h-63l-8 9q-10 11 -76 93l-30 37h48l10 -7
q3 -3 38 -28q6 -5 51 -38q13 12 86 66l10 7h47l-9 -11q-34 -42 -104 -128z" />
    <glyph glyph-name="ucommaaccent" unicode="&#xeb26;" horiz-adv-x="517" 
d="M355 -10v136q-20 -62 -63 -99t-97 -37q-47 0 -76 30q-32 34 -32 117v194q0 56 -10.5 69t-59.5 14v33q22 2 23 2q47 5 50 5t50 7q9 0 24 3v-302q0 -67 14.5 -92t49.5 -25q61 0 98 78q28 59 28 176v23q0 60 -15 75.5t-78 16.5v33q55 5 170 17v-343q0 -56 10 -68.5t57 -14.5
v-33l-42 -4l-29 -2q-9 -1 -72 -9zM194 -284l-20 19q77 64 77 96q0 9 -16 14q-39 11 -39 49q0 23 15.5 38t38.5 15q26 0 42.5 -18.5t16.5 -46.5q0 -85 -115 -166z" />
    <glyph glyph-name="yhungarumlaut" unicode="&#xeb2b;" horiz-adv-x="485" 
d="M286 447h192v-33q-40 -5 -59.5 -26t-42.5 -85l-118 -321q-35 -94 -74 -138t-94 -44q-44 0 -73.5 25t-29.5 62q0 31 18.5 51t47.5 20q25 0 41 -16.5t16 -41.5q0 -45 -48 -53q19 -10 33 -10q68 0 114 126l7 19l-123 339q-22 59 -35.5 73.5t-53.5 17.5q-5 1 -16 2v33h212
v-33q-49 -3 -49 -23q0 -7 10 -34l97 -265l69 193q21 59 21 88q0 41 -62 41v33zM185 523h-34l75 111q39 58 63 58q13 0 22.5 -8.5t9.5 -20.5q0 -22 -68 -81zM312 523h-34l75 111q24 36 36 47t27 11q13 0 22.5 -8.5t9.5 -20.5q0 -22 -68 -81z" />
    <glyph glyph-name="dcaron_1" unicode="&#xeb30;" horiz-adv-x="519" 
d="M355 105l-5 -10q-12 -24 -38 -65q-35 -40 -89 -40q-78 0 -134 69t-56 165q0 93 57.5 163t133.5 70q93 0 131 -112v207q0 60 -15 75.5t-78 16.5v33q26 2 28 2l54 5l55 6q1 0 33 4v-573q0 -55 9 -68t46 -15v-33q-8 0 -20.5 -1.5t-28 -2.5t-17.5 -1q-12 -2 -46 -7l-20 -3
v115zM231 422q-108 0 -108 -196q0 -201 108 -201q52 0 86 56.5t34 142.5q0 85 -34 141.5t-86 56.5zM421 739h-63q-1 1 -52 64q-17 21 -53 64l-9 11h48l10 -7q3 -3 38 -28q6 -5 51 -38q13 12 86 66l10 7h47l-9 -11q-34 -42 -104 -128z" />
    <glyph glyph-name="Lcaron_1" unicode="&#xeb31;" horiz-adv-x="619" 
d="M571 268h29l-15 -268h-558v37q73 1 90 15t17 76v411q0 62 -17 76t-90 15v37h313v-37q-77 -1 -95 -15.5t-18 -75.5v-411q0 -58 13.5 -75.5t60.5 -17.5h58q80 0 114 23t54.5 66t43.5 144zM402 448l-20 20q79 65 79 98q0 9 -16 14q-40 11 -40 50q0 23 15.5 38.5t39.5 15.5
q26 0 43 -18.5t17 -47.5q0 -87 -118 -170z" />
    <glyph glyph-name="Commaaccent" unicode="&#xeb86;" 
d="M344 448l-20 20q78 65 78 98q0 9 -16 14q-40 11 -40 50q0 23 16 38.5t39 15.5q27 0 44 -18.5t17 -47.5q0 -87 -118 -170z" />
    <glyph glyph-name="commaaccent" unicode="&#xeb87;" 
d="M336 466l-20 19q77 66 77 97q0 8 -16 13q-39 11 -39 49q0 23 15.5 38t38.5 15q26 0 42.5 -18.5t16.5 -46.5q0 -84 -115 -166z" />
    <glyph glyph-name="Slashstroke" unicode="&#xeb9e;" 
d="M1 218l-22 33l335 218l22 -34z" />
    <glyph glyph-name="slashstroke" unicode="&#xeb9f;" 
d="M346 456l20 -31l-201 -130l-20 30z" />
    <glyph glyph-name="Dieresisnarrow" unicode="&#xebce;" 
d="M175 841q23 0 38.5 -16t15.5 -39q0 -22 -16 -38t-38 -16t-38.5 16.5t-16.5 38.5t16.5 38t38.5 16zM326 841q23 0 38.5 -16t15.5 -39q0 -22 -16 -38t-38 -16t-38.5 16.5t-16.5 38.5t16.5 38t38.5 16z" />
    <glyph glyph-name="dieresisnarrow" unicode="&#xebcf;" 
d="M181 653q22 0 37 -15.5t15 -37.5q0 -21 -15.5 -36t-36.5 -15t-36.5 15.5t-15.5 36.5q0 22 15 37t37 15zM319 653q22 0 37 -15.5t15 -37.5q0 -21 -15.5 -36t-36.5 -15t-36.5 15.5t-15.5 36.5q0 22 15 37t37 15z" />
    <glyph glyph-name="Pts" unicode="&#xec00;" horiz-adv-x="972" 
d="M183 300v-174q0 -60 14.5 -74t76.5 -15v-37h-261v37q58 1 71.5 15t13.5 74v402q0 60 -13.5 74t-71.5 15v37l195 -1q121 -1 179 -52q62 -55 62 -130q0 -97 -101 -146q-51 -25 -132 -25h-33zM183 335h18q85 0 114.5 30t29.5 117q0 73 -23 104.5t-75 31.5q-40 0 -55 -21
q-9 -13 -9 -66v-196zM519 265v-108q0 -128 58 -128q55 0 63 116h19v-15q0 -58 -25.5 -99t-71.5 -41q-67 0 -98 62q-15 30 -15 156v57h-68v34q56 14 76 43.5t32 117.5h30v-156h98v-39h-98zM693 -7v138h23q47 -111 129 -111q26 0 43.5 14.5t17.5 36.5q0 19 -18.5 34.5
t-80 29.5t-87 37t-25.5 63t27 66t68 26q24 0 63 -15q13 -5 18 -5q10 0 26 19h21v-123h-22q-15 49 -41 70q-34 27 -68 27q-23 0 -38.5 -12.5t-15.5 -31.5q0 -21 23 -34q7 -4 77 -25q65 -17 89 -39t24 -64q0 -43 -30 -72t-74 -29q-34 0 -73 17q-23 10 -31 10q-14 0 -22 -27
h-23z" />
    <glyph glyph-name="peseta2" unicode="&#xec01;" horiz-adv-x="487" 
d="M98 454h-65v45h65v29q0 60 -13.5 74t-71.5 15v37l195 -1q204 -1 238 -154h59v-45h-58q-9 -71 -71 -112.5t-160 -41.5h-33v-174q0 -60 14.5 -74t76.5 -15v-37h-261v37q58 1 71.5 15t13.5 74v328zM183 454v-119h17q95 0 124 40q15 21 19 79h-160zM183 499h161
q-3 64 -25.5 91.5t-71.5 27.5q-40 0 -55 -21q-9 -13 -9 -66v-32z" />
    <glyph glyph-name="onenarrow" unicode="&#xec02;" horiz-adv-x="387" 
d="M51 548v40q74 4 112.5 18t68.5 47h27v-520q0 -40 4 -55q8 -32 35 -37q14 -3 78 -4v-37h-325v37q42 1 54 2q39 4 52 15q17 15 17 78v299q0 45 -2 58q-6 36 -25.5 47t-95.5 12z" />
    <glyph glyph-name="oneone" unicode="&#xec03;" horiz-adv-x="749" 
d="M274 261h-207v28q57 2 66.5 9t9.5 44v176q0 45 -9.5 55.5t-51.5 10.5q-8 0 -15 1v29q82 5 113 39h22v-310q0 -39 9 -45.5t63 -8.5v-28zM522 667h44l-340 -667h-43zM499 324v29q82 5 113 39h22v-310q0 -39 9 -45.5t63 -8.5v-28h-207v28q57 2 66.5 9t9.5 44v176
q0 45 -9.5 55.5t-51.5 10.5q-8 0 -15 1z" />
    <glyph glyph-name="space10mm" unicode="&#xec05;" horiz-adv-x="67" 
 />
    <glyph glyph-name="space5mm" unicode="&#xec06;" horiz-adv-x="33" 
 />
    <glyph glyph-name="space2mm" unicode="&#xec07;" horiz-adv-x="13" 
 />
    <glyph glyph-name="space1mm" unicode="&#xec08;" horiz-adv-x="7" 
 />
    <glyph glyph-name="spacehalfmm" unicode="&#xec09;" horiz-adv-x="3" 
 />
    <glyph glyph-name="eightperemspace" unicode="&#xec04;" horiz-adv-x="125" 
 />
    <glyph glyph-name="ft" unicode="&#xec0a;" horiz-adv-x="613" 
d="M440 447h134v-37h-134v-249q0 -73 18.5 -102t51.5 -29q35 0 58.5 38.5t28.5 107.5h19q1 -7 1 -16q0 -71 -30 -119q-32 -51 -96 -51q-79 0 -112 64q-16 31 -16 159v197h-186v-282q0 -67 10 -78t71 -16l12 -1v-33h-263v33l12 1q61 5 71 16t10 78v282h-87v37h87q4 95 24 139
q44 98 142 98q45 0 73.5 -22.5t28.5 -57.5q0 -26 -17.5 -44.5t-41.5 -18.5q-21 0 -37 15t-16 34q0 35 34 50q-17 9 -31 9q-52 0 -71 -69q-10 -37 -11 -133h106q71 0 99 64q14 31 28 122h30v-186z" />
    <glyph glyph-name="fff" unicode="&#xec0b;" horiz-adv-x="850" 
d="M13 447h87q0 97 29 149q49 88 162 88q72 0 139 -42q52 42 125 42q72 0 136 -41q41 41 103 41q45 0 73.5 -22.5t28.5 -57.5q0 -26 -17.5 -44.5t-42.5 -18.5q-21 0 -37 15t-16 34q0 35 34 50q-17 9 -31 9q-52 0 -71 -69q-10 -37 -11 -133h113v-37h-113v-282q0 -67 10 -78
t71 -16l12 -1v-33h-235v33l8 1q41 1 49 14t8 80v282h-186v-282q0 -67 8 -80t49 -14l8 -1v-33h-207v33l8 1q41 1 49 14t8 80v282h-187v-282q0 -67 8 -80t49 -14l8 -1v-33h-235v33l12 1q61 5 71 16t10 78v282h-87v37zM177 447h187q0 104 35 159q-46 43 -105 43q-90 0 -109 -82
q-8 -34 -8 -120zM441 447h186q4 104 35 159q-46 43 -104 43q-90 0 -109 -82q-8 -34 -8 -120z" />
    <glyph glyph-name="fft" unicode="&#xec0c;" horiz-adv-x="877" 
d="M13 447h87q0 96 29 148q50 89 162 89q73 0 137 -41q41 41 103 41q44 0 72.5 -22.5t28.5 -57.5q0 -26 -17.5 -44.5t-41.5 -18.5q-21 0 -37 15t-16 34q0 35 34 50q-17 9 -31 9q-52 0 -71 -69q-10 -37 -11 -133h106q71 0 99 64q14 31 28 122h30v-186h133v-37h-133v-249
q0 -75 17 -101q19 -30 52 -30q35 0 58.5 38.5t28.5 107.5h19q1 -7 1 -16q0 -71 -30 -119q-32 -51 -96 -51q-78 0 -111 64q-16 31 -16 159v197h-186v-282q0 -67 10 -78t71 -16l12 -1v-33h-235v33l8 1q41 1 49 14t8 80v282h-187v-282q0 -67 8 -80t49 -14l8 -1v-33h-235v33
l12 1q61 5 71 16t10 78v282h-87v37zM177 447h187q4 104 35 159q-46 43 -105 43q-89 0 -109 -82q-8 -33 -8 -120z" />
    <glyph glyph-name="currency_2" unicode="&#xec13;" horiz-adv-x="487" 
d="M135 191l-62 -62l-28 28l62 62q-37 50 -37 108q0 59 37 108l-62 62l28 28l62 -62q50 37 108 37t108 -37l62 62l28 -28l-62 -62q37 -50 37 -108t-37 -108l62 -62l-28 -28l-62 62q-50 -37 -108 -37q-59 0 -108 37zM243 440q-46 0 -79.5 -33t-33.5 -80q0 -46 33 -79.5
t78 -33.5q48 0 81.5 32.5t33.5 79.5t-33 80.5t-80 33.5z" />
    <glyph glyph-name="Dotaccent" unicode="&#xefed;" 
d="M251 841q23 0 38.5 -16t15.5 -39q0 -22 -16 -38t-38 -16t-38.5 16.5t-16.5 38.5t16.5 38t38.5 16z" />
    <glyph glyph-name="Breve" unicode="&#xefee;" 
d="M350 850h37q-25 -121 -140 -121q-57 0 -92.5 32t-41.5 89h35q5 -25 32.5 -40.5t68.5 -15.5q78 0 101 56z" />
    <glyph glyph-name="Ogonek" unicode="&#xeff1;" horiz-adv-x="525" 
d="M417 0h39q-45 -38 -45 -83q0 -52 50 -52q33 0 76 31l16 -24q-59 -52 -118 -52q-41 0 -66 20.5t-25 54.5q0 52 73 105z" />
    <glyph glyph-name="Cedilla" unicode="&#xeff2;" 
d="M146 -164l21 32q55 -32 97 -32q48 0 48 39q0 34 -40 34q-11 0 -38 -7l39 98h32l-15 -51q91 0 91 -67q0 -37 -32.5 -61t-81.5 -24q-63 0 -121 39z" />
    <glyph glyph-name="Ring" unicode="&#xeff3;" 
d="M250 903q38 0 64.5 -26.5t26.5 -65.5q0 -37 -27 -64t-64 -27t-64.5 27.5t-27.5 64.5q0 38 27 64.5t65 26.5zM250 860q-20 0 -34.5 -14t-14.5 -34t14.5 -34.5t34.5 -14.5t34 14.5t14 33.5q0 21 -14 35t-34 14z" />
    <glyph glyph-name="Tilde" unicode="&#xeff5;" 
d="M371 836h36q-5 -44 -29 -69.5t-61 -25.5q-24 0 -106 29q-23 8 -38 8q-28 0 -42 -33h-38q17 95 86 95q20 0 85 -23q45 -16 64 -16q27 0 43 35z" />
    <glyph glyph-name="Circumflex" unicode="&#xeff7;" 
d="M219 864h63l7 -9q21 -27 76 -92l22 -26q2 -2 8 -11h-47q-9 6 -48 34q-18 13 -52 38q-13 -9 -86 -65l-9 -7h-48l9 11q57 70 105 127z" />
    <glyph glyph-name="Commabelow" unicode="&#xf634;" 
d="M191 -289l-20 20q78 65 78 98q0 9 -16 14q-40 11 -40 50q0 23 16 38.5t39 15.5q27 0 44 -18.5t17 -47.5q0 -87 -118 -170z" />
    <glyph glyph-name="zeronarrow" unicode="&#xf639;" horiz-adv-x="487" 
d="M243 664q72 0 126 -74q78 -106 78 -263q0 -76 -24 -151t-64 -124q-50 -62 -116 -62q-72 0 -126 74q-78 106 -78 267q0 73 24.5 148.5t63.5 122.5q51 62 116 62zM246 631q-61 0 -86 -81q-18 -58 -18 -219q0 -178 23 -239q26 -69 80 -69q61 0 86 81q18 58 18 223
q0 175 -23 235q-27 69 -80 69z" />
    <glyph glyph-name="twonarrow" unicode="&#xf63a;" horiz-adv-x="453" 
d="M428 196l-15 -196h-406v24q62 115 106 174q41 57 116 131q55 55 75 91.5t20 82.5q0 59 -28.5 93.5t-78.5 34.5q-71 0 -117 -50q-24 -26 -27 -68q12 5 24 5q61 0 61 -61q0 -28 -16.5 -46.5t-42.5 -18.5q-32 0 -52 25t-20 65q0 77 58 129.5t143 52.5q86 0 142.5 -49.5
t56.5 -124.5q0 -64 -52 -118q-22 -23 -132 -99q-96 -67 -161 -183h200q41 0 53 3q27 5 41 29q11 19 21 74h31z" />
    <glyph glyph-name="threenarrow" unicode="&#xf63b;" horiz-adv-x="467" 
d="M243 337q86 -15 125 -40q75 -49 75 -132q0 -73 -63 -124t-155 -51q-82 0 -135 42.5t-53 107.5q0 37 19.5 61t50.5 24q24 0 42 -17t18 -40q0 -25 -18 -41.5t-45 -16.5q-12 0 -31 9q10 -43 50.5 -69.5t95.5 -26.5q126 0 126 147q0 144 -129 144q-17 0 -24 -1q-20 -3 -27 -3
q-27 0 -27 25q0 23 24 23q10 -1 26 -3q7 -1 17 -1q122 0 122 147q0 67 -26 96q-31 34 -91 34q-80 0 -111 -74q15 0 38 -4q37 -13 37 -53q0 -25 -16 -41.5t-41 -16.5q-26 0 -44.5 21.5t-18.5 52.5q0 62 49.5 105t121.5 43q82 0 141 -48t59 -116q0 -58 -48.5 -101t-133.5 -62z
" />
    <glyph glyph-name="fournarrow" unicode="&#xf63c;" horiz-adv-x="460" 
d="M264 157h-247v45l289 451h43v-451h89v-45h-89v-48q0 -49 12 -59.5t70 -12.5v-37h-267v37h14q58 0 72 11.5t14 60.5v48zM264 202v322l-207 -322h207z" />
    <glyph glyph-name="fivenarrow" unicode="&#xf63d;" horiz-adv-x="450" 
d="M120 569l-10 -191q50 38 119 38q77 0 136 -53q67 -60 67 -151t-66 -156.5t-158 -65.5q-77 0 -128 44.5t-51 111.5q0 34 19.5 55.5t50.5 21.5q25 0 41 -16t16 -41t-18 -43t-43 -18q-8 0 -23 4q8 -35 38 -57q40 -29 84 -29q135 0 135 183q0 177 -120 177q-49 0 -99 -33
q1 -5 1 -12q0 -53 -30 -53q-24 0 -24 28q0 18 21 52l13 299q95 -28 187 -28q56 0 125 28l11 -10q-80 -102 -208 -102q-49 0 -86 17z" />
    <glyph glyph-name="sixnarrow" unicode="&#xf63e;" horiz-adv-x="487" 
d="M144 392v-93q43 105 128 105q72 0 125 -60.5t53 -142.5q0 -86 -56.5 -148.5t-135.5 -62.5q-93 0 -155.5 92.5t-62.5 229.5q0 145 74 248.5t178 103.5q53 0 90 -31.5t37 -75.5q0 -28 -17.5 -46.5t-44.5 -18.5q-25 0 -42.5 17.5t-17.5 42.5q0 53 55 56q-28 23 -60 23
q-148 0 -148 -239zM262 365q-55 0 -86 -46.5t-31 -127.5q0 -168 112 -168q95 0 95 177q0 165 -90 165z" />
    <glyph glyph-name="sevennarrow" unicode="&#xf63f;" horiz-adv-x="433" 
d="M44 653h387v-32q-78 -133 -109 -204q-58 -133 -58 -221q0 -34 8 -101q2 -17 2 -26q0 -35 -15.5 -57t-40.5 -22q-27 0 -43 26t-16 69q0 108 81 268q60 119 126 210h-194q-46 0 -64 -8q-25 -11 -40.5 -49t-23.5 -106h-26z" />
    <glyph glyph-name="eightnarrow" unicode="&#xf640;" horiz-adv-x="460" 
d="M169 324q-66 37 -87 62q-39 47 -39 108q0 76 54 123t141 47q77 0 128 -42t51 -106q0 -89 -111 -156q134 -69 134 -182q0 -80 -53 -134t-160 -54q-89 0 -148 44t-59 111q0 104 149 179zM268 377l12 8q81 54 81 132q0 114 -127 114q-76 0 -110 -38q-27 -30 -27 -70
q0 -38 39.5 -71.5t131.5 -74.5zM203 308q-113 -72 -113 -158q0 -61 36.5 -94t103.5 -33q72 0 113.5 33t41.5 90q0 52 -55 93q-48 36 -127 69z" />
    <glyph glyph-name="ninenarrow" unicode="&#xf641;" horiz-adv-x="487" 
d="M346 236v111q-36 -98 -128 -98q-70 0 -124 62t-54 143q0 89 66 153q58 57 128 57q92 0 151 -89q63 -95 63 -232q0 -174 -94 -275q-73 -78 -159 -78q-54 0 -92.5 31t-38.5 75q0 30 19.5 50.5t47.5 20.5q25 0 40.5 -17t15.5 -43q0 -49 -48 -60q27 -24 63 -24q29 0 59 16
t47 42q38 57 38 155zM240 631q-97 0 -97 -168q0 -172 97 -172q104 0 104 170t-104 170z" />
    <glyph glyph-name="dotlessj" unicode="&#xf6be;" horiz-adv-x="283" 
d="M206 457v-340q0 -117 -11 -173t-41 -92q-44 -52 -110 -52q-46 0 -79 30.5t-33 72.5q0 26 17.5 44t42.5 18q24 0 39.5 -15.5t15.5 -40.5q0 -42 -40 -57q13 -16 38 -16q47 0 70 53q14 32 14 147v298q0 54 -17.5 66.5t-94.5 13.5v33q15 0 34 1q28 1 61 3q-8 0 60 4
q10 1 34 2z" />
    <glyph glyph-name="Scedilla1" unicode="&#xf6c1;" horiz-adv-x="581" 
d="M339 -20l-9 -31q91 0 91 -67q0 -37 -32.5 -61t-81.5 -24q-63 0 -121 39l21 32q55 -32 97 -32q48 0 48 39q0 34 -40 34q-11 0 -38 -7l32 79q-47 5 -74 16t-73 41q-12 8 -25 8q-17 0 -27.5 -12t-29.5 -54h-27q4 54 4 155q0 22 -4 129h27q35 -122 84 -171q76 -76 166 -76
q65 0 105 34t40 90q0 54 -39 84q-34 26 -149 64q-148 49 -193 112q-34 48 -34 112q0 76 51 125t130 49q69 0 154 -51q17 -10 28 -10q22 0 42 44l5 11h28q-8 -121 -8 -164q0 -51 3 -98h-28q-28 112 -79 164q-65 67 -148 67q-54 0 -88.5 -31.5t-34.5 -81.5q0 -46 33.5 -78.5
t146.5 -67.5q137 -42 188 -90t51 -132q0 -81 -51 -131t-141 -58z" />
    <glyph glyph-name="scedilla1" unicode="&#xf6c2;" horiz-adv-x="408" 
d="M239 -11l-12 -32h15q35 0 56 -18t21 -47q0 -35 -31.5 -57.5t-79.5 -22.5q-55 0 -105 30l18 30q47 -26 83 -26q47 0 47 39q0 33 -39 33q-10 0 -36 -6l32 80q-31 6 -66 22q-31 14 -44 14q-22 0 -32 -38h-24v187h24q36 -81 59 -105q51 -54 116 -54q37 0 61.5 22t24.5 56
q0 31 -25.5 54t-110.5 43q-146 35 -146 140q0 53 35.5 88.5t88.5 35.5q34 0 82 -22q15 -7 26 -7q16 0 38 28h21v-165h-21q-21 69 -56 99q-45 39 -95 39q-32 0 -54.5 -19.5t-22.5 -47.5q0 -34 33 -55q18 -11 103.5 -36t117.5 -55.5t32 -88.5q0 -57 -38 -96.5t-96 -41.5z" />
    <glyph glyph-name="Acute" unicode="&#xf6c9;" 
d="M211 726h-34l100 101q49 49 67 49q14 0 24 -10t10 -23q0 -27 -71 -65z" />
    <glyph glyph-name="Caron" unicode="&#xf6ca;" 
d="M282 726h-63q-5 5 -26 31l-36 45q-16 18 -45 53l-7 9h48q2 -1 48 -34q30 -21 51 -38q12 11 86 65l10 7h47z" />
    <glyph glyph-name="Dieresis" unicode="&#xf6cb;" horiz-adv-x="525" 
d="M164 841q23 0 38.5 -16t15.5 -39q0 -22 -16 -38t-38 -16t-38.5 16.5t-16.5 38.5t16.5 38t38.5 16zM361 841q23 0 38.5 -16t15.5 -39q0 -22 -16 -38t-38 -16t-38.5 16.5t-16.5 38.5t16.5 38t38.5 16z" />
    <glyph glyph-name="Grave" unicode="&#xf6ce;" 
d="M318 726h-34l-96 52q-71 38 -71 65q0 13 10 23t24 10q16 0 37 -18q15 -16 30 -31z" />
    <glyph glyph-name="Hungarumlaut" unicode="&#xf6cf;" 
d="M170 726h-34l100 101q49 49 67 49q14 0 24 -10t10 -23q0 -27 -71 -65zM323 726h-34l100 101q49 49 68 49q14 0 24 -10t10 -23q0 -27 -71 -65z" />
    <glyph glyph-name="Macron" unicode="&#xf6d0;" 
d="M109 756v57h282v-57h-282z" />
    <glyph glyph-name="onefitted" unicode="&#xf6dc;" horiz-adv-x="427" 
d="M71 548v40q74 4 112.5 18t68.5 47h27v-520q0 -40 4 -55q8 -32 35 -37q14 -3 78 -4v-37h-325v37q42 1 54 2q39 4 52 15q17 15 17 78v299q0 45 -2 58q-6 36 -25.5 47t-95.5 12z" />
    <glyph glyph-name="centsuperior" unicode="&#xf6e0;" horiz-adv-x="316" 
d="M177 628v-39q32 -1 52 -14q38 -25 38 -64q0 -18 -12.5 -31.5t-28.5 -13.5q-37 0 -37 37q0 36 40 38q-15 22 -45 22q-74 0 -74 -112q0 -110 73 -110q37 0 77 47l18 -13q-38 -67 -101 -69v-41h-29v44q-45 12 -72.5 49.5t-27.5 87.5q0 48 27.5 86t72.5 52v44h29z" />
    <glyph glyph-name="commasuperior" unicode="&#xf6e2;" horiz-adv-x="167" 
d="M40 151l-18 16q58 58 58 81q0 4 -11 8q-31 10 -31 40q0 18 12 30t29 12q20 0 32.5 -14.5t12.5 -37.5q0 -67 -84 -135z" />
    <glyph glyph-name="dollarsuperior" unicode="&#xf6e4;" horiz-adv-x="316" 
d="M148 705h27v-46q99 -8 99 -73q0 -20 -12.5 -33t-31.5 -13q-16 0 -27.5 11t-11.5 27q0 37 42 37q-26 18 -68 18q-40 0 -63.5 -16.5t-23.5 -44.5q0 -36 57 -64l58 -29q94 -47 94 -113q0 -46 -30.5 -76t-81.5 -34v-63h-27v62q-119 14 -119 94q0 49 45 49q17 0 28.5 -11
t11.5 -28q0 -16 -12 -27.5t-29 -11.5q-6 0 -12 2q16 -41 90 -41q44 0 69.5 17.5t25.5 47.5q0 44 -63 75l-63 31q-78 38 -78 105q0 87 106 101v47z" />
    <glyph glyph-name="hyphensuperior" unicode="&#xf6e6;" horiz-adv-x="140" 
d="M5 379v46h130v-46h-130z" />
    <glyph glyph-name="periodsuperior" unicode="&#xf6e8;" horiz-adv-x="175" 
d="M87 339q17 0 29 -12t12 -29q0 -16 -12 -28.5t-29 -12.5q-16 0 -28.5 12.5t-12.5 28.5q0 17 12.5 29t28.5 12z" />
    <glyph glyph-name="asuperior" unicode="&#xf6e9;" horiz-adv-x="299" 
d="M267 344h20q-3 -88 -53 -88q-34 0 -47 50q-40 -50 -90 -50q-33 0 -54.5 18t-21.5 46q0 39 48 65q15 8 113 41l3 1v20q0 39 -9 50q-15 18 -50 18q-29 0 -45 -13q27 -9 27 -36q0 -14 -10.5 -24.5t-24.5 -10.5q-17 0 -28.5 12t-11.5 29q0 28 30 47t73 19q60 0 85 -25
q15 -15 15 -66v-124q0 -27 11 -27q17 0 20 48zM185 380v23q-102 -39 -102 -78q0 -33 36 -33q29 0 47.5 24.5t18.5 63.5z" />
    <glyph glyph-name="esuperior" unicode="&#xf6ec;" horiz-adv-x="298" 
d="M272 389h-185q0 -102 85 -102q46 0 82 56l20 -12q-39 -75 -114 -75q-58 0 -96 38.5t-38 97.5t38 102t90 43t85 -41.5t33 -106.5zM88 416h75q30 0 39 6t9 24q0 28 -15 45.5t-40 17.5q-65 0 -68 -93z" />
    <glyph glyph-name="isuperior" unicode="&#xf6ed;" horiz-adv-x="179" 
d="M120 541v-208q0 -32 5 -38.5t32 -7.5v-26h-134v26h9q25 0 29.5 7t4.5 46v121q0 31 -7 37t-43 7v26q8 1 19 2l33 2l32 4q2 0 20 2zM90 672q17 0 28.5 -12t11.5 -29q0 -16 -12 -27.5t-28 -11.5t-28 12t-12 28q0 17 12 28.5t28 11.5z" />
    <glyph glyph-name="lsuperior" unicode="&#xf6ee;" horiz-adv-x="172" 
d="M114 678v-345q0 -32 5 -38.5t32 -7.5v-26h-134v26l9 1q26 0 30 6.5t4 45.5v257q0 32 -6.5 38t-40.5 6v26q16 2 18 2l32 3q5 0 32 3q4 1 19 3z" />
    <glyph glyph-name="msuperior" unicode="&#xf6ef;" horiz-adv-x="503" 
d="M347 261v26h9q25 0 29.5 7t4.5 46v84q0 41 -9 56t-34 15q-65 0 -65 -139v-23q0 -32 5 -38.5t32 -7.5v-26h-134v26h9q25 0 29.5 7t4.5 46v84q0 73 -42 73q-29 0 -47.5 -38.5t-18.5 -99.5v-26q0 -32 5 -38.5t32 -7.5v-26h-134v26h9q25 0 29.5 7t4.5 46v121q0 31 -6.5 37
t-40.5 7v26l50 4l32 4l19 2v-68q30 64 82 64q57 0 74 -70q33 70 89 70q47 0 66 -37q13 -25 13 -85v-82q0 -33 5 -39t32 -7v-26h-134z" />
    <glyph glyph-name="osuperior" unicode="&#xf6f0;" horiz-adv-x="299" 
d="M150 537q49 0 86.5 -42.5t37.5 -98.5t-37.5 -98.5t-86.5 -42.5q-50 0 -87 42.5t-37 99.5q0 55 37.5 97.5t86.5 42.5zM150 512q-51 0 -59 -58q-3 -18 -3 -57q0 -66 13.5 -91.5t48.5 -25.5t48.5 25.5t13.5 91.5q0 64 -13.5 89.5t-48.5 25.5z" />
    <glyph glyph-name="rsuperior" unicode="&#xf6f1;" horiz-adv-x="271" 
d="M120 542v-92q35 85 90 85q24 0 39 -14t15 -36q0 -19 -11 -32t-28 -13q-16 0 -27 11t-11 25q0 21 22 36h-3q-32 0 -59 -53t-27 -116v-16q0 -29 7.5 -34t50.5 -6v-26h-169v26q43 1 50 7.5t7 45.5v121q0 32 -6.5 38t-40.5 6v26l21 2q12 1 31 3q-5 0 31 4z" />
    <glyph glyph-name="ssuperior" unicode="&#xf6f2;" horiz-adv-x="268" 
d="M31 255v117h20q22 -48 37 -63q31 -31 69 -31q21 0 35.5 12t14.5 31q0 16 -15 29t-66 25q-93 21 -93 86q0 33 23 55t57 22q20 0 51 -13q10 -4 15 -4q8 0 17 10l5 6h18v-104h-19q-25 82 -90 82q-18 0 -31 -10.5t-13 -25.5q0 -19 19 -30q5 -3 63 -21q53 -15 73.5 -34
t20.5 -54q0 -36 -25 -60.5t-62 -24.5q-27 0 -61 15q-18 8 -25 8q-11 0 -18 -23h-20z" />
    <glyph glyph-name="tsuperior" unicode="&#xf6f3;" horiz-adv-x="221" 
d="M110 531h82v-28h-82v-144q0 -74 39 -74q43 0 51 86h18q1 -5 1 -12q0 -47 -22 -75.5t-59 -28.5q-52 0 -72 39q-10 19 -10 96v113h-43v24q37 10 50 30.5t22 83.5h25v-110z" />
    <glyph glyph-name="ff" unicode="&#xfb00;" horiz-adv-x="587" 
d="M440 447h114v-37h-114v-282q0 -67 10 -78t71 -16l12 -1v-33h-235v33l8 1q41 1 49 14t8 80v282h-186v-282q0 -67 8 -80t49 -14l8 -1v-33h-235v33l12 1q61 5 71 16t10 78v282h-87v37h87q0 97 29 149q49 88 162 88q72 0 136 -41q41 41 104 41q45 0 73.5 -22.5t28.5 -57.5
q0 -26 -17.5 -44.5t-42.5 -18.5q-21 0 -37 15t-16 34q0 35 34 50q-17 9 -31 9q-53 0 -72 -69q-10 -37 -11 -133zM177 447h186q4 104 35 159q-46 43 -104 43q-90 0 -109 -82q-8 -34 -8 -120z" />
    </font>
</defs>
</svg>
