<svg width="14" height="14" viewBox="0 0 14 14" fill="none" xmlns="http://www.w3.org/2000/svg">
<g clip-path="url(#clip0)">
<path d="M14.001 2.65952C13.4857 2.88784 12.9328 3.04269 12.3519 3.11182C12.945 2.75662 13.3991 2.19324 13.6143 1.52398C13.0579 1.85291 12.4437 2.09176 11.7893 2.22124C11.2653 1.66222 10.52 1.31403 9.69323 1.31403C8.10716 1.31403 6.82115 2.60004 6.82115 4.18525C6.82115 4.41007 6.84652 4.62966 6.89552 4.83963C4.50898 4.71976 2.39276 3.57636 0.976401 1.83891C0.728816 2.26235 0.58797 2.75573 0.58797 3.2824C0.58797 4.27885 1.09538 5.15807 1.86524 5.67245C1.39457 5.65671 0.951901 5.52724 0.564362 5.31202V5.34789C0.564362 6.73888 1.55468 7.89978 2.8678 8.164C2.62721 8.22874 2.37352 8.26461 2.11106 8.26461C1.92561 8.26461 1.74626 8.24624 1.57042 8.21124C1.93609 9.35291 2.9964 10.1831 4.25268 10.2059C3.27023 10.9757 2.03146 11.4333 0.68597 11.4333C0.454147 11.4333 0.2258 11.4193 0.000976562 11.3939C1.27212 12.2101 2.78121 12.6861 4.40315 12.6861C9.68628 12.6861 12.5741 8.31011 12.5741 4.51507L12.5645 4.14327C13.1287 3.74081 13.6169 3.23516 14.001 2.65952Z" fill="white"/>
</g>
<defs>
<clipPath id="clip0">
<rect width="14" height="14" fill="white"/>
</clipPath>
</defs>
</svg>
