<svg width="14" height="14" viewBox="0 0 14 14" fill="none" xmlns="http://www.w3.org/2000/svg">
<g clip-path="url(#clip0)">
<path d="M13.4202 9.4563C13.0033 8.95634 12.5128 8.52965 12.0487 8.07655C11.63 7.66814 11.6036 7.43122 11.9402 6.95984C12.3075 6.44538 12.7026 5.95064 13.0733 5.43849C13.4193 4.95986 13.773 4.48254 13.9551 3.90946C14.0706 3.54486 13.9684 3.38382 13.5946 3.31998C13.5301 3.30881 13.4635 3.30823 13.398 3.30823L11.1798 3.30562C10.9066 3.30156 10.7556 3.42067 10.6589 3.66282C10.5285 3.99012 10.394 4.31714 10.2386 4.63299C9.88607 5.34912 9.49231 6.04132 8.94027 6.62746C8.81854 6.75673 8.6839 6.92009 8.4805 6.85277C8.22602 6.75992 8.15101 6.34063 8.15522 6.19888L8.15304 3.63859C8.10371 3.27283 8.02261 3.10976 7.65947 3.03867L5.35525 3.0391C5.04767 3.0391 4.89345 3.15792 4.72921 3.35031C4.63447 3.46144 4.60589 3.53355 4.80059 3.5704C5.18303 3.64294 5.39848 3.89045 5.45565 4.27391C5.54734 4.8866 5.54095 5.50175 5.48814 6.11691C5.47262 6.29652 5.44172 6.4757 5.37048 6.64341C5.25906 6.90703 5.07915 6.96071 4.84281 6.79851C4.62881 6.65168 4.47851 6.44451 4.33139 6.23646C3.77877 5.45561 3.33786 4.61355 2.97834 3.72868C2.87446 3.47305 2.69528 3.3181 2.42441 3.31389C1.75891 3.3033 1.09327 3.30156 0.427769 3.31447C0.0273378 3.32201 -0.0920661 3.51643 0.071008 3.87943C0.795846 5.49174 1.60266 7.05923 2.65582 8.48714C3.19655 9.21996 3.81736 9.86688 4.61938 10.3253C5.52833 10.845 6.50678 11.0014 7.53731 10.9533C8.01985 10.9306 8.16479 10.8051 8.18714 10.3242C8.20222 9.99514 8.23951 9.66797 8.40186 9.37229C8.56116 9.08213 8.80244 9.02685 9.08056 9.20733C9.2197 9.29772 9.33692 9.41277 9.44762 9.53406C9.71922 9.83119 9.9811 10.1373 10.263 10.4244C10.6166 10.7842 11.0354 10.9968 11.5621 10.9534L13.6008 10.9539C13.9293 10.9324 14.0996 10.5296 13.911 10.163C13.7785 9.9062 13.6047 9.67755 13.4202 9.4563Z" fill="white"/>
</g>
<defs>
<clipPath id="clip0">
<rect width="14" height="14" fill="white"/>
</clipPath>
</defs>
</svg>
